<svg width="50" height="49" viewBox="0 0 50 49" fill="none" xmlns="http://www.w3.org/2000/svg">
<path d="M24.5947 44.5859C35.6404 44.5859 44.5947 35.6316 44.5947 24.5859C44.5947 13.5402 35.6404 4.58594 24.5947 4.58594C13.549 4.58594 4.59473 13.5402 4.59473 24.5859C4.59473 35.6316 13.549 44.5859 24.5947 44.5859Z" fill="#FFC31F"/>
<path d="M24.5948 14.7481C27.7989 14.7481 28.1784 14.7603 29.4438 14.8181C30.6137 14.8714 31.2491 15.0669 31.672 15.2312C32.2321 15.4489 32.6319 15.709 33.0518 16.1289C33.4717 16.5488 33.7317 16.9485 33.9494 17.5087C34.1138 17.9315 34.3092 18.5669 34.3626 19.7369C34.4203 21.0022 34.4326 21.3818 34.4326 24.5859C34.4326 27.79 34.4203 28.1696 34.3626 29.4349C34.3092 30.6049 34.1138 31.2403 33.9494 31.6631C33.7317 32.2233 33.4717 32.623 33.0518 33.0429C32.6319 33.4628 32.2321 33.7229 31.672 33.9406C31.2491 34.1049 30.6137 34.3004 29.4438 34.3537C28.1786 34.4115 27.7991 34.4237 24.5948 34.4237C21.3904 34.4237 21.0109 34.4115 19.7457 34.3537C18.5757 34.3004 17.9403 34.1049 17.5175 33.9406C16.9573 33.7229 16.5576 33.4628 16.1377 33.0429C15.7178 32.623 15.4577 32.2233 15.24 31.6631C15.0757 31.2403 14.8802 30.6049 14.8269 29.4349C14.7691 28.1696 14.7569 27.79 14.7569 24.5859C14.7569 21.3818 14.7691 21.0022 14.8269 19.7369C14.8802 18.5669 15.0757 17.9315 15.24 17.5087C15.4577 16.9485 15.7178 16.5488 16.1377 16.1289C16.5576 15.709 16.9573 15.4489 17.5175 15.2312C17.9403 15.0669 18.5757 14.8714 19.7457 14.8181C21.011 14.7603 21.3906 14.7481 24.5948 14.7481ZM24.5948 12.5859C21.3357 12.5859 20.9271 12.5998 19.6471 12.6582C18.3699 12.7164 17.4976 12.9193 16.7343 13.2159C15.9452 13.5226 15.276 13.9329 14.6088 14.6C13.9417 15.2672 13.5314 15.9364 13.2247 16.7255C12.9281 17.4888 12.7252 18.3611 12.6669 19.6383C12.6085 20.9183 12.5947 21.3269 12.5947 24.5859C12.5947 27.8449 12.6085 28.2535 12.6669 29.5335C12.7252 30.8107 12.9281 31.683 13.2247 32.4463C13.5314 33.2354 13.9417 33.9046 14.6088 34.5718C15.276 35.2389 15.9452 35.6492 16.7343 35.9558C17.4976 36.2525 18.3699 36.4554 19.6471 36.5136C20.9271 36.572 21.3357 36.5859 24.5948 36.5859C27.8537 36.5859 28.2624 36.572 29.5423 36.5136C30.8196 36.4554 31.6919 36.2525 32.4552 35.9558C33.2443 35.6492 33.9135 35.2389 34.5807 34.5718C35.2478 33.9046 35.6581 33.2354 35.9648 32.4463C36.2614 31.683 36.4643 30.8107 36.5225 29.5335C36.5809 28.2535 36.5947 27.8449 36.5947 24.5859C36.5947 21.3269 36.5809 20.9183 36.5225 19.6383C36.4643 18.3611 36.2614 17.4888 35.9648 16.7255C35.6581 15.9364 35.2478 15.2672 34.5807 14.6C33.9135 13.9329 33.2443 13.5226 32.4552 13.2159C31.6919 12.9193 30.8196 12.7164 29.5423 12.6582C28.2624 12.5998 27.8537 12.5859 24.5948 12.5859Z" fill="#3F3F22"/>
<path d="M24.6007 18.4297C21.1973 18.4297 18.4385 21.1885 18.4385 24.5918C18.4385 27.9951 21.1973 30.754 24.6007 30.754C28.0039 30.754 30.7628 27.9951 30.7628 24.5918C30.7628 21.1885 28.0039 18.4297 24.6007 18.4297ZM24.6007 28.5918C22.3915 28.5918 20.6006 26.801 20.6006 24.5918C20.6006 22.3827 22.3915 20.5918 24.6007 20.5918C26.8098 20.5918 28.6006 22.3827 28.6006 24.5918C28.6006 26.801 26.8098 28.5918 24.6007 28.5918Z" fill="#3F3F22"/>
<path d="M32.4454 18.1822C32.4454 18.9775 31.8007 19.6222 31.0054 19.6222C30.2102 19.6222 29.5654 18.9775 29.5654 18.1822C29.5654 17.3869 30.2102 16.7422 31.0054 16.7422C31.8007 16.7422 32.4454 17.3869 32.4454 18.1822Z" fill="#3F3F22"/>
</svg>
