<svg width="49" height="49" viewBox="0 0 49 49" fill="none" xmlns="http://www.w3.org/2000/svg">
<circle cx="24.0947" cy="24.5859" r="20" fill="#736D5D"/>
<path fill-rule="evenodd" clip-rule="evenodd" d="M36.0947 16.8946C35.2124 17.2866 34.2628 17.5505 33.2669 17.6697C34.2836 17.0602 35.0644 16.0954 35.4316 14.9459C34.4812 15.5107 33.4261 15.9194 32.3054 16.141C31.407 15.1843 30.1263 14.5859 28.7112 14.5859C25.9922 14.5859 23.7875 16.7906 23.7875 19.5096C23.7875 19.8952 23.8315 20.2712 23.9155 20.6319C19.823 20.4271 16.1953 18.4665 13.7666 15.4875C13.3426 16.2146 13.1003 17.0602 13.1003 17.9625C13.1003 19.6704 13.9682 21.1775 15.2905 22.0606C14.4826 22.035 13.7242 21.8135 13.0595 21.4447V21.5063C13.0595 23.8925 14.7577 25.882 17.0088 26.3356C16.596 26.4475 16.1609 26.5083 15.7121 26.5083C15.3945 26.5083 15.0857 26.4771 14.7849 26.4195C15.4113 28.3754 17.2304 29.7993 19.3846 29.8393C17.7 31.1592 15.5769 31.9472 13.2698 31.9472C12.8715 31.9472 12.4795 31.924 12.0947 31.8776C14.2738 33.2743 16.8616 34.0902 19.6422 34.0902C28.6984 34.0902 33.6509 26.5875 33.6509 20.0816C33.6509 19.868 33.6469 19.6552 33.6365 19.4448C34.5996 18.7489 35.4348 17.8817 36.0947 16.8946Z" fill="#F6F6EE"/>
</svg>
