<svg width="50" height="49" viewBox="0 0 50 49" fill="none" xmlns="http://www.w3.org/2000/svg">
<path d="M24.5947 44.5859C35.6404 44.5859 44.5947 35.6316 44.5947 24.5859C44.5947 13.5402 35.6404 4.58594 24.5947 4.58594C13.549 4.58594 4.59473 13.5402 4.59473 24.5859C4.59473 35.6316 13.549 44.5859 24.5947 44.5859Z" fill="#FFC31F"/>
<path fill-rule="evenodd" clip-rule="evenodd" d="M35.8952 16.964C36.2943 17.3631 36.5819 17.8598 36.7293 18.4046C37.5782 21.8217 37.3821 27.2184 36.7458 30.7673C36.5984 31.3121 36.3108 31.8088 35.9117 32.2079C35.5126 32.607 35.0159 32.8946 34.4711 33.042C32.4766 33.5859 24.4491 33.5859 24.4491 33.5859C24.4491 33.5859 16.4216 33.5859 14.4271 33.042C13.8823 32.8946 13.3856 32.607 12.9865 32.2079C12.5874 31.8088 12.2998 31.3121 12.1524 30.7673C11.2986 27.3651 11.5326 21.9651 12.1359 18.4211C12.2833 17.8763 12.5709 17.3796 12.97 16.9805C13.3691 16.5814 13.8658 16.2938 14.4106 16.1464C16.4052 15.6024 24.4326 15.5859 24.4326 15.5859C24.4326 15.5859 32.4601 15.5859 34.4546 16.1299C34.9994 16.2773 35.4961 16.5649 35.8952 16.964ZM28.537 24.5859L21.8777 28.4431V20.7288L28.537 24.5859Z" fill="#3F3F22"/>
</svg>
