<svg width="53" height="53" viewBox="0 0 53 53" fill="none" xmlns="http://www.w3.org/2000/svg">
<circle cx="26.5" cy="26.5" r="26.5" fill="white"/>
<path d="M5.91797 38.8047L6.62891 38.2578L6.68359 37.1094C7.59505 34.8854 8.52474 32.7526 9.47266 30.7109C10.457 28.6693 11.4779 26.5729 12.5352 24.4219C12.8633 23.7292 13.1914 23.0365 13.5195 22.3438C13.8841 21.651 14.2305 20.9401 14.5586 20.2109C14.5221 20.0651 14.5039 19.9193 14.5039 19.7734C14.5039 19.5911 14.5404 19.3906 14.6133 19.1719C15.1237 18.4427 15.5247 17.7865 15.8164 17.2031C16.1445 16.6198 16.4544 16.0182 16.7461 15.3984C17.0742 14.6693 17.4206 13.9401 17.7852 13.2109C18.1862 12.4818 18.6784 11.7708 19.2617 11.0781L19.6445 10.5312L20.2461 10.5859C20.3919 10.513 20.5378 10.4583 20.6836 10.4219C20.8659 10.349 21.0846 10.3125 21.3398 10.3125L22.3242 10.4766C23.5273 9.92969 24.5846 9.14583 25.4961 8.125C26.444 7.06771 27.3919 5.8099 28.3398 4.35156L28.9961 3.42188L29.8711 3.96875C30.0534 4.07812 30.3451 4.1875 30.7461 4.29688C31.1471 4.40625 31.5664 4.53385 32.0039 4.67969C32.7695 4.86198 33.5169 5.08073 34.2461 5.33594C34.9753 5.55469 35.5404 5.86458 35.9414 6.26562L36.2148 6.75781C36.2878 7.15885 36.3424 7.52344 36.3789 7.85156C36.4518 8.17969 36.5247 8.50781 36.5977 8.83594C36.7435 9.60156 36.8711 10.3672 36.9805 11.1328C37.0898 11.862 37.1628 12.6823 37.1992 13.5938C37.3815 14.3229 37.5456 15.0703 37.6914 15.8359C37.8737 16.5651 38.0378 17.2943 38.1836 18.0234C38.3659 19.0807 38.5664 20.1016 38.7852 21.0859C39.0039 22.0339 39.2956 22.9453 39.6602 23.8203C40.0247 23.8203 40.2435 23.8385 40.3164 23.875C40.7539 23.6927 41.2643 23.5833 41.8477 23.5469L42.5586 23.4922L42.7773 24.1484C42.8503 24.2578 42.9414 24.3672 43.0508 24.4766C43.1602 24.5859 43.2878 24.6953 43.4336 24.8047C44.0169 24.8411 44.4362 24.9688 44.6914 25.1875C44.9831 25.3698 45.2201 25.5521 45.4023 25.7344C45.4753 25.8073 45.5664 25.8984 45.6758 26.0078C45.7852 26.0807 45.8763 26.1354 45.9492 26.1719L46.9336 26.5547L46.3867 27.5938C45.9857 28.3594 45.3659 29.1068 44.5273 29.8359C43.7253 30.5651 42.8138 31.1667 41.793 31.6406C41.8659 31.8958 41.9023 32.1328 41.9023 32.3516C41.9388 32.5703 41.9935 32.8255 42.0664 33.1172C42.2122 33.8464 42.3216 34.612 42.3945 35.4141C42.5039 36.1797 42.5039 36.9818 42.3945 37.8203C42.0299 38.7682 41.5924 39.625 41.082 40.3906C40.6081 41.1198 40.0247 41.7943 39.332 42.4141C38.6758 42.9974 37.9284 43.4896 37.0898 43.8906C36.2513 44.2552 35.3763 44.4557 34.4648 44.4922C33.9544 44.3828 33.5716 44.2552 33.3164 44.1094C33.0977 43.9635 32.8971 43.8177 32.7148 43.6719C32.4232 43.4531 32.1862 43.3073 32.0039 43.2344L31.293 42.9062L31.5117 42.0859C31.6211 41.7943 31.6029 41.5391 31.457 41.3203C31.3477 41.1016 31.0924 40.8099 30.6914 40.4453C30.5456 40.3359 30.418 40.2266 30.3086 40.1172C30.1992 39.9714 30.0716 39.8255 29.9258 39.6797L28.832 38.4219L30.6367 37.9297C31.7305 37.638 32.4596 37.2734 32.8242 36.8359C33.1888 36.362 33.3346 35.5417 33.2617 34.375C32.3503 34.1927 31.6029 34.1745 31.0195 34.3203C30.4362 34.4297 29.8529 34.5573 29.2695 34.7031C28.431 34.9219 27.6107 35.1224 26.8086 35.3047C26.0065 35.4505 25.1315 35.5234 24.1836 35.5234C23.5638 35.5234 22.9076 35.4688 22.2148 35.3594L21.6133 35.3047L21.4492 34.7031C21.4492 34.6302 21.3945 34.5573 21.2852 34.4844C21.2122 34.375 21.1393 34.2839 21.0664 34.2109C20.8841 33.9922 20.6654 33.7005 20.4102 33.3359C20.1549 32.9714 20.1003 32.5156 20.2461 31.9688C19.9909 31.5677 19.8451 31.1484 19.8086 30.7109C19.6628 31.0026 19.5352 31.2943 19.4258 31.5859C19.3529 31.8411 19.2799 32.0964 19.207 32.3516L18.9883 33.0625L18.2773 33.1719C18.2044 33.2448 18.1315 33.3542 18.0586 33.5C18.0221 33.6458 18.0221 33.7552 18.0586 33.8281L18.2773 34.4297L17.7305 34.9219C17.6576 35.0312 17.5664 35.1224 17.457 35.1953C17.3477 35.2682 17.2565 35.3411 17.1836 35.4141C17.1107 35.8151 17.0013 36.1979 16.8555 36.5625C16.7461 36.9271 16.6185 37.2917 16.4727 37.6562C16.2904 38.2396 16.1081 38.8047 15.9258 39.3516C15.7799 39.8984 15.707 40.4453 15.707 40.9922L15.4883 41.7031C15.306 41.9948 15.069 42.2135 14.7773 42.3594C14.5221 42.5052 14.2669 42.6328 14.0117 42.7422C13.6471 42.888 13.3919 43.0339 13.2461 43.1797L13.082 43.8906L12.2617 44C11.7878 44.1094 11.4414 44.1823 11.2227 44.2188C11.0404 44.2552 10.8216 44.2734 10.5664 44.2734L9.85547 44.2188C9.41797 43.7812 9.05339 43.4531 8.76172 43.2344C8.50651 42.9792 8.19661 42.7604 7.83203 42.5781L7.50391 42.1406C7.35807 41.849 7.26693 41.5938 7.23047 41.375C7.19401 41.1198 7.13932 40.8646 7.06641 40.6094C6.99349 40.1354 6.88411 39.8073 6.73828 39.625L5.91797 38.8047ZM23.3633 24.5859C22.8529 25.3151 22.3607 26.0807 21.8867 26.8828C22.1419 26.8464 22.3789 26.8281 22.5977 26.8281C22.8529 26.8281 23.1081 26.8099 23.3633 26.7734C24.6393 26.7005 25.8242 26.6094 26.918 26.5C28.0117 26.3906 29.1966 26.2083 30.4727 25.9531C30.181 24.6042 29.8529 23.237 29.4883 21.8516C29.1602 20.4297 28.7956 19.0078 28.3945 17.5859L28.1211 18.1328C27.2096 19.1172 26.3346 20.1745 25.4961 21.3047C24.6576 22.4349 23.9648 23.5104 23.418 24.5312L23.3633 24.5859Z" fill="#030302"/>
</svg>
