<svg width="31" height="30" viewBox="0 0 31 30" fill="none" xmlns="http://www.w3.org/2000/svg">
<mask id="path-1-outside-1_2897_23998" maskUnits="userSpaceOnUse" x="6.54395" y="3.75" width="18" height="22" fill="black">
<rect fill="white" x="6.54395" y="3.75" width="18" height="22"/>
<path d="M21.0222 25.245H16.8008L16.5372 25.2441H13.6421C12.5264 25.2441 11.4115 25.2441 10.2958 25.2459C10.0631 25.2459 9.90468 25.199 9.77904 25.094C9.6242 24.9647 9.55164 24.7954 9.54987 24.5603L9.54722 24.3355C9.54368 24.0422 9.54014 23.7384 9.55076 23.4425C9.55253 23.3826 9.55872 23.1995 9.42777 23.0667C9.30036 22.9374 9.12428 22.9374 9.06588 22.9374C9.05173 22.9374 9.03757 22.9374 9.02253 22.9383C8.89866 22.9435 8.76682 22.9461 8.63145 22.9461C8.50846 22.9461 8.38105 22.9443 8.24213 22.94C7.813 22.927 7.57499 22.6927 7.5741 22.2804C7.57145 21.3145 7.57145 20.3486 7.57233 19.3827C7.57233 18.4168 7.57233 17.45 7.57056 16.4841C7.56968 16.0059 7.56349 15.5208 7.55729 15.0513C7.55021 14.4941 7.54314 13.9179 7.54402 13.3521C7.54756 11.5122 7.55552 9.64203 7.56349 7.83345C7.56703 7.05412 7.57056 6.27393 7.57322 5.49461C7.57499 4.98866 7.81742 4.7526 8.33504 4.75174C9.65605 4.75087 10.9797 4.75087 12.3025 4.75087C13.5802 4.75087 14.8578 4.75087 16.1346 4.75C16.646 4.75 17.0645 4.91923 17.4149 5.2681C17.6759 5.52759 17.944 5.78707 18.2033 6.03875C18.4669 6.29389 18.7394 6.55772 19.0031 6.82067C19.1659 6.98296 19.3562 7.05846 19.6004 7.05846C20.0941 7.05586 20.5807 7.05499 21.0674 7.05499L22.8042 7.05586C23.0343 7.05586 23.1909 7.10359 23.3139 7.2112C23.4732 7.35093 23.5448 7.53491 23.5439 7.80741C23.5413 10.1601 23.5395 12.5137 23.5395 14.8665C23.5395 16.3027 23.5404 17.7399 23.5404 19.1762C23.5413 20.9578 23.5413 22.7404 23.5413 24.5221C23.5413 24.6063 23.5333 24.68 23.5174 24.7425C23.4351 25.0679 23.2113 25.2407 22.8706 25.2433C22.6052 25.2459 22.3406 25.2459 22.0752 25.2459L21.0222 25.245ZM10.2745 22.9409C9.86663 22.9409 9.74895 23.0563 9.74718 23.4538C9.7463 23.7792 9.74541 24.1046 9.7463 24.431C9.74718 24.9117 9.89937 25.0584 10.3949 25.0584H22.7007C23.1785 25.0584 23.3404 24.9022 23.3404 24.4388L23.344 14.935C23.344 14.5558 23.3449 14.1756 23.344 13.7964C23.3431 11.8134 23.3422 9.83036 23.3404 7.84733C23.3404 7.40994 23.1829 7.2546 22.7396 7.25286C22.407 7.25199 22.0743 7.25112 21.7407 7.25112C21.3487 7.25112 20.9568 7.25199 20.5639 7.25199H20.3976C20.3392 7.25199 20.2861 7.2572 20.2242 7.26414C20.195 7.26675 20.1631 7.27022 20.1251 7.27369L19.6366 7.31535L19.9392 7.69372C19.9596 7.71889 19.9746 7.73885 19.987 7.75534C20.0127 7.78832 20.0348 7.81696 20.064 7.84647C20.1481 7.92891 20.2321 8.01222 20.3162 8.09467C20.5453 8.32031 20.7816 8.55376 21.0205 8.78026C21.3815 9.12133 21.5558 9.52921 21.5558 10.0274C21.5531 11.5556 21.554 13.0839 21.5549 14.6122L21.5558 17.5559C21.5558 19.1137 21.5558 20.6706 21.5549 22.2284C21.5549 22.6935 21.301 22.94 20.8223 22.9417C20.6444 22.9426 20.4657 22.9426 20.2879 22.9426L10.2745 22.9409ZM8.41113 4.94613C7.9121 4.94613 7.75991 5.09714 7.75991 5.59181L7.75903 8.25435C7.75814 10.3172 7.75814 12.3801 7.75814 14.4421C7.75814 16.8859 7.75903 19.3306 7.75991 21.7745V22.132C7.75991 22.6015 7.91564 22.7517 8.39874 22.7517H14.8268V22.7508H20.7435C20.9152 22.7508 21.093 22.7404 21.2222 22.6128C21.3514 22.4861 21.3611 22.3125 21.3611 22.1468C21.3585 21.443 21.3549 20.7391 21.3514 20.0353C21.3452 18.7162 21.3381 17.3528 21.3372 16.012C21.3363 15.4609 21.3443 14.8994 21.3523 14.3562C21.3585 13.9101 21.3647 13.4493 21.3664 12.9945C21.3691 12.4209 21.3664 11.8377 21.3647 11.2736C21.3629 10.8266 21.3611 10.3797 21.362 9.93363C21.362 9.87201 21.362 9.68543 21.2169 9.55612C21.0992 9.45024 20.9479 9.43809 20.8444 9.43809C20.2905 9.44156 19.7446 9.4433 19.1987 9.4433C18.7253 9.4433 18.2519 9.44243 17.7786 9.44156L17.5034 9.44069C16.9858 9.43983 16.7442 9.20204 16.7433 8.69174C16.7424 8.2127 16.7424 7.73365 16.7424 7.2546C16.7424 6.68789 16.7424 6.12119 16.7416 5.55449C16.7416 5.51023 16.7424 5.47205 16.7442 5.43907C16.7486 5.31063 16.7531 5.17785 16.6433 5.06676C16.523 4.9444 16.3602 4.9444 16.1142 4.9444H11.4142L8.41113 4.94613ZM20.3887 9.24543C20.4126 9.2515 20.4383 9.25498 20.4666 9.25498C20.5692 9.25498 20.663 9.20811 20.717 9.12914C20.7692 9.05277 20.778 8.95644 20.7418 8.87052L20.7223 8.82452L20.6869 8.78894C20.1613 8.26129 19.6092 7.70501 19.0544 7.14698C18.5156 6.60458 17.9741 6.05958 17.4529 5.5354C17.3963 5.47812 17.3202 5.44688 17.2388 5.44688C17.1574 5.44688 17.0796 5.47986 17.0229 5.53627C16.9663 5.59354 16.9362 5.66991 16.9389 5.75062L16.9398 5.76538C16.9406 5.78621 16.9415 5.82265 16.9433 5.91378C16.9424 6.59504 16.9424 7.27976 16.9424 7.96449V8.72212C16.9424 9.04756 17.1495 9.24977 17.483 9.24977C17.8246 9.24977 18.7279 9.2489 18.7279 9.2489H18.9491C19.4163 9.2489 19.8835 9.2489 20.3507 9.24803C20.3639 9.24716 20.3772 9.2463 20.3887 9.24543Z"/>
</mask>
<path d="M21.0222 25.245H16.8008L16.5372 25.2441H13.6421C12.5264 25.2441 11.4115 25.2441 10.2958 25.2459C10.0631 25.2459 9.90468 25.199 9.77904 25.094C9.6242 24.9647 9.55164 24.7954 9.54987 24.5603L9.54722 24.3355C9.54368 24.0422 9.54014 23.7384 9.55076 23.4425C9.55253 23.3826 9.55872 23.1995 9.42777 23.0667C9.30036 22.9374 9.12428 22.9374 9.06588 22.9374C9.05173 22.9374 9.03757 22.9374 9.02253 22.9383C8.89866 22.9435 8.76682 22.9461 8.63145 22.9461C8.50846 22.9461 8.38105 22.9443 8.24213 22.94C7.813 22.927 7.57499 22.6927 7.5741 22.2804C7.57145 21.3145 7.57145 20.3486 7.57233 19.3827C7.57233 18.4168 7.57233 17.45 7.57056 16.4841C7.56968 16.0059 7.56349 15.5208 7.55729 15.0513C7.55021 14.4941 7.54314 13.9179 7.54402 13.3521C7.54756 11.5122 7.55552 9.64203 7.56349 7.83345C7.56703 7.05412 7.57056 6.27393 7.57322 5.49461C7.57499 4.98866 7.81742 4.7526 8.33504 4.75174C9.65605 4.75087 10.9797 4.75087 12.3025 4.75087C13.5802 4.75087 14.8578 4.75087 16.1346 4.75C16.646 4.75 17.0645 4.91923 17.4149 5.2681C17.6759 5.52759 17.944 5.78707 18.2033 6.03875C18.4669 6.29389 18.7394 6.55772 19.0031 6.82067C19.1659 6.98296 19.3562 7.05846 19.6004 7.05846C20.0941 7.05586 20.5807 7.05499 21.0674 7.05499L22.8042 7.05586C23.0343 7.05586 23.1909 7.10359 23.3139 7.2112C23.4732 7.35093 23.5448 7.53491 23.5439 7.80741C23.5413 10.1601 23.5395 12.5137 23.5395 14.8665C23.5395 16.3027 23.5404 17.7399 23.5404 19.1762C23.5413 20.9578 23.5413 22.7404 23.5413 24.5221C23.5413 24.6063 23.5333 24.68 23.5174 24.7425C23.4351 25.0679 23.2113 25.2407 22.8706 25.2433C22.6052 25.2459 22.3406 25.2459 22.0752 25.2459L21.0222 25.245ZM10.2745 22.9409C9.86663 22.9409 9.74895 23.0563 9.74718 23.4538C9.7463 23.7792 9.74541 24.1046 9.7463 24.431C9.74718 24.9117 9.89937 25.0584 10.3949 25.0584H22.7007C23.1785 25.0584 23.3404 24.9022 23.3404 24.4388L23.344 14.935C23.344 14.5558 23.3449 14.1756 23.344 13.7964C23.3431 11.8134 23.3422 9.83036 23.3404 7.84733C23.3404 7.40994 23.1829 7.2546 22.7396 7.25286C22.407 7.25199 22.0743 7.25112 21.7407 7.25112C21.3487 7.25112 20.9568 7.25199 20.5639 7.25199H20.3976C20.3392 7.25199 20.2861 7.2572 20.2242 7.26414C20.195 7.26675 20.1631 7.27022 20.1251 7.27369L19.6366 7.31535L19.9392 7.69372C19.9596 7.71889 19.9746 7.73885 19.987 7.75534C20.0127 7.78832 20.0348 7.81696 20.064 7.84647C20.1481 7.92891 20.2321 8.01222 20.3162 8.09467C20.5453 8.32031 20.7816 8.55376 21.0205 8.78026C21.3815 9.12133 21.5558 9.52921 21.5558 10.0274C21.5531 11.5556 21.554 13.0839 21.5549 14.6122L21.5558 17.5559C21.5558 19.1137 21.5558 20.6706 21.5549 22.2284C21.5549 22.6935 21.301 22.94 20.8223 22.9417C20.6444 22.9426 20.4657 22.9426 20.2879 22.9426L10.2745 22.9409ZM8.41113 4.94613C7.9121 4.94613 7.75991 5.09714 7.75991 5.59181L7.75903 8.25435C7.75814 10.3172 7.75814 12.3801 7.75814 14.4421C7.75814 16.8859 7.75903 19.3306 7.75991 21.7745V22.132C7.75991 22.6015 7.91564 22.7517 8.39874 22.7517H14.8268V22.7508H20.7435C20.9152 22.7508 21.093 22.7404 21.2222 22.6128C21.3514 22.4861 21.3611 22.3125 21.3611 22.1468C21.3585 21.443 21.3549 20.7391 21.3514 20.0353C21.3452 18.7162 21.3381 17.3528 21.3372 16.012C21.3363 15.4609 21.3443 14.8994 21.3523 14.3562C21.3585 13.9101 21.3647 13.4493 21.3664 12.9945C21.3691 12.4209 21.3664 11.8377 21.3647 11.2736C21.3629 10.8266 21.3611 10.3797 21.362 9.93363C21.362 9.87201 21.362 9.68543 21.2169 9.55612C21.0992 9.45024 20.9479 9.43809 20.8444 9.43809C20.2905 9.44156 19.7446 9.4433 19.1987 9.4433C18.7253 9.4433 18.2519 9.44243 17.7786 9.44156L17.5034 9.44069C16.9858 9.43983 16.7442 9.20204 16.7433 8.69174C16.7424 8.2127 16.7424 7.73365 16.7424 7.2546C16.7424 6.68789 16.7424 6.12119 16.7416 5.55449C16.7416 5.51023 16.7424 5.47205 16.7442 5.43907C16.7486 5.31063 16.7531 5.17785 16.6433 5.06676C16.523 4.9444 16.3602 4.9444 16.1142 4.9444H11.4142L8.41113 4.94613ZM20.3887 9.24543C20.4126 9.2515 20.4383 9.25498 20.4666 9.25498C20.5692 9.25498 20.663 9.20811 20.717 9.12914C20.7692 9.05277 20.778 8.95644 20.7418 8.87052L20.7223 8.82452L20.6869 8.78894C20.1613 8.26129 19.6092 7.70501 19.0544 7.14698C18.5156 6.60458 17.9741 6.05958 17.4529 5.5354C17.3963 5.47812 17.3202 5.44688 17.2388 5.44688C17.1574 5.44688 17.0796 5.47986 17.0229 5.53627C16.9663 5.59354 16.9362 5.66991 16.9389 5.75062L16.9398 5.76538C16.9406 5.78621 16.9415 5.82265 16.9433 5.91378C16.9424 6.59504 16.9424 7.27976 16.9424 7.96449V8.72212C16.9424 9.04756 17.1495 9.24977 17.483 9.24977C17.8246 9.24977 18.7279 9.2489 18.7279 9.2489H18.9491C19.4163 9.2489 19.8835 9.2489 20.3507 9.24803C20.3639 9.24716 20.3772 9.2463 20.3887 9.24543Z" fill="#030302"/>
<path d="M21.0222 25.245H16.8008L16.5372 25.2441H13.6421C12.5264 25.2441 11.4115 25.2441 10.2958 25.2459C10.0631 25.2459 9.90468 25.199 9.77904 25.094C9.6242 24.9647 9.55164 24.7954 9.54987 24.5603L9.54722 24.3355C9.54368 24.0422 9.54014 23.7384 9.55076 23.4425C9.55253 23.3826 9.55872 23.1995 9.42777 23.0667C9.30036 22.9374 9.12428 22.9374 9.06588 22.9374C9.05173 22.9374 9.03757 22.9374 9.02253 22.9383C8.89866 22.9435 8.76682 22.9461 8.63145 22.9461C8.50846 22.9461 8.38105 22.9443 8.24213 22.94C7.813 22.927 7.57499 22.6927 7.5741 22.2804C7.57145 21.3145 7.57145 20.3486 7.57233 19.3827C7.57233 18.4168 7.57233 17.45 7.57056 16.4841C7.56968 16.0059 7.56349 15.5208 7.55729 15.0513C7.55021 14.4941 7.54314 13.9179 7.54402 13.3521C7.54756 11.5122 7.55552 9.64203 7.56349 7.83345C7.56703 7.05412 7.57056 6.27393 7.57322 5.49461C7.57499 4.98866 7.81742 4.7526 8.33504 4.75174C9.65605 4.75087 10.9797 4.75087 12.3025 4.75087C13.5802 4.75087 14.8578 4.75087 16.1346 4.75C16.646 4.75 17.0645 4.91923 17.4149 5.2681C17.6759 5.52759 17.944 5.78707 18.2033 6.03875C18.4669 6.29389 18.7394 6.55772 19.0031 6.82067C19.1659 6.98296 19.3562 7.05846 19.6004 7.05846C20.0941 7.05586 20.5807 7.05499 21.0674 7.05499L22.8042 7.05586C23.0343 7.05586 23.1909 7.10359 23.3139 7.2112C23.4732 7.35093 23.5448 7.53491 23.5439 7.80741C23.5413 10.1601 23.5395 12.5137 23.5395 14.8665C23.5395 16.3027 23.5404 17.7399 23.5404 19.1762C23.5413 20.9578 23.5413 22.7404 23.5413 24.5221C23.5413 24.6063 23.5333 24.68 23.5174 24.7425C23.4351 25.0679 23.2113 25.2407 22.8706 25.2433C22.6052 25.2459 22.3406 25.2459 22.0752 25.2459L21.0222 25.245ZM10.2745 22.9409C9.86663 22.9409 9.74895 23.0563 9.74718 23.4538C9.7463 23.7792 9.74541 24.1046 9.7463 24.431C9.74718 24.9117 9.89937 25.0584 10.3949 25.0584H22.7007C23.1785 25.0584 23.3404 24.9022 23.3404 24.4388L23.344 14.935C23.344 14.5558 23.3449 14.1756 23.344 13.7964C23.3431 11.8134 23.3422 9.83036 23.3404 7.84733C23.3404 7.40994 23.1829 7.2546 22.7396 7.25286C22.407 7.25199 22.0743 7.25112 21.7407 7.25112C21.3487 7.25112 20.9568 7.25199 20.5639 7.25199H20.3976C20.3392 7.25199 20.2861 7.2572 20.2242 7.26414C20.195 7.26675 20.1631 7.27022 20.1251 7.27369L19.6366 7.31535L19.9392 7.69372C19.9596 7.71889 19.9746 7.73885 19.987 7.75534C20.0127 7.78832 20.0348 7.81696 20.064 7.84647C20.1481 7.92891 20.2321 8.01222 20.3162 8.09467C20.5453 8.32031 20.7816 8.55376 21.0205 8.78026C21.3815 9.12133 21.5558 9.52921 21.5558 10.0274C21.5531 11.5556 21.554 13.0839 21.5549 14.6122L21.5558 17.5559C21.5558 19.1137 21.5558 20.6706 21.5549 22.2284C21.5549 22.6935 21.301 22.94 20.8223 22.9417C20.6444 22.9426 20.4657 22.9426 20.2879 22.9426L10.2745 22.9409ZM8.41113 4.94613C7.9121 4.94613 7.75991 5.09714 7.75991 5.59181L7.75903 8.25435C7.75814 10.3172 7.75814 12.3801 7.75814 14.4421C7.75814 16.8859 7.75903 19.3306 7.75991 21.7745V22.132C7.75991 22.6015 7.91564 22.7517 8.39874 22.7517H14.8268V22.7508H20.7435C20.9152 22.7508 21.093 22.7404 21.2222 22.6128C21.3514 22.4861 21.3611 22.3125 21.3611 22.1468C21.3585 21.443 21.3549 20.7391 21.3514 20.0353C21.3452 18.7162 21.3381 17.3528 21.3372 16.012C21.3363 15.4609 21.3443 14.8994 21.3523 14.3562C21.3585 13.9101 21.3647 13.4493 21.3664 12.9945C21.3691 12.4209 21.3664 11.8377 21.3647 11.2736C21.3629 10.8266 21.3611 10.3797 21.362 9.93363C21.362 9.87201 21.362 9.68543 21.2169 9.55612C21.0992 9.45024 20.9479 9.43809 20.8444 9.43809C20.2905 9.44156 19.7446 9.4433 19.1987 9.4433C18.7253 9.4433 18.2519 9.44243 17.7786 9.44156L17.5034 9.44069C16.9858 9.43983 16.7442 9.20204 16.7433 8.69174C16.7424 8.2127 16.7424 7.73365 16.7424 7.2546C16.7424 6.68789 16.7424 6.12119 16.7416 5.55449C16.7416 5.51023 16.7424 5.47205 16.7442 5.43907C16.7486 5.31063 16.7531 5.17785 16.6433 5.06676C16.523 4.9444 16.3602 4.9444 16.1142 4.9444H11.4142L8.41113 4.94613ZM20.3887 9.24543C20.4126 9.2515 20.4383 9.25498 20.4666 9.25498C20.5692 9.25498 20.663 9.20811 20.717 9.12914C20.7692 9.05277 20.778 8.95644 20.7418 8.87052L20.7223 8.82452L20.6869 8.78894C20.1613 8.26129 19.6092 7.70501 19.0544 7.14698C18.5156 6.60458 17.9741 6.05958 17.4529 5.5354C17.3963 5.47812 17.3202 5.44688 17.2388 5.44688C17.1574 5.44688 17.0796 5.47986 17.0229 5.53627C16.9663 5.59354 16.9362 5.66991 16.9389 5.75062L16.9398 5.76538C16.9406 5.78621 16.9415 5.82265 16.9433 5.91378C16.9424 6.59504 16.9424 7.27976 16.9424 7.96449V8.72212C16.9424 9.04756 17.1495 9.24977 17.483 9.24977C17.8246 9.24977 18.7279 9.2489 18.7279 9.2489H18.9491C19.4163 9.2489 19.8835 9.2489 20.3507 9.24803C20.3639 9.24716 20.3772 9.2463 20.3887 9.24543Z" stroke="#030302" stroke-width="0.8" mask="url(#path-1-outside-1_2897_23998)"/>
<path d="M9.53223 12.3906H19.4409" stroke="#030302" stroke-width="0.4" stroke-linecap="round"/>
<path d="M9.53223 15H19.4409" stroke="#030302" stroke-width="0.4" stroke-linecap="round"/>
<path d="M9.53223 17.6094H18.2023" stroke="#030302" stroke-width="0.4" stroke-linecap="round"/>
<path d="M9.53223 20.2188H15.3979" stroke="#030302" stroke-width="0.4" stroke-linecap="round"/>
</svg>
