<svg width="30" height="31" viewBox="0 0 30 31" fill="none" xmlns="http://www.w3.org/2000/svg">
<path d="M11.652 12.7104V7.6875M18.3485 12.7104V7.6875M8.83203 12.7104H21.1663V16.0318C21.1663 17.6674 20.5166 19.2361 19.36 20.3926C18.2034 21.5492 16.6348 22.1989 14.9992 22.1989C13.3635 22.1989 11.7949 21.5492 10.6383 20.3926C9.48178 19.2361 8.83203 17.6674 8.83203 16.0318V12.7104Z" stroke="#1E1E1E" stroke-width="1.5" stroke-linecap="round" stroke-linejoin="round"/>
<path d="M14.9994 22.1987V26.7522C14.9994 27.9351 15.9637 28.9122 17.1337 28.7258C20.4498 28.1801 23.4397 26.408 25.5103 23.7611C27.581 21.1141 28.5812 17.7855 28.3126 14.4356C28.044 11.0857 26.5261 7.95907 24.0601 5.67587C21.5941 3.39267 18.3601 2.11968 14.9994 2.10938C12.0503 2.10828 9.18322 3.08064 6.84319 4.87557C4.50317 6.67049 2.82103 9.1876 2.05782 12.0363C1.29461 14.885 1.493 17.9059 2.62221 20.6303C3.75143 23.3547 5.74831 25.6302 8.30298 27.1037" stroke="#1E1E1E" stroke-width="1.5" stroke-linecap="round" stroke-linejoin="round"/>
</svg>
