<svg width="41" height="41" viewBox="0 0 41 41" fill="none" xmlns="http://www.w3.org/2000/svg">
<path d="M37.8841 0.90625H20.7412C19.9834 0.90625 19.2567 1.20727 18.7209 1.74309C18.1851 2.27891 17.8841 3.00563 17.8841 3.76339V18.0491H3.59835C2.84059 18.0491 2.11387 18.3501 1.57805 18.8859C1.04223 19.4218 0.741211 20.1485 0.741211 20.9062V40.9062H40.7412V3.76339C40.7412 3.00563 40.4402 2.27891 39.9044 1.74309C39.3686 1.20727 38.6418 0.90625 37.8841 0.90625ZM10.7412 38.0491V28.0491H16.4555V38.0491H10.7412ZM37.8841 38.0491H19.3126V26.6205C19.3126 26.2417 19.1621 25.8783 18.8942 25.6104C18.6263 25.3425 18.2629 25.192 17.8841 25.192H9.31264C8.93376 25.192 8.5704 25.3425 8.30249 25.6104C8.03458 25.8783 7.88407 26.2417 7.88407 26.6205V38.0491H3.59835V20.9062H20.7412V3.76339H37.8841V38.0491Z" fill="#2D2B24"/>
<path d="M23.5984 9.47768H26.4555V12.3348H23.5984V9.47768ZM32.1698 9.47768H35.0269V12.3348H32.1698V9.47768ZM23.5984 18.0491H26.4555V20.9062H23.5984V18.0491ZM32.1698 18.0491H35.0269V20.9062H32.1698V18.0491ZM23.5984 26.6205H26.4555V29.4777H23.5984V26.6205ZM32.1698 26.6205H35.0269V29.4777H32.1698V26.6205ZM5.74121 15.192C4.41513 15.192 3.14336 14.6652 2.20568 13.7275C1.268 12.7898 0.741211 11.518 0.741211 10.192C0.741211 8.86588 1.268 7.59411 2.20568 6.65643C3.14336 5.71875 4.41513 5.19196 5.74121 5.19196H6.63692C6.95496 3.96608 7.67065 2.88033 8.67188 2.10478C9.67311 1.32923 10.9033 0.907713 12.1698 0.90625H15.0269V3.76339H12.1698C11.412 3.76339 10.6853 4.06441 10.1495 4.60023C9.61366 5.13605 9.31264 5.86277 9.31264 6.62054V8.04911H5.74121C5.17289 8.04911 4.62785 8.27487 4.22598 8.67674C3.82412 9.0786 3.59835 9.62364 3.59835 10.192C3.59835 10.7603 3.82412 11.3053 4.22598 11.7072C4.62785 12.1091 5.17289 12.3348 5.74121 12.3348H15.0269V15.192H5.74121Z" fill="#2D2B24"/>
</svg>
