<svg width="448" height="447" viewBox="0 0 448 447" fill="none" xmlns="http://www.w3.org/2000/svg">
<path d="M223.887 445C346.218 445 445.387 345.831 445.387 223.5C445.387 101.169 346.218 2 223.887 2C101.556 2 2.38672 101.169 2.38672 223.5C2.38672 345.831 101.556 445 223.887 445Z" fill="#FDFDFC" stroke="#2D2B24" stroke-width="4" stroke-miterlimit="10"/>
<path d="M263.388 338.191C232.332 306.744 201.289 275.285 170.234 243.838C161.678 235.172 152.264 222.306 167.125 213.113C180.247 204.985 190.248 216.235 190.248 216.235L257.133 284.368" stroke="#2D2B24" stroke-width="4" stroke-miterlimit="10" stroke-linecap="round" stroke-linejoin="round"/>
<path d="M317.774 243.318L299.021 222.692C289.644 210.818 300.269 201.442 300.269 201.442C314.016 192.065 322.768 199.569 322.768 199.569L382.149 262.695C417.158 303.947 382.149 345.273 382.149 345.273C362.147 370.342 327.138 373.329 327.138 373.329H225.257C225.257 373.329 209.625 370.82 211.51 350.818C213.395 330.816 232.136 333.95 232.136 333.95L259.678 333.913" stroke="#2D2B24" stroke-width="4" stroke-miterlimit="10" stroke-linecap="round" stroke-linejoin="round"/>
<path d="M288.706 263.543C284.25 258.99 279.782 254.436 275.326 249.895C269.916 244.374 260.172 234.116 258.434 228.363C256.096 220.59 263.734 211.225 269.744 208.263C279.329 203.55 287.873 210.038 295.659 218.142" stroke="#2D2B24" stroke-width="4" stroke-miterlimit="10" stroke-linecap="round" stroke-linejoin="round"/>
<path d="M222.65 249.15C222.65 249.15 217.362 235.734 228.905 226.308C242.652 215.059 256.337 224.974 257.586 227.802" stroke="#2D2B24" stroke-width="4" stroke-miterlimit="10" stroke-linecap="round" stroke-linejoin="round"/>
<path d="M240.998 82.3516H134.527C126.989 82.3516 120.878 88.4623 120.878 96.0002V109.331C120.878 116.869 126.989 122.979 134.527 122.979H240.998C248.536 122.979 254.647 116.869 254.647 109.331V96.0002C254.647 88.4623 248.536 82.3516 240.998 82.3516Z" stroke="#2D2B24" stroke-width="4" stroke-miterlimit="10" stroke-linecap="round" stroke-linejoin="round"/>
<path d="M204.007 343.74H132.128C117.684 343.74 105.871 331.928 105.871 317.484V94.3432C105.871 79.8989 117.684 68.0864 132.128 68.0864H240.264C240.264 68.0864 268.492 64.3407 269.373 97.7829C270.255 131.225 269.373 204.071 269.373 204.071" stroke="#2D2B24" stroke-width="4" stroke-miterlimit="10" stroke-linecap="round" stroke-linejoin="round"/>
<path d="M105.871 282.844H203.848" stroke="#2D2B24" stroke-width="4" stroke-miterlimit="10" stroke-linecap="round" stroke-linejoin="round"/>
<path d="M185.928 328.793C192.83 328.793 198.426 323.197 198.426 316.295C198.426 309.392 192.83 303.797 185.928 303.797C179.025 303.797 173.43 309.392 173.43 316.295C173.43 323.197 179.025 328.793 185.928 328.793Z" stroke="#2D2B24" stroke-width="4" stroke-miterlimit="10" stroke-linecap="round" stroke-linejoin="round"/>
<path d="M148.373 259.885C148.373 259.885 121.492 233.628 148.373 204.25" stroke="#2D2B24" stroke-width="4" stroke-miterlimit="10" stroke-linecap="round" stroke-linejoin="round"/>
<path d="M282.143 146.742H335.893" stroke="#2D2B24" stroke-width="4" stroke-miterlimit="10" stroke-linecap="round" stroke-linejoin="round"/>
<path d="M271.514 172.969H327.149" stroke="#2D2B24" stroke-width="4" stroke-miterlimit="10" stroke-linecap="round" stroke-linejoin="round"/>
<rect x="150.372" y="98.3359" width="79.211" height="6.66959" rx="3.33479" fill="#2D2B24" stroke="#2D2B24" stroke-width="4"/>
</svg>
