<svg width="451" height="451" viewBox="0 0 451 451" fill="none" xmlns="http://www.w3.org/2000/svg">
<path d="M225.887 447C348.218 447 447.387 347.831 447.387 225.5C447.387 103.169 348.218 4 225.887 4C103.556 4 4.38672 103.169 4.38672 225.5C4.38672 347.831 103.556 447 225.887 447Z" fill="#FDFDFC" stroke="#2D2B24" stroke-width="7" stroke-miterlimit="10"/>
<path d="M265.388 340.191C234.332 308.744 203.289 277.285 172.234 245.838C163.678 237.172 154.264 224.306 169.125 215.113C182.247 206.985 192.248 218.235 192.248 218.235L259.133 286.368" stroke="#2D2B24" stroke-width="7" stroke-miterlimit="10" stroke-linecap="round" stroke-linejoin="round"/>
<path d="M319.774 245.318L301.021 224.692C291.644 212.818 302.269 203.442 302.269 203.442C316.016 194.065 324.768 201.569 324.768 201.569L384.149 264.695C419.158 305.947 384.149 347.273 384.149 347.273C364.147 372.342 329.138 375.329 329.138 375.329H227.257C227.257 375.329 211.625 372.82 213.51 352.818C215.395 332.816 234.136 335.95 234.136 335.95L261.678 335.913" stroke="#2D2B24" stroke-width="7" stroke-miterlimit="10" stroke-linecap="round" stroke-linejoin="round"/>
<path d="M290.706 265.543C286.25 260.99 281.782 256.436 277.326 251.895C271.916 246.374 262.172 236.116 260.434 230.363C258.096 222.59 265.734 213.225 271.744 210.263C281.329 205.55 289.873 212.038 297.659 220.142" stroke="#2D2B24" stroke-width="7" stroke-miterlimit="10" stroke-linecap="round" stroke-linejoin="round"/>
<path d="M224.65 251.15C224.65 251.15 219.362 237.734 230.905 228.308C244.652 217.059 258.337 226.974 259.586 229.802" stroke="#2D2B24" stroke-width="7" stroke-miterlimit="10" stroke-linecap="round" stroke-linejoin="round"/>
<path d="M242.998 84.3516H136.527C128.989 84.3516 122.878 90.4623 122.878 98.0002V111.331C122.878 118.869 128.989 124.979 136.527 124.979H242.998C250.536 124.979 256.647 118.869 256.647 111.331V98.0002C256.647 90.4623 250.536 84.3516 242.998 84.3516Z" stroke="#2D2B24" stroke-width="7" stroke-miterlimit="10" stroke-linecap="round" stroke-linejoin="round"/>
<path d="M206.007 345.74H134.128C119.684 345.74 107.871 333.928 107.871 319.484V96.3432C107.871 81.8989 119.684 70.0864 134.128 70.0864H242.264C242.264 70.0864 270.492 66.3407 271.373 99.7829C272.255 133.225 271.373 206.071 271.373 206.071" stroke="#2D2B24" stroke-width="7" stroke-miterlimit="10" stroke-linecap="round" stroke-linejoin="round"/>
<path d="M107.871 284.844H205.848" stroke="#2D2B24" stroke-width="7" stroke-miterlimit="10" stroke-linecap="round" stroke-linejoin="round"/>
<path d="M187.928 330.793C194.83 330.793 200.426 325.197 200.426 318.295C200.426 311.392 194.83 305.797 187.928 305.797C181.025 305.797 175.43 311.392 175.43 318.295C175.43 325.197 181.025 330.793 187.928 330.793Z" stroke="#2D2B24" stroke-width="7" stroke-miterlimit="10" stroke-linecap="round" stroke-linejoin="round"/>
<path d="M150.373 261.885C150.373 261.885 123.492 235.628 150.373 206.25" stroke="#2D2B24" stroke-width="7" stroke-miterlimit="10" stroke-linecap="round" stroke-linejoin="round"/>
<path d="M284.143 148.742H337.893" stroke="#2D2B24" stroke-width="7" stroke-miterlimit="10" stroke-linecap="round" stroke-linejoin="round"/>
<path d="M273.514 174.969H329.149" stroke="#2D2B24" stroke-width="7" stroke-miterlimit="10" stroke-linecap="round" stroke-linejoin="round"/>
<rect x="153.039" y="101.003" width="77.8762" height="5.33479" rx="2.6674" fill="#2D2B24" stroke="#2D2B24" stroke-width="5.33479"/>
</svg>
