<svg width="50" height="49" viewBox="0 0 50 49" fill="none" xmlns="http://www.w3.org/2000/svg">
<path d="M24.5947 44.5859C35.6404 44.5859 44.5947 35.6316 44.5947 24.5859C44.5947 13.5402 35.6404 4.58594 24.5947 4.58594C13.549 4.58594 4.59473 13.5402 4.59473 24.5859C4.59473 35.6316 13.549 44.5859 24.5947 44.5859Z" fill="#FFC31F"/>
<path fill-rule="evenodd" clip-rule="evenodd" d="M29.9098 17.5437C29.2864 17.4191 28.4446 17.3259 27.9151 17.3259C26.4814 17.3259 26.3883 17.9493 26.3883 18.9466V20.722H29.9721L29.6597 24.3997H26.3883V35.5859H21.901V24.3997H19.5947V20.722H21.901V18.4472C21.901 15.3313 23.3655 13.5859 27.0424 13.5859C28.3199 13.5859 29.2549 13.7729 30.47 14.0223L29.9098 17.5437Z" fill="#3F3F22"/>
</svg>
