<svg width="454" height="447" viewBox="0 0 454 447" fill="none" xmlns="http://www.w3.org/2000/svg">
<path d="M223.18 443.3C344.509 443.3 442.865 344.943 442.865 223.615C442.865 102.286 344.509 3.92969 223.18 3.92969C101.851 3.92969 3.49512 102.286 3.49512 223.615C3.49512 344.943 101.851 443.3 223.18 443.3Z" fill="#FDFDFC" stroke="#2D2B24" stroke-width="7" stroke-miterlimit="10"/>
<g clip-path="url(#clip0_3132_22027)">
<path d="M27.5352 315.93L230.452 317.981" stroke="#2D2B24" stroke-width="7" stroke-miterlimit="10" stroke-linecap="round"/>
<path d="M43.3965 344.609L403.803 345.629" stroke="#2D2B24" stroke-width="7" stroke-miterlimit="10" stroke-linecap="round"/>
<mask id="mask0_3132_22027" style="mask-type:luminance" maskUnits="userSpaceOnUse" x="-92" y="56" width="399" height="278">
<path d="M293.637 324.325C294.29 322.576 295.572 319.685 297.111 316.327C302.031 305.369 305.808 296.602 306.088 291.543C306.344 286.67 305.854 282.52 304.525 278.859L304.432 278.556C303.896 277.04 302.963 274.499 300.841 273.03C300.795 272.913 300.748 272.82 300.702 272.704C296.808 267.015 292.168 263.517 287.272 259.833L286.432 259.204C281.186 255.24 275.567 251.3 269.715 247.523C267.477 246.054 265.238 244.561 263.023 243.069C256.635 238.663 250.293 233.953 244.044 228.916C244.114 228.823 244.207 228.73 244.277 228.613L244.557 228.287C244.977 227.751 245.303 227.378 245.606 227.051C246.679 225.862 247.448 224.93 248.311 222.761C249.687 219.24 249.803 215.603 248.637 212.526C247.215 208.795 244.65 206.184 241.2 204.948C236.933 203.409 231.407 204.155 226.441 206.953C224.855 207.839 223.433 208.702 222.034 209.564C218.187 205.904 214.34 202.103 210.539 198.163C213.337 195.645 215.785 192.707 216.648 188.86C218.443 180.909 213.594 172.539 206.086 170.58C200.397 169.088 194.848 171.187 190.115 174.008L183.703 163.446C188.04 160.275 192.656 156.381 193.705 150.529C194.382 146.775 193.309 142.975 190.698 139.874C187.667 136.26 182.887 134.045 178.2 134.045C174.353 134.045 170.739 135.164 167.405 136.703L148.706 105.972C147.377 103.757 143.297 97.0657 136.652 97.8118C133.9 98.1149 131.732 99.7004 130.17 101.029C124.201 106.089 119.934 112.944 117.882 120.475C116.367 120.428 114.851 120.428 113.359 120.498C108.836 120.731 104.406 121.431 100.116 122.13C97.0149 122.62 93.8206 123.133 90.6963 123.436C73.9089 125.068 55.8625 120.894 39.8912 111.708C20.8888 100.75 8.95113 84.1021 -3.68603 66.4987L-6.78703 62.2086C-7.71966 60.9029 -9.02534 59.1076 -11.0305 57.9652C-22.5485 51.4134 -36.7711 67.2915 -46.657 81.7706C-54.4445 93.172 -59.6206 103.711 -62.4418 113.876C-62.5118 113.923 -62.605 113.97 -62.675 114.016C-63.3511 114.553 -79.3924 127.353 -87.0167 152.767L-89.7679 162.863C-90.3042 163.912 -91.3068 166.22 -91.3301 169.181C-91.3301 172.749 -89.9544 177.878 -83.053 182.238C-73.7966 187.624 6.5496 230.176 80.1809 264.543C104.709 276.014 128.514 286.553 148.659 294.504C169.55 302.664 190.325 310.172 210.353 316.794L212.638 317.54C231.174 323.672 250.316 330.037 269.901 332.858L271.347 333.068C278.971 334.211 289.393 335.773 293.66 324.325H293.614H293.637ZM230.078 213.435C233.086 211.733 236.467 211.15 238.658 211.943C240.034 212.432 241.037 213.505 241.666 215.184C242.179 216.513 242.062 218.285 241.363 220.057C240.943 221.106 240.78 221.269 240.081 222.038C239.708 222.481 239.241 222.948 238.705 223.624L238.425 223.95C238.425 223.95 238.332 224.09 238.285 224.137C234.718 221.129 231.174 218.028 227.63 214.81C228.399 214.344 229.192 213.878 230.031 213.388H230.055L230.078 213.435ZM204.547 203.059C208.045 206.673 211.565 210.171 215.086 213.551C214.037 214.088 212.964 214.601 211.775 215.067C208.651 216.326 204.804 216.326 202.239 214.997C200.747 214.228 199.814 213.132 199.464 211.686C198.718 208.585 200.397 206.463 204.571 203.083L204.547 203.059ZM204.174 177.762C207.788 178.718 210.283 183.218 209.374 187.205C208.931 189.233 207.368 191.028 205.387 192.8C201.609 188.79 197.832 184.593 194.055 180.28C197.366 178.345 201.003 176.922 204.174 177.762ZM182.77 178.997C178.97 181.679 175.076 184.08 171.206 184.15C169.201 184.174 166.916 182.821 165.773 180.956C165.237 180.07 164.747 178.718 165.493 177.365C166.146 176.176 167.568 175.127 168.944 174.124L175.029 169.718C177.618 172.912 180.182 176.013 182.747 179.021L182.77 178.997ZM178.2 141.506C180.695 141.506 183.353 142.741 184.962 144.653C185.801 145.633 186.687 147.218 186.338 149.223C185.801 152.254 182.887 154.772 179.763 157.081L171.276 143.138C173.561 142.158 175.892 141.506 178.177 141.482L178.2 141.506ZM135.136 106.905C135.579 106.532 136.722 105.553 137.514 105.459C138.167 105.389 139.659 105.879 142.154 109.983L158.126 136.26C148.823 128.239 137.444 123.016 125.67 121.174C127.419 115.648 130.729 110.659 135.136 106.905ZM-14.8543 64.6335C-14.2714 64.9599 -13.6186 65.8692 -13.0357 66.6853L-9.95798 70.9754C3.16881 89.2783 15.5961 106.579 36.0441 118.376C53.3677 128.356 73.0462 132.879 91.4191 131.107C94.7765 130.78 98.0874 130.267 101.305 129.731C105.572 129.032 109.605 128.402 113.732 128.216C127.978 127.516 142.527 132.739 153.626 142.532C154.162 142.998 154.675 143.557 155.188 144.07L141.128 153.233L145.185 159.459L160.014 149.806C160.97 151.088 161.903 152.417 162.835 153.77C164.234 155.775 165.68 157.873 167.242 159.855C168.291 161.231 169.364 162.536 170.436 163.889L164.607 168.109C162.742 169.461 160.434 171.14 158.988 173.798C157.123 177.225 157.286 181.236 159.455 184.803C161.973 188.93 166.752 191.681 171.369 191.588C177.618 191.495 182.934 188.044 187.69 184.64C191.607 189.116 195.501 193.477 199.418 197.673C194.871 201.427 190.488 206.184 192.237 213.458C193.099 217.002 195.454 219.893 198.835 221.642C203.358 223.997 209.397 224.09 214.55 221.992C216.881 221.059 218.863 220.033 220.728 218.984C224.925 222.854 229.145 226.515 233.389 230.082C231.104 232.694 228.702 235.119 226.184 236.844L230.451 242.953C233.552 240.784 236.467 237.846 239.101 234.839C245.536 240.015 252.042 244.865 258.617 249.411C260.878 250.973 263.163 252.489 265.471 254.004C271.161 257.688 276.64 261.512 281.723 265.359L282.562 265.989C285.64 268.32 288.298 270.325 290.676 272.704C290.373 272.75 290.093 272.797 289.836 272.843C287.225 273.123 284.824 273.1 282.679 272.774C263.56 269.952 244.697 262.561 226.464 255.403L224.482 254.634C224.272 254.564 224.016 254.447 223.76 254.354C223.666 254.331 223.596 254.307 223.503 254.261C206.366 247.453 83.6083 192.614 5.59366 152.371C3.02892 122.97 -9.86471 94.5243 -30.266 73.2137C-23.6677 66.079 -18.0486 62.8382 -14.8543 64.6102V64.6335ZM-40.3384 86.084C-38.6131 83.5426 -36.911 81.2343 -35.2323 79.1126C-17.489 97.8818 -5.90103 122.457 -2.56687 148.081C-27.8179 134.837 -47.3565 123.506 -55.2839 116.581C-52.7424 107.022 -47.8228 97.0191 -40.3618 86.084H-40.3384ZM-60.39 122.27C-60.0869 122.527 -59.7372 122.806 -59.4108 123.086C-50.5974 130.361 -31.9681 141.249 -8.20929 153.77C-7.83624 153.98 -7.43987 154.166 -7.0435 154.376C-5.97098 154.936 -4.85182 155.518 -3.75598 156.101C-2.93993 156.521 -2.12387 156.941 -1.30782 157.384C-0.491769 157.803 0.30097 158.223 1.11702 158.619C2.32944 159.249 3.5885 159.878 4.82423 160.531C5.29055 160.764 5.78018 161.021 6.26981 161.277C7.99518 162.163 9.74386 163.049 11.5159 163.959C11.5625 163.959 11.5858 163.982 11.6324 164.005C94.147 205.927 214.526 259.041 221.754 261.768L223.69 262.538C242.319 269.859 261.601 277.39 281.559 280.351C284.334 280.748 287.388 280.794 290.653 280.444C291.235 280.374 291.958 280.258 292.704 280.118C292.891 280.095 293.054 280.048 293.241 280.025C293.241 280.025 293.31 280.025 293.334 280.001C293.59 279.955 293.87 279.908 294.127 279.862C294.197 279.862 294.266 279.838 294.336 279.815C294.616 279.768 294.896 279.722 295.152 279.675C295.176 279.675 295.199 279.675 295.246 279.675C295.735 279.605 296.178 279.582 296.528 279.558C296.738 280.001 296.994 280.701 297.134 281.121L297.251 281.447C298.09 283.779 298.463 286.53 298.393 289.747C297.018 289.817 295.595 290.051 294.29 290.284C293.544 290.424 292.844 290.54 292.285 290.587C289.697 290.843 282.236 290.68 279.974 290.307C260.435 287.299 241.153 279.698 222.5 272.354L220.425 271.538C212.824 268.647 146.841 239.502 78.8052 207.279C-2.98655 168.552 -54.3512 141.133 -66.8485 129.638C-64.3304 126.35 -62.0221 123.856 -60.39 122.27ZM-79.0893 175.663C-85.4079 171.653 -83.6359 167.479 -82.9597 166.36C-82.7499 166.034 -82.61 165.684 -82.4934 165.311L-79.6489 154.842C-77.4106 147.381 -74.3329 141.086 -71.2086 136.003C-51.4601 153 26.5079 191.355 96.5252 224.067C119.351 234.722 141.315 244.771 160.154 253.282C148.823 256.406 136.302 263.82 122.756 275.362C42.0362 240.225 -68.2708 181.959 -79.066 175.663H-79.0893ZM272.443 325.467L270.951 325.257C252.042 322.529 233.226 316.281 215.016 310.265L212.731 309.496C192.819 302.898 172.185 295.436 151.434 287.346C144.859 284.758 137.887 281.867 130.636 278.766C146.724 265.662 160.784 259.087 172.488 259.204V258.831C197.623 270.115 215.016 277.693 217.651 278.696L219.656 279.488C238.705 286.996 258.383 294.76 278.761 297.908C281.886 298.374 290.023 298.514 292.984 298.234C293.73 298.164 294.639 298.001 295.619 297.838C295.899 297.791 296.225 297.721 296.575 297.675C294.826 302.524 292.098 308.587 290.023 313.156C288.461 316.654 287.108 319.638 286.362 321.643C284.45 326.773 281 326.773 272.373 325.491H272.42L272.443 325.467Z" fill="white"/>
</mask>
<g mask="url(#mask0_3132_22027)">
<path d="M220 447C342.616 447 442 347.616 442 225C442 102.384 342.616 3 220 3C97.384 3 -2 102.384 -2 225C-2 347.616 97.384 447 220 447Z" fill="#2D2B24" stroke="#FDFDFC" stroke-width="3" stroke-miterlimit="10"/>
</g>
<path d="M35.8594 329.986H281.258C281.258 329.986 340.783 322.339 377.296 275.358C413.808 228.376 426.515 149.289 426.515 149.289" stroke="#2D2B24" stroke-width="7" stroke-miterlimit="10" stroke-linecap="round"/>
</g>
<defs>
<clipPath id="clip0_3132_22027">
<rect width="449.995" height="261.93" fill="white" transform="translate(3.49512 92.6562)"/>
</clipPath>
</defs>
</svg>
