<svg width="452" height="443" viewBox="0 0 452 443" fill="none" xmlns="http://www.w3.org/2000/svg">
<path d="M221.18 441.3C342.509 441.3 440.865 342.943 440.865 221.615C440.865 100.286 342.509 1.92969 221.18 1.92969C99.8514 1.92969 1.49512 100.286 1.49512 221.615C1.49512 342.943 99.8514 441.3 221.18 441.3Z" fill="#FDFDFC" stroke="#2D2B24" stroke-width="3" stroke-miterlimit="10"/>
<g clip-path="url(#clip0_3132_22027)">
<path d="M25.5352 313.93L228.452 315.981" stroke="#2D2B24" stroke-width="2" stroke-miterlimit="10" stroke-linecap="round"/>
<path d="M41.3965 342.609L401.803 343.629" stroke="#2D2B24" stroke-width="2" stroke-miterlimit="10" stroke-linecap="round"/>
<mask id="mask0_3132_22027" style="mask-type:luminance" maskUnits="userSpaceOnUse" x="-94" y="54" width="399" height="278">
<path d="M291.637 322.325C292.29 320.576 293.572 317.685 295.111 314.327C300.031 303.369 303.808 294.602 304.088 289.543C304.344 284.67 303.854 280.52 302.525 276.859L302.432 276.556C301.896 275.04 300.963 272.499 298.841 271.03C298.795 270.913 298.748 270.82 298.702 270.704C294.808 265.015 290.168 261.517 285.272 257.833L284.432 257.204C279.186 253.24 273.567 249.3 267.715 245.523C265.477 244.054 263.238 242.561 261.023 241.069C254.635 236.663 248.293 231.953 242.044 226.916C242.114 226.823 242.207 226.73 242.277 226.613L242.557 226.287C242.977 225.751 243.303 225.378 243.606 225.051C244.679 223.862 245.448 222.93 246.311 220.761C247.687 217.24 247.803 213.603 246.637 210.526C245.215 206.795 242.65 204.184 239.2 202.948C234.933 201.409 229.407 202.155 224.441 204.953C222.855 205.839 221.433 206.702 220.034 207.564C216.187 203.904 212.34 200.103 208.539 196.163C211.337 193.645 213.785 190.707 214.648 186.86C216.443 178.909 211.594 170.539 204.086 168.58C198.397 167.088 192.848 169.187 188.115 172.008L181.703 161.446C186.04 158.275 190.656 154.381 191.705 148.529C192.382 144.775 191.309 140.975 188.698 137.874C185.667 134.26 180.887 132.045 176.2 132.045C172.353 132.045 168.739 133.164 165.405 134.703L146.706 103.972C145.377 101.757 141.297 95.0657 134.652 95.8118C131.9 96.1149 129.732 97.7004 128.17 99.0294C122.201 104.089 117.934 110.944 115.882 118.475C114.367 118.428 112.851 118.428 111.359 118.498C106.836 118.731 102.406 119.431 98.1159 120.13C95.0149 120.62 91.8206 121.133 88.6963 121.436C71.9089 123.068 53.8625 118.894 37.8912 109.708C18.8888 98.7496 6.95113 82.1021 -5.68603 64.4987L-8.78703 60.2086C-9.71966 58.9029 -11.0253 57.1076 -13.0305 55.9652C-24.5485 49.4134 -38.7711 65.2915 -48.657 79.7706C-56.4445 91.172 -61.6206 101.711 -64.4418 111.876C-64.5118 111.923 -64.605 111.97 -64.675 112.016C-65.3511 112.553 -81.3924 125.353 -89.0167 150.767L-91.7679 160.863C-92.3042 161.912 -93.3068 164.22 -93.3301 167.181C-93.3301 170.749 -91.9544 175.878 -85.053 180.238C-75.7966 185.624 4.5496 228.176 78.1809 262.543C102.709 274.014 126.514 284.553 146.659 292.504C167.55 300.664 188.325 308.172 208.353 314.794L210.638 315.54C229.174 321.672 248.316 328.037 267.901 330.858L269.347 331.068C276.971 332.211 287.393 333.773 291.66 322.325H291.614H291.637ZM228.078 211.435C231.086 209.733 234.467 209.15 236.658 209.943C238.034 210.432 239.037 211.505 239.666 213.184C240.179 214.513 240.062 216.285 239.363 218.057C238.943 219.106 238.78 219.269 238.081 220.038C237.708 220.481 237.241 220.948 236.705 221.624L236.425 221.95C236.425 221.95 236.332 222.09 236.285 222.137C232.718 219.129 229.174 216.028 225.63 212.81C226.399 212.344 227.192 211.878 228.031 211.388H228.055L228.078 211.435ZM202.547 201.059C206.045 204.673 209.565 208.171 213.086 211.551C212.037 212.088 210.964 212.601 209.775 213.067C206.651 214.326 202.804 214.326 200.239 212.997C198.747 212.228 197.814 211.132 197.464 209.686C196.718 206.585 198.397 204.463 202.571 201.083L202.547 201.059ZM202.174 175.762C205.788 176.718 208.283 181.218 207.374 185.205C206.931 187.233 205.368 189.028 203.387 190.8C199.609 186.79 195.832 182.593 192.055 178.28C195.366 176.345 199.003 174.922 202.174 175.762ZM180.77 176.997C176.97 179.679 173.076 182.08 169.206 182.15C167.201 182.174 164.916 180.821 163.773 178.956C163.237 178.07 162.747 176.718 163.493 175.365C164.146 174.176 165.568 173.127 166.944 172.124L173.029 167.718C175.618 170.912 178.182 174.013 180.747 177.021L180.77 176.997ZM176.2 139.506C178.695 139.506 181.353 140.741 182.962 142.653C183.801 143.633 184.687 145.218 184.338 147.223C183.801 150.254 180.887 152.772 177.763 155.081L169.276 141.138C171.561 140.158 173.892 139.506 176.177 139.482L176.2 139.506ZM133.136 104.905C133.579 104.532 134.722 103.553 135.514 103.459C136.167 103.389 137.659 103.879 140.154 107.983L156.126 134.26C146.823 126.239 135.444 121.016 123.67 119.174C125.419 113.648 128.729 108.659 133.136 104.905ZM-16.8543 62.6335C-16.2714 62.9599 -15.6186 63.8692 -15.0357 64.6853L-11.958 68.9754C1.16881 87.2783 13.5961 104.579 34.0441 116.376C51.3677 126.356 71.0462 130.879 89.4191 129.107C92.7765 128.78 96.0874 128.267 99.305 127.731C103.572 127.032 107.605 126.402 111.732 126.216C125.978 125.516 140.527 130.739 151.626 140.532C152.162 140.998 152.675 141.557 153.188 142.07L139.128 151.233L143.185 157.459L158.014 147.806C158.97 149.088 159.903 150.417 160.835 151.77C162.234 153.775 163.68 155.873 165.242 157.855C166.291 159.231 167.364 160.536 168.436 161.889L162.607 166.109C160.742 167.461 158.434 169.14 156.988 171.798C155.123 175.225 155.286 179.236 157.455 182.803C159.973 186.93 164.752 189.681 169.369 189.588C175.618 189.495 180.934 186.044 185.69 182.64C189.607 187.116 193.501 191.477 197.418 195.673C192.871 199.427 188.488 204.184 190.237 211.458C191.099 215.002 193.454 217.893 196.835 219.642C201.358 221.997 207.397 222.09 212.55 219.992C214.881 219.059 216.863 218.033 218.728 216.984C222.925 220.854 227.145 224.515 231.389 228.082C229.104 230.694 226.702 233.119 224.184 234.844L228.451 240.953C231.552 238.784 234.467 235.846 237.101 232.839C243.536 238.015 250.042 242.865 256.617 247.411C258.878 248.973 261.163 250.489 263.471 252.004C269.161 255.688 274.64 259.512 279.723 263.359L280.562 263.989C283.64 266.32 286.298 268.325 288.676 270.704C288.373 270.75 288.093 270.797 287.836 270.843C285.225 271.123 282.824 271.1 280.679 270.774C261.56 267.952 242.697 260.561 224.464 253.403L222.482 252.634C222.272 252.564 222.016 252.447 221.76 252.354C221.666 252.331 221.596 252.307 221.503 252.261C204.366 245.453 81.6083 190.614 3.59366 150.371C1.02892 120.97 -11.8647 92.5243 -32.266 71.2137C-25.6677 64.079 -20.0486 60.8382 -16.8543 62.6102V62.6335ZM-42.3384 84.084C-40.6131 81.5426 -38.911 79.2343 -37.2323 77.1126C-19.489 95.8818 -7.90103 120.457 -4.56687 146.081C-29.8179 132.837 -49.3565 121.506 -57.2839 114.581C-54.7424 105.022 -49.8228 95.0191 -42.3618 84.084H-42.3384ZM-62.39 120.27C-62.0869 120.527 -61.7372 120.806 -61.4108 121.086C-52.5974 128.361 -33.9681 139.249 -10.2093 151.77C-9.83624 151.98 -9.43987 152.166 -9.0435 152.376C-7.97098 152.936 -6.85182 153.518 -5.75598 154.101C-4.93993 154.521 -4.12387 154.941 -3.30782 155.384C-2.49177 155.803 -1.69903 156.223 -0.882977 156.619C0.329444 157.249 1.5885 157.878 2.82423 158.531C3.29055 158.764 3.78018 159.021 4.26981 159.277C5.99518 160.163 7.74386 161.049 9.51586 161.959C9.56249 161.959 9.58582 161.982 9.63245 162.005C92.147 203.927 212.526 257.041 219.754 259.768L221.69 260.538C240.319 267.859 259.601 275.39 279.559 278.351C282.334 278.748 285.388 278.794 288.653 278.444C289.235 278.374 289.958 278.258 290.704 278.118C290.891 278.095 291.054 278.048 291.241 278.025C291.241 278.025 291.31 278.025 291.334 278.001C291.59 277.955 291.87 277.908 292.127 277.862C292.197 277.862 292.266 277.838 292.336 277.815C292.616 277.768 292.896 277.722 293.152 277.675C293.176 277.675 293.199 277.675 293.246 277.675C293.735 277.605 294.178 277.582 294.528 277.558C294.738 278.001 294.994 278.701 295.134 279.121L295.251 279.447C296.09 281.779 296.463 284.53 296.393 287.747C295.018 287.817 293.595 288.051 292.29 288.284C291.544 288.424 290.844 288.54 290.285 288.587C287.697 288.843 280.236 288.68 277.974 288.307C258.435 285.299 239.153 277.698 220.5 270.354L218.425 269.538C210.824 266.647 144.841 237.502 76.8052 205.279C-4.98655 166.552 -56.3512 139.133 -68.8485 127.638C-66.3304 124.35 -64.0221 121.856 -62.39 120.27ZM-81.0893 173.663C-87.4079 169.653 -85.6359 165.479 -84.9597 164.36C-84.7499 164.034 -84.61 163.684 -84.4934 163.311L-81.6489 152.842C-79.4106 145.381 -76.3329 139.086 -73.2086 134.003C-53.4601 151 24.5079 189.355 94.5252 222.067C117.351 232.722 139.315 242.771 158.154 251.282C146.823 254.406 134.302 261.82 120.756 273.362C40.0362 238.225 -70.2708 179.959 -81.066 173.663H-81.0893ZM270.443 323.467L268.951 323.257C250.042 320.529 231.226 314.281 213.016 308.265L210.731 307.496C190.819 300.898 170.185 293.436 149.434 285.346C142.859 282.758 135.887 279.867 128.636 276.766C144.724 263.662 158.784 257.087 170.488 257.204V256.831C195.623 268.115 213.016 275.693 215.651 276.696L217.656 277.488C236.705 284.996 256.383 292.76 276.761 295.908C279.886 296.374 288.023 296.514 290.984 296.234C291.73 296.164 292.639 296.001 293.619 295.838C293.899 295.791 294.225 295.721 294.575 295.675C292.826 300.524 290.098 306.587 288.023 311.156C286.461 314.654 285.108 317.638 284.362 319.643C282.45 324.773 279 324.773 270.373 323.491H270.42L270.443 323.467Z" fill="white"/>
</mask>
<g mask="url(#mask0_3132_22027)">
<path d="M226.7 442.402C348.035 442.402 446.381 344.056 446.381 222.72C446.381 101.385 348.035 3.03906 226.7 3.03906C105.365 3.03906 7.01855 101.385 7.01855 222.72C7.01855 344.056 105.365 442.402 226.7 442.402Z" fill="#2D2B24" stroke="#FDFDFC" stroke-width="3" stroke-miterlimit="10"/>
</g>
<path d="M33.8594 327.986H279.258C279.258 327.986 338.783 320.339 375.296 273.358C411.808 226.376 424.515 147.289 424.515 147.289" stroke="#2D2B24" stroke-width="4" stroke-miterlimit="10" stroke-linecap="round"/>
</g>
<defs>
<clipPath id="clip0_3132_22027">
<rect width="449.995" height="261.93" fill="white" transform="translate(1.49512 90.6562)"/>
</clipPath>
</defs>
</svg>
