<svg width="97" height="103" viewBox="0 0 97 103" fill="none" xmlns="http://www.w3.org/2000/svg">
<path d="M52.8811 17.7777L51.867 20.7632C51.7769 21.029 51.7632 21.3005 51.8288 21.5581L52.5582 24.456C52.6893 24.9781 52.4981 25.5429 52.0378 25.9902L49.4822 28.4716C49.2554 28.6922 49.0902 28.9451 49.0001 29.211L47.9861 32.1965C47.8031 32.7347 47.3205 33.2042 46.6732 33.4718L43.0824 34.9581C42.7623 35.0902 42.4783 35.2735 42.2516 35.4941L39.696 37.9755C39.2357 38.4228 38.5564 38.7034 37.8509 38.739L33.9359 38.9358C33.5877 38.9532 33.2404 39.0314 32.9216 39.1633L29.3308 40.6497C28.6834 40.9172 27.9426 40.9545 27.319 40.7507L23.8545 39.6183C23.5462 39.5173 23.2051 39.4744 22.8569 39.4918L18.9419 39.6886C18.2364 39.7242 17.5804 39.5095 17.1611 39.1065L14.8343 36.8696C14.6277 36.6705 14.3594 36.515 14.051 36.414L10.5866 35.2816C9.96167 35.0781 9.52147 34.655 9.39015 34.1319L8.66072 31.234C8.59642 30.9762 8.45409 30.739 8.24755 30.5399L5.9183 28.3045C5.49904 27.9014 5.36045 27.3537 5.54341 26.8155L6.55747 23.83C6.64758 23.5642 6.66131 23.2927 6.59574 23.0351L5.86631 20.1372C5.73517 19.6151 5.92636 19.0504 6.38669 18.603L8.94226 16.1216C9.16905 15.901 9.33425 15.6481 9.42436 15.3822L10.4384 12.3967C10.6214 11.8585 11.104 11.389 11.7513 11.1214L15.3421 9.63509C15.6622 9.50298 15.9462 9.31967 16.1729 9.09913L18.7285 6.61771C19.1888 6.17036 19.8681 5.88979 20.5736 5.85421L24.4886 5.65745C24.8368 5.64002 25.1841 5.56176 25.5029 5.4299L29.0937 3.94355C29.7411 3.67598 30.4819 3.63875 31.1055 3.84247L34.57 4.97491C34.8783 5.07592 35.2194 5.11881 35.5675 5.10138L39.4826 4.90463C40.188 4.86904 40.8441 5.08366 41.2634 5.48671L43.5902 7.72357C43.7968 7.92267 44.0651 8.07818 44.3735 8.17919L47.8379 9.31164C48.4628 9.51511 48.903 9.93822 49.0344 10.4614L49.7638 13.3592C49.8281 13.617 49.9704 13.8542 50.1769 14.0533L52.5038 16.2901C52.9253 16.6908 53.064 17.2395 52.8811 17.7777Z" fill="#EFEADF" stroke="#030302" stroke-width="3" stroke-miterlimit="10"/>
<path d="M15.8656 25.6313L19.1793 24.8773L20.2426 29.1896C19.8401 29.4334 19.4135 29.6526 18.9627 29.8473C18.5109 30.0382 17.9861 30.2017 17.3881 30.3377C16.5577 30.5266 15.8129 30.5239 15.1535 30.3294C14.4941 30.135 13.9354 29.7534 13.4774 29.1847C13.0194 28.616 12.6758 27.867 12.4467 26.9378C12.2317 26.0655 12.2132 25.2726 12.3912 24.5592C12.5731 23.8449 12.9448 23.2397 13.5063 22.7434C14.0716 22.2463 14.8227 21.8912 15.7597 21.678C16.2016 21.5775 16.6494 21.5256 17.1032 21.5225C17.5569 21.5194 17.9777 21.5539 18.3656 21.6258L18.125 23.1706C17.838 23.0997 17.5199 23.0579 17.1709 23.0452C16.8218 23.0325 16.4682 23.0669 16.1102 23.1483C15.596 23.2653 15.1774 23.4847 14.8545 23.8065C14.5354 24.1275 14.3235 24.5241 14.2187 24.9966C14.1168 25.4644 14.1365 25.9846 14.2777 26.5573C14.4114 27.0997 14.6045 27.5644 14.8568 27.9516C15.1082 28.335 15.4234 28.6098 15.8022 28.7759C16.1802 28.9383 16.6262 28.961 17.1404 28.844C17.3918 28.7868 17.6004 28.7273 17.7662 28.6656C17.9349 28.5991 18.0921 28.5353 18.2379 28.4741L17.8101 26.739L16.2275 27.099L15.8656 25.6313ZM24.1553 21.8347C24.2429 21.8147 24.3452 21.7975 24.4623 21.7828C24.5822 21.7636 24.6803 21.7533 24.7564 21.752L25.0261 23.4089C24.9643 23.403 24.8792 23.4083 24.7706 23.425C24.665 23.437 24.5741 23.4517 24.4979 23.469C24.2732 23.5202 24.0612 23.5984 23.8619 23.7039C23.6664 23.8084 23.5008 23.9442 23.365 24.1113C23.2283 24.2746 23.1361 24.4718 23.0885 24.7029C23.0438 24.9294 23.0584 25.1924 23.1322 25.4921L23.9304 28.7291L22.1878 29.1256L20.6196 22.7653L21.9394 22.465L22.4602 23.476L22.5459 23.4565C22.6183 23.2118 22.7258 22.979 22.8685 22.7583C23.0141 22.5329 23.1937 22.3398 23.4075 22.179C23.6242 22.0136 23.8734 21.8988 24.1553 21.8347ZM28.5175 20.8302C29.3745 20.6352 30.0773 20.6716 30.6261 20.9393C31.1748 21.207 31.5426 21.7201 31.7297 22.4786L32.7747 26.7169L31.5577 26.9938L31.0074 26.2057L30.9617 26.2161C30.835 26.4853 30.6942 26.7136 30.5393 26.901C30.3844 27.0885 30.1915 27.2445 29.9608 27.3691C29.7301 27.4937 29.4376 27.5963 29.0833 27.6769C28.7063 27.7627 28.3495 27.7678 28.0131 27.6921C27.6804 27.6156 27.3919 27.4489 27.1476 27.1921C26.9023 26.9314 26.7231 26.5717 26.61 26.1127C26.4435 25.4377 26.5591 24.8867 26.9566 24.4597C27.3532 24.029 28.0235 23.6883 28.9673 23.4375L30.0673 23.1512L29.9985 22.8725C29.9162 22.5387 29.7683 22.314 29.5548 22.1984C29.3412 22.0827 29.0783 22.0604 28.7659 22.1315C28.4574 22.2017 28.1654 22.3142 27.8898 22.469C27.6142 22.6239 27.3442 22.8014 27.0798 23.0018L26.2138 21.9611C26.5089 21.7057 26.8533 21.4792 27.247 21.2815C27.6445 21.0829 28.068 20.9325 28.5175 20.8302ZM30.3169 24.1639L29.6484 24.34C29.0884 24.4834 28.7209 24.6732 28.5458 24.9093C28.3745 25.1445 28.3262 25.4139 28.401 25.7173C28.4665 25.9828 28.5913 26.1546 28.7756 26.2329C28.9588 26.3073 29.1762 26.316 29.4276 26.2588C29.8008 26.1738 30.088 25.9924 30.2889 25.7143C30.4937 25.4354 30.546 25.0931 30.446 24.6873L30.3169 24.1639ZM36.9526 24.4266C37.143 24.3832 37.3231 24.3222 37.4928 24.2436C37.6662 24.1641 37.8355 24.0755 38.0005 23.9779L38.3189 25.2693C38.1528 25.3952 37.9373 25.5163 37.6723 25.6327C37.4121 25.7519 37.1182 25.8489 36.7907 25.9234C36.4098 26.01 36.052 26.0273 35.7174 25.9753C35.3856 25.9186 35.0947 25.7585 34.8447 25.4949C34.5976 25.2267 34.4067 24.8195 34.272 24.2734L33.5159 21.207L32.6818 21.3968L32.5008 20.6629L33.3176 19.8643L33.4893 18.4073L34.6035 18.1538L34.9373 19.5078L36.7256 19.1009L37.0468 20.4037L35.2585 20.8106L36.0146 23.8769C36.0744 24.1197 36.1879 24.2861 36.3549 24.3763C36.5248 24.4618 36.7241 24.4786 36.9526 24.4266ZM39.8337 18.3938L41.4019 24.7541L39.6593 25.1506L38.0911 18.7903L39.8337 18.3938ZM38.3508 16.0996C38.6098 16.0407 38.8476 16.0507 39.0642 16.1296C39.2798 16.2047 39.4278 16.4053 39.5083 16.7315C39.5877 17.0539 39.5496 17.2989 39.3938 17.4665C39.2371 17.6303 39.0293 17.7417 38.7702 17.8006C38.5074 17.8604 38.2677 17.8509 38.0512 17.772C37.8375 17.6884 37.6909 17.4854 37.6114 17.163C37.531 16.8369 37.5677 16.5942 37.7215 16.435C37.8783 16.2712 38.088 16.1594 38.3508 16.0996ZM47.2266 21.4342C47.3332 21.8666 47.3206 22.256 47.1888 22.6024C47.0599 22.9441 46.8127 23.2387 46.4473 23.486C46.081 23.7296 45.5969 23.9198 44.9951 24.0568C44.5494 24.1582 44.1596 24.2168 43.8256 24.2327C43.4955 24.2477 43.1522 24.2257 42.7957 24.1666L42.4422 22.733C42.8271 22.8096 43.2303 22.8541 43.6517 22.8664C44.0759 22.874 44.4385 22.8436 44.7394 22.7751C45.0784 22.698 45.3081 22.5937 45.4285 22.4621C45.5518 22.3259 45.5934 22.1763 45.5532 22.0132C45.527 21.907 45.4731 21.8191 45.3916 21.7495C45.313 21.6753 45.1634 21.6072 44.943 21.5452C44.7216 21.4794 44.3818 21.4065 43.9237 21.3265C43.4826 21.2506 43.1115 21.1568 42.8104 21.0451C42.5131 20.9325 42.2731 20.7748 42.0904 20.572C41.9105 20.3646 41.7762 20.0807 41.6873 19.7204C41.5424 19.1326 41.662 18.6387 42.0461 18.2389C42.4331 17.8344 43.0113 17.5447 43.7807 17.3696C44.1768 17.2795 44.5637 17.2335 44.9414 17.2317C45.3229 17.229 45.7256 17.2716 46.1495 17.3594L45.9325 18.7306C45.5827 18.666 45.2561 18.6221 44.9527 18.599C44.6531 18.575 44.3586 18.596 44.0691 18.6618C43.814 18.7199 43.63 18.7978 43.5173 18.8955C43.4047 18.9933 43.3656 19.1123 43.4002 19.2526C43.4255 19.355 43.4803 19.4387 43.5647 19.5036C43.6529 19.5676 43.8044 19.6273 44.0191 19.6826C44.2368 19.7332 44.5509 19.7919 44.9616 19.8587C45.3599 19.9243 45.7125 20.0083 46.0193 20.1107C46.3252 20.2093 46.58 20.3617 46.7837 20.5677C46.9864 20.7699 47.134 21.0587 47.2266 21.4342Z" fill="black"/>
<path d="M89.6111 30.8125H86.6574C85.3381 30.8125 84.2686 31.829 84.2686 33.083V48.6115C84.2686 49.8654 85.3381 50.882 86.6574 50.882H89.6111C90.9304 50.882 91.9999 49.8654 91.9999 48.6115V33.083C91.9999 31.829 90.9304 30.8125 89.6111 30.8125Z" stroke="#2D2B24" stroke-width="4" stroke-miterlimit="10" stroke-linejoin="round"/>
<path d="M68.9118 33.8047L61.749 40.1354L65.3304 42.0479L62.8788 47.9014L70.5474 41.4514L66.8996 39.3002L68.9118 33.8047Z" fill="#2D2B24" stroke="#2D2B24" stroke-width="2" stroke-miterlimit="10" stroke-linejoin="round"/>
<path d="M35.1848 66.2487C35.1848 66.2487 32.796 70.909 38.5779 72.2214C42.1076 73.0251 45.2607 74.713 48.7091 75.5833C51.3231 76.243 53.5938 75.3973 54.1624 72.6987C55.2922 67.3225 58.3087 56.3315 65.3496 56.4508C69.865 56.4508 74.4322 56.5947 78.9292 56.5631C81.643 56.5421 82.3666 54.3558 82.3186 52.0326C82.2153 47.3337 82.2595 42.6313 82.2743 37.9324C82.2817 35.2935 82.7247 32.6826 82.4848 30.0366C82.1303 26.1308 80.1255 25.5693 76.1601 25.6325C72.2391 25.6956 68.3143 25.6921 64.3933 25.6746C57.9985 25.643 51.1718 24.5621 48.2587 31.3666C45.2422 38.4167 35.1885 66.2487 35.1885 66.2487H35.1848Z" stroke="#2D2B24" stroke-width="4" stroke-miterlimit="10" stroke-linejoin="round"/>
<path d="M45.4821 77.9789L37.6272 75.1608C36.5379 74.7699 35.3215 75.2924 34.9103 76.3278L33.5086 79.8572C33.0974 80.8926 33.6472 82.0487 34.7365 82.4395L42.5914 85.2577C43.6807 85.6485 44.8971 85.126 45.3083 84.0906L46.71 80.5612C47.1212 79.5259 46.5714 78.3697 45.4821 77.9789Z" stroke="#2D2B24" stroke-width="4" stroke-miterlimit="10" stroke-linejoin="round"/>
<path d="M37.1713 85.9245C37.1713 85.9245 27.125 123.017 2 78.7656" stroke="#2D2B24" stroke-width="4" stroke-miterlimit="10" stroke-linecap="round" stroke-linejoin="round"/>
</svg>
