<svg width="173" height="184" viewBox="0 0 173 184" fill="none" xmlns="http://www.w3.org/2000/svg">
<path d="M53.5 0.015625L60.1954 11.2426L70.0324 2.6341L72.9308 15.3805L84.9465 10.2332L83.7642 23.2515L96.7824 22.0691L91.6351 34.0848L104.382 36.9832L95.7731 46.8202L107 53.5156L95.7731 60.211L104.382 70.048L91.6351 72.9464L96.7824 84.9621L83.7642 83.7798L84.9465 96.798L72.9308 91.6507L70.0324 104.397L60.1954 95.7887L53.5 107.016L46.8046 95.7887L36.9676 104.397L34.0692 91.6507L22.0535 96.798L23.2358 83.7798L10.2176 84.9621L15.3649 72.9464L2.61848 70.048L11.2269 60.211L0 53.5156L11.2269 46.8202L2.61848 36.9832L15.3649 34.0848L10.2176 22.0691L23.2358 23.2515L22.0535 10.2332L34.0692 15.3805L36.9676 2.6341L46.8046 11.2426L53.5 0.015625Z" fill="#24DB6D"/>
<path d="M33.3731 40.1892H38.3634L38.4882 47.1119C37.7441 47.3658 36.976 47.5545 36.184 47.6782C35.3985 47.8019 34.5174 47.8637 33.5409 47.8637C32.0565 47.8637 30.7979 47.5676 29.7651 46.9752C28.7388 46.3829 27.9521 45.5399 27.405 44.4463C26.8578 43.3462 26.5706 42.0411 26.5434 40.5309C26.5167 39.0533 26.7832 37.7645 27.3427 36.6644C27.9088 35.5643 28.7366 34.7116 29.8259 34.1062C30.9216 33.4943 32.2442 33.1884 33.7937 33.1884C34.588 33.1884 35.3413 33.2633 36.0536 33.413C36.7724 33.5562 37.4401 33.7612 38.0569 34.0281L37.4482 35.4732C36.9168 35.2453 36.3306 35.0501 35.6896 34.8873C35.0551 34.7246 34.3994 34.6432 33.7223 34.6432C32.5569 34.6432 31.5619 34.8841 30.7373 35.3658C29.9192 35.8475 29.2967 36.5277 28.8698 37.4065C28.4495 38.2852 28.2501 39.3267 28.2719 40.5309C28.2934 41.7222 28.5041 42.7604 28.9042 43.6457C29.3042 44.5244 29.9155 45.2079 30.7381 45.6961C31.5607 46.1843 32.6133 46.4284 33.8958 46.4284C34.5404 46.4284 35.0931 46.3926 35.5541 46.321C36.0149 46.2429 36.4332 46.1518 36.8089 46.0476L36.73 41.6733H33.3999L33.3731 40.1892ZM46.3779 36.7718C46.5927 36.7718 46.8176 36.7848 47.0524 36.8109C47.2871 36.8304 47.496 36.8597 47.679 36.8987L47.5011 38.4024C47.3244 38.3568 47.1285 38.321 46.9132 38.295C46.6979 38.2689 46.4958 38.2559 46.307 38.2559C45.8773 38.2559 45.472 38.3438 45.0911 38.5196C44.7165 38.6888 44.3889 38.9362 44.1083 39.2616C43.8276 39.5806 43.61 39.9679 43.4555 40.4235C43.3008 40.8727 43.2285 41.3739 43.2385 41.9272L43.342 47.6685H41.7112L41.5181 36.9671H42.8658L43.0771 38.9394H43.1455C43.3597 38.5423 43.6201 38.1811 43.9267 37.8556C44.2332 37.5236 44.5898 37.26 44.9965 37.0647C45.4096 36.8694 45.8701 36.7718 46.3779 36.7718ZM53.7025 36.7913C54.9785 36.7913 55.9309 37.0777 56.5598 37.6506C57.1886 38.2234 57.5143 39.1379 57.537 40.3943L57.6682 47.6685H56.4866L56.1455 46.0867H56.0674C55.775 46.4772 55.4684 46.806 55.1477 47.0729C54.8269 47.3332 54.4528 47.5318 54.0256 47.6685C53.6048 47.7986 53.0851 47.8637 52.4666 47.8637C51.8156 47.8637 51.2341 47.7498 50.7222 47.522C50.2168 47.2942 49.8134 46.9492 49.5121 46.487C49.2173 46.0248 49.0635 45.439 49.0507 44.7295C49.0315 43.6619 49.4399 42.8418 50.2759 42.2689C51.1119 41.6961 52.3953 41.3837 54.1262 41.3316L55.9705 41.2535L55.9586 40.5993C55.942 39.675 55.7317 39.0273 55.3279 38.6563C54.9241 38.2852 54.3608 38.0997 53.6382 38.0997C53.0783 38.0997 52.5459 38.1811 52.041 38.3438C51.5361 38.5065 51.0578 38.6986 50.6061 38.9199L50.0858 37.6896C50.5632 37.4423 51.1127 37.2307 51.7346 37.055C52.3564 36.8792 53.0124 36.7913 53.7025 36.7913ZM55.9715 42.3959L54.3419 42.4642C53.0082 42.5163 52.0714 42.7344 51.5314 43.1184C50.9915 43.5025 50.7279 44.046 50.7405 44.749C50.7516 45.3609 50.9453 45.8133 51.3217 46.1062C51.698 46.3991 52.1922 46.5456 52.8042 46.5456C53.7547 46.5456 54.528 46.282 55.1239 45.7547C55.7199 45.2274 56.0083 44.4366 55.9893 43.382L55.9715 42.3959ZM64.4446 46.5358C64.7116 46.5358 64.9846 46.513 65.2637 46.4675C65.5429 46.4219 65.7697 46.3666 65.9443 46.3015L65.967 47.5611C65.7798 47.6457 65.5174 47.7173 65.1799 47.7759C64.8489 47.8344 64.5239 47.8637 64.2049 47.8637C63.6385 47.8637 63.1224 47.7661 62.6567 47.5708C62.1908 47.369 61.8136 47.0305 61.5251 46.5554C61.2431 46.0802 61.0945 45.4227 61.0793 44.583L60.9649 38.2364H59.4414L59.4271 37.4455L60.9489 36.8109L61.5515 34.487H62.5281L62.5728 36.9671H65.7076L65.7305 38.2364H62.5957L62.7093 44.5342C62.7214 45.2047 62.8835 45.7059 63.1954 46.0379C63.5139 46.3698 63.9303 46.5358 64.4446 46.5358ZM69.565 36.9671L69.758 47.6685H68.137L67.9439 36.9671H69.565ZM68.7018 32.9638C68.9687 32.9638 69.1981 33.0517 69.3901 33.2274C69.5885 33.3967 69.691 33.6636 69.6975 34.0281C69.704 34.3861 69.6111 34.653 69.419 34.8288C69.2334 35.0045 69.0071 35.0924 68.7402 35.0924C68.4602 35.0924 68.2243 35.0045 68.0323 34.8288C67.8468 34.653 67.7509 34.3861 67.7444 34.0281C67.7378 33.6636 67.8242 33.3967 68.0034 33.2274C68.189 33.0517 68.4218 32.9638 68.7018 32.9638ZM80.0665 44.7392C80.0789 45.4227 79.9167 45.9988 79.5801 46.4675C79.2499 46.9296 78.7679 47.2779 78.1341 47.5122C77.5069 47.7466 76.7538 47.8637 75.8749 47.8637C75.1262 47.8637 74.4773 47.8052 73.9283 47.688C73.3793 47.5708 72.8978 47.4048 72.4838 47.19L72.4568 45.6961C72.8969 45.9109 73.4213 46.1062 74.0299 46.282C74.6386 46.4577 75.2586 46.5456 75.8901 46.5456C76.8146 46.5456 77.4825 46.3959 77.8938 46.0964C78.305 45.797 78.506 45.3902 78.4967 44.8759C78.4915 44.583 78.4022 44.3259 78.2289 44.1046C78.062 43.8768 77.7814 43.6587 77.387 43.4504C76.9925 43.2356 76.4479 43.0012 75.7533 42.7474C75.065 42.487 74.4679 42.2299 73.962 41.976C73.4625 41.7157 73.0727 41.3999 72.7926 41.0289C72.519 40.6579 72.3768 40.1762 72.3661 39.5838C72.3498 38.679 72.7019 37.9858 73.4223 37.5041C74.1492 37.0159 75.1084 36.7718 76.2998 36.7718C76.9443 36.7718 77.5477 36.8369 78.1099 36.9671C78.6786 37.0908 79.209 37.26 79.7011 37.4748L79.1777 38.7734C78.7316 38.5847 78.2567 38.4252 77.753 38.295C77.2494 38.1648 76.7371 38.0997 76.2163 38.0997C75.4676 38.0997 74.8937 38.2234 74.4945 38.4707C74.1018 38.7181 73.9093 39.0566 73.9171 39.4862C73.9231 39.8182 74.0192 40.0916 74.2053 40.3064C74.398 40.5212 74.7011 40.723 75.1147 40.9117C75.5282 41.1005 76.0726 41.3218 76.7477 41.5757C77.4228 41.8231 78.0068 42.0802 78.4999 42.3471C78.9929 42.6074 79.373 42.9264 79.6403 43.3039C79.9139 43.675 80.056 44.1534 80.0665 44.7392ZM33.1454 74.6641H31.5146L31.2405 59.4712H32.8714L33.1454 74.6641ZM40.3808 63.7869C41.6569 63.7869 42.6093 64.0733 43.2381 64.6462C43.867 65.219 44.1927 66.1336 44.2154 67.3899L44.3466 74.6641H43.165L42.8239 73.0823H42.7458C42.4534 73.4729 42.1468 73.8016 41.8261 74.0685C41.5053 74.3288 41.1312 74.5274 40.704 74.6641C40.2832 74.7943 39.7635 74.8593 39.145 74.8593C38.494 74.8593 37.9125 74.7454 37.4006 74.5176C36.8952 74.2898 36.4918 73.9448 36.1905 73.4826C35.8957 73.0205 35.7419 72.4346 35.7291 71.7251C35.7099 70.6576 36.1182 69.8374 36.9543 69.2646C37.7903 68.6917 39.0737 68.3793 40.8045 68.3272L42.6488 68.2491L42.637 67.5949C42.6204 66.6706 42.4101 66.0229 42.0063 65.6519C41.6025 65.2808 41.0392 65.0953 40.3166 65.0953C39.7567 65.0953 39.2243 65.1767 38.7194 65.3394C38.2145 65.5021 37.7362 65.6942 37.2845 65.9155L36.7642 64.6852C37.2415 64.4379 37.7911 64.2263 38.4129 64.0506C39.0348 63.8748 39.6907 63.7869 40.3808 63.7869ZM42.6499 69.3915L41.0203 69.4598C39.6866 69.5119 38.7498 69.73 38.2098 70.114C37.6699 70.4981 37.4062 71.0416 37.4189 71.7446C37.43 72.3565 37.6237 72.8089 38.0001 73.1018C38.3764 73.3947 38.8706 73.5412 39.4826 73.5412C40.4331 73.5412 41.2063 73.2776 41.8023 72.7503C42.3983 72.2231 42.6867 71.4322 42.6677 70.3777L42.6499 69.3915ZM51.4986 74.8593C50.1444 74.8593 49.0618 74.3972 48.2509 73.4729C47.4465 72.5485 47.0278 71.1751 46.9949 69.3524C46.9617 67.5103 47.3403 66.1205 48.1306 65.1832C48.9209 64.2393 49.9866 63.7674 51.3278 63.7674C51.8942 63.7674 52.3903 63.8423 52.8162 63.992C53.2421 64.1417 53.6103 64.3435 53.9209 64.5973C54.2313 64.8447 54.4936 65.1279 54.7077 65.4468H54.8249C54.7952 65.245 54.7641 64.9684 54.7318 64.6169C54.6994 64.2654 54.6812 63.979 54.6772 63.7576L54.5999 59.4712H56.221L56.495 74.6641H55.1864L54.9148 73.1409H54.8465C54.6504 73.4598 54.3985 73.7495 54.0907 74.0099C53.7894 74.2703 53.4253 74.4786 52.9984 74.6348C52.5779 74.7845 52.078 74.8593 51.4986 74.8593ZM51.7282 73.5119C52.874 73.5119 53.6787 73.1864 54.1422 72.5355C54.6057 71.8846 54.8259 70.9179 54.8028 69.6356L54.7975 69.3427C54.7729 67.9822 54.5262 66.9375 54.0573 66.2084C53.595 65.4794 52.7681 65.1148 51.5767 65.1148C50.5806 65.1148 49.8421 65.4989 49.3611 66.267C48.8801 67.0286 48.6515 68.0701 48.6753 69.3915C48.699 70.7064 48.9615 71.7218 49.4627 72.4379C49.9704 73.1539 50.7255 73.5119 51.7282 73.5119ZM63.8571 63.7674C64.7685 63.7674 65.5534 63.9692 66.2117 64.3728C66.87 64.7764 67.3783 65.3427 67.7365 66.0717C68.0946 66.7943 68.2824 67.6405 68.2999 68.6104L68.318 69.6161H60.9255C60.9676 70.8724 61.2974 71.8292 61.9147 72.4867C62.5321 73.1441 63.3909 73.4729 64.4911 73.4729C65.1682 73.4729 65.766 73.411 66.2846 73.2873C66.8032 73.1637 67.3403 72.9814 67.8959 72.7406L67.9216 74.1661C67.3856 74.4069 66.8516 74.5827 66.3198 74.6934C65.7944 74.804 65.1704 74.8593 64.4478 74.8593C63.4191 74.8593 62.5169 74.651 61.7412 74.2344C60.9718 73.8113 60.3682 73.193 59.9304 72.3793C59.4925 71.5656 59.263 70.5697 59.2417 69.3915C59.2209 68.2393 59.395 67.2434 59.764 66.4037C60.1393 65.5575 60.6745 64.9065 61.3694 64.4509C62.0708 63.9952 62.9 63.7674 63.8571 63.7674ZM63.8615 65.0953C62.9956 65.0953 62.3106 65.3785 61.8065 65.9448C61.3024 66.5111 61.0107 67.302 60.9313 68.3174H66.5954C66.5774 67.6795 66.4664 67.1197 66.2624 66.638C66.0647 66.1498 65.7682 65.7723 65.3728 65.5054C64.9772 65.232 64.4735 65.0953 63.8615 65.0953ZM75.8297 63.7674C76.0446 63.7674 76.2694 63.7804 76.5042 63.8065C76.739 63.826 76.9478 63.8553 77.1308 63.8943L76.9529 65.398C76.7763 65.3524 76.5803 65.3166 76.365 65.2906C76.1497 65.2646 75.9476 65.2515 75.7588 65.2515C75.3291 65.2515 74.9238 65.3394 74.5429 65.5152C74.1683 65.6844 73.8408 65.9318 73.5602 66.2572C73.2795 66.5762 73.0618 66.9635 72.9073 67.4192C72.7526 67.8683 72.6803 68.3695 72.6903 68.9228L72.7939 74.6641H71.163L70.97 63.9627H72.3176L72.529 65.935H72.5973C72.8115 65.5379 73.0719 65.1767 73.3786 64.8512C73.6851 64.5192 74.0416 64.2556 74.4483 64.0603C74.8614 63.865 75.3219 63.7674 75.8297 63.7674Z" fill="black"/>
<path d="M167.28 77.3828H163.08C161.204 77.3828 159.684 78.9036 159.684 80.7796V104.011C159.684 105.887 161.204 107.408 163.08 107.408H167.28C169.156 107.408 170.677 105.887 170.677 104.011V80.7796C170.677 78.9036 169.156 77.3828 167.28 77.3828Z" stroke="#2D2B24" stroke-width="4" stroke-miterlimit="10" stroke-linejoin="round"/>
<path d="M137.847 81.8516L127.662 91.3227L132.755 94.184L129.269 102.941L140.173 93.2915L134.986 90.0732L137.847 81.8516Z" fill="#2D2B24" stroke="#2D2B24" stroke-width="2" stroke-miterlimit="10" stroke-linejoin="round"/>
<path d="M89.8887 130.393C89.8887 130.393 86.4919 137.365 94.7135 139.328C99.7326 140.53 104.216 143.056 109.12 144.358C112.837 145.345 116.066 144.079 116.874 140.042C118.481 131.999 122.77 115.556 132.782 115.734C139.203 115.734 145.697 115.95 152.092 115.902C155.95 115.871 156.979 112.6 156.911 109.125C156.764 102.095 156.827 95.0596 156.848 88.0297C156.859 84.0817 157.489 80.1756 157.147 76.2171C156.643 70.3737 153.793 69.5337 148.154 69.6282C142.578 69.7227 136.998 69.7175 131.422 69.6912C122.329 69.644 112.622 68.027 108.479 78.2068C104.19 88.7542 89.894 130.393 89.894 130.393H89.8887Z" stroke="#2D2B24" stroke-width="4" stroke-miterlimit="10" stroke-linejoin="round"/>
<path d="M104.531 147.947L93.3613 143.731C91.8123 143.146 90.0827 143.928 89.498 145.477L87.5049 150.757C86.9202 152.306 87.7019 154.035 89.2508 154.62L100.42 158.836C101.969 159.421 103.699 158.639 104.284 157.09L106.277 151.81C106.861 150.261 106.08 148.531 104.531 147.947Z" stroke="#2D2B24" stroke-width="4" stroke-miterlimit="10" stroke-linejoin="round"/>
<path d="M92.7133 159.827C92.7133 159.827 78.4279 215.321 42.7012 149.117" stroke="#2D2B24" stroke-width="4" stroke-miterlimit="10" stroke-linejoin="round"/>
</svg>
