<svg width="211" height="203" viewBox="0 0 211 203" fill="none" xmlns="http://www.w3.org/2000/svg">
<g clip-path="url(#clip0_4159_7417)">
<path d="M58.5941 5.33594L65.3439 16.6497L75.2609 7.97464L78.1829 20.8195L90.2963 15.6325L89.1043 28.7513L102.228 27.5598L97.0392 39.6683L109.89 42.5891L101.211 52.5021L112.529 59.2492L101.211 65.9964L109.89 75.9094L97.0392 78.8302L102.228 90.9387L89.1043 89.7473L90.2963 102.866L78.1829 97.679L75.2609 110.524L65.3439 101.849L58.5941 113.163L51.8443 101.849L41.9273 110.524L39.0053 97.679L26.892 102.866L28.0839 89.7473L14.9598 90.9387L20.149 78.8302L7.29895 75.9094L15.9773 65.9964L4.65918 59.2492L15.9773 52.5021L7.29895 42.5891L20.149 39.6683L14.9598 27.5598L28.0839 28.7513L26.892 15.6325L39.0053 20.8195L41.9273 7.97464L51.8443 16.6497L58.5941 5.33594Z" fill="#24DB6D"/>
<path d="M36.7042 44.6197H42.1849L42.322 52.2197C41.5048 52.4984 40.6612 52.7056 39.7914 52.8414C38.9287 52.9772 37.961 53.045 36.8885 53.045C35.2583 53.045 33.876 52.7199 32.7417 52.0696C31.6146 51.4193 30.7505 50.4939 30.1497 49.2933C29.5487 48.0856 29.2333 46.6528 29.2034 44.9949C29.1741 43.3727 29.4668 41.9578 30.0813 40.7501C30.703 39.5424 31.6121 38.6063 32.8085 37.9417C34.0118 37.2699 35.4644 36.9341 37.1662 36.9341C38.0385 36.9341 38.8659 37.0163 39.6481 37.1806C40.4376 37.3379 41.1709 37.5629 41.8483 37.8559L41.1798 39.4424C40.5962 39.1922 39.9524 38.9779 39.2484 38.7992C38.5515 38.6206 37.8314 38.5312 37.0878 38.5312C35.8078 38.5312 34.7151 38.7957 33.8094 39.3245C32.9109 39.8533 32.2273 40.6 31.7584 41.5648C31.2968 42.5295 31.0778 43.6729 31.1018 44.9949C31.1254 46.3027 31.3568 47.4425 31.7962 48.4144C32.2355 49.379 32.9069 50.1294 33.8103 50.6654C34.7137 51.2013 35.8698 51.4693 37.2783 51.4693C37.9863 51.4693 38.5933 51.43 39.0996 51.3514C39.6056 51.2656 40.065 51.1656 40.4777 51.0512L40.391 46.249H36.7337L36.7042 44.6197ZM50.987 40.868C51.2229 40.868 51.4699 40.8823 51.7278 40.911C51.9855 40.9324 52.2149 40.9645 52.4159 41.0073L52.2205 42.6581C52.0265 42.6081 51.8113 42.5688 51.5749 42.5402C51.3384 42.5116 51.1165 42.4973 50.9091 42.4973C50.4372 42.4973 49.9921 42.5938 49.5737 42.7868C49.1623 42.9726 48.8025 43.2442 48.4943 43.6014C48.1861 43.9516 47.9471 44.3768 47.7774 44.877C47.6075 45.3701 47.5281 45.9203 47.5391 46.5278L47.6527 52.8307H45.8617L45.6496 41.0824H47.1298L47.3618 43.2477H47.4369C47.6722 42.8117 47.9582 42.4152 48.2949 42.0578C48.6315 41.6934 49.0232 41.404 49.4698 41.1896C49.9235 40.9752 50.4293 40.868 50.987 40.868ZM59.0313 40.8894C60.4327 40.8894 61.4787 41.2038 62.1694 41.8328C62.86 42.4616 63.2177 43.4656 63.2426 44.8449L63.3867 52.8307H62.089L61.7144 51.0942H61.6286C61.3075 51.5229 60.9708 51.8838 60.6185 52.1768C60.2662 52.4626 59.8554 52.6806 59.3862 52.8307C58.924 52.9735 58.3533 53.045 57.674 53.045C56.959 53.045 56.3204 52.92 55.7582 52.6699C55.2031 52.4198 54.7601 52.041 54.4292 51.5336C54.1054 51.0262 53.9365 50.3831 53.9224 49.6042C53.9013 48.4322 54.3499 47.5318 55.268 46.9029C56.1862 46.2741 57.5957 45.9311 59.4967 45.8739L61.5222 45.7882L61.5091 45.07C61.4909 44.0552 61.2599 43.3442 60.8165 42.9369C60.373 42.5295 59.7543 42.3258 58.9607 42.3258C58.3458 42.3258 57.7611 42.4152 57.2066 42.5938C56.652 42.7724 56.1267 42.9833 55.6307 43.2263L55.0592 41.8756C55.5835 41.6041 56.187 41.3718 56.8701 41.1789C57.553 40.9859 58.2734 40.8894 59.0313 40.8894ZM61.5233 47.0423L59.7336 47.1173C58.2688 47.1745 57.2399 47.4139 56.6469 47.8355C56.0539 48.2572 55.7644 48.8538 55.7783 49.6256C55.7905 50.2974 56.0032 50.794 56.4166 51.1156C56.8299 51.4371 57.3726 51.598 58.0448 51.598C59.0887 51.598 59.938 51.3086 60.5924 50.7297C61.247 50.1508 61.5637 49.2826 61.5428 48.1249L61.5233 47.0423ZM70.829 51.5872C71.1223 51.5872 71.4221 51.5622 71.7286 51.5122C72.0352 51.4622 72.2843 51.4014 72.4761 51.33L72.501 52.7128C72.2954 52.8057 72.0072 52.8843 71.6366 52.9486C71.273 53.0128 70.9161 53.045 70.5658 53.045C69.9437 53.045 69.3769 52.9379 68.8654 52.7234C68.3537 52.5019 67.9395 52.1303 67.6226 51.6087C67.3129 51.087 67.1497 50.3652 67.133 49.4434L67.0074 42.4759H65.3342L65.3185 41.6076L66.9898 40.911L67.6516 38.3597H68.7242L68.7733 41.0824H72.2161L72.2413 42.4759H68.7984L68.9232 49.3898C68.9365 50.1259 69.1145 50.6761 69.4571 51.0406C69.8069 51.405 70.2642 51.5872 70.829 51.5872ZM76.4526 41.0824L76.6645 52.8307H74.8843L74.6722 41.0824H76.4526ZM75.5045 36.6875C75.7977 36.6875 76.0496 36.784 76.2605 36.9769C76.4784 37.1628 76.591 37.4558 76.5981 37.8559C76.6052 38.2489 76.5032 38.5419 76.2922 38.7349C76.0884 38.9278 75.8398 39.0243 75.5467 39.0243C75.2392 39.0243 74.9801 38.9278 74.7693 38.7349C74.5655 38.5419 74.4602 38.2489 74.4531 37.8559C74.4458 37.4558 74.5407 37.1628 74.7375 36.9769C74.9414 36.784 75.197 36.6875 75.5045 36.6875ZM87.986 49.6148C87.9996 50.3652 87.8215 50.9977 87.4518 51.5122C87.0892 52.0195 86.5598 52.4019 85.8637 52.6591C85.1749 52.9164 84.3478 53.045 83.3825 53.045C82.5603 53.045 81.8476 52.9808 81.2446 52.8521C80.6417 52.7234 80.1129 52.5412 79.6582 52.3054L79.6285 50.6654C80.1119 50.9012 80.6878 51.1156 81.3562 51.3086C82.0247 51.5015 82.7057 51.598 83.3992 51.598C84.4146 51.598 85.1481 51.4336 85.5998 51.1048C86.0514 50.7761 86.2722 50.3295 86.262 49.7649C86.2562 49.4434 86.1582 49.1611 85.9678 48.9182C85.7845 48.6681 85.4764 48.4286 85.0432 48.2C84.6099 47.9642 84.0118 47.7068 83.249 47.4282C82.493 47.1423 81.8373 46.8601 81.2816 46.5813C80.7331 46.2956 80.305 45.9489 79.9973 45.5416C79.6969 45.1343 79.5407 44.6055 79.5289 43.9551C79.511 42.9618 79.8977 42.2008 80.6889 41.672C81.4872 41.136 82.5407 40.868 83.8492 40.868C84.557 40.868 85.2197 40.9395 85.8371 41.0824C86.4617 41.2182 87.0443 41.404 87.5847 41.6398L87.0099 43.0654C86.5199 42.8583 85.9984 42.6832 85.4452 42.5402C84.8921 42.3973 84.3294 42.3258 83.7575 42.3258C82.9352 42.3258 82.3049 42.4616 81.8665 42.7331C81.4352 43.0047 81.2238 43.3763 81.2323 43.848C81.2389 44.2124 81.3445 44.5126 81.5489 44.7484C81.7605 44.9842 82.0934 45.2058 82.5476 45.4129C83.0018 45.6202 83.5997 45.8631 84.3411 46.1419C85.0825 46.4135 85.7239 46.6957 86.2655 46.9887C86.8069 47.2745 87.2244 47.6247 87.5179 48.0391C87.8184 48.4465 87.9745 48.9717 87.986 49.6148ZM36.4542 82.4672H34.6631L34.3621 65.788H36.1532L36.4542 82.4672ZM44.4006 70.5259C45.8021 70.5259 46.848 70.8403 47.5386 71.4693C48.2293 72.0981 48.587 73.1022 48.612 74.4814L48.7561 82.4672H47.4584L47.0837 80.7306H46.998C46.6768 81.1594 46.3401 81.5203 45.9879 81.8133C45.6356 82.0991 45.2247 82.3171 44.7555 82.4672C44.2934 82.6101 43.7226 82.6815 43.0433 82.6815C42.3284 82.6815 41.6897 82.5564 41.1275 82.3063C40.5724 82.0563 40.1294 81.6775 39.7985 81.1701C39.4747 80.6628 39.3058 80.0196 39.2918 79.2407C39.2707 78.0687 39.7191 77.1683 40.6374 76.5395C41.5555 75.9105 42.965 75.5676 44.8659 75.5104L46.8914 75.4246L46.8785 74.7064C46.8602 73.6917 46.6293 72.9806 46.1858 72.5734C45.7423 72.1659 45.1237 71.9623 44.3301 71.9623C43.7151 71.9623 43.1304 72.0517 42.5759 72.2303C42.0214 72.4089 41.4961 72.6198 41 72.8627L40.4286 71.5121C40.9528 71.2406 41.5564 71.0083 42.2393 70.8154C42.9223 70.6224 43.6426 70.5259 44.4006 70.5259ZM46.8926 76.6788L45.1029 76.7538C43.6381 76.811 42.6093 77.0504 42.0162 77.472C41.4233 77.8936 41.1337 78.4903 41.1476 79.2621C41.1598 79.9338 41.3725 80.4305 41.7859 80.752C42.1992 81.0736 42.742 81.2344 43.4141 81.2344C44.458 81.2344 45.3072 80.945 45.9617 80.3662C46.6163 79.7874 46.9331 78.9191 46.9122 77.7615L46.8926 76.6788ZM56.6109 82.6815C55.1236 82.6815 53.9346 82.1742 53.044 81.1595C52.1606 80.1446 51.7007 78.6369 51.6646 76.6359C51.6281 74.6136 52.0439 73.0878 52.9119 72.0588C53.7799 71.0226 54.9503 70.5045 56.4233 70.5045C57.0453 70.5045 57.5902 70.5867 58.0579 70.7511C58.5257 70.9154 58.9301 71.137 59.2712 71.4156C59.6121 71.6872 59.9002 71.9981 60.1353 72.3482H60.264C60.2314 72.1266 60.1973 71.823 60.1618 71.4371C60.1262 71.0512 60.1062 70.7368 60.1018 70.4937L60.0169 65.788H61.7973L62.0982 82.4672H60.6611L60.3628 80.795H60.2877C60.0724 81.1451 59.7957 81.4631 59.4577 81.749C59.1268 82.0349 58.7269 82.2635 58.258 82.435C57.7962 82.5994 57.2472 82.6815 56.6109 82.6815ZM56.863 81.2023C58.1214 81.2023 59.0052 80.8449 59.5142 80.1303C60.0233 79.4158 60.2651 78.3545 60.2398 76.9468L60.2339 76.6252C60.2069 75.1316 59.936 73.9847 59.421 73.1843C58.9133 72.384 58.0051 71.9837 56.6966 71.9837C55.6027 71.9837 54.7916 72.4054 54.2633 73.2486C53.7351 74.0847 53.484 75.2281 53.5101 76.6788C53.5362 78.1223 53.8245 79.237 54.3749 80.0232C54.9325 80.8092 55.7618 81.2023 56.863 81.2023ZM70.1838 70.5045C71.1847 70.5045 72.0468 70.726 72.7698 71.1691C73.4927 71.6122 74.051 72.2339 74.4444 73.0342C74.8377 73.8275 75.0439 74.7565 75.0632 75.8213L75.083 76.9254H66.9641C67.0103 78.3045 67.3726 79.355 68.0505 80.0768C68.7286 80.7985 69.6718 81.1595 70.8801 81.1595C71.6237 81.1595 72.2803 81.0915 72.8498 80.9557C73.4194 80.82 74.0093 80.6199 74.6195 80.3555L74.6477 81.9205C74.059 82.1848 73.4725 82.3778 72.8885 82.4993C72.3115 82.6208 71.6261 82.6815 70.8325 82.6815C69.7027 82.6815 68.7119 82.4528 67.86 81.9954C67.015 81.531 66.352 80.8522 65.8712 79.9589C65.3903 79.0656 65.1382 77.9722 65.1148 76.6788C65.092 75.4139 65.2832 74.3205 65.6885 73.3987C66.1006 72.4697 66.6884 71.755 67.4516 71.2549C68.222 70.7546 69.1326 70.5045 70.1838 70.5045ZM70.1886 71.9623C69.2376 71.9623 68.4853 72.2732 67.9317 72.8949C67.378 73.5166 67.0577 74.3849 66.9705 75.4996H73.1912C73.1714 74.7993 73.0495 74.1847 72.8254 73.6559C72.6083 73.12 72.2827 72.7055 71.8484 72.4125C71.414 72.1124 70.8608 71.9623 70.1886 71.9623ZM83.3329 70.5045C83.5689 70.5045 83.8158 70.5188 84.0737 70.5474C84.3315 70.5688 84.5609 70.601 84.7618 70.6438L84.5665 72.2946C84.3725 72.2446 84.1572 72.2053 83.9208 72.1767C83.6843 72.1482 83.4624 72.1338 83.255 72.1338C82.7831 72.1338 82.338 72.2303 81.9196 72.4233C81.5082 72.609 81.1485 72.8806 80.8404 73.2379C80.5321 73.5881 80.293 74.0133 80.1233 74.5135C79.9534 75.0066 79.874 75.5568 79.885 76.1642L79.9988 82.4672H78.2076L77.9956 70.7189H79.4757L79.7078 72.8841H79.7828C80.0181 72.4482 80.3041 72.0517 80.6409 71.6943C80.9775 71.3298 81.3691 71.0405 81.8157 70.8261C82.2694 70.6116 82.7752 70.5045 83.3329 70.5045Z" fill="black"/>
<path d="M156.52 74.6758L143.723 86.5704L150.122 90.1639L145.742 101.162L159.442 89.043L152.925 85.0012L156.52 74.6758Z" fill="#2D2B24" stroke="#2D2B24" stroke-width="2" stroke-miterlimit="10" stroke-linejoin="round"/>
<path d="M96.2652 135.637C96.2652 135.637 91.9975 144.393 102.327 146.858C108.633 148.368 114.266 151.54 120.427 153.175C125.097 154.415 129.154 152.825 130.169 147.755C132.188 137.654 137.577 117.003 150.156 117.226C158.223 117.226 166.382 117.498 174.417 117.437C179.264 117.399 180.557 113.291 180.472 108.926C180.287 100.097 180.366 91.2617 180.392 82.433C180.406 77.4747 181.198 72.5691 180.768 67.5976C180.135 60.259 176.554 59.204 169.469 59.3227C162.464 59.4414 155.453 59.4349 148.447 59.4018C137.023 59.3425 124.827 57.3118 119.622 70.0965C114.233 83.3428 96.2719 135.637 96.2719 135.637H96.2652Z" stroke="#2D2B24" stroke-width="6" stroke-miterlimit="10" stroke-linejoin="round"/>
<path d="M113.494 158.784L99.2879 153.972C97.3178 153.304 95.1796 154.36 94.5119 156.33L92.2358 163.042C91.5681 165.012 92.6238 167.148 94.5938 167.816L108.799 172.628C110.77 173.296 112.908 172.24 113.576 170.271L115.852 163.558C116.519 161.589 115.464 159.451 113.494 158.784Z" stroke="#2D2B24" stroke-width="6" stroke-miterlimit="10" stroke-linejoin="round"/>
<path d="M101.788 171.947C101.788 171.947 83.8404 241.641 38.9536 158.496" stroke="#2D2B24" stroke-width="6" stroke-miterlimit="10" stroke-linecap="round" stroke-linejoin="round"/>
<path d="M197.885 67.332H192.608C190.251 67.332 188.342 69.242 188.342 71.598V100.774C188.342 103.13 190.251 105.04 192.608 105.04H197.885C200.242 105.04 202.153 103.13 202.153 100.774V71.598C202.153 69.242 200.242 67.332 197.885 67.332Z" stroke="#2D2B24" stroke-width="6" stroke-miterlimit="10" stroke-linejoin="round"/>
</g>
<defs>
<clipPath id="clip0_4159_7417">
<rect width="210" height="202" fill="white" transform="translate(0.0517578 0.5)"/>
</clipPath>
</defs>
</svg>
