<svg width="30" height="30" viewBox="0 0 30 30" fill="none" xmlns="http://www.w3.org/2000/svg">
<path d="M15.9999 14.0146L20.9992 9.09956M21.9991 10.0826L19.9994 8.11656L22.499 6.64206L23.4989 7.62506L21.9991 10.0826ZM7.02609 12.024C6.54604 11.5525 6.2158 10.9539 6.07555 10.3012C5.93531 9.64842 5.99112 8.96968 6.23619 8.34757L7.65801 9.7454H9.65774V7.77939L8.23593 6.38157C8.86876 6.14008 9.55937 6.08476 10.2236 6.22234C10.8879 6.35991 11.4971 6.68445 11.977 7.15641C12.457 7.62837 12.7869 8.22737 12.9267 8.88044C13.0665 9.53351 13.0101 10.2125 12.7643 10.8346L19.2335 17.1956C19.8662 16.9539 20.5568 16.8985 21.2211 17.0359C21.8854 17.1733 22.4947 17.4977 22.9747 17.9696C23.4548 18.4414 23.7849 19.0404 23.9248 19.6934C24.0648 20.3465 24.0085 21.0254 23.7629 21.6476L22.3421 20.2497H20.3423V22.2158L21.7641 23.6136C21.1315 23.8551 20.441 23.9105 19.7769 23.7731C19.1128 23.6356 18.5036 23.3113 18.0236 22.8396C17.5436 22.3679 17.2135 21.7692 17.0734 21.1163C16.9333 20.4635 16.9894 19.7847 17.2347 19.1625L10.7636 12.8006C10.1311 13.0411 9.44109 13.0957 8.77756 12.9579C8.11403 12.82 7.50554 12.4956 7.02609 12.024Z" stroke="#030302" stroke-linecap="round" stroke-linejoin="round"/>
<path d="M15.2036 17.4539L9.60037 22.9627C9.47499 23.0862 9.32607 23.1841 9.16214 23.251C8.9982 23.3178 8.82247 23.3522 8.64499 23.3522C8.46752 23.3522 8.29178 23.3178 8.12785 23.251C7.96391 23.1841 7.815 23.0862 7.68962 22.9627L6.89772 22.1841C6.77211 22.0609 6.67245 21.9145 6.60446 21.7533C6.53646 21.5921 6.50146 21.4194 6.50146 21.2449C6.50146 21.0704 6.53646 20.8976 6.60446 20.7364C6.67245 20.5753 6.77211 20.4289 6.89772 20.3056L12.501 14.7969" stroke="#030302" stroke-linecap="round" stroke-linejoin="round"/>
</svg>
