<svg width="49" height="49" viewBox="0 0 49 49" fill="none" xmlns="http://www.w3.org/2000/svg">
<circle cx="24.0947" cy="24.5859" r="20" fill="#736D5D"/>
<path d="M24.0948 14.7481C27.2989 14.7481 27.6784 14.7603 28.9438 14.8181C30.1137 14.8714 30.7491 15.0669 31.172 15.2312C31.7321 15.4489 32.1319 15.709 32.5518 16.1289C32.9717 16.5488 33.2317 16.9485 33.4494 17.5087C33.6138 17.9315 33.8092 18.5669 33.8626 19.7369C33.9203 21.0022 33.9326 21.3818 33.9326 24.5859C33.9326 27.79 33.9203 28.1696 33.8626 29.4349C33.8092 30.6049 33.6138 31.2403 33.4494 31.6631C33.2317 32.2233 32.9717 32.623 32.5518 33.0429C32.1319 33.4628 31.7321 33.7229 31.172 33.9406C30.7491 34.1049 30.1137 34.3004 28.9438 34.3537C27.6786 34.4115 27.2991 34.4237 24.0948 34.4237C20.8904 34.4237 20.5109 34.4115 19.2457 34.3537C18.0757 34.3004 17.4403 34.1049 17.0175 33.9406C16.4573 33.7229 16.0576 33.4628 15.6377 33.0429C15.2178 32.623 14.9577 32.2233 14.74 31.6631C14.5757 31.2403 14.3802 30.6049 14.3269 29.4349C14.2691 28.1696 14.2569 27.79 14.2569 24.5859C14.2569 21.3818 14.2691 21.0022 14.3269 19.7369C14.3802 18.5669 14.5757 17.9315 14.74 17.5087C14.9577 16.9485 15.2178 16.5488 15.6377 16.1289C16.0576 15.709 16.4573 15.4489 17.0175 15.2312C17.4403 15.0669 18.0757 14.8714 19.2457 14.8181C20.511 14.7603 20.8906 14.7481 24.0948 14.7481ZM24.0948 12.5859C20.8357 12.5859 20.4271 12.5998 19.1471 12.6582C17.8699 12.7164 16.9976 12.9193 16.2343 13.2159C15.4452 13.5226 14.776 13.9329 14.1088 14.6C13.4417 15.2672 13.0314 15.9364 12.7247 16.7255C12.4281 17.4888 12.2252 18.3611 12.1669 19.6383C12.1085 20.9183 12.0947 21.3269 12.0947 24.5859C12.0947 27.8449 12.1085 28.2535 12.1669 29.5335C12.2252 30.8107 12.4281 31.683 12.7247 32.4463C13.0314 33.2354 13.4417 33.9046 14.1088 34.5718C14.776 35.2389 15.4452 35.6492 16.2343 35.9558C16.9976 36.2525 17.8699 36.4554 19.1471 36.5136C20.4271 36.572 20.8357 36.5859 24.0948 36.5859C27.3537 36.5859 27.7624 36.572 29.0423 36.5136C30.3196 36.4554 31.1919 36.2525 31.9552 35.9558C32.7443 35.6492 33.4135 35.2389 34.0807 34.5718C34.7478 33.9046 35.1581 33.2354 35.4648 32.4463C35.7614 31.683 35.9643 30.8107 36.0225 29.5335C36.0809 28.2535 36.0947 27.8449 36.0947 24.5859C36.0947 21.3269 36.0809 20.9183 36.0225 19.6383C35.9643 18.3611 35.7614 17.4888 35.4648 16.7255C35.1581 15.9364 34.7478 15.2672 34.0807 14.6C33.4135 13.9329 32.7443 13.5226 31.9552 13.2159C31.1919 12.9193 30.3196 12.7164 29.0423 12.6582C27.7624 12.5998 27.3537 12.5859 24.0948 12.5859Z" fill="#F6F6EE"/>
<path d="M24.1007 18.4297C20.6973 18.4297 17.9385 21.1885 17.9385 24.5918C17.9385 27.9951 20.6973 30.754 24.1007 30.754C27.5039 30.754 30.2628 27.9951 30.2628 24.5918C30.2628 21.1885 27.5039 18.4297 24.1007 18.4297ZM24.1007 28.5918C21.8915 28.5918 20.1006 26.801 20.1006 24.5918C20.1006 22.3827 21.8915 20.5918 24.1007 20.5918C26.3098 20.5918 28.1006 22.3827 28.1006 24.5918C28.1006 26.801 26.3098 28.5918 24.1007 28.5918Z" fill="#F6F6EE"/>
<path d="M31.9454 18.1822C31.9454 18.9775 31.3007 19.6222 30.5054 19.6222C29.7102 19.6222 29.0654 18.9775 29.0654 18.1822C29.0654 17.3869 29.7102 16.7422 30.5054 16.7422C31.3007 16.7422 31.9454 17.3869 31.9454 18.1822Z" fill="#F6F6EE"/>
</svg>
