<svg width="80" height="81" viewBox="0 0 80 81" fill="none" xmlns="http://www.w3.org/2000/svg">
<path d="M49.9998 36.875C49.9998 39.5272 48.9462 42.0707 47.0708 43.9461C45.1955 45.8214 42.6519 46.875 39.9998 46.875C37.3476 46.875 34.8041 45.8214 32.9287 43.9461C31.0533 42.0707 29.9998 39.5272 29.9998 36.875C29.9998 34.2228 31.0533 31.6793 32.9287 29.8039C34.8041 27.9286 37.3476 26.875 39.9998 26.875C42.6519 26.875 45.1955 27.9286 47.0708 29.8039C48.9462 31.6793 49.9998 34.2228 49.9998 36.875Z" stroke="#2D2B24" stroke-width="3" stroke-linecap="round" stroke-linejoin="round"/>
<path d="M66.8932 22.6843L65.4598 20.1843C64.3765 18.2976 63.8332 17.3509 62.9098 16.9743C61.9865 16.5976 60.9432 16.8943 58.8565 17.4909L55.3098 18.4909C53.9765 18.8009 52.5765 18.6243 51.3632 17.9976L50.3832 17.4309C49.3386 16.7578 48.5363 15.7686 48.0932 14.6076L47.1232 11.7009C46.4832 9.77427 46.1665 8.81094 45.4065 8.26094C44.6465 7.71094 43.6398 7.71094 41.6198 7.71094H38.3798C36.3632 7.71094 35.3532 7.71094 34.5932 8.26094C33.8332 8.81094 33.5165 9.77427 32.8765 11.7009L31.9098 14.6076C31.4658 15.7691 30.6623 16.7583 29.6165 17.4309L28.6365 17.9976C27.4198 18.6243 26.0232 18.7976 24.6898 18.4909L21.1432 17.4909C19.0565 16.8943 18.0098 16.5976 17.0898 16.9743C16.1665 17.3509 15.6232 18.2976 14.5398 20.1843L13.1065 22.6843C12.0898 24.4543 11.5798 25.3409 11.6798 26.2843C11.7798 27.2276 12.4565 27.9843 13.8198 29.5043L16.8165 32.8676C17.5498 33.7976 18.0665 35.4176 18.0665 36.8776C18.0665 38.3376 17.5465 39.9576 16.8165 40.8876L13.8165 44.2509C12.4565 45.7709 11.7765 46.5276 11.6798 47.4709C11.5832 48.4143 12.0898 49.3009 13.1065 51.0709L14.5398 53.5709C15.6232 55.4576 16.1665 56.4043 17.0898 56.7809C18.0132 57.1576 19.0565 56.8609 21.1432 56.2643L24.6898 55.2643C26.0232 54.9543 27.4232 55.1309 28.6365 55.7576L29.6165 56.3243C30.6598 56.9943 31.4632 57.9843 31.9065 59.1476L32.8765 62.0543C33.5165 63.9809 33.8332 64.9443 34.5932 65.4943C35.3532 66.0443 36.3598 66.0443 38.3798 66.0443H41.6198C43.6365 66.0443 44.6465 66.0443 45.4065 65.4943C46.1665 64.9443 46.4832 63.9809 47.1232 62.0543L48.0932 59.1476C48.5342 57.9854 49.337 56.9957 50.3832 56.3243L51.3632 55.7576C52.5786 55.1303 53.9774 54.9555 55.3098 55.2643L58.8565 56.2643C60.9432 56.8609 61.9898 57.1576 62.9098 56.7809C63.8332 56.4043 64.3765 55.4576 65.4598 53.5709L66.8932 51.0709C67.9098 49.3009 68.4198 48.4143 68.3198 47.4709C68.2198 46.5276 67.5432 45.7709 66.1798 44.2509L63.1832 40.8876C62.4498 39.9543 61.9332 38.3376 61.9332 36.8776C61.9332 35.4209 62.4532 33.7976 63.1832 32.8676L66.1832 29.5043C67.5432 27.9843 68.2232 27.2276 68.3198 26.2843C68.4165 25.3409 67.9132 24.4543 66.8932 22.6843Z" stroke="#2D2B24" stroke-width="3" stroke-linecap="round" stroke-linejoin="round"/>
<path d="M73.3332 61.0469C73.3332 64.1469 73.3332 65.6969 72.9932 66.9669C72.539 68.6631 71.6462 70.2099 70.4045 71.4515C69.1628 72.6932 67.6161 73.586 65.9198 74.0402C64.6532 74.3802 63.0998 74.3802 59.9998 74.3802H19.9998C16.8998 74.3802 15.3498 74.3802 14.0798 74.0402C12.3836 73.586 10.8368 72.6932 9.59517 71.4515C8.3535 70.2099 7.46067 68.6631 7.0065 66.9669C6.6665 65.7002 6.6665 64.1469 6.6665 61.0469" stroke="#2D2B24" stroke-width="3" stroke-linecap="round" stroke-linejoin="round"/>
</svg>
