<svg width="49" height="53" viewBox="0 0 49 53" fill="none" xmlns="http://www.w3.org/2000/svg">
<path d="M0.918457 21.1699C1.05518 20.4863 1.14632 19.9395 1.19189 19.5293C1.23747 19.0736 1.07796 18.5951 0.713379 18.0938C0.895671 17.3646 1.03239 16.7949 1.12354 16.3848C1.26025 15.9746 1.28304 15.4049 1.19189 14.6758C1.60205 13.4909 2.21729 12.4883 3.0376 11.668C3.90348 10.8477 4.83773 10.1641 5.84033 9.61719C6.84294 9.02474 7.89111 8.54622 8.98486 8.18164C10.0786 7.77148 11.104 7.42969 12.061 7.15625C12.061 6.97396 11.9699 6.88281 11.7876 6.88281C11.6053 6.88281 11.5597 6.76888 11.6509 6.54102C14.1118 6.08529 16.5728 5.42448 19.0337 4.55859C21.5402 3.69271 24.0923 2.91797 26.6899 2.23438C29.2876 1.55078 31.9536 1.14062 34.688 1.00391C37.4224 0.821615 40.2935 1.16341 43.3013 2.0293C43.4836 2.57617 43.7342 3.10026 44.0532 3.60156C44.3722 4.10286 44.6912 4.60417 45.0103 5.10547C45.3748 5.5612 45.6938 6.01693 45.9673 6.47266C46.2407 6.92839 46.4002 7.4069 46.4458 7.9082C46.9927 8.40951 47.4256 8.95638 47.7446 9.54883C48.1092 10.0957 48.1776 10.8477 47.9497 11.8047C47.4484 12.1693 46.9243 12.5339 46.3774 12.8984C45.8306 13.263 45.2609 13.6048 44.6685 13.9238C42.6177 13.4225 40.5669 13.2402 38.5161 13.377C36.4653 13.5137 34.6196 13.6732 32.979 13.8555C32.4777 13.3086 31.8853 13.0579 31.2017 13.1035C30.5181 13.1035 29.7889 13.2174 29.0142 13.4453C28.285 13.6276 27.5558 13.8327 26.8267 14.0605C26.0975 14.2428 25.4139 14.2884 24.7759 14.1973C24.2746 14.653 23.6138 14.972 22.7935 15.1543C21.9731 15.291 21.1073 15.4049 20.1958 15.4961C20.1502 15.724 20.1958 15.8835 20.3325 15.9746C20.4692 16.0658 20.492 16.248 20.4009 16.5215C20.7199 16.9316 21.1528 17.2279 21.6997 17.4102C22.2466 17.5469 22.7935 17.6836 23.3403 17.8203C23.9328 17.957 24.4569 18.1621 24.9126 18.4355C25.3683 18.6634 25.6646 19.0508 25.8013 19.5977C26.6216 19.6432 27.328 19.8711 27.9204 20.2812C28.5129 20.6458 29.0142 21.1016 29.4243 21.6484C29.8345 22.1953 30.1307 22.7878 30.313 23.4258C30.4953 24.0182 30.5636 24.5651 30.5181 25.0664C30.7004 25.5221 30.8826 25.7044 31.0649 25.6133C31.2928 25.5221 31.5435 25.6361 31.8169 25.9551C31.9992 26.6387 32.4093 27.3678 33.0474 28.1426C33.731 28.8717 34.255 29.6693 34.6196 30.5352C34.7108 31.9023 34.7791 33.1328 34.8247 34.2266C34.9159 35.3203 34.7336 36.3913 34.2778 37.4395C33.5031 39.4447 32.3866 41.2448 30.9282 42.8398C29.4699 44.4349 27.8065 45.8477 25.938 47.0781C24.1151 48.263 22.1782 49.3112 20.1274 50.2227C18.0767 51.0885 16.0487 51.8177 14.0435 52.4102C13.8612 52.3646 13.6333 52.3646 13.3599 52.4102C13.132 52.4557 13.0864 52.319 13.2231 52C12.813 52.3646 12.3345 52.5924 11.7876 52.6836C11.2863 52.7747 10.7166 52.7975 10.0786 52.752C9.48617 52.752 8.87093 52.7292 8.23291 52.6836C7.64046 52.638 7.04801 52.6608 6.45557 52.752C6.09098 52.3874 5.74919 52.0228 5.43018 51.6582C5.15674 51.2936 4.92887 50.8607 4.74658 50.3594C4.51872 50.3138 4.40479 50.1771 4.40479 49.9492C4.45036 49.6758 4.35921 49.5391 4.13135 49.5391C4.13135 49.3568 4.15413 49.2201 4.19971 49.1289C4.24528 49.0378 4.29085 48.9466 4.33643 48.8555C4.51872 48.7188 4.58708 48.6276 4.5415 48.582C4.5415 48.4909 4.47314 48.4225 4.33643 48.377C4.24528 48.2858 4.13135 48.1947 3.99463 48.1035C3.90348 48.0124 3.8807 47.8984 3.92627 47.7617C4.15413 47.3516 4.22249 46.873 4.13135 46.3262C4.08577 45.7337 4.0402 45.1413 3.99463 44.5488C3.94906 43.9564 3.99463 43.4095 4.13135 42.9082C4.26807 42.3613 4.65544 41.9056 5.29346 41.541C7.16195 41.7233 8.9165 41.6322 10.5571 41.2676C12.2433 40.903 13.8156 40.4017 15.2739 39.7637C16.7778 39.1257 18.1906 38.4421 19.5122 37.7129C20.8794 36.9382 22.201 36.2318 23.4771 35.5938C23.6138 35.138 23.8188 34.7507 24.0923 34.4316C24.4113 34.1126 24.7303 33.8164 25.0493 33.543C25.3683 33.224 25.6646 32.9049 25.938 32.5859C26.2114 32.2214 26.4165 31.7884 26.5532 31.2871C26.5988 31.1048 26.5988 30.9681 26.5532 30.877C26.5076 30.7858 26.4393 30.7174 26.3481 30.6719C26.257 30.5807 26.1659 30.4896 26.0747 30.3984C25.9836 30.3073 25.938 30.1706 25.938 29.9883C25.8013 29.9427 25.6646 29.8971 25.5278 29.8516C25.4367 29.806 25.3455 29.7832 25.2544 29.7832C24.0695 29.1908 22.8162 28.6895 21.4946 28.2793C20.173 27.8691 19.0565 27.4134 18.145 26.9121C17.5981 27.2767 17.0513 27.3678 16.5044 27.1855C15.9575 27.0033 15.2967 26.821 14.522 26.6387C12.6079 26.5475 10.785 26.3652 9.05322 26.0918C7.36702 25.8184 5.7264 25.3398 4.13135 24.6562C4.0402 24.3828 3.92627 24.1549 3.78955 23.9727C3.65283 23.7448 3.33382 23.6764 2.83252 23.7676C2.51351 23.3118 2.17171 22.9017 1.80713 22.5371C1.48812 22.127 1.19189 21.6712 0.918457 21.1699Z" fill="black"/>
</svg>
