<svg width="56" height="61" viewBox="0 0 56 61" fill="none" xmlns="http://www.w3.org/2000/svg">
<path d="M44.8965 21.752C43.7572 21.752 42.5267 21.8431 41.2051 22.0254C39.8835 22.1621 38.5846 22.3216 37.3086 22.5039C36.3971 22.6406 35.5085 22.7546 34.6426 22.8457C33.8223 22.9368 33.0703 23.0052 32.3867 23.0508C32.0677 24.0534 31.7487 24.9421 31.4297 25.7168C31.1107 26.4915 30.7689 27.2435 30.4043 27.9727C30.0397 28.7474 29.6979 29.5449 29.3789 30.3652C29.1055 31.14 28.832 31.9831 28.5586 32.8945C28.1029 33.6237 27.7155 34.3073 27.3965 34.9453C27.123 35.5378 26.8952 36.2214 26.7129 36.9961C26.166 37.6797 25.7559 38.4089 25.4824 39.1836C25.209 39.9128 25.0039 40.5508 24.8672 41.0977L24.5938 41.918C24.3203 42.1914 24.1608 42.4193 24.1152 42.6016C24.0697 42.7383 23.9557 42.875 23.7734 43.0117C23.7279 43.513 23.5684 44.0143 23.2949 44.5156C23.2038 44.7435 23.1354 44.9714 23.0898 45.1992C23.0443 45.3815 23.0215 45.5182 23.0215 45.6094C23.0215 46.0651 22.9076 46.3613 22.6797 46.498C22.7253 46.7259 22.7253 46.9766 22.6797 47.25C22.6341 47.4779 22.5885 47.7057 22.543 47.9336C22.4062 48.4805 22.3607 48.9134 22.4062 49.2324C22.543 49.4147 22.6569 49.5742 22.748 49.7109C22.8848 49.8477 22.9759 50.0299 23.0215 50.2578C23.2949 50.4401 23.5 50.554 23.6367 50.5996C23.819 50.7363 24.0924 50.8958 24.457 51.0781L25.0723 51.7617C25.3001 53.0833 25.0951 54.1315 24.457 54.9062C23.7734 55.7721 22.6113 56.2051 20.9707 56.2051H20.1504C19.9225 55.9772 19.7858 55.7949 19.7402 55.6582C19.3757 55.5215 19.0794 55.4076 18.8516 55.3164C18.6237 55.2253 18.4186 55.043 18.2363 54.7695C17.6439 54.4961 17.1654 54.2682 16.8008 54.0859L16.1855 53.7441C16.1855 53.2428 16.1855 52.9694 16.1855 52.9238C15.8665 52.5137 15.6159 52.0579 15.4336 51.5566C15.2969 51.0553 15.1829 50.554 15.0918 50.0527C15.0007 49.6426 14.8867 49.2552 14.75 48.8906C14.6589 48.526 14.5221 48.207 14.3398 47.9336C14.2487 45.2904 14.4993 43.0573 15.0918 41.2344C15.6842 39.4115 16.2995 37.6569 16.9375 35.9707C17.3021 35.0592 17.6667 34.1478 18.0312 33.2363C18.3958 32.2793 18.7148 31.2995 18.9883 30.2969L19.6035 29.6133C19.9225 28.8841 20.1732 28.2917 20.3555 27.8359C20.5833 27.3346 20.8112 26.8333 21.0391 26.332C21.1758 26.013 21.2897 25.7168 21.3809 25.4434C21.5176 25.1243 21.6315 24.8509 21.7227 24.623C21.4492 24.623 21.1986 24.6458 20.9707 24.6914C20.7428 24.6914 20.515 24.7142 20.2871 24.7598C20.0137 24.8053 19.763 24.8509 19.5352 24.8965C19.3073 24.8965 19.0794 24.8965 18.8516 24.8965C18.5326 24.8965 18.3047 24.8737 18.168 24.8281C17.6667 25.056 17.1198 25.1699 16.5273 25.1699H15.8438C15.707 25.1699 15.5703 25.1699 15.4336 25.1699C15.3424 25.1243 15.2513 25.1016 15.1602 25.1016C14.7044 25.1016 14.3398 25.1699 14.0664 25.3066C13.5195 25.3066 12.9954 25.3066 12.4941 25.3066H11.8105C11.7194 25.3066 11.6055 25.3294 11.4688 25.375C11.332 25.375 11.2181 25.375 11.127 25.375C10.8079 25.375 10.4661 25.3522 10.1016 25.3066C9.73698 25.2155 9.34961 25.056 8.93945 24.8281C8.39258 24.099 8.02799 23.7116 7.8457 23.666L7.23047 22.8457C7.1849 22.5723 7.11654 22.3216 7.02539 22.0938C6.93424 21.8203 6.8431 21.5241 6.75195 21.2051C6.56966 20.7493 6.38737 20.2708 6.20508 19.7695C6.06836 19.2227 6 18.5846 6 17.8555C6.04557 17.4909 6.13672 17.2174 6.27344 17.0352C6.41016 16.8529 6.52409 16.6934 6.61523 16.5566L6.82031 15.5312L7.70898 15.5996H9.62305C11.0814 15.5996 12.5625 15.554 14.0664 15.4629C15.5703 15.3262 17.1198 15.1895 18.7148 15.0527C19.6263 14.9616 20.5378 14.8704 21.4492 14.7793C22.4062 14.6882 23.3861 14.597 24.3887 14.5059C24.571 14.0957 24.7533 13.7083 24.9355 13.3438L25.6191 13.002C26.4395 12.9564 27.0091 13.0703 27.3281 13.3438C27.6927 13.5716 27.9889 13.7995 28.2168 14.0273C29.2194 13.9362 30.222 13.8451 31.2246 13.7539C32.2728 13.6172 33.321 13.4577 34.3691 13.2754C35.9186 13.0475 37.4681 12.8424 39.0176 12.6602C40.6126 12.4779 42.1393 12.3867 43.5977 12.3867C44.2357 12.3867 44.8509 12.4095 45.4434 12.4551C46.0358 12.5007 46.5827 12.569 47.084 12.6602L47.7676 13.1387C47.9043 13.4121 48.0866 13.6628 48.3145 13.8906C48.5879 14.1185 48.8613 14.3464 49.1348 14.5742C49.6816 15.0755 50.2285 15.668 50.7754 16.3516C51.3223 17.0352 51.5273 18.0378 51.3906 19.3594C51.026 19.9062 50.7526 20.2253 50.5703 20.3164L49.9551 21.1367L49.2715 21.0684C48.998 21.0684 48.7474 21.1139 48.5195 21.2051C48.2917 21.2507 48.0638 21.319 47.8359 21.4102C47.6536 21.5013 47.4714 21.5924 47.2891 21.6836C47.1068 21.7292 46.9017 21.7747 46.6738 21.8203C46.2637 21.8203 45.9219 21.8203 45.6484 21.8203C45.4206 21.7747 45.1699 21.752 44.8965 21.752Z" fill="black"/>
</svg>
