<svg width="24" height="24" viewBox="0 0 24 24" fill="none" xmlns="http://www.w3.org/2000/svg">
<g clip-path="url(#clip0_3065_22111)">
<path d="M12.8675 0.234804C12.6051 0.0810483 12.3064 0 12.0022 0C11.698 0 11.3993 0.0810483 11.1368 0.234804L0.84857 6.2601C0.591013 6.41147 0.377556 6.62759 0.229412 6.887C0.0812678 7.14641 0.00359556 7.44007 0.00411482 7.7388C0.00463408 8.03752 0.0833267 8.33091 0.232372 8.58981C0.381417 8.8487 0.595624 9.06408 0.853706 9.21455L11.1403 15.209C11.4019 15.3615 11.6993 15.4418 12.0022 15.4418C12.305 15.4418 12.6024 15.3615 12.8641 15.209L23.1507 9.21455C23.409 9.06389 23.6233 8.84821 23.7723 8.58896C23.9213 8.32972 23.9998 8.03597 24 7.73696C24.0002 7.43795 23.922 7.14411 23.7733 6.88469C23.6246 6.62528 23.4105 6.40935 23.1524 6.25839L12.8675 0.234804ZM11.1368 2.2187C11.3991 2.06527 11.6975 1.9844 12.0013 1.9844C12.3052 1.9844 12.6036 2.06527 12.8658 2.2187L22.2879 7.73561L12.8641 13.2286C12.6024 13.381 12.305 13.4614 12.0022 13.4614C11.6993 13.4614 11.4019 13.381 11.1403 13.2286L1.71477 7.73561L11.1368 2.2187ZM0.139861 11.4175L11.1608 17.6192C11.4169 17.7631 11.7058 17.8387 11.9996 17.8387C12.2934 17.8387 12.5823 17.7631 12.8384 17.6192L23.8594 11.4175C24.025 11.8017 24.0442 12.2333 23.9133 12.6307C23.7824 13.0281 23.5105 13.3638 23.1489 13.5743L12.8607 19.5688C12.5992 19.721 12.3021 19.8011 11.9996 19.8011C11.6971 19.8011 11.4 19.721 11.1385 19.5688L0.850282 13.5743C0.488726 13.3638 0.216816 13.0281 0.0859222 12.6307C-0.0449715 12.2333 -0.0257836 11.8017 0.139861 11.4175ZM0.139861 15.6164L11.1608 21.8163C11.4169 21.9603 11.7058 22.0359 11.9996 22.0359C12.2934 22.0359 12.5823 21.9603 12.8384 21.8163L23.8594 15.6164C24.025 16.0006 24.0442 16.4322 23.9133 16.8296C23.7824 17.227 23.5105 17.5626 23.1489 17.7732L12.8607 23.7677C12.5992 23.9198 12.3021 24 11.9996 24C11.6971 24 11.4 23.9198 11.1385 23.7677L0.850282 17.7732C0.488726 17.5626 0.216816 17.227 0.0859222 16.8296C-0.0449715 16.4322 -0.0257836 16.0006 0.139861 15.6164Z" fill="#1E1E1E"/>
</g>
<defs>
<clipPath id="clip0_3065_22111">
<rect width="24" height="24" fill="white"/>
</clipPath>
</defs>
</svg>
