<svg width="24" height="24" viewBox="0 0 24 24" fill="none" xmlns="http://www.w3.org/2000/svg">
<path d="M12.606 3.74273C12.422 3.63494 12.2126 3.57813 11.9994 3.57812C11.7861 3.57813 11.5768 3.63494 11.3928 3.74273L4.18078 7.96673C4.00023 8.07285 3.8506 8.22436 3.74675 8.40622C3.64291 8.58808 3.58846 8.79395 3.58882 9.00337C3.58919 9.21278 3.64435 9.41846 3.74883 9.59996C3.85331 9.78146 4.00347 9.93245 4.18438 10.0379L11.3952 14.2403C11.5786 14.3472 11.7871 14.4035 11.9994 14.4035C12.2117 14.4035 12.4202 14.3472 12.6036 14.2403L19.8144 10.0379C19.9954 9.93232 20.1457 9.78111 20.2502 9.59937C20.3546 9.41763 20.4096 9.2117 20.4098 9.00208C20.4099 8.79246 20.3551 8.58646 20.2508 8.4046C20.1466 8.22274 19.9965 8.07136 19.8156 7.96553L12.606 3.74273ZM11.3928 5.13353C11.5766 5.02597 11.7858 4.96928 11.9988 4.96928C12.2118 4.96928 12.4209 5.02597 12.6048 5.13353L19.2096 9.00113L12.6036 12.8519C12.4202 12.9588 12.2117 13.0151 11.9994 13.0151C11.7871 13.0151 11.5786 12.9588 11.3952 12.8519L4.78798 9.00113L11.3928 5.13353ZM3.68398 11.5823L11.4096 15.9299C11.5891 16.0309 11.7916 16.0839 11.9976 16.0839C12.2035 16.0839 12.406 16.0309 12.5856 15.9299L20.3112 11.5823C20.4273 11.8517 20.4407 12.1542 20.349 12.4328C20.2572 12.7114 20.0666 12.9467 19.8132 13.0943L12.6012 17.2967C12.4179 17.4034 12.2096 17.4596 11.9976 17.4596C11.7855 17.4596 11.5773 17.4034 11.394 17.2967L4.18198 13.0943C3.92853 12.9467 3.73792 12.7114 3.64617 12.4328C3.55441 12.1542 3.56786 11.8517 3.68398 11.5823ZM3.68398 14.5259L11.4096 18.8723C11.5891 18.9733 11.7916 19.0263 11.9976 19.0263C12.2035 19.0263 12.406 18.9733 12.5856 18.8723L20.3112 14.5259C20.4273 14.7953 20.4407 15.0978 20.349 15.3764C20.2572 15.655 20.0666 15.8903 19.8132 16.0379L12.6012 20.2403C12.4179 20.347 12.2096 20.4032 11.9976 20.4032C11.7855 20.4032 11.5773 20.347 11.394 20.2403L4.18198 16.0379C3.92853 15.8903 3.73792 15.655 3.64617 15.3764C3.55441 15.0978 3.56786 14.7953 3.68398 14.5259Z" fill="#1E1E1E"/>
</svg>
