<svg width="50" height="49" viewBox="0 0 50 49" fill="none" xmlns="http://www.w3.org/2000/svg">
<path d="M24.5947 44.5859C35.6404 44.5859 44.5947 35.6316 44.5947 24.5859C44.5947 13.5402 35.6404 4.58594 24.5947 4.58594C13.549 4.58594 4.59473 13.5402 4.59473 24.5859C4.59473 35.6316 13.549 44.5859 24.5947 44.5859Z" fill="#FFC31F"/>
<path fill-rule="evenodd" clip-rule="evenodd" d="M19.3695 14.8698C19.3695 16.1149 18.4214 17.1225 16.9389 17.1225C15.5141 17.1225 14.566 16.1149 14.5954 14.8698C14.566 13.5642 15.5141 12.5859 16.9673 12.5859C18.4214 12.5859 19.3411 13.5642 19.3695 14.8698ZM14.7146 33.405V18.9022H19.2219V33.4041L14.7146 33.405Z" fill="#3F3F22"/>
<path fill-rule="evenodd" clip-rule="evenodd" d="M22.835 23.5301C22.835 21.7211 22.7754 20.179 22.7158 18.9036H26.6308L26.8389 20.8904H26.9279C27.5211 19.9708 29.0036 18.5781 31.4058 18.5781C34.3709 18.5781 36.5952 20.5356 36.5952 24.8045V33.4064H32.0879V25.3693C32.0879 23.4998 31.4361 22.2254 29.805 22.2254C28.559 22.2254 27.8181 23.0854 27.522 23.9151C27.4028 24.2122 27.3441 24.6266 27.3441 25.0429V33.4064H22.8368V23.5301H22.835Z" fill="#3F3F22"/>
</svg>
