<svg width="49" height="49" viewBox="0 0 49 49" fill="none" xmlns="http://www.w3.org/2000/svg">
<circle cx="24.0947" cy="24.5859" r="20" fill="#736D5D"/>
<path fill-rule="evenodd" clip-rule="evenodd" d="M18.8695 14.8698C18.8695 16.1149 17.9214 17.1225 16.4389 17.1225C15.0141 17.1225 14.066 16.1149 14.0954 14.8698C14.066 13.5642 15.0141 12.5859 16.4673 12.5859C17.9214 12.5859 18.8411 13.5642 18.8695 14.8698ZM14.2146 33.405V18.9022H18.7219V33.4041H14.2146V33.405Z" fill="#F6F6EE"/>
<path fill-rule="evenodd" clip-rule="evenodd" d="M22.335 23.5301C22.335 21.7211 22.2754 20.179 22.2158 18.9036H26.1308L26.3389 20.8904H26.4279C27.0211 19.9708 28.5036 18.5781 30.9058 18.5781C33.8709 18.5781 36.0952 20.5356 36.0952 24.8045V33.4064H31.5879V25.3693C31.5879 23.4998 30.9361 22.2254 29.305 22.2254C28.059 22.2254 27.3181 23.0854 27.022 23.9151C26.9028 24.2122 26.8441 24.6266 26.8441 25.0429V33.4064H22.3368V23.5301H22.335Z" fill="#F6F6EE"/>
</svg>
