<svg width="58" height="71" viewBox="0 0 58 71" fill="none" xmlns="http://www.w3.org/2000/svg">
<path d="M46.3983 6.64042C46.3983 6.64042 53.4656 8.36684 51.8811 15.9118" stroke="#2D2B24" stroke-width="2" stroke-miterlimit="10" stroke-linecap="round" stroke-linejoin="round"/>
<path d="M10.2624 60.7501C10.2624 60.7501 3.45848 58.1742 5.95182 50.879" stroke="#2D2B24" stroke-width="2" stroke-miterlimit="10" stroke-linecap="round" stroke-linejoin="round"/>
<path d="M49.1546 3.16458C49.1546 3.16458 57.3537 5.16746 55.5154 13.9207" stroke="#2D2B24" stroke-width="2" stroke-miterlimit="10" stroke-linecap="round" stroke-linejoin="round"/>
<path d="M7.45616 64.7217C7.45616 64.7217 -0.437283 61.7333 2.45535 53.2698" stroke="#2D2B24" stroke-width="2" stroke-miterlimit="10" stroke-linecap="round" stroke-linejoin="round"/>
<path d="M40.1628 11.2422H19.5488C18.0893 11.2422 16.9062 12.4253 16.9062 13.8846V16.4655C16.9062 17.9248 18.0893 19.1079 19.5488 19.1079H40.1628C41.6222 19.1079 42.8053 17.9248 42.8053 16.4655V13.8846C42.8053 12.4253 41.6222 11.2422 40.1628 11.2422Z" stroke="#2D2B24" stroke-width="2" stroke-miterlimit="10" stroke-linecap="round" stroke-linejoin="round"/>
<path d="M33.0001 61.8453H19.0836C16.287 61.8453 14 59.5584 14 56.7619V13.5609C14 10.7644 16.287 8.47741 19.0836 8.47741H40.0199C40.0199 8.47741 45.4851 7.75222 45.6557 14.2268C45.8263 20.7014 45.6557 34.8047 45.6557 34.8047" stroke="#2D2B24" stroke-width="2" stroke-miterlimit="10" stroke-linecap="round" stroke-linejoin="round"/>
<path d="M14 49.8594H45.5024" stroke="#2D2B24" stroke-width="2" stroke-miterlimit="10" stroke-linecap="round" stroke-linejoin="round"/>
<path d="M29.4979 58.9487C30.8343 58.9487 31.9176 57.8654 31.9176 56.529C31.9176 55.1927 30.8343 54.1094 29.4979 54.1094C28.1615 54.1094 27.0781 55.1927 27.0781 56.529C27.0781 57.8654 28.1615 58.9487 29.4979 58.9487Z" stroke="#2D2B24" stroke-width="2" stroke-miterlimit="10" stroke-linecap="round" stroke-linejoin="round"/>
<rect x="22.7508" y="14.4617" width="15.0776" height="1.03284" rx="0.516421" fill="#2D2B24" stroke="#2D2B24" stroke-width="1.03284"/>
<path d="M33.1719 61.8203H39.6719C42.9856 61.8203 45.6719 59.134 45.6719 55.8203V34.8203" stroke="#2D2B24" stroke-width="2"/>
</svg>
