<svg width="42" height="52" viewBox="0 0 42 52" fill="none" xmlns="http://www.w3.org/2000/svg">
<path d="M6.46094 45.2246C5.13932 44.222 4.04557 42.9688 3.17969 41.4648C2.35938 39.9609 1.69857 38.3659 1.19727 36.6797C0.741536 34.9935 0.422526 33.2617 0.240234 31.4844C0.103516 29.6615 0.0579427 27.9297 0.103516 26.2891C0.513672 25.0586 1.01497 23.9421 1.60742 22.9395C2.19987 21.8913 2.86068 20.9115 3.58984 20C4.31901 19.043 5.07096 18.1543 5.8457 17.334C6.66602 16.4681 7.46354 15.6022 8.23828 14.7363C8.51172 14.7363 8.76237 14.8047 8.99023 14.9414C9.17253 14.4401 9.44596 14.0072 9.81055 13.6426C10.1751 13.278 10.5625 12.959 10.9727 12.6855C11.3828 12.3665 11.793 12.0703 12.2031 11.7969C12.6133 11.4779 12.9551 11.1133 13.2285 10.7031C14.3678 10.4297 15.3704 10.0423 16.2363 9.54102C17.1478 9.03971 18.0137 8.49284 18.834 7.90039C19.6543 7.30794 20.4974 6.76107 21.3633 6.25977C22.2292 5.75846 23.2318 5.37109 24.3711 5.09766C24.7812 4.64193 25.2826 4.25456 25.875 3.93555C26.513 3.61654 27.1283 3.32031 27.7207 3.04688C28.3587 2.77344 28.9512 2.47721 29.498 2.1582C30.0905 1.83919 30.569 1.40625 30.9336 0.859375C31.207 1.22396 31.5944 1.36068 32.0957 1.26953C32.597 1.13281 33.0527 0.996094 33.4629 0.859375C33.7363 0.813802 33.9642 0.859375 34.1465 0.996094C34.3288 1.13281 34.4883 1.29232 34.625 1.47461C34.8073 1.61133 34.944 1.70247 35.0352 1.74805C35.1719 1.79362 35.3086 1.6569 35.4453 1.33789C35.8099 1.38346 35.901 1.54297 35.7188 1.81641C35.582 2.08984 35.4909 2.27214 35.4453 2.36328C35.901 2.27214 36.2656 2.36328 36.5391 2.63672C36.8581 2.86458 37.3366 3.02409 37.9746 3.11523C38.2025 3.3431 38.2708 3.52539 38.1797 3.66211C38.0885 3.79883 38.0202 4.02669 37.9746 4.3457C39.6152 4.84701 40.6634 5.64453 41.1191 6.73828C41.5749 7.78646 41.6204 8.90299 41.2559 10.0879C40.8913 11.2272 40.2077 12.2982 39.2051 13.3008C38.248 14.2578 37.1771 14.8958 35.9922 15.2148C34.5794 15.5794 33.2578 15.944 32.0273 16.3086C30.8424 16.6732 29.6803 17.0833 28.541 17.5391C27.4473 17.9948 26.3991 18.5417 25.3965 19.1797C24.4395 19.7721 23.5964 20.4785 22.8672 21.2988C21.5911 21.6634 20.429 22.1647 19.3809 22.8027C18.3783 23.4408 17.4212 24.1471 16.5098 24.9219C15.6439 25.6966 14.8008 26.5169 13.9805 27.3828C13.1602 28.2031 12.3398 29.0234 11.5195 29.8438C11.5195 30.6185 11.3828 31.2109 11.1094 31.6211C10.8359 32.0312 10.5397 32.4414 10.2207 32.8516C10.3118 33.7174 10.4941 34.4694 10.7676 35.1074C11.0866 35.6999 11.4056 36.3151 11.7246 36.9531C15.3704 38.0469 19.2214 38.7305 23.2773 39.0039C27.3789 39.2318 31.4349 39.3685 35.4453 39.4141C35.8555 39.9609 36.3112 40.485 36.8125 40.9863C37.3594 41.4421 37.8379 41.9206 38.248 42.4219C38.7038 42.9232 39.0456 43.5156 39.2734 44.1992C39.5469 44.8372 39.6152 45.612 39.4785 46.5234C38.7038 47.2982 37.8607 48.0501 36.9492 48.7793C36.0378 49.4629 35.1263 50.1465 34.2148 50.8301C33.8047 50.8757 33.3034 50.8757 32.7109 50.8301C32.1641 50.7845 31.5716 50.7617 30.9336 50.7617C30.3411 50.7617 29.7259 50.8073 29.0879 50.8984C28.4954 50.944 27.9258 51.0807 27.3789 51.3086C24.5078 51.2174 21.5684 50.8757 18.5605 50.2832C15.5527 49.6452 12.7728 48.8932 10.2207 48.0273C9.7194 47.4349 9.19531 46.888 8.64844 46.3867C8.10156 45.8398 7.3724 45.4525 6.46094 45.2246Z" fill="black"/>
</svg>
