<svg width="61" height="51" viewBox="0 0 61 51" fill="none" xmlns="http://www.w3.org/2000/svg">
<path d="M46.3252 40.5859C46.0518 41.3607 45.6416 42.1582 45.0947 42.9785C44.5934 43.7533 43.9782 44.4596 43.249 45.0977C42.5654 45.6901 41.7907 46.1914 40.9248 46.6016C40.0589 47.0117 39.1475 47.2396 38.1904 47.2852C37.598 47.1484 37.1878 46.9889 36.96 46.8066C36.7777 46.6699 36.5726 46.5332 36.3447 46.3965C36.208 46.3053 36.0713 46.237 35.9346 46.1914C35.8434 46.1003 35.7523 46.0319 35.6611 45.9863L34.8408 45.6445L35.1143 44.7559C35.2054 44.3913 35.1826 44.1178 35.0459 43.9355C34.9092 43.7077 34.6357 43.4115 34.2256 43.0469C34.0889 42.9102 33.9521 42.7734 33.8154 42.6367C33.6787 42.5 33.5648 42.3633 33.4736 42.2266L32.3115 40.9277L34.1572 40.4492C35.2965 40.1302 36.0485 39.7201 36.4131 39.2188C36.8232 38.7174 36.9827 37.8743 36.8916 36.6895C35.9801 36.5072 35.2054 36.4844 34.5674 36.6211C33.9749 36.7578 33.3597 36.9173 32.7217 37.0996C31.9014 37.3275 31.0583 37.5326 30.1924 37.7148C29.3721 37.8516 28.4606 37.9199 27.458 37.9199C27.0934 37.9199 26.7516 37.9199 26.4326 37.9199C26.1136 37.8743 25.7718 37.8288 25.4072 37.7832L24.7236 37.6465C24.6325 37.1452 24.5413 36.8717 24.4502 36.8262C24.359 36.735 24.2679 36.6439 24.1768 36.5527C23.9489 36.3249 23.6982 36.0286 23.4248 35.6641C23.1969 35.2539 23.1514 34.7526 23.2881 34.1602C23.0602 33.75 22.9235 33.3398 22.8779 32.9297C22.6045 33.4766 22.3994 34.0462 22.2627 34.6387L21.9893 35.3223L21.3057 35.459C21.2145 35.5046 21.1462 35.6185 21.1006 35.8008C21.055 35.9375 21.0322 36.0514 21.0322 36.1426L20.6904 37.3047C20.5993 37.3958 20.5081 37.487 20.417 37.5781C20.3258 37.6237 20.2347 37.6921 20.1436 37.7832C20.0524 38.1934 19.9385 38.6035 19.8018 39.0137C19.665 39.4238 19.5283 39.8112 19.3916 40.1758C19.1637 40.7682 18.9587 41.3607 18.7764 41.9531C18.6396 42.5 18.5941 43.0469 18.6396 43.5938L18.3662 44.3457C18.1383 44.6191 17.8877 44.847 17.6143 45.0293C17.3408 45.166 17.0674 45.3027 16.7939 45.4395C16.7028 45.5306 16.5661 45.6217 16.3838 45.7129C16.2471 45.7585 16.1331 45.804 16.042 45.8496L15.8369 46.6016L15.0166 46.7383C14.5153 46.8294 14.1507 46.8978 13.9229 46.9434C13.7406 46.9889 13.5127 47.0117 13.2393 47.0117L12.5557 46.9434C12.0544 46.5332 11.667 46.2142 11.3936 45.9863C11.1201 45.7129 10.8011 45.4622 10.4365 45.2344C10.0264 44.6875 9.7985 44.2773 9.75293 44.0039C9.70736 43.7305 9.66178 43.4798 9.61621 43.252C9.52507 42.9785 9.47949 42.7507 9.47949 42.5684C9.43392 42.3861 9.36556 42.2493 9.27441 42.1582L8.38574 41.3379L9.1377 40.7227L9.20605 39.5605C10.1175 37.2363 11.0745 35.0033 12.0771 32.8613C13.1253 30.7194 14.1963 28.5319 15.29 26.2988C15.6546 25.5697 15.9964 24.8405 16.3154 24.1113C16.68 23.3822 17.0446 22.653 17.4092 21.9238C17.3636 21.7871 17.3408 21.6276 17.3408 21.4453C17.3408 21.263 17.3864 21.0579 17.4775 20.8301C17.9788 20.0553 18.389 19.3717 18.708 18.7793C19.027 18.1413 19.346 17.5033 19.665 16.8652C20.0296 16.0905 20.3942 15.3385 20.7588 14.6094C21.1689 13.8802 21.6702 13.1283 22.2627 12.3535L23.3564 11.875C23.4932 11.8294 23.6527 11.7839 23.835 11.7383C24.0173 11.6471 24.2223 11.6016 24.4502 11.6016L25.4756 11.7383C26.7516 11.1458 27.8682 10.3255 28.8252 9.27734C29.7822 8.18359 30.762 6.88477 31.7646 5.38086L32.4482 4.42383L33.3369 4.9707C33.5648 5.10742 33.8838 5.24414 34.2939 5.38086C34.7041 5.47201 35.137 5.58594 35.5928 5.72266C36.4131 5.90495 37.1878 6.11003 37.917 6.33789C38.6462 6.56576 39.2386 6.90755 39.6943 7.36328C39.9678 8.09245 40.1273 8.63932 40.1729 9.00391C40.2184 9.36849 40.2868 9.73307 40.3779 10.0977C40.5146 10.8724 40.6286 11.6471 40.7197 12.4219C40.8564 13.1966 40.9476 14.0625 40.9932 15.0195C41.221 15.7943 41.4033 16.569 41.54 17.3438C41.7223 18.0729 41.8818 18.8249 42.0186 19.5996C42.2464 20.6934 42.4743 21.7643 42.7021 22.8125C42.93 23.8151 43.2262 24.7721 43.5908 25.6836C43.9554 25.6836 44.1833 25.7064 44.2744 25.752C44.5023 25.6608 44.7301 25.5924 44.958 25.5469C45.2314 25.5013 45.5277 25.4557 45.8467 25.4102L46.5986 25.3418L46.8721 26.0254C46.9176 26.2533 47.1455 26.4811 47.5557 26.709C48.1481 26.7546 48.5811 26.8913 48.8545 27.1191C49.1279 27.3014 49.3786 27.5065 49.6064 27.7344C49.7887 27.9167 49.971 28.0534 50.1533 28.1445L51.1787 28.5547L50.6318 29.5801C50.1761 30.4004 49.5153 31.1979 48.6494 31.9727C47.8291 32.7018 46.8949 33.3171 45.8467 33.8184C45.8923 34.0918 45.915 34.3652 45.915 34.6387C45.9606 34.8665 46.029 35.1172 46.1201 35.3906C46.2568 36.1654 46.3708 36.9629 46.4619 37.7832C46.5531 38.6035 46.5531 39.4466 46.4619 40.3125L46.3252 40.5859ZM26.5693 28.7598C27.9365 28.6686 29.167 28.5775 30.2607 28.4863C31.4001 28.3496 32.6533 28.1445 34.0205 27.8711C33.7015 26.5039 33.3597 25.0911 32.9951 23.6328C32.6305 22.1289 32.2432 20.6478 31.833 19.1895L31.4229 19.873C30.5114 20.8301 29.6227 21.901 28.7568 23.0859C27.9365 24.2708 27.2301 25.3874 26.6377 26.4355C26.3643 26.8457 26.0908 27.2559 25.8174 27.666C25.5439 28.0762 25.2933 28.4863 25.0654 28.8965C25.3389 28.8509 25.5895 28.8281 25.8174 28.8281C26.0908 28.8281 26.3415 28.8053 26.5693 28.7598Z" fill="black"/>
</svg>
