<svg width="61" height="57" viewBox="0 0 61 57" fill="none" xmlns="http://www.w3.org/2000/svg">
<path d="M12.1455 19.1543C10.2314 18.3796 8.63639 17.2858 7.36035 15.873C6.12988 14.4603 5.12728 12.7969 4.35254 10.8828C4.80827 9.65234 5.53743 8.62695 6.54004 7.80664C7.54264 6.94076 8.65918 6.21159 9.88965 5.61914C11.1657 5.02669 12.5101 4.54818 13.9229 4.18359C15.3356 3.81901 16.7028 3.5 18.0244 3.22656C18.2979 3.31771 18.4346 3.31771 18.4346 3.22656C18.4346 3.13542 18.5485 3.18099 18.7764 3.36328C20.417 2.86198 22.3083 2.38346 24.4502 1.92773C26.5921 1.42643 28.8708 1.24414 31.2861 1.38086C31.6051 1.19857 31.9925 1.10742 32.4482 1.10742C32.904 1.06185 33.3825 1.03906 33.8838 1.03906C34.3851 1.03906 34.8636 1.03906 35.3193 1.03906C35.7751 0.99349 36.1624 0.902344 36.4814 0.765625C36.7549 1.08464 37.165 1.28971 37.7119 1.38086C38.2588 1.42643 38.8285 1.6543 39.4209 2.06445C39.6032 2.11003 39.6032 2.04167 39.4209 1.85938C39.2386 1.63151 39.2614 1.47201 39.4893 1.38086C40.0817 1.38086 40.6058 1.51758 41.0615 1.79102C41.5173 2.06445 41.9274 2.38346 42.292 2.74805C42.7021 3.06706 43.0667 3.36328 43.3857 3.63672C43.7503 3.91016 44.1377 4.04688 44.5479 4.04688C44.958 4.54818 45.4365 5.02669 45.9834 5.48242C46.5758 5.89258 47.1227 6.32552 47.624 6.78125C48.1709 7.23698 48.6038 7.73828 48.9229 8.28516C49.2874 8.83203 49.4697 9.44727 49.4697 10.1309C49.4242 10.4043 49.5153 10.5638 49.7432 10.6094C49.971 10.6549 50.1305 10.7917 50.2217 11.0195C50.2673 12.7057 49.9938 14.1641 49.4014 15.3945C48.8545 16.625 48.1481 17.7643 47.2822 18.8125C46.4163 19.8151 45.4821 20.7721 44.4795 21.6836C43.5225 22.5951 42.6338 23.5749 41.8135 24.623C42.3604 25.3066 42.9756 25.9447 43.6592 26.5371C44.3883 27.084 45.1175 27.6309 45.8467 28.1777C46.5758 28.7246 47.2594 29.3171 47.8975 29.9551C48.5811 30.5475 49.1507 31.2311 49.6064 32.0059C49.7432 32.2793 50.0394 32.4616 50.4951 32.5527C50.6318 33.0996 50.8141 33.6693 51.042 34.2617C51.3154 34.8086 51.5661 35.3555 51.7939 35.9023C52.0218 36.4036 52.1585 36.8594 52.2041 37.2695C52.2497 37.6797 52.1357 38.0215 51.8623 38.2949C52.1813 38.4772 52.3636 38.7734 52.4092 39.1836C52.4548 39.5482 52.4548 39.8444 52.4092 40.0723C51.4066 41.3027 50.723 42.1686 50.3584 42.6699C49.9938 43.1712 49.7204 43.5358 49.5381 43.7637C49.3558 43.9915 49.1735 44.1966 48.9912 44.3789C48.8089 44.5612 48.3988 44.9258 47.7607 45.4727C45.3454 46.931 42.8161 48.2526 40.1729 49.4375C37.5752 50.5768 34.8636 51.3516 32.0381 51.7617C31.8102 52.0807 31.4684 52.3314 31.0127 52.5137C30.6025 52.7415 30.124 52.9238 29.5771 53.0605C29.0303 53.1973 28.4378 53.3112 27.7998 53.4023C27.2074 53.4935 26.6605 53.5846 26.1592 53.6758C25.9313 53.5846 25.7946 53.4251 25.749 53.1973C25.749 53.015 25.6351 52.8783 25.4072 52.7871C25.3617 53.334 25.111 53.6074 24.6553 53.6074C24.2451 53.653 23.721 53.5618 23.083 53.334C22.445 53.1061 21.7842 52.7871 21.1006 52.377C20.417 51.9668 19.8245 51.5794 19.3232 51.2148C19.0954 51.625 18.7992 52.0579 18.4346 52.5137C18.1156 52.9694 17.7738 53.2884 17.4092 53.4707C16.7712 53.3796 16.2926 53.3112 15.9736 53.2656C15.7002 53.2201 15.4268 53.334 15.1533 53.6074C14.7887 53.4251 14.5153 53.2201 14.333 52.9922C14.1507 52.8099 13.9684 52.6048 13.7861 52.377C13.6038 52.1947 13.3988 52.0352 13.1709 51.8984C12.943 51.7161 12.6012 51.5566 12.1455 51.4199C12.2367 51.1921 12.1683 50.8503 11.9404 50.3945C11.7126 49.8932 11.3936 49.597 10.9834 49.5059C11.2113 49.1413 11.1201 48.6855 10.71 48.1387C10.2998 47.5462 9.98079 46.8854 9.75293 46.1562C9.7985 45.8372 9.82129 45.5182 9.82129 45.1992C9.86686 44.8346 9.91243 44.5156 9.95801 44.2422C10.0492 43.9232 10.1631 43.6497 10.2998 43.4219C10.4365 43.194 10.6644 43.0345 10.9834 42.9434C10.9378 42.3509 10.7555 41.7812 10.4365 41.2344C10.8467 40.9154 11.1201 40.528 11.2568 40.0723C11.3936 39.571 11.5075 39.0697 11.5986 38.5684C11.7354 38.0671 11.8949 37.5885 12.0771 37.1328C12.2594 36.6315 12.5557 36.2214 12.9658 35.9023C12.8747 35.7656 12.7835 35.6517 12.6924 35.5605C12.6012 35.4694 12.5557 35.3099 12.5557 35.082C13.2393 33.9427 13.7178 32.9857 13.9912 32.2109C14.2646 31.3906 14.4697 30.6159 14.6064 29.8867C14.7887 29.112 14.971 28.2917 15.1533 27.4258C15.3356 26.5599 15.7002 25.4661 16.2471 24.1445C16.2015 23.3242 16.2926 22.5951 16.5205 21.957C16.7484 21.319 16.9762 20.7038 17.2041 20.1113C17.4775 19.4733 17.6826 18.8125 17.8193 18.1289C17.9561 17.4453 17.9333 16.6478 17.751 15.7363C16.9762 15.8275 16.4066 16.1009 16.042 16.5566C15.723 17.0124 15.5179 17.6276 15.4268 18.4023C15.0166 18.7669 14.4925 18.9492 13.8545 18.9492C13.2165 18.9036 12.6468 18.972 12.1455 19.1543ZM42.2236 32.3477C40.4919 31.3906 38.8968 30.821 37.4385 30.6387C36.0257 30.4564 34.6585 30.4792 33.3369 30.707C32.0609 30.8893 30.8304 31.1628 29.6455 31.5273C28.4606 31.8919 27.2757 32.1654 26.0908 32.3477C25.4984 33.8971 24.8831 35.6061 24.2451 37.4746C23.6071 39.3431 22.9919 41.166 22.3994 42.9434C24.04 42.7155 25.5439 42.3737 26.9111 41.918C28.2783 41.4622 29.5999 40.9609 30.876 40.4141C32.152 39.8216 33.4053 39.252 34.6357 38.7051C35.8662 38.1126 37.1423 37.5658 38.4639 37.0645C38.6006 36.5176 38.8968 36.0846 39.3525 35.7656C39.8083 35.4466 40.264 35.1504 40.7197 34.877C41.1755 34.5579 41.5628 34.2161 41.8818 33.8516C42.2008 33.487 42.3148 32.9857 42.2236 32.3477ZM37.4385 10.9512C34.613 10.86 31.833 11.1107 29.0986 11.7031C26.3643 12.2956 24.0628 13.1615 22.1943 14.3008C23.1058 15.0755 24.04 15.7591 24.9971 16.3516C25.9997 16.944 26.7516 17.7415 27.2529 18.7441C29.4404 17.8783 31.3545 16.7845 32.9951 15.4629C34.6357 14.0957 36.1169 12.5918 37.4385 10.9512Z" fill="black"/>
</svg>
