<svg width="53" height="53" viewBox="0 0 53 53" fill="none" xmlns="http://www.w3.org/2000/svg">
<circle cx="26.5" cy="26.5" r="26.5" fill="white"/>
<path d="M6.19531 19.1562C6.15885 18.8646 6.08594 18.6094 5.97656 18.3906C5.90365 18.1354 5.8125 17.862 5.70312 17.5703C5.52083 17.1328 5.35677 16.6589 5.21094 16.1484C5.0651 15.638 4.99219 15.0365 4.99219 14.3438C5.0651 13.9792 5.15625 13.724 5.26562 13.5781C5.375 13.3958 5.48438 13.25 5.59375 13.1406L5.8125 12.1562H6.63281C6.92448 12.1927 7.21615 12.2109 7.50781 12.2109C7.83594 12.2109 8.14583 12.2109 8.4375 12.2109C9.82292 12.2109 11.2448 12.1562 12.7031 12.0469C14.1615 11.9375 15.6562 11.8099 17.1875 11.6641C18.8646 11.4453 20.6693 11.2812 22.6016 11.1719C22.7839 10.7708 22.8932 10.5156 22.9297 10.4062C23.0026 10.2969 23.0755 10.1693 23.1484 10.0234L23.75 9.69531C24.5885 9.65885 25.1719 9.76823 25.5 10.0234C25.8281 10.2422 26.0833 10.4609 26.2656 10.6797C27.2135 10.6068 28.1797 10.5156 29.1641 10.4062C30.1484 10.2604 31.1693 10.1146 32.2266 9.96875C33.6849 9.78646 35.1615 9.60417 36.6562 9.42188C38.151 9.23958 39.6094 9.14844 41.0312 9.14844C41.651 9.14844 42.2344 9.16667 42.7812 9.20312C43.3281 9.23958 43.8568 9.29427 44.3672 9.36719L45.0234 9.85938C45.1693 10.1146 45.3516 10.3516 45.5703 10.5703C45.7891 10.7891 46.0443 11.0078 46.3359 11.2266C46.8828 11.6641 47.4115 12.2109 47.9219 12.8672C48.4688 13.5234 48.6693 14.4896 48.5234 15.7656L48.25 16.3125C48.1042 16.4583 47.9219 16.6042 47.7031 16.75L47.1562 17.4609H46.5547C46.1901 17.4609 45.9167 17.4974 45.7344 17.5703C45.5521 17.6068 45.3333 17.6797 45.0781 17.7891C44.9323 17.862 44.7682 17.9349 44.5859 18.0078C44.4036 18.0443 44.2031 18.099 43.9844 18.1719C43.5833 18.1354 43.2734 18.1172 43.0547 18.1172C42.8359 18.1172 42.5807 18.1172 42.2891 18.1172C41.1953 18.1172 40.0104 18.1901 38.7344 18.3359C37.4583 18.4818 36.2188 18.6458 35.0156 18.8281C34.1406 18.9375 33.3021 19.0469 32.5 19.1562C31.6979 19.2292 30.9688 19.3021 30.3125 19.375C29.9479 20.3229 29.6198 21.1615 29.3281 21.8906C29.0365 22.6198 28.7266 23.349 28.3984 24.0781C28.0703 24.8073 27.7604 25.5547 27.4688 26.3203C27.1771 27.0495 26.9036 27.8698 26.6484 28.7812C26.2109 29.4375 25.8464 30.0755 25.5547 30.6953C25.263 31.2786 25.026 31.9531 24.8438 32.7188C24.2969 33.3385 23.8958 34.013 23.6406 34.7422C23.4219 35.4714 23.2214 36.0911 23.0391 36.6016L22.8203 37.4219C22.5651 37.6771 22.401 37.8776 22.3281 38.0234C22.2917 38.1693 22.2005 38.3333 22.0547 38.5156C21.9453 38.9896 21.7995 39.4453 21.6172 39.8828C21.5443 40.0651 21.4714 40.2656 21.3984 40.4844C21.3255 40.6667 21.3073 40.8125 21.3438 40.9219C21.2708 41.3229 21.1615 41.6328 21.0156 41.8516C21.0156 42.0703 20.9974 42.2891 20.9609 42.5078C20.9245 42.7266 20.888 42.9453 20.8516 43.1641C20.7786 43.4193 20.724 43.6562 20.6875 43.875C20.651 44.0573 20.6693 44.2396 20.7422 44.4219C20.8516 44.5677 20.9609 44.7135 21.0703 44.8594C21.1797 45.0052 21.2708 45.1875 21.3438 45.4062C21.4167 45.4792 21.5078 45.5339 21.6172 45.5703C21.7266 45.6068 21.8177 45.6615 21.8906 45.7344C22.1823 45.9896 22.4557 46.1354 22.7109 46.1719L23.2578 46.8281C23.4766 48.1406 23.276 49.1615 22.6562 49.8906C22 50.7292 20.9062 51.1484 19.375 51.1484L18.6094 51.0938C18.3542 50.8385 18.2083 50.6745 18.1719 50.6016C17.8438 50.4557 17.5703 50.3281 17.3516 50.2188C17.1328 50.1458 16.9323 49.9818 16.75 49.7266C16.6771 49.6536 16.5859 49.6172 16.4766 49.6172C16.3672 49.5807 16.276 49.526 16.2031 49.4531C15.8385 49.3438 15.5469 49.2161 15.3281 49.0703L14.7266 48.7422C14.763 48.3776 14.7812 48.1224 14.7812 47.9766C14.4896 47.5755 14.2526 47.138 14.0703 46.6641C13.9245 46.1901 13.7969 45.6979 13.6875 45.1875C13.5781 44.7865 13.4688 44.4219 13.3594 44.0938C13.2865 43.7656 13.1589 43.474 12.9766 43.2188C12.9036 40.6667 13.1406 38.5339 13.6875 36.8203C14.2344 35.0703 14.8359 33.375 15.4922 31.7344C15.8568 30.8594 16.2031 29.9661 16.5312 29.0547C16.8594 28.1432 17.151 27.2135 17.4062 26.2656L18.0078 25.6641C18.263 25.4453 18.4271 25.3177 18.5 25.2812C18.5 24.8073 18.5911 24.3516 18.7734 23.9141C18.9557 23.4401 19.1562 22.9661 19.375 22.4922C19.5208 22.2005 19.6484 21.9089 19.7578 21.6172C19.9036 21.3255 19.9948 21.0703 20.0312 20.8516C19.776 20.8516 19.5391 20.8698 19.3203 20.9062C19.138 20.9062 18.9375 20.9245 18.7188 20.9609C18.2448 21.0703 17.7891 21.125 17.3516 21.125C17.0234 21.125 16.7865 21.1068 16.6406 21.0703C16.349 21.2161 16.0755 21.3073 15.8203 21.3438C15.5651 21.3438 15.3099 21.3438 15.0547 21.3438H14.3984H13.7422C13.3047 21.3438 12.9583 21.3984 12.7031 21.5078C12.1927 21.5078 11.8646 21.5078 11.7188 21.5078C11.5729 21.5078 11.4089 21.5078 11.2266 21.5078H10.5703H9.91406C9.6224 21.5078 9.29427 21.4896 8.92969 21.4531C8.5651 21.3802 8.18229 21.2344 7.78125 21.0156L7.39844 20.5781C7.17969 20.1771 6.97917 19.9583 6.79688 19.9219L6.19531 19.7578V19.1562Z" fill="#030302"/>
</svg>
