<svg width="58" height="58" viewBox="0 0 58 58" fill="none" xmlns="http://www.w3.org/2000/svg">
<mask id="path-1-inside-1_3120_20384" fill="white">
<path d="M29.3985 48.8698C31.3412 48.737 33.2676 48.4267 35.1537 47.9428C37.4833 48.6431 39.9421 48.8016 42.3423 48.4063C42.4381 48.3946 42.5344 48.3874 42.6309 48.3848C43.4872 48.3848 44.6107 48.8759 46.2498 49.9103V48.2098C46.2505 47.9136 46.3306 47.6229 46.4817 47.3681C46.6329 47.1133 46.8495 46.9037 47.1092 46.7611C47.8233 46.3579 48.4833 45.9047 49.089 45.4013C51.477 43.4062 52.8245 40.7419 52.8245 37.9241C52.8245 36.9941 52.6772 36.0671 52.3856 35.1831C53.11 33.851 53.687 32.4605 54.1167 31.0117C55.498 33.0529 56.2408 35.4624 56.25 37.9241C56.25 41.7548 54.4452 45.3276 51.3174 47.9397C50.7936 48.3756 50.2462 48.7767 49.6752 49.143V53.1271C49.6752 54.4961 48.073 55.2849 46.9434 54.4684C45.8732 53.6809 44.767 52.9435 43.6284 52.2584C43.2995 52.0688 42.9592 51.8996 42.6094 51.752C41.6592 51.8926 40.7 51.9634 39.7395 51.9638C35.8413 51.9638 32.2377 50.8066 29.3985 48.8698ZM8.76876 40.9046C3.84538 36.7823 1 31.1621 1 25.1399C1 12.8376 12.7621 3 27.124 3C41.489 3 53.2542 12.8345 53.2542 25.1399C53.2542 37.4422 41.489 47.2767 27.124 47.2767C25.5095 47.2767 23.9185 47.154 22.3511 46.9084C21.6758 47.0649 18.9685 48.6518 15.0703 51.4604C13.6584 52.4794 11.6571 51.4972 11.6571 49.7814V42.9887C10.6461 42.3637 9.68181 41.6662 8.77183 40.9015M22.4462 42.7186C22.5649 42.7186 22.6846 42.7278 22.8053 42.7462C24.2173 42.9795 25.6568 43.0972 27.124 43.0992C39.2576 43.0992 48.9662 34.9805 48.9662 25.1368C48.9662 15.2962 39.2576 7.17751 27.1271 7.17751C14.9967 7.17751 5.28188 15.3023 5.28188 25.1399C5.28188 29.8975 7.55326 34.3789 11.562 37.7338C12.5728 38.5769 13.6737 39.334 14.8647 40.0052C15.1877 40.1845 15.4574 40.4463 15.6462 40.764C15.8349 41.0816 15.936 41.4437 15.939 41.8131V45.7297C19.0238 43.6886 21.0527 42.7186 22.4462 42.7186Z"/>
</mask>
<path d="M29.3985 48.8698C31.3412 48.737 33.2676 48.4267 35.1537 47.9428C37.4833 48.6431 39.9421 48.8016 42.3423 48.4063C42.4381 48.3946 42.5344 48.3874 42.6309 48.3848C43.4872 48.3848 44.6107 48.8759 46.2498 49.9103V48.2098C46.2505 47.9136 46.3306 47.6229 46.4817 47.3681C46.6329 47.1133 46.8495 46.9037 47.1092 46.7611C47.8233 46.3579 48.4833 45.9047 49.089 45.4013C51.477 43.4062 52.8245 40.7419 52.8245 37.9241C52.8245 36.9941 52.6772 36.0671 52.3856 35.1831C53.11 33.851 53.687 32.4605 54.1167 31.0117C55.498 33.0529 56.2408 35.4624 56.25 37.9241C56.25 41.7548 54.4452 45.3276 51.3174 47.9397C50.7936 48.3756 50.2462 48.7767 49.6752 49.143V53.1271C49.6752 54.4961 48.073 55.2849 46.9434 54.4684C45.8732 53.6809 44.767 52.9435 43.6284 52.2584C43.2995 52.0688 42.9592 51.8996 42.6094 51.752C41.6592 51.8926 40.7 51.9634 39.7395 51.9638C35.8413 51.9638 32.2377 50.8066 29.3985 48.8698ZM8.76876 40.9046C3.84538 36.7823 1 31.1621 1 25.1399C1 12.8376 12.7621 3 27.124 3C41.489 3 53.2542 12.8345 53.2542 25.1399C53.2542 37.4422 41.489 47.2767 27.124 47.2767C25.5095 47.2767 23.9185 47.154 22.3511 46.9084C21.6758 47.0649 18.9685 48.6518 15.0703 51.4604C13.6584 52.4794 11.6571 51.4972 11.6571 49.7814V42.9887C10.6461 42.3637 9.68181 41.6662 8.77183 40.9015M22.4462 42.7186C22.5649 42.7186 22.6846 42.7278 22.8053 42.7462C24.2173 42.9795 25.6568 43.0972 27.124 43.0992C39.2576 43.0992 48.9662 34.9805 48.9662 25.1368C48.9662 15.2962 39.2576 7.17751 27.1271 7.17751C14.9967 7.17751 5.28188 15.3023 5.28188 25.1399C5.28188 29.8975 7.55326 34.3789 11.562 37.7338C12.5728 38.5769 13.6737 39.334 14.8647 40.0052C15.1877 40.1845 15.4574 40.4463 15.6462 40.764C15.8349 41.0816 15.936 41.4437 15.939 41.8131V45.7297C19.0238 43.6886 21.0527 42.7186 22.4462 42.7186Z" fill="#1E1E1E"/>
<path d="M29.3985 48.8698L29.3303 47.8721L26.4501 48.069L28.835 49.6959L29.3985 48.8698ZM35.1537 47.9428L35.4416 46.9851L35.1749 46.905L34.9052 46.9742L35.1537 47.9428ZM42.3423 48.4063L42.2212 47.4137L42.2004 47.4162L42.1798 47.4196L42.3423 48.4063ZM42.6309 48.3848V47.3848H42.6173L42.6037 47.3852L42.6309 48.3848ZM46.2498 49.9103L45.7161 50.756L47.2498 51.7239V49.9103H46.2498ZM46.2498 48.2098L45.2498 48.2075V48.2098H46.2498ZM47.1092 46.7611L47.5907 47.6376L47.6008 47.6319L47.1092 46.7611ZM49.089 45.4013L49.7281 46.1704L49.7301 46.1687L49.089 45.4013ZM52.3856 35.1831L51.5071 34.7054L51.3004 35.0855L51.4359 35.4964L52.3856 35.1831ZM54.1167 31.0117L54.9449 30.4513L53.7595 28.6995L53.158 30.7274L54.1167 31.0117ZM56.25 37.9241L57.25 37.9241L57.25 37.9204L56.25 37.9241ZM51.3174 47.9397L51.957 48.7084L51.9584 48.7073L51.3174 47.9397ZM49.6752 49.143L49.1353 48.3013L48.6752 48.5964V49.143H49.6752ZM46.9434 54.4684L46.3508 55.2739L46.3576 55.2789L46.9434 54.4684ZM43.6284 52.2584L44.144 51.4016L44.136 51.3968L44.128 51.3921L43.6284 52.2584ZM42.6094 51.752L42.9983 50.8307L42.7401 50.7217L42.4629 50.7628L42.6094 51.752ZM39.7395 51.9638L39.7395 52.9638L39.7398 52.9638L39.7395 51.9638ZM22.3511 46.9084L22.5058 45.9205L22.3142 45.8904L22.1252 45.9342L22.3511 46.9084ZM15.0703 51.4604L14.4858 50.649L14.4851 50.6495L15.0703 51.4604ZM11.6571 42.9887H12.6571V42.4313L12.1829 42.1381L11.6571 42.9887ZM22.8053 42.7462L22.9684 41.7595L22.9561 41.7577L22.8053 42.7462ZM27.124 43.0992L27.1226 44.0992H27.124V43.0992ZM11.562 37.7338L10.9202 38.5007L10.9215 38.5018L11.562 37.7338ZM14.8647 40.0052L14.3737 40.8764L14.3794 40.8796L14.8647 40.0052ZM15.939 41.8131L16.939 41.8131L16.939 41.8049L15.939 41.8131ZM15.939 45.7297H14.939V47.5905L16.4908 46.5637L15.939 45.7297ZM29.3985 48.8698L29.4667 49.8674C31.4702 49.7305 33.457 49.4105 35.4022 48.9114L35.1537 47.9428L34.9052 46.9742C33.0782 47.4429 31.2121 47.7434 29.3303 47.8721L29.3985 48.8698ZM35.1537 47.9428L34.8658 48.9005C37.3414 49.6446 39.9543 49.8131 42.5049 49.393L42.3423 48.4063L42.1798 47.4196C39.93 47.7901 37.6252 47.6415 35.4416 46.9851L35.1537 47.9428ZM42.3423 48.4063L42.4635 49.3989C42.5281 49.391 42.593 49.3862 42.6581 49.3844L42.6309 48.3848L42.6037 47.3852C42.4758 47.3886 42.3482 47.3981 42.2212 47.4137L42.3423 48.4063ZM42.6309 48.3848V49.3848C43.1662 49.3848 44.066 49.7147 45.7161 50.756L46.2498 49.9103L46.7834 49.0646C45.1553 48.0371 43.8083 47.3848 42.6309 47.3848V48.3848ZM46.2498 49.9103H47.2498V48.2098H46.2498H45.2498V49.9103H46.2498ZM46.2498 48.2098L47.2497 48.2122C47.25 48.0947 47.2818 47.9794 47.3418 47.8783L46.4817 47.3681L45.6217 46.8579C45.3793 47.2665 45.2509 47.7325 45.2498 48.2075L46.2498 48.2098ZM46.4817 47.3681L47.3418 47.8783C47.4017 47.7773 47.4877 47.6941 47.5907 47.6375L47.1092 46.7611L46.6277 45.8846C46.2114 46.1133 45.864 46.4494 45.6217 46.8579L46.4817 47.3681ZM47.1092 46.7611L47.6008 47.6319C48.3649 47.2006 49.0745 46.7136 49.7281 46.1704L49.089 45.4013L48.4498 44.6322C47.892 45.0958 47.2818 45.5153 46.6176 45.8902L47.1092 46.7611ZM49.089 45.4013L49.7301 46.1687C52.3139 44.01 53.8245 41.0771 53.8245 37.9241H52.8245H51.8245C51.8245 40.4067 50.6401 42.8023 48.4478 44.6339L49.089 45.4013ZM52.8245 37.9241H53.8245C53.8245 36.8888 53.6605 35.856 53.3352 34.8699L52.3856 35.1831L51.4359 35.4964C51.6938 36.2783 51.8245 37.0994 51.8245 37.9241H52.8245ZM52.3856 35.1831L53.2641 35.6608C54.0218 34.2674 54.6258 32.8122 55.0755 31.2961L54.1167 31.0117L53.158 30.7274C52.7483 32.1088 52.1981 33.4345 51.5071 34.7054L52.3856 35.1831ZM54.1167 31.0117L53.2885 31.5722C54.5585 33.4489 55.2415 35.6646 55.25 37.9279L56.25 37.9241L57.25 37.9204C57.24 35.2603 56.4375 32.657 54.9449 30.4513L54.1167 31.0117ZM56.25 37.9241H55.25C55.25 41.4257 53.603 44.7281 50.6764 47.1722L51.3174 47.9397L51.9584 48.7073C55.2873 45.9272 57.25 42.0839 57.25 37.9241H56.25ZM51.3174 47.9397L50.6778 47.171C50.1855 47.5807 49.6713 47.9573 49.1353 48.3013L49.6752 49.143L50.2152 49.9846C50.821 49.596 51.4016 49.1705 51.957 48.7084L51.3174 47.9397ZM49.6752 49.143H48.6752V53.1271H49.6752H50.6752V49.143H49.6752ZM49.6752 53.1271H48.6752C48.6752 53.6345 48.0348 54.0234 47.5293 53.658L46.9434 54.4684L46.3576 55.2789C48.1112 56.5464 50.6752 55.3576 50.6752 53.1271H49.6752ZM46.9434 54.4684L47.5361 53.663C46.441 52.8571 45.309 52.1025 44.144 51.4016L43.6284 52.2584L43.1129 53.1153C44.225 53.7844 45.3054 54.5047 46.3508 55.2739L46.9434 54.4684ZM43.6284 52.2584L44.128 51.3921C43.7633 51.1819 43.386 50.9944 42.9983 50.8307L42.6094 51.752L42.2205 52.6733C42.5323 52.8049 42.8357 52.9557 43.1289 53.1247L43.6284 52.2584ZM42.6094 51.752L42.4629 50.7628C41.5611 50.8963 40.6507 50.9635 39.7391 50.9638L39.7395 51.9638L39.7398 52.9638C40.7492 52.9634 41.7573 52.889 42.7558 52.7412L42.6094 51.752ZM39.7395 51.9638L39.7395 50.9638C36.0375 50.9638 32.6313 49.8645 29.962 48.0437L29.3985 48.8698L28.835 49.6959C31.8442 51.7487 35.645 52.9638 39.7395 52.9638L39.7395 51.9638ZM8.76876 40.9046L9.41073 40.1378C4.68668 36.1825 2 30.832 2 25.1399H1H0C0 31.4923 3.00407 37.3821 8.12679 41.6713L8.76876 40.9046ZM1 25.1399H2C2 13.5421 13.1488 4 27.124 4V3V2C12.3754 2 0 12.1331 0 25.1399H1ZM27.124 3V4C41.1027 4 52.2542 13.5393 52.2542 25.1399H53.2542H54.2542C54.2542 12.1297 41.8754 2 27.124 2V3ZM53.2542 25.1399H52.2542C52.2542 36.7374 41.1028 46.2767 27.124 46.2767V47.2767V48.2767C41.8753 48.2767 54.2542 38.1471 54.2542 25.1399H53.2542ZM27.124 47.2767V46.2767C25.5604 46.2767 24.0212 46.1578 22.5058 45.9205L22.3511 46.9084L22.1963 47.8964C23.8158 48.1501 25.4586 48.2767 27.124 48.2767V47.2767ZM22.3511 46.9084L22.1252 45.9342C21.816 46.0059 21.4157 46.1938 21.0126 46.405C20.5761 46.6337 20.0317 46.947 19.3957 47.3379C18.122 48.1208 16.45 49.2339 14.4858 50.649L15.0703 51.4604L15.6549 52.2717C17.5889 50.8784 19.2196 49.7937 20.4429 49.0418C21.0554 48.6654 21.5581 48.3771 21.9409 48.1765C22.1325 48.0761 22.2866 48.0016 22.4043 47.9502C22.5323 47.8943 22.5822 47.8813 22.5769 47.8826L22.3511 46.9084ZM15.0703 51.4604L14.4851 50.6495C13.6964 51.2188 12.6571 50.635 12.6571 49.7814H11.6571H10.6571C10.6571 52.3595 13.6204 53.7401 15.6556 52.2712L15.0703 51.4604ZM11.6571 49.7814H12.6571V42.9887H11.6571H10.6571V49.7814H11.6571ZM11.6571 42.9887L12.1829 42.1381C11.2131 41.5386 10.2881 40.8694 9.41516 40.1359L8.77183 40.9015L8.12851 41.6671C9.07554 42.4629 10.0791 43.1889 11.1313 43.8393L11.6571 42.9887ZM22.4462 42.7186V43.7186C22.513 43.7186 22.5823 43.7238 22.6545 43.7348L22.8053 42.7462L22.9561 41.7577C22.7869 41.7319 22.6168 41.7186 22.4462 41.7186V42.7186ZM22.8053 42.7462L22.6423 43.7329C24.109 43.9752 25.6027 44.0971 27.1226 44.0992L27.124 43.0992L27.1254 42.0992C25.711 42.0972 24.3255 41.9838 22.9683 41.7596L22.8053 42.7462ZM27.124 43.0992V44.0992C39.6232 44.0992 49.9662 35.7025 49.9662 25.1368H48.9662H47.9662C47.9662 34.2585 38.8919 42.0992 27.124 42.0992V43.0992ZM48.9662 25.1368H49.9662C49.9662 14.5742 39.6232 6.17751 27.1271 6.17751V7.17751V8.17751C38.8919 8.17751 47.9662 16.0182 47.9662 25.1368H48.9662ZM27.1271 7.17751V6.17751C14.631 6.17751 4.28188 14.5803 4.28188 25.1399H5.28188H6.28188C6.28188 16.0244 15.3623 8.17751 27.1271 8.17751V7.17751ZM5.28188 25.1399H4.28188C4.28188 30.2326 6.71616 34.9824 10.9202 38.5007L11.562 37.7338L12.2038 36.967C8.39036 33.7755 6.28188 29.5625 6.28188 25.1399H5.28188ZM11.562 37.7338L10.9215 38.5018C11.9807 39.3852 13.1319 40.1766 14.3737 40.8764L14.8647 40.0052L15.3557 39.134C14.2155 38.4915 13.165 37.7686 12.2024 36.9659L11.562 37.7338ZM14.8647 40.0052L14.3794 40.8796C14.5477 40.973 14.6882 41.1094 14.7865 41.2748L15.6462 40.764L16.5058 40.2531C16.2267 39.7833 15.8278 39.396 15.3499 39.1308L14.8647 40.0052ZM15.6462 40.764L14.7865 41.2748C14.8848 41.4403 14.9374 41.6289 14.939 41.8213L15.939 41.8131L16.939 41.8049C16.9345 41.2584 16.785 40.723 16.5058 40.2531L15.6462 40.764ZM15.939 41.8131H14.939V45.7297H15.939H16.939V41.8131H15.939ZM15.939 45.7297L16.4908 46.5637C18.016 45.5545 19.2474 44.8324 20.2495 44.365C21.2643 43.8917 21.9637 43.7186 22.4462 43.7186V42.7186V41.7186C21.5352 41.7186 20.5234 42.0305 19.4042 42.5524C18.2722 43.0804 16.9468 43.8638 15.3872 44.8958L15.939 45.7297Z" fill="#FDFDFC" mask="url(#path-1-inside-1_3120_20384)"/>
<path d="M12.4062 22.5C13.4423 22.5 14.4354 22.912 15.168 23.6445C15.9005 24.3771 16.3125 25.3702 16.3125 26.4062C16.3125 27.4423 15.9005 28.4354 15.168 29.168C14.4354 29.9005 13.4423 30.3125 12.4062 30.3125C11.3702 30.3125 10.3771 29.9005 9.64453 29.168C8.91197 28.4354 8.5 27.4423 8.5 26.4062C8.5 25.3702 8.91197 24.3771 9.64453 23.6445C10.3771 22.912 11.3702 22.5 12.4062 22.5ZM26.7295 22.5C27.7655 22.5 28.7586 22.912 29.4912 23.6445C30.2238 24.3771 30.6357 25.3702 30.6357 26.4062C30.6357 27.4423 30.2238 28.4354 29.4912 29.168C28.7586 29.9005 27.7655 30.3125 26.7295 30.3125C25.6935 30.3125 24.7003 29.9005 23.9678 29.168C23.2352 28.4354 22.8232 27.4422 22.8232 26.4062C22.8232 25.3703 23.2352 24.3771 23.9678 23.6445C24.7003 22.912 25.6935 22.5 26.7295 22.5ZM41.0488 22.5C42.0848 22.5 43.078 22.912 43.8105 23.6445C44.5431 24.3771 44.9551 25.3702 44.9551 26.4062C44.9551 27.4423 44.5431 28.4354 43.8105 29.168C43.078 29.9005 42.0848 30.3125 41.0488 30.3125C40.0128 30.3125 39.0197 29.9005 38.2871 29.168C37.5545 28.4354 37.1426 27.4423 37.1426 26.4062C37.1426 25.3702 37.5545 24.3771 38.2871 23.6445C39.0197 22.912 40.0128 22.5 41.0488 22.5Z" fill="#1E1E1E" stroke="#FDFDFC"/>
</svg>
