<svg width="50" height="49" viewBox="0 0 50 49" fill="none" xmlns="http://www.w3.org/2000/svg">
<path d="M24.5947 44.5859C35.6404 44.5859 44.5947 35.6316 44.5947 24.5859C44.5947 13.5402 35.6404 4.58594 24.5947 4.58594C13.549 4.58594 4.59473 13.5402 4.59473 24.5859C4.59473 35.6316 13.549 44.5859 24.5947 44.5859Z" fill="#FFC31F"/>
<path fill-rule="evenodd" clip-rule="evenodd" d="M36.5947 16.8946C35.7124 17.2866 34.7628 17.5505 33.7669 17.6697C34.7836 17.0602 35.5644 16.0954 35.9316 14.9459C34.9812 15.5107 33.9261 15.9194 32.8054 16.141C31.907 15.1843 30.6263 14.5859 29.2112 14.5859C26.4922 14.5859 24.2875 16.7906 24.2875 19.5096C24.2875 19.8952 24.3315 20.2712 24.4155 20.6319C20.323 20.4271 16.6953 18.4665 14.2666 15.4875C13.8426 16.2146 13.6003 17.0602 13.6003 17.9625C13.6003 19.6704 14.4682 21.1775 15.7905 22.0606C14.9826 22.035 14.2242 21.8135 13.5595 21.4447V21.5063C13.5595 23.8925 15.2577 25.882 17.5088 26.3356C17.096 26.4475 16.6609 26.5083 16.2121 26.5083C15.8945 26.5083 15.5857 26.4771 15.2849 26.4195C15.9113 28.3754 17.7304 29.7993 19.8846 29.8393C18.2 31.1592 16.0769 31.9472 13.7698 31.9472C13.3715 31.9472 12.9795 31.924 12.5947 31.8776C14.7738 33.2743 17.3616 34.0902 20.1422 34.0902C29.1984 34.0902 34.1509 26.5875 34.1509 20.0816C34.1509 19.868 34.1469 19.6552 34.1365 19.4448C35.0996 18.7489 35.9348 17.8817 36.5947 16.8946Z" fill="#3F3F22"/>
</svg>
