<svg width="451" height="451" viewBox="0 0 451 451" fill="none" xmlns="http://www.w3.org/2000/svg">
<path d="M225.246 447C347.577 447 446.746 347.831 446.746 225.5C446.746 103.169 347.577 4 225.246 4C102.915 4 3.74609 103.169 3.74609 225.5C3.74609 347.831 102.915 447 225.246 447Z" fill="#FDFDFC" stroke="#2D2B24" stroke-width="7" stroke-miterlimit="10" stroke-linejoin="round"/>
<path d="M272.5 242.063C278.165 242.063 282.758 237.47 282.758 231.805C282.758 226.14 278.165 221.547 272.5 221.547C266.835 221.547 262.242 226.14 262.242 231.805C262.242 237.47 266.835 242.063 272.5 242.063Z" stroke="#2D2B24" stroke-width="7" stroke-miterlimit="10" stroke-linejoin="round"/>
<path d="M314.578 242.063C320.244 242.063 324.836 237.47 324.836 231.805C324.836 226.14 320.244 221.547 314.578 221.547C308.913 221.547 304.32 226.14 304.32 231.805C304.32 237.47 308.913 242.063 314.578 242.063Z" stroke="#2D2B24" stroke-width="7" stroke-miterlimit="10" stroke-linejoin="round"/>
<path d="M332.87 279.064C341.273 279.064 348.085 272.252 348.085 263.848C348.085 255.445 341.273 248.633 332.87 248.633C324.466 248.633 317.654 255.445 317.654 263.848C317.654 272.252 324.466 279.064 332.87 279.064Z" stroke="#2D2B24" stroke-width="7" stroke-miterlimit="10" stroke-linejoin="round"/>
<path d="M249.534 279.064C257.937 279.064 264.749 272.252 264.749 263.848C264.749 255.445 257.937 248.633 249.534 248.633C241.131 248.633 234.318 255.445 234.318 263.848C234.318 272.252 241.131 279.064 249.534 279.064Z" stroke="#2D2B24" stroke-width="7" stroke-miterlimit="10" stroke-linejoin="round"/>
<path d="M293.132 279.064C301.535 279.064 308.347 272.252 308.347 263.848C308.347 255.445 301.535 248.633 293.132 248.633C284.728 248.633 277.916 255.445 277.916 263.848C277.916 272.252 284.728 279.064 293.132 279.064Z" stroke="#2D2B24" stroke-width="7" stroke-miterlimit="10" stroke-linejoin="round"/>
<path d="M272.493 314.494C280.896 314.494 287.708 307.681 287.708 299.278C287.708 290.875 280.896 284.062 272.493 284.062C264.09 284.062 257.277 290.875 257.277 299.278C257.277 307.681 264.09 314.494 272.493 314.494Z" stroke="#2D2B24" stroke-width="7" stroke-miterlimit="10" stroke-linejoin="round"/>
<path d="M314.581 314.494C322.984 314.494 329.796 307.681 329.796 299.278C329.796 290.875 322.984 284.062 314.581 284.062C306.177 284.062 299.365 290.875 299.365 299.278C299.365 307.681 306.177 314.494 314.581 314.494Z" stroke="#2D2B24" stroke-width="7" stroke-miterlimit="10" stroke-linejoin="round"/>
<path d="M365.37 269.324C365.37 310.368 332.099 343.639 291.055 343.639C250.011 343.639 216.74 310.368 216.74 269.324C216.74 247.021 222.518 219.956 242.128 213.383C252.606 209.87 319.295 206.332 334.523 209.049C357.866 213.211 365.37 244.524 365.37 269.324Z" stroke="#2D2B24" stroke-width="7" stroke-miterlimit="10" stroke-linejoin="round"/>
<path d="M377.988 268.188C377.988 316.406 338.902 355.491 290.685 355.491C242.468 355.491 203.383 316.406 203.383 268.188C203.383 241.981 210.177 210.191 233.214 202.467C245.528 198.342 323.87 194.18 341.754 197.375C369.174 202.259 377.988 239.043 377.988 268.188Z" stroke="#2D2B24" stroke-width="7" stroke-miterlimit="10" stroke-linejoin="round"/>
<path d="M294.213 78.1016H284.42C280.046 78.1016 276.5 81.6474 276.5 86.0215V140.188C276.5 144.562 280.046 148.108 284.42 148.108H294.213C298.587 148.108 302.133 144.562 302.133 140.188V86.0215C302.133 81.6474 298.587 78.1016 294.213 78.1016Z" stroke="#2D2B24" stroke-width="7" stroke-miterlimit="10" stroke-linejoin="round"/>
<path d="M225.587 88.5234L201.84 110.606L213.714 117.277L205.586 137.695L231.01 115.196L218.916 107.693L225.587 88.5234Z" fill="#2D2B24" stroke="#2D2B24" stroke-width="2" stroke-miterlimit="10" stroke-linejoin="round"/>
<path d="M113.768 201.695C113.768 201.695 105.848 217.951 125.017 222.529C136.72 225.332 147.173 231.22 158.606 234.256C167.273 236.557 174.801 233.607 176.686 224.193C180.432 205.44 190.433 167.102 213.776 167.518C228.747 167.518 243.889 168.02 258.799 167.91C267.796 167.836 270.195 160.21 270.036 152.107C269.693 135.716 269.84 119.313 269.889 102.922C269.913 93.7172 271.382 84.6099 270.587 75.3802C269.411 61.7561 262.765 59.7975 249.618 60.0179C236.618 60.2382 223.606 60.226 210.606 60.1647C189.405 60.0546 166.771 56.2844 157.113 80.0196C147.112 104.612 113.78 201.695 113.78 201.695H113.768Z" stroke="#2D2B24" stroke-width="7" stroke-miterlimit="10" stroke-linejoin="round"/>
<path d="M147.906 242.627L121.863 232.796C118.252 231.433 114.219 233.256 112.856 236.867L108.209 249.179C106.846 252.79 108.668 256.823 112.28 258.186L138.322 268.016C141.934 269.38 145.966 267.557 147.33 263.945L151.977 251.634C153.34 248.023 151.517 243.99 147.906 242.627Z" stroke="#2D2B24" stroke-width="7" stroke-miterlimit="10" stroke-linejoin="round"/>
<path d="M120.353 270.347C120.353 270.347 87.0458 399.733 3.74609 245.375" stroke="#2D2B24" stroke-width="7" stroke-miterlimit="10" stroke-linejoin="round"/>
</svg>
