<svg width="447" height="447" viewBox="0 0 447 447" fill="none" xmlns="http://www.w3.org/2000/svg">
<path d="M223.5 445C345.831 445 445 345.831 445 223.5C445 101.169 345.831 2 223.5 2C101.169 2 2 101.169 2 223.5C2 345.831 101.169 445 223.5 445Z" fill="#FDFDFC" stroke="#2D2B24" stroke-width="4" stroke-miterlimit="10" stroke-linejoin="round"/>
<path d="M135.769 298.87C135.769 298.87 99.2055 428.257 7.76562 273.898" stroke="#2D2B24" stroke-width="4" stroke-miterlimit="10" stroke-linejoin="round"/>
<path d="M309.627 106.648H299.834C295.46 106.648 291.914 110.194 291.914 114.568V168.735C291.914 173.109 295.46 176.654 299.834 176.654H309.627C314.001 176.654 317.547 173.109 317.547 168.735V114.568C317.547 110.194 314.001 106.648 309.627 106.648Z" stroke="#2D2B24" stroke-width="4" stroke-miterlimit="10" stroke-linejoin="round"/>
<path d="M241.004 117.07L217.244 139.153L229.118 145.824L221.002 166.242L246.414 143.743L234.333 136.24L241.004 117.07Z" fill="#2D2B24" stroke="#2D2B24" stroke-width="2" stroke-miterlimit="10" stroke-linejoin="round"/>
<path d="M129.182 230.242C129.182 230.242 121.262 246.497 140.431 251.076C152.134 253.879 162.587 259.767 174.02 262.802C182.687 265.104 190.215 262.154 192.1 252.74C195.846 233.987 205.847 195.649 229.19 196.065C244.161 196.065 259.303 196.567 274.213 196.456C283.21 196.383 285.609 188.757 285.45 180.653C285.107 164.263 285.254 147.86 285.303 131.469C285.327 122.264 286.796 113.157 286.001 103.927C284.826 90.3029 278.179 88.3444 265.032 88.5647C252.032 88.7851 239.02 88.7728 226.02 88.7116C204.819 88.6015 182.185 84.8312 172.527 108.566C162.526 133.159 129.194 230.242 129.194 230.242H129.182Z" stroke="#2D2B24" stroke-width="4" stroke-miterlimit="10" stroke-linejoin="round"/>
<path d="M163.316 271.189L137.274 261.359C133.662 259.996 129.629 261.818 128.266 265.43L123.619 277.741C122.256 281.353 124.078 285.385 127.69 286.749L153.732 296.579C157.344 297.942 161.377 296.119 162.74 292.508L167.387 280.197C168.75 276.585 166.927 272.552 163.316 271.189Z" stroke="#2D2B24" stroke-width="4" stroke-miterlimit="10" stroke-linejoin="round"/>
</svg>
