<svg width="448" height="447" viewBox="0 0 448 447" fill="none" xmlns="http://www.w3.org/2000/svg">
<path d="M224.246 445C346.577 445 445.746 345.831 445.746 223.5C445.746 101.169 346.577 2 224.246 2C101.915 2 2.74609 101.169 2.74609 223.5C2.74609 345.831 101.915 445 224.246 445Z" fill="#FDFDFC" stroke="#2D2B24" stroke-width="4" stroke-miterlimit="10" stroke-linejoin="round"/>
<path d="M271.5 240.063C277.165 240.063 281.758 235.47 281.758 229.805C281.758 224.14 277.165 219.547 271.5 219.547C265.835 219.547 261.242 224.14 261.242 229.805C261.242 235.47 265.835 240.063 271.5 240.063Z" stroke="#2D2B24" stroke-width="4" stroke-miterlimit="10" stroke-linejoin="round"/>
<path d="M313.578 240.063C319.244 240.063 323.836 235.47 323.836 229.805C323.836 224.14 319.244 219.547 313.578 219.547C307.913 219.547 303.32 224.14 303.32 229.805C303.32 235.47 307.913 240.063 313.578 240.063Z" stroke="#2D2B24" stroke-width="4" stroke-miterlimit="10" stroke-linejoin="round"/>
<path d="M331.87 277.064C340.273 277.064 347.085 270.252 347.085 261.848C347.085 253.445 340.273 246.633 331.87 246.633C323.466 246.633 316.654 253.445 316.654 261.848C316.654 270.252 323.466 277.064 331.87 277.064Z" stroke="#2D2B24" stroke-width="4" stroke-miterlimit="10" stroke-linejoin="round"/>
<path d="M248.534 277.064C256.937 277.064 263.749 270.252 263.749 261.848C263.749 253.445 256.937 246.633 248.534 246.633C240.131 246.633 233.318 253.445 233.318 261.848C233.318 270.252 240.131 277.064 248.534 277.064Z" stroke="#2D2B24" stroke-width="4" stroke-miterlimit="10" stroke-linejoin="round"/>
<path d="M292.132 277.064C300.535 277.064 307.347 270.252 307.347 261.848C307.347 253.445 300.535 246.633 292.132 246.633C283.728 246.633 276.916 253.445 276.916 261.848C276.916 270.252 283.728 277.064 292.132 277.064Z" stroke="#2D2B24" stroke-width="4" stroke-miterlimit="10" stroke-linejoin="round"/>
<path d="M271.493 312.494C279.896 312.494 286.708 305.681 286.708 297.278C286.708 288.875 279.896 282.062 271.493 282.062C263.09 282.062 256.277 288.875 256.277 297.278C256.277 305.681 263.09 312.494 271.493 312.494Z" stroke="#2D2B24" stroke-width="4" stroke-miterlimit="10" stroke-linejoin="round"/>
<path d="M313.581 312.494C321.984 312.494 328.796 305.681 328.796 297.278C328.796 288.875 321.984 282.062 313.581 282.062C305.177 282.062 298.365 288.875 298.365 297.278C298.365 305.681 305.177 312.494 313.581 312.494Z" stroke="#2D2B24" stroke-width="4" stroke-miterlimit="10" stroke-linejoin="round"/>
<path d="M364.37 267.324C364.37 308.368 331.099 341.639 290.055 341.639C249.011 341.639 215.74 308.368 215.74 267.324C215.74 245.021 221.518 217.956 241.128 211.383C251.606 207.87 318.295 204.332 333.523 207.049C356.866 211.211 364.37 242.524 364.37 267.324Z" stroke="#2D2B24" stroke-width="4" stroke-miterlimit="10" stroke-linejoin="round"/>
<path d="M376.988 266.188C376.988 314.406 337.902 353.491 289.685 353.491C241.468 353.491 202.383 314.406 202.383 266.188C202.383 239.981 209.177 208.191 232.214 200.467C244.528 196.342 322.87 192.18 340.754 195.375C368.174 200.259 376.988 237.043 376.988 266.188Z" stroke="#2D2B24" stroke-width="4" stroke-miterlimit="10" stroke-linejoin="round"/>
<path d="M293.213 76.1016H283.42C279.046 76.1016 275.5 79.6474 275.5 84.0215V138.188C275.5 142.562 279.046 146.108 283.42 146.108H293.213C297.587 146.108 301.133 142.562 301.133 138.188V84.0215C301.133 79.6474 297.587 76.1016 293.213 76.1016Z" stroke="#2D2B24" stroke-width="4" stroke-miterlimit="10" stroke-linejoin="round"/>
<path d="M224.587 86.5234L200.84 108.606L212.714 115.277L204.586 135.695L230.01 113.196L217.916 105.693L224.587 86.5234Z" fill="#2D2B24" stroke="#2D2B24" stroke-width="2" stroke-miterlimit="10" stroke-linejoin="round"/>
<path d="M112.768 199.695C112.768 199.695 104.848 215.951 124.017 220.529C135.72 223.332 146.173 229.22 157.606 232.256C166.273 234.557 173.801 231.607 175.686 222.193C179.432 203.44 189.433 165.102 212.776 165.518C227.747 165.518 242.889 166.02 257.799 165.91C266.796 165.836 269.195 158.21 269.036 150.107C268.693 133.716 268.84 117.313 268.889 100.922C268.913 91.7172 270.382 82.6099 269.587 73.3802C268.411 59.7561 261.765 57.7975 248.618 58.0179C235.618 58.2382 222.606 58.226 209.606 58.1647C188.405 58.0546 165.771 54.2844 156.113 78.0196C146.112 102.612 112.78 199.695 112.78 199.695H112.768Z" stroke="#2D2B24" stroke-width="4" stroke-miterlimit="10" stroke-linejoin="round"/>
<path d="M146.906 240.627L120.863 230.796C117.252 229.433 113.219 231.256 111.856 234.867L107.209 247.179C105.846 250.79 107.668 254.823 111.28 256.186L137.322 266.016C140.934 267.38 144.966 265.557 146.33 261.945L150.977 249.634C152.34 246.023 150.517 241.99 146.906 240.627Z" stroke="#2D2B24" stroke-width="4" stroke-miterlimit="10" stroke-linejoin="round"/>
<path d="M119.353 268.347C119.353 268.347 86.0458 397.733 2.74609 243.375" stroke="#2D2B24" stroke-width="4" stroke-miterlimit="10" stroke-linejoin="round"/>
</svg>
