<svg width="49" height="49" viewBox="0 0 49 49" fill="none" xmlns="http://www.w3.org/2000/svg">
<circle cx="24.0947" cy="24.5859" r="20" fill="#736D5D"/>
<path fill-rule="evenodd" clip-rule="evenodd" d="M35.3952 16.964C35.7943 17.3631 36.0819 17.8598 36.2293 18.4046C37.0782 21.8217 36.8821 27.2184 36.2458 30.7673C36.0984 31.3121 35.8108 31.8088 35.4117 32.2079C35.0126 32.607 34.5159 32.8946 33.9711 33.042C31.9766 33.5859 23.9491 33.5859 23.9491 33.5859C23.9491 33.5859 15.9216 33.5859 13.9271 33.042C13.3823 32.8946 12.8856 32.607 12.4865 32.2079C12.0874 31.8088 11.7998 31.3121 11.6524 30.7673C10.7986 27.3651 11.0326 21.9651 11.6359 18.4211C11.7833 17.8763 12.0709 17.3796 12.47 16.9805C12.8691 16.5814 13.3658 16.2938 13.9106 16.1464C15.9052 15.6024 23.9326 15.5859 23.9326 15.5859C23.9326 15.5859 31.9601 15.5859 33.9546 16.1299C34.4994 16.2773 34.9961 16.5649 35.3952 16.964ZM28.037 24.5859L21.3777 28.4431V20.7288L28.037 24.5859Z" fill="#F6F6EE"/>
</svg>
