<svg width="31" height="30" viewBox="0 0 31 30" fill="none" xmlns="http://www.w3.org/2000/svg">
<path d="M15.0449 17.63C15.2082 17.7378 15.3994 17.7952 15.595 17.7952C15.7906 17.7952 15.9819 17.7378 16.1451 17.63L21.5948 13.9994V6H9.59521V13.9999L15.0449 17.63Z" stroke="#030302" stroke-linecap="round" stroke-linejoin="round"/>
<path d="M16.1451 17.6238L23.0449 12.9934C23.1953 12.8943 23.3697 12.8376 23.5496 12.8295C23.7295 12.8213 23.9083 12.8619 24.0671 12.9469C24.2259 13.032 24.3587 13.1584 24.4516 13.3127C24.5445 13.467 24.5939 13.6436 24.5947 13.8237V22.9933C24.5947 23.2585 24.4894 23.5128 24.3019 23.7003C24.1144 23.8878 23.8601 23.9931 23.5949 23.9931H7.59515C7.32999 23.9931 7.07568 23.8878 6.88818 23.7003C6.70068 23.5128 6.59534 23.2585 6.59534 22.9933V13.8636C6.58889 13.6801 6.63307 13.4983 6.72304 13.3383C6.81301 13.1782 6.94529 13.046 7.10541 12.9561C7.26552 12.8663 7.44728 12.8222 7.63077 12.8288C7.81426 12.8353 7.99241 12.8923 8.14569 12.9934L15.045 17.5834C15.2043 17.6972 15.3935 17.7616 15.589 17.7687C15.7846 17.7758 15.978 17.7257 16.1451 17.6238Z" stroke="#030302" stroke-linecap="round" stroke-linejoin="round"/>
<path d="M15.5945 15.3735C17.7235 15.3735 19.4492 13.6478 19.4492 11.5188C19.4492 9.38983 17.7235 7.66406 15.5945 7.66406C13.4655 7.66406 11.7397 9.38983 11.7397 11.5188C11.7397 13.6478 13.4655 15.3735 15.5945 15.3735Z" stroke="#030302" stroke-width="0.8" stroke-linecap="round" stroke-linejoin="round"/>
<path d="M16.7503 10.172C16.4863 9.908 16.0214 9.72451 15.5939 9.71295M15.5939 9.71295C15.0851 9.69907 14.6302 9.9292 14.6302 10.5575C14.6302 11.7139 16.7503 11.1357 16.7503 12.2922C16.7503 12.9517 16.186 13.235 15.5939 13.2138M15.5939 9.71295V9.01562M14.4375 12.6776C14.6857 13.0091 15.1479 13.198 15.5939 13.2138M15.5939 13.2138V14.0268" stroke="#030302" stroke-width="0.8" stroke-linecap="round" stroke-linejoin="round"/>
</svg>
