<svg width="205" height="60" viewBox="0 0 205 60" fill="none" xmlns="http://www.w3.org/2000/svg">
<path d="M203.722 52.6919C203.722 55.8361 201.122 58.383 197.907 58.383H7.58408C4.36979 58.383 1.76074 55.8361 1.76074 52.6919V7.30783C1.76074 4.16514 4.36979 1.60938 7.58408 1.60938H197.905C201.122 1.60938 203.721 4.16514 203.721 7.30783L203.722 52.6919Z" fill="#030302"/>
<path d="M197.293 1.68185C200.795 1.68185 203.645 4.46038 203.645 7.87501V52.125C203.645 55.5396 200.795 58.3182 197.293 58.3182H8.19008C4.6879 58.3182 1.83812 55.5396 1.83812 52.125V7.87501C1.83812 4.46038 4.6879 1.68185 8.19008 1.68185H197.293ZM197.293 0.500005H8.19008C4.03171 0.500005 0.625977 3.8206 0.625977 7.87501V52.125C0.625977 56.1794 4.03171 59.5 8.19008 59.5H197.293C201.451 59.5 204.857 56.1794 204.857 52.125V7.87501C204.857 3.8206 201.451 0.500005 197.293 0.500005Z" fill="#A6A6A6"/>
<path d="M46.2039 29.6832C46.1601 24.9293 50.1963 22.6165 50.3808 22.5088C48.095 19.2594 44.5519 18.8154 43.3069 18.78C40.3312 18.4747 37.4447 20.5161 35.9289 20.5161C34.3828 20.5161 32.0485 18.8095 29.5327 18.8596C26.2952 18.9083 23.2666 20.7358 21.6055 23.5737C18.1774 29.3602 20.7341 37.8635 24.0184 42.5408C25.6614 44.8314 27.5811 47.3891 30.0939 47.2991C32.5522 47.2003 33.4705 45.771 36.4372 45.771C39.3766 45.771 40.2389 47.2991 42.8016 47.2416C45.44 47.2003 47.101 44.9406 48.6865 42.6293C50.5851 40.0038 51.3475 37.4181 51.3778 37.2853C51.3158 37.2647 46.2539 35.3811 46.2039 29.6832Z" fill="#F6F6EE"/>
<path d="M41.3629 15.7031C42.6851 14.091 43.5898 11.8976 43.3387 9.67188C41.4249 9.75447 39.0317 10.9625 37.6535 12.5393C36.4341 13.9287 35.3449 16.2061 35.6263 18.3478C37.776 18.5042 39.9832 17.2902 41.3629 15.7031Z" fill="#F6F6EE"/>
<path d="M81.7817 46.9731H78.3461L76.4641 41.2073H69.9227L68.13 46.9731H64.7852L71.2661 27.3438H75.269L81.7817 46.9731ZM75.8968 38.7883L74.1949 33.6627C74.0149 33.139 73.6775 31.9059 73.1798 29.9648H73.1193C72.9211 30.7997 72.6019 32.0328 72.1632 33.6627L70.4915 38.7883H75.8968Z" fill="#F6F6EE"/>
<path d="M98.4487 39.717C98.4487 42.1242 97.7816 44.027 96.4473 45.4238C95.2521 46.6672 93.7681 47.2882 91.9965 47.2882C90.0843 47.2882 88.7107 46.6185 87.8741 45.2792H87.8136V52.7354H84.5883V37.4735C84.5883 35.9602 84.5474 34.407 84.4688 32.814H87.3053L87.4853 35.0575H87.5458C88.6214 33.3671 90.2538 32.5234 92.4443 32.5234C94.1569 32.5234 95.5865 33.1828 96.7302 34.5029C97.8769 35.8245 98.4487 37.562 98.4487 39.717ZM95.1629 39.8321C95.1629 38.4544 94.8452 37.3187 94.2068 36.4248C93.5094 35.4926 92.5729 35.0265 91.399 35.0265C90.6032 35.0265 89.8801 35.2861 89.2341 35.7979C88.5866 36.3142 88.1631 36.9883 87.9649 37.8231C87.865 38.2125 87.8151 38.5311 87.8151 38.7819V41.1419C87.8151 42.1714 88.1389 43.0402 88.7863 43.7497C89.4338 44.4591 90.275 44.8131 91.3097 44.8131C92.5245 44.8131 93.47 44.3559 94.1463 43.4443C94.824 42.5313 95.1629 41.3277 95.1629 39.8321Z" fill="#F6F6EE"/>
<path d="M115.145 39.717C115.145 42.1242 114.478 44.027 113.142 45.4238C111.949 46.6672 110.465 47.2882 108.693 47.2882C106.781 47.2882 105.407 46.6185 104.572 45.2792H104.512V52.7354H101.287V37.4735C101.287 35.9602 101.246 34.407 101.167 32.814H104.004L104.184 35.0575H104.244C105.318 33.3671 106.951 32.5234 109.143 32.5234C110.854 32.5234 112.283 33.1828 113.43 34.5029C114.572 35.8245 115.145 37.562 115.145 39.717ZM111.86 39.8321C111.86 38.4544 111.54 37.3187 110.902 36.4248C110.205 35.4926 109.271 35.0265 108.096 35.0265C107.298 35.0265 106.577 35.2861 105.929 35.7979C105.282 36.3142 104.86 36.9883 104.662 37.8231C104.563 38.2125 104.512 38.5311 104.512 38.7819V41.1419C104.512 42.1714 104.836 43.0402 105.48 43.7497C106.128 44.4577 106.969 44.8131 108.006 44.8131C109.221 44.8131 110.167 44.3559 110.843 43.4443C111.521 42.5313 111.86 41.3277 111.86 39.8321Z" fill="#F6F6EE"/>
<path d="M133.814 41.4669C133.814 43.1366 133.22 44.4951 132.026 45.5438C130.714 46.6899 128.888 47.2622 126.542 47.2622C124.376 47.2622 122.639 46.8551 121.324 46.0394L122.072 43.4183C123.488 44.2532 125.041 44.6721 126.734 44.6721C127.949 44.6721 128.894 44.4036 129.574 43.8697C130.25 43.3357 130.587 42.6189 130.587 41.725C130.587 40.9285 130.309 40.2574 129.751 39.7131C129.195 39.1689 128.268 38.6629 126.973 38.1954C123.448 36.9136 121.687 35.0359 121.687 32.5668C121.687 30.9531 122.305 29.63 123.541 28.6005C124.772 27.5695 126.415 27.0547 128.469 27.0547C130.301 27.0547 131.823 27.3659 133.038 27.9869L132.232 30.5504C131.097 29.9486 129.814 29.6477 128.379 29.6477C127.244 29.6477 126.357 29.9206 125.722 30.4634C125.185 30.9487 124.916 31.5402 124.916 32.2408C124.916 33.0166 125.223 33.6583 125.84 34.1627C126.377 34.6288 127.353 35.1333 128.769 35.6775C130.501 36.3575 131.773 37.1525 132.592 38.0641C133.407 38.9727 133.814 40.1099 133.814 41.4669Z" fill="#F6F6EE"/>
<path d="M144.478 35.1758H140.923V42.0478C140.923 43.7957 141.549 44.6689 142.804 44.6689C143.381 44.6689 143.859 44.6202 144.237 44.5229L144.326 46.9109C143.691 47.1425 142.854 47.259 141.818 47.259C140.544 47.259 139.549 46.8799 138.83 46.1232C138.115 45.3651 137.755 44.0936 137.755 42.3074V35.1728H135.637V32.8128H137.755V30.2213L140.923 29.2891V32.8128H144.478V35.1758Z" fill="#F6F6EE"/>
<path d="M160.518 39.7809C160.518 41.9565 159.879 43.7427 158.606 45.1395C157.27 46.5777 155.497 47.2945 153.287 47.2945C151.156 47.2945 149.461 46.6057 148.196 45.228C146.931 43.8504 146.299 42.1114 146.299 40.0154C146.299 37.8221 146.949 36.0255 148.255 34.6287C149.557 33.2304 151.315 32.5312 153.526 32.5312C155.656 32.5312 157.37 33.2201 158.663 34.5992C159.901 35.937 160.518 37.6643 160.518 39.7809ZM157.171 39.8826C157.171 38.5773 156.886 37.4578 156.306 36.5241C155.63 35.3942 154.663 34.8308 153.411 34.8308C152.114 34.8308 151.129 35.3957 150.453 36.5241C149.874 37.4592 149.588 38.5964 149.588 39.9416C149.588 41.247 149.874 42.3665 150.453 43.2987C151.15 44.4286 152.125 44.992 153.382 44.992C154.613 44.992 155.58 44.4168 156.277 43.2692C156.872 42.3179 157.171 41.1865 157.171 39.8826Z" fill="#F6F6EE"/>
<path d="M171.002 35.5796C170.683 35.5221 170.343 35.4926 169.986 35.4926C168.851 35.4926 167.974 35.91 167.356 36.7464C166.819 37.4839 166.55 38.4161 166.55 39.5415V46.9681H163.326L163.356 37.2715C163.356 35.6401 163.316 34.1548 163.235 32.8155H166.045L166.163 35.5236H166.252C166.592 34.5929 167.129 33.8436 167.865 33.2816C168.583 32.7757 169.359 32.5234 170.196 32.5234C170.494 32.5234 170.763 32.5441 171.002 32.581V35.5796Z" fill="#F6F6EE"/>
<path d="M185.427 39.2245C185.427 39.788 185.389 40.2629 185.309 40.6508H175.633C175.671 42.0491 176.138 43.1185 177.037 43.856C177.852 44.5153 178.906 44.8457 180.201 44.8457C181.634 44.8457 182.941 44.623 184.117 44.1761L184.622 46.3591C183.248 46.9432 181.627 47.2338 179.755 47.2338C177.504 47.2338 175.737 46.5877 174.451 45.2971C173.168 44.0065 172.525 42.2733 172.525 40.0992C172.525 37.9649 173.123 36.1875 174.32 34.77C175.572 33.2567 177.265 32.5 179.395 32.5C181.487 32.5 183.071 33.2567 184.147 34.77C184.999 35.9721 185.427 37.4589 185.427 39.2245ZM182.351 38.4088C182.372 37.4766 182.162 36.6713 181.725 35.9913C181.167 35.1166 180.309 34.68 179.155 34.68C178.1 34.68 177.242 35.1063 176.587 35.9618C176.05 36.6418 175.731 37.4575 175.633 38.4074H182.351V38.4088Z" fill="#F6F6EE"/>
<path d="M74.8301 15.267C74.8301 17.0031 74.2961 18.3099 73.2295 19.1875C72.2417 19.9973 70.8378 20.4029 69.0194 20.4029C68.1177 20.4029 67.3462 20.3646 66.7002 20.2879V10.8022C67.5428 10.6694 68.4505 10.6016 69.4308 10.6016C71.163 10.6016 72.4686 10.9688 73.349 11.7034C74.3354 12.5338 74.8301 13.7212 74.8301 15.267ZM73.1584 15.3098C73.1584 14.1843 72.8528 13.3215 72.2417 12.7197C71.6305 12.1193 70.7379 11.8184 69.5625 11.8184C69.0632 11.8184 68.6381 11.8509 68.2856 11.9187V19.13C68.4808 19.1595 68.8378 19.1728 69.3567 19.1728C70.57 19.1728 71.5064 18.8439 72.166 18.186C72.8256 17.5282 73.1584 16.5694 73.1584 15.3098Z" fill="#F6F6EE"/>
<path d="M83.6937 16.7794C83.6937 17.8488 83.3805 18.7249 82.7542 19.4123C82.0977 20.1188 81.2278 20.4713 80.1416 20.4713C79.0947 20.4713 78.2611 20.1335 77.6394 19.455C77.0191 18.778 76.709 17.924 76.709 16.8944C76.709 15.8177 77.0282 14.9342 77.6696 14.2483C78.3111 13.5624 79.1734 13.2188 80.2596 13.2188C81.3064 13.2188 82.1476 13.5565 82.7845 14.2335C83.3896 14.8914 83.6937 15.741 83.6937 16.7794ZM82.0492 16.8295C82.0492 16.1879 81.907 15.6377 81.6241 15.179C81.2913 14.6244 80.8178 14.3471 80.2021 14.3471C79.5652 14.3471 79.0811 14.6244 78.7483 15.179C78.4639 15.6377 78.3232 16.1968 78.3232 16.8576C78.3232 17.4992 78.4654 18.0494 78.7483 18.5081C79.0917 19.0627 79.5697 19.34 80.187 19.34C80.7921 19.34 81.2671 19.0583 81.609 18.4933C81.9025 18.0258 82.0492 17.4712 82.0492 16.8295Z" fill="#F6F6EE"/>
<path d="M95.5786 13.3594L93.3472 20.3125H91.8949L90.9706 17.2932C90.7361 16.5395 90.5455 15.7902 90.3972 15.0468H90.3685C90.2308 15.8108 90.0402 16.5587 89.7951 17.2932L88.8133 20.3125H87.3444L85.2461 13.3594H86.8754L87.6817 16.6649C87.8769 17.4466 88.0372 18.1915 88.1658 18.8965H88.1946C88.3126 18.3154 88.5077 17.5749 88.7831 16.6796L89.7951 13.3609H91.0871L92.0568 16.6088C92.2913 17.4009 92.4819 18.1635 92.6286 18.898H92.6725C92.7799 18.1826 92.9418 17.4201 93.1566 16.6088L94.022 13.3609H95.5786V13.3594Z" fill="#F6F6EE"/>
<path d="M103.798 20.3179H102.212V16.3354C102.212 15.1082 101.734 14.4946 100.775 14.4946C100.305 14.4946 99.925 14.6628 99.63 15.0006C99.338 15.3383 99.1898 15.7366 99.1898 16.1924V20.3165H97.6044V15.3516C97.6044 14.741 97.5847 14.0787 97.5469 13.3618H98.9402L99.0143 14.4489H99.0582C99.2427 14.1111 99.5181 13.8324 99.8796 13.6096C100.309 13.35 100.79 13.2188 101.317 13.2188C101.982 13.2188 102.536 13.4282 102.976 13.8486C103.524 14.3634 103.798 15.1318 103.798 16.1525V20.3179Z" fill="#F6F6EE"/>
<path d="M108.17 20.3154H106.586V10.1719H108.17V20.3154Z" fill="#F6F6EE"/>
<path d="M117.503 16.7794C117.503 17.8488 117.19 18.7249 116.564 19.4123C115.907 20.1188 115.036 20.4713 113.951 20.4713C112.903 20.4713 112.069 20.1335 111.449 19.455C110.829 18.778 110.519 17.924 110.519 16.8944C110.519 15.8177 110.838 14.9342 111.479 14.2483C112.121 13.5624 112.983 13.2188 114.068 13.2188C115.116 13.2188 115.956 13.5565 116.594 14.2335C117.199 14.8914 117.503 15.741 117.503 16.7794ZM115.857 16.8295C115.857 16.1879 115.715 15.6377 115.432 15.179C115.101 14.6244 114.626 14.3471 114.012 14.3471C113.373 14.3471 112.889 14.6244 112.558 15.179C112.273 15.6377 112.133 16.1968 112.133 16.8576C112.133 17.4992 112.275 18.0494 112.558 18.5081C112.901 19.0627 113.379 19.34 113.997 19.34C114.602 19.34 115.075 19.0583 115.417 18.4933C115.712 18.0258 115.857 17.4712 115.857 16.8295Z" fill="#F6F6EE"/>
<path d="M125.177 20.3135H123.753L123.635 19.5126H123.591C123.104 20.1512 122.41 20.4713 121.508 20.4713C120.835 20.4713 120.29 20.2604 119.881 19.8415C119.508 19.4609 119.322 18.9875 119.322 18.4255C119.322 17.5759 119.685 16.9284 120.416 16.48C121.145 16.0316 122.171 15.8118 123.492 15.8221V15.6923C123.492 14.7763 122.998 14.3191 122.011 14.3191C121.307 14.3191 120.687 14.4917 120.151 14.8339L119.829 13.8191C120.492 13.4193 121.31 13.2188 122.275 13.2188C124.139 13.2188 125.074 14.1775 125.074 16.095V18.6556C125.074 19.3503 125.109 19.9034 125.177 20.3135ZM123.531 17.924V16.8517C121.782 16.8222 120.908 17.2897 120.908 18.2529C120.908 18.6158 121.008 18.8872 121.212 19.0686C121.416 19.25 121.676 19.34 121.986 19.34C122.334 19.34 122.66 19.2323 122.956 19.0184C123.254 18.8031 123.437 18.5302 123.505 18.1954C123.522 18.1202 123.531 18.0287 123.531 17.924Z" fill="#F6F6EE"/>
<path d="M134.186 20.3154H132.779L132.705 19.1989H132.661C132.211 20.0485 131.446 20.4733 130.37 20.4733C129.511 20.4733 128.795 20.1443 128.228 19.4865C127.661 18.8286 127.378 17.9746 127.378 16.9259C127.378 15.8005 127.685 14.8889 128.302 14.1927C128.9 13.5437 129.632 13.2192 130.503 13.2192C131.461 13.2192 132.131 13.5334 132.512 14.1632H132.543V10.1719H134.13V18.4422C134.13 19.1192 134.148 19.7431 134.186 20.3154ZM132.543 17.3831V16.2238C132.543 16.0232 132.528 15.8609 132.499 15.7371C132.41 15.3654 132.217 15.0526 131.925 14.8004C131.63 14.5482 131.275 14.4214 130.865 14.4214C130.273 14.4214 129.811 14.65 129.47 15.1087C129.133 15.5674 128.962 16.153 128.962 16.8684C128.962 17.5557 129.124 18.1133 129.449 18.5425C129.792 18.9997 130.255 19.2284 130.835 19.2284C131.355 19.2284 131.771 19.0381 132.087 18.6561C132.393 18.3035 132.543 17.8787 132.543 17.3831Z" fill="#F6F6EE"/>
<path d="M147.745 16.7794C147.745 17.8488 147.432 18.7249 146.806 19.4123C146.149 20.1188 145.281 20.4713 144.193 20.4713C143.148 20.4713 142.314 20.1335 141.691 19.455C141.071 18.778 140.761 17.924 140.761 16.8944C140.761 15.8177 141.08 14.9342 141.721 14.2483C142.363 13.5624 143.225 13.2188 144.313 13.2188C145.358 13.2188 146.201 13.5565 146.836 14.2335C147.441 14.8914 147.745 15.741 147.745 16.7794ZM146.103 16.8295C146.103 16.1879 145.96 15.6377 145.677 15.179C145.343 14.6244 144.871 14.3471 144.254 14.3471C143.618 14.3471 143.134 14.6244 142.8 15.179C142.516 15.6377 142.375 16.1968 142.375 16.8576C142.375 17.4992 142.517 18.0494 142.8 18.5081C143.143 19.0627 143.621 19.34 144.239 19.34C144.844 19.34 145.32 19.0583 145.662 18.4933C145.954 18.0258 146.103 17.4712 146.103 16.8295Z" fill="#F6F6EE"/>
<path d="M156.27 20.3179H154.686V16.3354C154.686 15.1082 154.208 14.4946 153.247 14.4946C152.777 14.4946 152.397 14.6628 152.104 15.0006C151.81 15.3383 151.663 15.7366 151.663 16.1924V20.3165H150.076V15.3516C150.076 14.741 150.058 14.0787 150.021 13.3618H151.412L151.486 14.4489H151.53C151.716 14.1111 151.992 13.8324 152.352 13.6096C152.783 13.35 153.262 13.2188 153.79 13.2188C154.455 13.2188 155.008 13.4282 155.448 13.8486C155.998 14.3634 156.27 15.1318 156.27 16.1525V20.3179Z" fill="#F6F6EE"/>
<path d="M166.94 14.5223H165.194V17.9001C165.194 18.7585 165.504 19.1878 166.119 19.1878C166.403 19.1878 166.639 19.1642 166.825 19.1155L166.866 20.2881C166.553 20.4032 166.141 20.4607 165.634 20.4607C165.008 20.4607 164.521 20.2748 164.168 19.9031C163.814 19.5314 163.639 18.906 163.639 18.0284V14.5223H162.597V13.3645H163.639V12.0901L165.193 11.6328V13.363H166.938V14.5223H166.94Z" fill="#F6F6EE"/>
<path d="M175.333 20.3154H173.746V16.3624C173.746 15.1161 173.268 14.4921 172.311 14.4921C171.575 14.4921 171.073 14.8535 170.798 15.5763C170.751 15.7282 170.724 15.914 170.724 16.1323V20.314H169.14V10.1719H170.724V14.3623H170.754C171.253 13.5998 171.969 13.2192 172.896 13.2192C173.553 13.2192 174.096 13.4287 174.527 13.849C175.064 14.3727 175.333 15.1515 175.333 16.181V20.3154Z" fill="#F6F6EE"/>
<path d="M183.991 16.5135C183.991 16.7908 183.969 17.0238 183.932 17.2141H179.177C179.198 17.9014 179.425 18.4251 179.865 18.7879C180.268 19.1124 180.786 19.2747 181.422 19.2747C182.125 19.2747 182.767 19.1655 183.345 18.9457L183.593 20.0195C182.917 20.3057 182.121 20.4488 181.199 20.4488C180.095 20.4488 179.225 20.1316 178.596 19.4974C177.964 18.8631 177.65 18.0121 177.65 16.9442C177.65 15.8954 177.942 15.0222 178.531 14.326C179.145 13.5826 179.976 13.2109 181.024 13.2109C182.05 13.2109 182.829 13.5826 183.355 14.326C183.78 14.916 183.991 15.6462 183.991 16.5135ZM182.478 16.1137C182.49 15.655 182.386 15.2597 182.171 14.9264C181.895 14.4971 181.476 14.2818 180.909 14.2818C180.392 14.2818 179.97 14.4912 179.647 14.9116C179.384 15.2464 179.228 15.6462 179.177 16.1137H182.478Z" fill="#F6F6EE"/>
</svg>
