<svg width="53" height="53" viewBox="0 0 53 53" fill="none" xmlns="http://www.w3.org/2000/svg">
<circle cx="26.5" cy="26.5" r="26.5" fill="white"/>
<path d="M13.3164 20.5859C11.7852 19.9661 10.5091 19.0911 9.48828 17.9609C8.50391 16.8307 7.70182 15.5 7.08203 13.9688C7.44661 12.9844 8.02995 12.1641 8.83203 11.5078C9.63411 10.8151 10.5273 10.2318 11.5117 9.75781C12.5326 9.28385 13.6081 8.90104 14.7383 8.60938C15.8685 8.31771 16.9622 8.0625 18.0195 7.84375C18.2383 7.91667 18.3477 7.91667 18.3477 7.84375C18.3477 7.77083 18.4388 7.80729 18.6211 7.95312C19.9336 7.55208 21.4466 7.16927 23.1602 6.80469C24.8737 6.40365 26.6966 6.25781 28.6289 6.36719C28.8841 6.22135 29.194 6.14844 29.5586 6.14844C29.9232 6.11198 30.306 6.09375 30.707 6.09375C31.1081 6.09375 31.4909 6.09375 31.8555 6.09375C32.2201 6.05729 32.5299 5.98438 32.7852 5.875C33.0039 6.13021 33.332 6.29427 33.7695 6.36719C34.207 6.40365 34.6628 6.58594 35.1367 6.91406C35.2826 6.95052 35.2826 6.89583 35.1367 6.75C34.9909 6.56771 35.0091 6.4401 35.1914 6.36719C35.6654 6.36719 36.0846 6.47656 36.4492 6.69531C36.8138 6.91406 37.1419 7.16927 37.4336 7.46094C37.7617 7.71615 38.0534 7.95312 38.3086 8.17188C38.6003 8.39062 38.9102 8.5 39.2383 8.5C39.5664 8.90104 39.9492 9.28385 40.3867 9.64844C40.8607 9.97656 41.2982 10.3229 41.6992 10.6875C42.1367 11.0521 42.4831 11.4531 42.7383 11.8906C43.0299 12.3281 43.1758 12.8203 43.1758 13.3672C43.1393 13.5859 43.2122 13.7135 43.3945 13.75C43.5768 13.7865 43.7044 13.8958 43.7773 14.0781C43.8138 15.4271 43.5951 16.5938 43.1211 17.5781C42.6836 18.5625 42.1185 19.474 41.4258 20.3125C40.7331 21.1146 39.9857 21.8802 39.1836 22.6094C38.418 23.3385 37.707 24.1224 37.0508 24.9609C37.4883 25.5078 37.9805 26.0182 38.5273 26.4922C39.1107 26.9297 39.694 27.3672 40.2773 27.8047C40.8607 28.2422 41.4076 28.7161 41.918 29.2266C42.4648 29.7005 42.9206 30.2474 43.2852 30.8672C43.3945 31.0859 43.6315 31.2318 43.9961 31.3047C44.1055 31.7422 44.2513 32.1979 44.4336 32.6719C44.6523 33.1094 44.8529 33.5469 45.0352 33.9844C45.2174 34.3854 45.3268 34.75 45.3633 35.0781C45.3997 35.4062 45.3086 35.6797 45.0898 35.8984C45.3451 36.0443 45.4909 36.2812 45.5273 36.6094C45.5638 36.901 45.5638 37.138 45.5273 37.3203C44.7253 38.3047 44.1784 38.9974 43.8867 39.3984C43.5951 39.7995 43.3763 40.0911 43.2305 40.2734C43.0846 40.4557 42.9388 40.6198 42.793 40.7656C42.6471 40.9115 42.319 41.2031 41.8086 41.6406C39.8763 42.8073 37.8529 43.8646 35.7383 44.8125C33.6602 45.724 31.4909 46.3438 29.2305 46.6719C29.0482 46.9271 28.7747 47.1276 28.4102 47.2734C28.082 47.4557 27.6992 47.6016 27.2617 47.7109C26.8242 47.8203 26.3503 47.9115 25.8398 47.9844C25.3659 48.0573 24.9284 48.1302 24.5273 48.2031C24.3451 48.1302 24.2357 48.0026 24.1992 47.8203C24.1992 47.6745 24.1081 47.5651 23.9258 47.4922C23.8893 47.9297 23.6888 48.1484 23.3242 48.1484C22.9961 48.1849 22.5768 48.112 22.0664 47.9297C21.556 47.7474 21.0273 47.4922 20.4805 47.1641C19.9336 46.8359 19.4596 46.526 19.0586 46.2344C18.8763 46.5625 18.6393 46.9089 18.3477 47.2734C18.0924 47.638 17.819 47.8932 17.5273 48.0391C17.0169 47.9661 16.6341 47.9115 16.3789 47.875C16.1602 47.8385 15.9414 47.9297 15.7227 48.1484C15.431 48.0026 15.2122 47.8385 15.0664 47.6562C14.9206 47.5104 14.7747 47.3464 14.6289 47.1641C14.4831 47.0182 14.319 46.8906 14.1367 46.7812C13.9544 46.6354 13.681 46.5078 13.3164 46.3984C13.3893 46.2161 13.3346 45.9427 13.1523 45.5781C12.9701 45.1771 12.7148 44.9401 12.3867 44.8672C12.569 44.5755 12.4961 44.2109 12.168 43.7734C11.8398 43.2995 11.5846 42.7708 11.4023 42.1875C11.4388 41.9323 11.457 41.6771 11.457 41.4219C11.4935 41.1302 11.5299 40.875 11.5664 40.6562C11.6393 40.401 11.7305 40.1823 11.8398 40C11.9492 39.8177 12.1315 39.6901 12.3867 39.6172C12.3503 39.1432 12.2044 38.6875 11.9492 38.25C12.2773 37.9948 12.4961 37.6849 12.6055 37.3203C12.7148 36.9193 12.806 36.5182 12.8789 36.1172C12.9883 35.7161 13.1159 35.3333 13.2617 34.9688C13.4076 34.5677 13.6445 34.2396 13.9727 33.9844C13.8997 33.875 13.8268 33.7839 13.7539 33.7109C13.681 33.638 13.6445 33.5104 13.6445 33.3281C14.1914 32.4167 14.5742 31.651 14.793 31.0312C15.0117 30.375 15.1758 29.7552 15.2852 29.1719C15.431 28.5521 15.5768 27.8958 15.7227 27.2031C15.8685 26.5104 16.1602 25.6354 16.5977 24.5781C16.5612 23.9219 16.6341 23.3385 16.8164 22.8281C16.9987 22.3177 17.181 21.8255 17.3633 21.3516C17.582 20.8411 17.7461 20.3125 17.8555 19.7656C17.9648 19.2188 17.9466 18.5807 17.8008 17.8516C17.181 17.9245 16.7253 18.1432 16.4336 18.5078C16.1784 18.8724 16.0143 19.3646 15.9414 19.9844C15.6133 20.276 15.194 20.4219 14.6836 20.4219C14.1732 20.3854 13.7174 20.4401 13.3164 20.5859ZM37.3789 31.1406C35.9935 30.375 34.7174 29.9193 33.5508 29.7734C32.4206 29.6276 31.3268 29.6458 30.2695 29.8281C29.2487 29.974 28.2643 30.1927 27.3164 30.4844C26.3685 30.776 25.4206 30.9948 24.4727 31.1406C23.9987 32.3802 23.5065 33.7474 22.9961 35.2422C22.4857 36.737 21.9935 38.1953 21.5195 39.6172C22.832 39.4349 24.0352 39.1615 25.1289 38.7969C26.2227 38.4323 27.2799 38.0312 28.3008 37.5938C29.3216 37.1198 30.3242 36.6641 31.3086 36.2266C32.293 35.7526 33.3138 35.3151 34.3711 34.9141C34.4805 34.4766 34.7174 34.1302 35.082 33.875C35.4466 33.6198 35.8112 33.3828 36.1758 33.1641C36.5404 32.9089 36.8503 32.6354 37.1055 32.3438C37.3607 32.0521 37.4518 31.651 37.3789 31.1406ZM33.5508 14.0234C31.2904 13.9505 29.0664 14.151 26.8789 14.625C24.6914 15.099 22.8503 15.7917 21.3555 16.7031C22.0846 17.3229 22.832 17.8698 23.5977 18.3438C24.3997 18.8177 25.0013 19.4557 25.4023 20.2578C27.1523 19.5651 28.6836 18.6901 29.9961 17.6328C31.3086 16.5391 32.4935 15.3359 33.5508 14.0234Z" fill="#030302"/>
</svg>
