<svg width="195" height="196" viewBox="0 0 195 196" fill="none" xmlns="http://www.w3.org/2000/svg">
<g clip-path="url(#clip0_3445_20649)">
<path d="M97.75 192.711C150.217 192.711 192.75 150.178 192.75 97.7109C192.75 45.2439 150.217 2.71094 97.75 2.71094C45.2829 2.71094 2.75 45.2439 2.75 97.7109C2.75 150.178 45.2829 192.711 97.75 192.711Z" fill="#FDFDFC" stroke="#2D2B24" stroke-width="4" stroke-miterlimit="10"/>
<path d="M150.521 47.0703H112.284C107.24 47.0703 103.15 51.1302 103.15 56.1384V139.134C103.15 144.142 107.24 148.202 112.284 148.202H150.521C155.565 148.202 159.655 144.142 159.655 139.134V56.1384C159.655 51.1302 155.565 47.0703 150.521 47.0703Z" stroke="#030302" stroke-width="3" stroke-miterlimit="10"/>
<path d="M103.15 63.0547H159.655" stroke="#030302" stroke-width="3" stroke-miterlimit="10"/>
<path d="M103.15 128.07H159.655" stroke="#030302" stroke-width="3" stroke-miterlimit="10"/>
<path d="M130.948 106.865C139.594 106.865 146.603 99.9068 146.603 91.3232C146.603 82.7396 139.594 75.7812 130.948 75.7812C122.303 75.7812 115.294 82.7396 115.294 91.3232C115.294 99.9068 122.303 106.865 130.948 106.865Z" stroke="#030302" stroke-width="3" stroke-miterlimit="10"/>
<path d="M132.294 107.943C132.294 107.349 131.809 106.867 131.211 106.867C130.612 106.867 130.127 107.349 130.127 107.943V108.25C130.127 108.845 130.612 109.326 131.211 109.326C131.809 109.326 132.294 108.845 132.294 108.25V107.943Z" stroke="#030302" stroke-width="3" stroke-miterlimit="10"/>
<mask id="mask0_3445_20649" style="mask-type:luminance" maskUnits="userSpaceOnUse" x="118" y="84" width="26" height="16">
<path d="M143.565 84.7812H118.331V99.4352H143.565V84.7812Z" fill="white"/>
</mask>
<g mask="url(#mask0_3445_20649)">
<path fill-rule="evenodd" clip-rule="evenodd" d="M125.173 87.2761C125.199 87.219 125.219 87.1655 125.247 87.1158C125.312 87.0015 125.449 86.7546 125.577 86.598C125.706 86.4414 125.856 86.2995 126.015 86.1779C126.175 86.0563 126.351 85.955 126.531 85.8739C126.713 85.7928 127.068 85.697 127.103 85.6896C127.361 85.6362 127.676 85.6067 127.934 85.6067C128.23 85.6067 128.565 85.6454 128.998 85.7431C129.187 85.7854 129.358 85.8389 129.521 85.9015C129.521 85.9015 129.577 85.802 129.62 85.756C129.703 85.6601 129.894 85.4667 130.054 85.3488C130.212 85.2308 130.39 85.1277 130.572 85.0466C130.752 84.9655 131.141 84.8642 131.141 84.8642C131.405 84.8089 131.674 84.7812 131.949 84.7812C132.223 84.7812 132.591 84.8218 133.02 84.9176C133.526 85.0318 133.883 85.2143 134.285 85.4888C134.968 85.955 135.182 86.8597 134.783 87.5783L134.846 87.6133C134.846 87.6133 135.054 87.4014 135.172 87.3148C135.302 87.2208 135.471 87.1231 135.621 87.0476C135.768 86.9739 135.918 86.9057 136.076 86.8633C136.369 86.7878 136.724 86.7528 137.03 86.7528C137.316 86.7528 137.682 86.7878 138.118 86.8965C138.405 86.9684 138.647 87.0531 138.882 87.1674L138.893 87.16C138.893 87.16 139.261 86.9628 139.461 86.9094C139.712 86.8431 140 86.7786 140.397 86.762C140.727 86.7473 141.373 86.8118 141.718 86.9149C142.165 87.0476 142.418 87.1434 142.846 87.4253C143.477 87.8399 143.732 88.6377 143.457 89.3379C143.297 89.747 143.036 90.5374 142.746 91.3868C142.44 92.2842 142.149 93.1225 141.759 94.1894C141.323 95.3834 140.855 96.4097 140.28 97.2849C139.489 98.4881 138.57 99.0796 137.514 99.3154C137.067 99.4149 136.75 99.461 136.234 99.4149C135.95 99.3909 135.527 99.2859 135.234 99.1643C134.955 99.0501 134.664 98.8382 134.469 98.6852C134.313 98.5636 134.185 98.4089 134.066 98.2522C133.946 98.0956 133.834 97.9243 133.745 97.7455C133.652 97.5613 133.565 97.3549 133.513 97.1467C133.458 96.9256 133.413 96.5073 133.415 96.4152C132.817 96.7524 132.016 97.049 131.39 97.1393C130.579 97.2573 130.278 97.248 129.737 97.1725C129.336 97.1172 128.812 96.8924 128.812 96.8924C128.714 96.9882 128.612 97.0804 128.506 97.1688C127.728 97.8229 126.823 98.0477 126.32 98.0772C126.249 98.0809 126.053 98.0827 125.951 98.0698C125.778 98.0477 125.488 97.9851 125.273 97.8948C125.039 97.7971 124.761 97.6571 124.544 97.4857C124.327 97.3144 124.106 97.049 123.972 96.8703C123.872 96.734 123.749 96.4152 123.749 96.4152C123.25 96.5995 122.669 96.6934 122.291 96.6934C121.84 96.6934 121.411 96.6861 120.776 96.4557C120.054 96.1941 119.321 95.634 118.932 94.943C118.59 94.3405 118.334 93.4616 118.334 92.5016C118.334 92.0152 118.399 91.4753 118.538 90.8838C118.681 90.2739 118.928 89.6677 119.284 89.0707C119.672 88.4222 120.166 87.8675 120.752 87.4585C121.394 87.0108 122.111 86.6736 122.968 86.6201C123.842 86.5667 124.573 86.8339 125.156 87.2558C125.162 87.2595 125.167 87.265 125.175 87.2687L125.173 87.2761Z" fill="#473400"/>
<path d="M137.165 97.7634C136.888 97.8243 136.693 97.8593 136.374 97.8316C136.135 97.8114 135.782 97.7174 135.535 97.4981C135.259 97.2549 135.023 96.844 135.017 96.4331C135.105 96.5713 135.325 96.8422 135.869 96.8882C136.159 96.9122 136.639 96.7832 136.899 96.481C137.139 96.2046 137.267 95.9614 137.601 95.1949C137.829 94.6716 137.925 94.41 138.137 93.7982C137.979 94.0415 137.892 94.1594 137.708 94.3621C137.209 94.9112 136.73 95.1249 136.289 95.1304C135.845 95.1359 135.255 94.8209 135.051 94.3989C134.874 94.0323 134.808 93.6361 134.796 93.1312C134.793 92.9783 134.808 92.7554 134.845 92.3758C134.882 91.9962 134.982 91.4656 135.179 90.7856C135.375 90.1057 135.565 89.4645 135.826 88.956C135.977 88.663 136.251 88.4953 136.5 88.4272C136.662 88.3829 136.862 88.3608 137.031 88.3608C137.215 88.3608 137.449 88.3829 137.727 88.453C138.007 88.523 138.215 88.6133 138.456 88.7699C138.291 89.0444 138.092 89.4645 137.844 90.0173C137.595 90.5701 137.369 91.156 137.163 91.7733C136.957 92.3905 136.816 92.9249 136.736 93.3726C136.71 93.5292 136.697 93.6582 136.697 93.7632C136.697 93.9972 136.786 94.1152 136.903 94.1152C137.131 94.1152 137.437 93.859 137.762 93.345C138.085 92.8309 138.33 92.256 138.584 91.5835C138.839 90.9091 138.985 90.4042 139.108 89.9878C139.2 89.6746 139.317 89.2361 139.406 88.9597C139.499 88.6704 139.629 88.5414 139.965 88.4308C140.127 88.3774 140.255 88.37 140.47 88.3608C140.668 88.3516 141.054 88.3866 141.262 88.4474C141.541 88.5303 141.698 88.5856 141.966 88.7607C141.801 89.1826 141.53 89.9989 141.229 90.8778C140.926 91.7659 140.639 92.5932 140.253 93.649C139.865 94.714 139.453 95.6334 138.939 96.4147C138.425 97.1941 137.851 97.6087 137.166 97.7616L137.165 97.7634Z" fill="#FFD768"/>
<path d="M122.291 95.0927C122.003 95.0927 121.728 95.0983 121.324 94.9527C120.938 94.8127 120.537 94.5271 120.329 94.1586C120.097 93.7495 119.938 93.1507 119.938 92.5003C119.938 92.1225 119.991 91.7061 120.099 91.2473C120.207 90.7885 120.394 90.3352 120.663 89.8856C120.93 89.4379 121.268 89.0473 121.673 88.7654C122.077 88.4816 122.523 88.2476 123.065 88.2144C123.521 88.1868 123.904 88.325 124.206 88.5461C124.51 88.7672 124.72 89.0473 124.839 89.3845C124.911 89.5853 124.947 89.7917 124.947 89.9999C124.947 90.1436 124.917 90.3795 124.87 90.5582C124.752 91.0225 124.432 91.4131 124.108 91.6324C123.811 91.8314 123.586 91.9309 123.26 91.9972C123.102 92.0286 122.818 92.047 122.64 92.047C122.437 92.047 122.289 92.0267 122.131 92.0028C122.04 92.3547 122.022 92.5205 122.022 92.8264C122.022 92.983 122.012 93.2078 122.075 93.4989C122.139 93.7882 122.313 94.1033 122.655 94.1678C122.797 94.1954 122.942 94.2009 123.085 94.1862C123.245 94.1696 123.475 94.107 123.761 93.9596C124.058 93.8066 124.397 93.5081 124.638 93.2078C124.924 92.8522 125.271 92.2183 125.474 91.8296C125.539 91.719 125.589 91.6361 125.62 91.5808C125.654 91.5255 125.68 91.4979 125.698 91.4979C125.732 91.4979 125.746 91.5329 125.746 91.6048C125.7 92.1317 125.524 92.6587 125.217 93.1857C124.995 93.5818 124.776 93.9209 124.434 94.1991C124.013 94.5418 123.603 94.7574 123.191 94.9103C122.881 95.0246 122.521 95.0909 122.285 95.0909L122.291 95.0927ZM122.597 91.5218C122.899 91.5126 123.363 91.3468 123.61 91.1368C123.857 90.9267 124.071 90.6393 124.076 90.256C124.076 90.1528 124.061 90.0091 123.987 89.8764C123.918 89.7511 123.742 89.6572 123.603 89.6867C123.441 89.7198 123.217 89.8433 123.015 90.0773C122.812 90.3113 122.632 90.6098 122.474 90.9746C122.415 91.0925 122.328 91.3579 122.285 91.485C122.285 91.485 122.471 91.5255 122.595 91.5218H122.597Z" fill="#FFD768"/>
<path d="M126.252 96.5112H126.213C125.671 96.4523 125.314 96.1722 125.144 95.6729C125.032 95.3357 124.977 94.9451 124.977 94.5029C124.977 93.6903 125.222 92.4613 125.476 91.47C125.762 90.3571 126.305 88.638 126.695 87.8254C126.827 87.5509 127.09 87.3463 127.43 87.2745C127.588 87.2413 127.777 87.2266 127.935 87.2266C128.132 87.2266 128.354 87.2597 128.642 87.3242C128.93 87.3887 129.147 87.4974 129.381 87.654C129.264 87.8751 129.03 88.3726 128.69 89.1631C128.351 89.9536 128.007 90.8269 127.66 91.7869C127.313 92.7469 127.051 93.5871 126.875 94.3075C126.79 94.6595 126.747 94.9359 126.747 95.1367C126.747 95.3781 126.808 95.4978 126.933 95.4978C127.129 95.4978 127.354 95.3578 127.608 95.0777C127.961 94.6742 128.685 93.5152 128.883 93.1062C128.926 93.0177 129.013 92.8796 129.05 92.863C129.085 92.8445 129.098 92.9293 129.098 92.9993C129.052 93.5318 128.874 94.0717 128.564 94.6189C128.254 95.1662 127.887 95.6176 127.462 95.9751C127.037 96.3325 126.632 96.5112 126.246 96.5112H126.252Z" fill="#FFD768"/>
<path d="M131.155 95.5721C130.567 95.6569 130.348 95.6587 129.956 95.6035C129.446 95.5334 128.954 95.2478 128.811 94.7467C128.733 94.474 128.694 94.1681 128.694 93.8291C128.694 93.0036 128.856 91.9975 129.301 90.6322C129.726 89.3129 130.361 87.6841 130.723 86.9839C130.864 86.7112 131.122 86.5086 131.469 86.4385C131.627 86.4054 131.786 86.3906 131.95 86.3906C132.139 86.3906 132.378 86.4238 132.666 86.4883C132.954 86.5528 133.152 86.6633 133.38 86.8199C133.286 86.9876 133.115 87.3359 132.839 87.8776C132.56 88.4211 132.259 89.0531 131.931 89.7754C132.454 89.184 132.916 88.8578 133.412 88.8578C134.269 88.8597 134.798 89.4511 134.822 90.4664C134.824 90.5696 134.821 90.7649 134.809 90.9952C134.795 91.2753 134.694 91.8723 134.559 92.2924C134.41 92.7548 134.208 93.3058 133.917 93.7738C133.625 94.2418 133.252 94.6195 132.827 94.9143C132.402 95.211 131.692 95.4947 131.161 95.5721H131.155ZM130.65 94.6932C130.923 94.6951 131.3 94.4058 131.584 94.0299C131.849 93.6761 132.091 93.2044 132.25 92.7512C132.425 92.2555 132.601 91.5074 132.633 91.0597C132.644 90.8975 132.64 90.6635 132.581 90.5217C132.538 90.4185 132.462 90.3024 132.289 90.3024C132.117 90.3024 131.922 90.4719 131.68 90.7851C131.441 91.0965 131.185 91.5498 131.012 91.9607C130.74 92.6167 130.528 93.42 130.452 93.9673C130.4 94.3376 130.415 94.6932 130.649 94.6951L130.65 94.6932Z" fill="#FFD768"/>
</g>
<path d="M131.636 142.971C133.944 142.971 135.816 141.114 135.816 138.822C135.816 136.53 133.944 134.672 131.636 134.672C129.327 134.672 127.456 136.53 127.456 138.822C127.456 141.114 129.327 142.971 131.636 142.971Z" stroke="#030302" stroke-width="3" stroke-miterlimit="10"/>
<path d="M41.6154 71.8203H65.9199C69.3799 71.8203 72.1896 74.6099 72.1896 78.045V91.6471C72.1896 102.081 63.6582 110.552 53.1484 110.552C43.3229 110.552 35.3457 102.632 35.3457 92.8766V78.045C35.3457 74.6099 38.1554 71.8203 41.6154 71.8203Z" stroke="#030302" stroke-width="3" stroke-miterlimit="10"/>
<path d="M45.8723 58.1406H45.4079C44.8094 58.1406 44.3242 58.6223 44.3242 59.2165V70.59C44.3242 71.1842 44.8094 71.6659 45.4079 71.6659H45.8723C46.4708 71.6659 46.9559 71.1842 46.9559 70.59V59.2165C46.9559 58.6223 46.4708 58.1406 45.8723 58.1406Z" stroke="#030302" stroke-width="2" stroke-miterlimit="10"/>
<path d="M61.9719 58.1406H61.5075C60.909 58.1406 60.4238 58.6223 60.4238 59.2165V70.59C60.4238 71.1842 60.909 71.6659 61.5075 71.6659H61.9719C62.5704 71.6659 63.0555 71.1842 63.0555 70.59V59.2165C63.0555 58.6223 62.5704 58.1406 61.9719 58.1406Z" stroke="#030302" stroke-width="2" stroke-miterlimit="10"/>
<path d="M54.6971 81.8125L48.5049 92.6066L58.7221 91.1879L52.2202 102.408" stroke="#030302" stroke-width="3" stroke-miterlimit="10" stroke-linecap="round"/>
<path d="M48.5049 110.546V119.922H58.7221V109.477" stroke="#030302" stroke-width="3" stroke-miterlimit="10"/>
<path d="M53.6133 120.535V138.825C53.6133 138.825 54.2325 149.737 64.6045 148.2C74.9765 146.663 75.2862 138.825 75.2862 138.825V112.85C75.2862 112.85 75.1314 96.5583 93.8629 96.712" stroke="#030302" stroke-width="3" stroke-miterlimit="10" stroke-linecap="round"/>
<path d="M89.6748 89.4844L95.9445 96.5528L89.6748 103.932" stroke="#030302" stroke-width="3" stroke-miterlimit="10" stroke-linecap="round"/>
<path d="M122.308 54.9688H141.732" stroke="black" stroke-width="3" stroke-linecap="round"/>
</g>
<defs>
<clipPath id="clip0_3445_20649">
<rect width="195" height="195" fill="white" transform="translate(0 0.5)"/>
</clipPath>
</defs>
</svg>
