<svg width="53" height="53" viewBox="0 0 53 53" fill="none" xmlns="http://www.w3.org/2000/svg">
<circle cx="26.5" cy="26.5" r="26.5" fill="white"/>
<path d="M12.9688 41.2422C11.9115 40.4401 11.0365 39.4375 10.3438 38.2344C9.6875 37.0312 9.15885 35.7552 8.75781 34.4062C8.39323 33.0573 8.13802 31.6719 7.99219 30.25C7.88281 28.7917 7.84635 27.4062 7.88281 26.0938C8.21094 25.1094 8.61198 24.2161 9.08594 23.4141C9.5599 22.5755 10.0885 21.7917 10.6719 21.0625C11.2552 20.2969 11.8568 19.5859 12.4766 18.9297C13.1328 18.237 13.7708 17.5443 14.3906 16.8516C14.6094 16.8516 14.8099 16.9062 14.9922 17.0156C15.138 16.6146 15.3568 16.2682 15.6484 15.9766C15.9401 15.6849 16.25 15.4297 16.5781 15.2109C16.9062 14.9557 17.2344 14.7188 17.5625 14.5C17.8906 14.2448 18.1641 13.9531 18.3828 13.625C19.2943 13.4062 20.0964 13.0964 20.7891 12.6953C21.5182 12.2943 22.2109 11.8568 22.8672 11.3828C23.5234 10.9089 24.1979 10.4714 24.8906 10.0703C25.5833 9.66927 26.3854 9.35938 27.2969 9.14062C27.625 8.77604 28.026 8.46615 28.5 8.21094C29.0104 7.95573 29.5026 7.71875 29.9766 7.5C30.487 7.28125 30.9609 7.04427 31.3984 6.78906C31.8724 6.53385 32.2552 6.1875 32.5469 5.75C32.7656 6.04167 33.0755 6.15104 33.4766 6.07812C33.8776 5.96875 34.2422 5.85938 34.5703 5.75C34.7891 5.71354 34.9714 5.75 35.1172 5.85938C35.263 5.96875 35.3906 6.09635 35.5 6.24219C35.6458 6.35156 35.7552 6.42448 35.8281 6.46094C35.9375 6.4974 36.0469 6.38802 36.1562 6.13281C36.4479 6.16927 36.5208 6.29688 36.375 6.51562C36.2656 6.73438 36.1927 6.88021 36.1562 6.95312C36.5208 6.88021 36.8125 6.95312 37.0312 7.17188C37.2865 7.35417 37.6693 7.48177 38.1797 7.55469C38.362 7.73698 38.4167 7.88281 38.3438 7.99219C38.2708 8.10156 38.2161 8.28385 38.1797 8.53906C39.4922 8.9401 40.3307 9.57812 40.6953 10.4531C41.0599 11.2917 41.0964 12.1849 40.8047 13.1328C40.513 14.0443 39.9661 14.901 39.1641 15.7031C38.3984 16.4688 37.5417 16.9792 36.5938 17.2344C35.4635 17.526 34.4062 17.8177 33.4219 18.1094C32.474 18.401 31.5443 18.7292 30.6328 19.0938C29.7578 19.4583 28.9193 19.8958 28.1172 20.4062C27.3516 20.8802 26.6771 21.4453 26.0938 22.1016C25.0729 22.3932 24.1432 22.7943 23.3047 23.3047C22.5026 23.8151 21.737 24.3802 21.0078 25C20.3151 25.6198 19.6406 26.276 18.9844 26.9688C18.3281 27.625 17.6719 28.2812 17.0156 28.9375C17.0156 29.5573 16.9062 30.0312 16.6875 30.3594C16.4688 30.6875 16.2318 31.0156 15.9766 31.3438C16.0495 32.0365 16.1953 32.638 16.4141 33.1484C16.6693 33.6224 16.9245 34.1146 17.1797 34.625C20.0964 35.5 23.1771 36.0469 26.4219 36.2656C29.7031 36.4479 32.9479 36.5573 36.1562 36.5938C36.4844 37.0312 36.849 37.4505 37.25 37.8516C37.6875 38.2161 38.0703 38.599 38.3984 39C38.763 39.401 39.0365 39.875 39.2188 40.4219C39.4375 40.9323 39.4922 41.5521 39.3828 42.2812C38.763 42.901 38.0885 43.5026 37.3594 44.0859C36.6302 44.6328 35.901 45.1797 35.1719 45.7266C34.8438 45.763 34.4427 45.763 33.9688 45.7266C33.5312 45.6901 33.0573 45.6719 32.5469 45.6719C32.0729 45.6719 31.5807 45.7083 31.0703 45.7812C30.5964 45.8177 30.1406 45.9271 29.7031 46.1094C27.4062 46.0365 25.0547 45.763 22.6484 45.2891C20.2422 44.7786 18.0182 44.1771 15.9766 43.4844C15.5755 43.0104 15.1562 42.5729 14.7188 42.1719C14.2812 41.7344 13.6979 41.4245 12.9688 41.2422Z" fill="#030302"/>
</svg>
