<svg width="58" height="58" viewBox="0 0 58 58" fill="none" xmlns="http://www.w3.org/2000/svg">
<g clip-path="url(#clip0_3355_20694)">
<path d="M10.7688 40.9046C5.84538 36.7823 3 31.1621 3 25.1399C3 12.8376 14.7621 3 29.124 3C43.489 3 55.2542 12.8345 55.2542 25.1399C55.2542 37.4422 43.489 47.2767 29.124 47.2767C27.5095 47.2767 25.9185 47.154 24.3511 46.9084C23.6758 47.0649 20.9685 48.6518 17.0703 51.4604C15.6584 52.4794 13.6571 51.4972 13.6571 49.7814V42.9887C12.6461 42.3637 11.6818 41.6662 10.7718 40.9015M24.4462 42.7186C24.5649 42.7186 24.6846 42.7278 24.8053 42.7462C26.2173 42.9795 27.6568 43.0972 29.124 43.0992C41.2576 43.0992 50.9662 34.9805 50.9662 25.1368C50.9662 15.2962 41.2576 7.17751 29.1271 7.17751C16.9967 7.17751 7.28188 15.3023 7.28188 25.1399C7.28188 29.8975 9.55326 34.3789 13.562 37.7338C14.5728 38.5769 15.6737 39.334 16.8647 40.0052C17.1877 40.1845 17.4574 40.4463 17.6462 40.764C17.8349 41.0816 17.936 41.4437 17.939 41.8131V45.7297C21.0238 43.6886 23.0527 42.7186 24.4462 42.7186Z" fill="#FDFDFC"/>
<mask id="mask0_3355_20694" style="mask-type:luminance" maskUnits="userSpaceOnUse" x="3" y="3" width="56" height="49">
<path d="M10.7688 40.9046C5.84538 36.7823 3 31.1621 3 25.1399C3 12.8376 14.7621 3 29.124 3C43.489 3 55.2542 12.8345 55.2542 25.1399C55.2542 37.4422 43.489 47.2767 29.124 47.2767C27.5095 47.2767 25.9185 47.154 24.3511 46.9084C23.6758 47.0649 20.9685 48.6518 17.0703 51.4604C15.6584 52.4794 13.6571 51.4972 13.6571 49.7814V42.9887C12.6461 42.3637 11.6818 41.6662 10.7718 40.9015M24.4462 42.7186C24.5649 42.7186 24.6846 42.7278 24.8053 42.7462C26.2173 42.9795 27.6568 43.0972 29.124 43.0992C41.2576 43.0992 50.9662 34.9805 50.9662 25.1368C50.9662 15.2962 41.2576 7.17751 29.1271 7.17751C16.9967 7.17751 7.28188 15.3023 7.28188 25.1399C7.28188 29.8975 9.55326 34.3789 13.562 37.7338C14.5728 38.5769 15.6737 39.334 16.8647 40.0052C17.1877 40.1845 17.4574 40.4463 17.6462 40.764C17.8349 41.0816 17.936 41.4437 17.939 41.8131V45.7297C21.0238 43.6886 23.0527 42.7186 24.4462 42.7186Z" fill="white"/>
</mask>
<g mask="url(#mask0_3355_20694)">
<path d="M24.3511 47.9084L24.5058 46.9205L24.3142 46.8904L24.1252 46.9342L24.3511 47.9084ZM13.6571 43.9887H14.6571V43.4313L14.1829 43.1381L13.6571 43.9887ZM24.8053 43.7462L24.9684 42.7595L24.9561 42.7577L24.8053 43.7462ZM29.124 44.0992L29.1226 45.0992H29.124V44.0992ZM13.562 38.7338L12.9202 39.5007L12.9215 39.5018L13.562 38.7338ZM16.8647 41.0052L16.3737 41.8764L16.3794 41.8796L16.8647 41.0052ZM17.939 42.8131H18.939V42.8049L17.939 42.8131ZM17.939 46.7297H16.939V48.5905L18.4908 47.5637L17.939 46.7297ZM10.7688 41.9046L11.4107 41.1378C6.68668 37.1825 4 31.832 4 26.1399H3H2C2 32.4923 5.00407 38.3821 10.1268 42.6713L10.7688 41.9046ZM3 26.1399H4C4 14.5421 15.1488 5 29.124 5V4V3C14.3754 3 2 13.1331 2 26.1399H3ZM29.124 4V5C43.1027 5 54.2542 14.5393 54.2542 26.1399H55.2542H56.2542C56.2542 13.1297 43.8754 3 29.124 3V4ZM55.2542 26.1399H54.2542C54.2542 37.7374 43.1028 47.2767 29.124 47.2767V48.2767V49.2767C43.8753 49.2767 56.2542 39.1471 56.2542 26.1399H55.2542ZM29.124 48.2767V47.2767C27.5604 47.2767 26.0212 47.1578 24.5058 46.9205L24.3511 47.9084L24.1963 48.8964C25.8158 49.1501 27.4586 49.2767 29.124 49.2767V48.2767ZM24.3511 47.9084L24.1252 46.9342C23.816 47.0059 23.4157 47.1938 23.0126 47.405C22.5761 47.6337 22.0317 47.947 21.3957 48.3379C20.122 49.1208 18.45 50.2339 16.4858 51.649L17.0703 52.4604L17.6549 53.2717C19.5889 51.8784 21.2196 50.7937 22.4429 50.0418C23.0554 49.6654 23.5581 49.3771 23.9409 49.1765C24.1325 49.0761 24.2866 49.0016 24.4043 48.9502C24.5323 48.8943 24.5822 48.8813 24.5769 48.8826L24.3511 47.9084ZM17.0703 52.4604L16.4858 51.649C15.6971 52.2183 14.6571 51.635 14.6571 50.7814H13.6571H12.6571C12.6571 53.3595 15.6197 54.7406 17.6549 53.2717L17.0703 52.4604ZM13.6571 50.7814H14.6571V43.9887H13.6571H12.6571V50.7814H13.6571ZM13.6571 43.9887L14.1829 43.1381C13.2131 42.5386 12.2881 41.8694 11.4152 41.1359L10.7718 41.9015L10.1285 42.6671C11.0755 43.4629 12.0791 44.1889 13.1313 44.8393L13.6571 43.9887ZM24.4462 43.7186V44.7186C24.513 44.7186 24.5823 44.7238 24.6545 44.7348L24.8053 43.7462L24.9561 42.7577C24.7869 42.7319 24.6168 42.7186 24.4462 42.7186V43.7186ZM24.8053 43.7462L24.6423 44.7329C26.109 44.9752 27.6027 45.0971 29.1226 45.0992L29.124 44.0992L29.1254 43.0992C27.711 43.0972 26.3256 42.9837 24.9684 42.7595L24.8053 43.7462ZM29.124 44.0992V45.0992C41.6232 45.0992 51.9662 36.7025 51.9662 26.1368H50.9662H49.9662C49.9662 35.2585 40.8919 43.0992 29.124 43.0992V44.0992ZM50.9662 26.1368H51.9662C51.9662 15.5742 41.6232 7.17751 29.1271 7.17751V8.17751V9.17751C40.8919 9.17751 49.9662 17.0182 49.9662 26.1368H50.9662ZM29.1271 8.17751V7.17751C16.631 7.17751 6.28188 15.5803 6.28188 26.1399H7.28188H8.28188C8.28188 17.0244 17.3623 9.17751 29.1271 9.17751V8.17751ZM7.28188 26.1399H6.28188C6.28188 31.2326 8.71616 35.9824 12.9202 39.5007L13.562 38.7338L14.2038 37.967C10.3904 34.7755 8.28188 30.5625 8.28188 26.1399H7.28188ZM13.562 38.7338L12.9215 39.5018C13.9807 40.3852 15.1319 41.1766 16.3737 41.8764L16.8647 41.0052L17.3557 40.134C16.2155 39.4915 15.165 38.7686 14.2024 37.9659L13.562 38.7338ZM16.8647 41.0052L16.3794 41.8796C16.5477 41.973 16.6882 42.1094 16.7865 42.2748L17.6462 41.764L18.5058 41.2531C18.2267 40.7833 17.8278 40.396 17.3499 40.1308L16.8647 41.0052ZM17.6462 41.764L16.7865 42.2748C16.8848 42.4403 16.9374 42.6289 16.939 42.8213L17.939 42.8131L18.939 42.8049C18.9345 42.2584 18.785 41.723 18.5058 41.2531L17.6462 41.764ZM17.939 42.8131H16.939V46.7297H17.939H18.939V42.8131H17.939ZM17.939 46.7297L18.4908 47.5637C20.016 46.5545 21.2474 45.8324 22.2495 45.365C23.2643 44.8917 23.9637 44.7186 24.4462 44.7186V43.7186V42.7186C23.5352 42.7186 22.5234 43.0305 21.4042 43.5524C20.2722 44.0804 18.9468 44.8638 17.3872 45.8958L17.939 46.7297Z" fill="white"/>
</g>
<path d="M18.2145 22C19.0672 22 19.8844 22.3164 20.4873 22.879C21.0901 23.4416 21.4291 24.2043 21.4291 25C21.4291 25.7957 21.0901 26.5584 20.4873 27.121C19.8844 27.6836 19.0672 28 18.2145 28C17.362 28 16.5447 27.6836 15.9419 27.121C15.339 26.5584 15 25.7957 15 25C15 24.2043 15.339 23.4416 15.9419 22.879C16.5447 22.3164 17.362 22 18.2145 22ZM30.0016 22C30.8542 22 31.6714 22.3164 32.2743 22.879C32.8772 23.4416 33.2161 24.2043 33.2161 25C33.2161 25.7957 32.8772 26.5584 32.2743 27.121C31.6714 27.6836 30.8542 28 30.0016 28C29.149 28 28.3317 27.6836 27.7289 27.121C27.126 26.5584 26.787 25.7956 26.787 25C26.787 24.2044 27.126 23.4416 27.7289 22.879C28.3317 22.3164 29.149 22 30.0016 22ZM41.7854 22C42.6379 22 43.4553 22.3164 44.0581 22.879C44.661 23.4416 45 24.2043 45 25C45 25.7957 44.661 26.5584 44.0581 27.121C43.4553 27.6836 42.6379 28 41.7854 28C40.9328 28 40.1156 27.6836 39.5127 27.121C38.9098 26.5584 38.5709 25.7957 38.5709 25C38.5709 24.2043 38.9098 23.4416 39.5127 22.879C40.1156 22.3164 40.9328 22 41.7854 22Z" fill="#FDFDFC"/>
</g>
<defs>
<clipPath id="clip0_3355_20694">
<rect width="58" height="58" fill="white"/>
</clipPath>
</defs>
</svg>
