<svg width="58" height="58" viewBox="0 0 58 58" fill="none" xmlns="http://www.w3.org/2000/svg">
<path d="M10.7688 41.9046C5.84538 37.7823 3 32.1621 3 26.1399C3 13.8376 14.7621 4 29.124 4C43.489 4 55.2542 13.8345 55.2542 26.1399C55.2542 38.4422 43.489 48.2767 29.124 48.2767C27.5095 48.2767 25.9185 48.154 24.3511 47.9084C23.6758 48.0649 20.9685 49.6518 17.0703 52.4604C15.6584 53.4794 13.6571 52.4972 13.6571 50.7814V43.9887C12.6461 43.3637 11.6818 42.6662 10.7718 41.9015M24.4462 43.7186C24.5649 43.7186 24.6846 43.7278 24.8053 43.7462C26.2173 43.9795 27.6568 44.0972 29.124 44.0992C41.2576 44.0992 50.9662 35.9805 50.9662 26.1368C50.9662 16.2962 41.2576 8.17751 29.1271 8.17751C16.9967 8.17751 7.28188 16.3023 7.28188 26.1399C7.28188 30.8975 9.55326 35.3789 13.562 38.7338C14.5728 39.5769 15.6737 40.334 16.8647 41.0052C17.1877 41.1845 17.4574 41.4463 17.6462 41.764C17.8349 42.0816 17.936 42.4437 17.939 42.8131V46.7297C21.0238 44.6886 23.0527 43.7186 24.4462 43.7186Z" fill="#1E1E1E"/>
<path d="M24.3511 47.9084L24.5058 46.9205L24.3142 46.8904L24.1252 46.9342L24.3511 47.9084ZM13.6571 43.9887H14.6571V43.4313L14.1829 43.1381L13.6571 43.9887ZM24.8053 43.7462L24.9684 42.7595L24.9561 42.7577L24.8053 43.7462ZM17.939 42.8131H18.939V42.8049L17.939 42.8131ZM10.7688 41.9046L11.4107 41.1378C6.68668 37.1825 4 31.832 4 26.1399H3H2C2 32.4923 5.00407 38.3821 10.1268 42.6713L10.7688 41.9046ZM3 26.1399H4C4 14.5421 15.1488 5 29.124 5V4V3C14.3754 3 2 13.1331 2 26.1399H3ZM29.124 4V5C43.1027 5 54.2542 14.5393 54.2542 26.1399H55.2542H56.2542C56.2542 13.1297 43.8754 3 29.124 3V4ZM55.2542 26.1399H54.2542C54.2542 37.7374 43.1028 47.2767 29.124 47.2767V48.2767V49.2767C43.8753 49.2767 56.2542 39.1471 56.2542 26.1399H55.2542ZM29.124 48.2767V47.2767C27.5604 47.2767 26.0212 47.1578 24.5058 46.9205L24.3511 47.9084L24.1963 48.8964C25.8158 49.1501 27.4586 49.2767 29.124 49.2767V48.2767ZM24.3511 47.9084L24.1252 46.9342C23.816 47.0059 23.4157 47.1938 23.0126 47.405C22.5761 47.6337 22.0317 47.947 21.3957 48.3379C20.122 49.1208 18.45 50.2339 16.4858 51.649L17.0703 52.4604L17.6549 53.2717C19.5889 51.8784 21.2196 50.7937 22.4429 50.0418C23.0554 49.6654 23.5581 49.3771 23.9409 49.1765C24.1325 49.0761 24.2866 49.0016 24.4043 48.9502C24.5323 48.8943 24.5822 48.8813 24.5769 48.8826L24.3511 47.9084ZM17.0703 52.4604L16.4858 51.649C15.6971 52.2183 14.6571 51.635 14.6571 50.7814H13.6571H12.6571C12.6571 53.3595 15.6197 54.7406 17.6549 53.2717L17.0703 52.4604ZM13.6571 50.7814H14.6571V43.9887H13.6571H12.6571V50.7814H13.6571ZM13.6571 43.9887L14.1829 43.1381C13.2131 42.5386 12.2881 41.8694 11.4152 41.1359L10.7718 41.9015L10.1285 42.6671C11.0755 43.4629 12.0791 44.1889 13.1313 44.8393L13.6571 43.9887Z" fill="#EFEADF"/>
<path d="M17.2145 23C18.0672 23 18.8844 23.3164 19.4873 23.879C20.0901 24.4416 20.4291 25.2043 20.4291 26C20.4291 26.7957 20.0901 27.5584 19.4873 28.121C18.8844 28.6836 18.0672 29 17.2145 29C16.362 29 15.5447 28.6836 14.9419 28.121C14.339 27.5584 14 26.7957 14 26C14 25.2043 14.339 24.4416 14.9419 23.879C15.5447 23.3164 16.362 23 17.2145 23ZM29.0016 23C29.8542 23 30.6714 23.3164 31.2743 23.879C31.8772 24.4416 32.2161 25.2043 32.2161 26C32.2161 26.7957 31.8772 27.5584 31.2743 28.121C30.6714 28.6836 29.8542 29 29.0016 29C28.149 29 27.3317 28.6836 26.7289 28.121C26.126 27.5584 25.787 26.7956 25.787 26C25.787 25.2044 26.126 24.4416 26.7289 23.879C27.3317 23.3164 28.149 23 29.0016 23ZM40.7854 23C41.6379 23 42.4553 23.3164 43.0581 23.879C43.661 24.4416 44 25.2043 44 26C44 26.7957 43.661 27.5584 43.0581 28.121C42.4553 28.6836 41.6379 29 40.7854 29C39.9328 29 39.1156 28.6836 38.5127 28.121C37.9098 27.5584 37.5709 26.7957 37.5709 26C37.5709 25.2043 37.9098 24.4416 38.5127 23.879C39.1156 23.3164 39.9328 23 40.7854 23Z" fill="#1E1E1E"/>
</svg>
