<svg width="653" height="792" viewBox="0 0 653 792" fill="none" xmlns="http://www.w3.org/2000/svg">
<g clip-path="url(#clip0_2620_19395)">
<path d="M552.46 135.98L552.33 137.34L554.68 138.61L554.63 139.19L556.19 140.45L558.73 146.31L560.44 147.57L562 147.68L562.96 148.99L565.75 150.02L566.98 152.25L572.2 154.35L574.1 156.24L575.21 156.72L578.77 155.41L580.01 156.6L581.51 160.51L585.9 164.69L588.83 165.88L591.27 168.5L595.27 171.01L598.95 172.04L599.41 172.75L602.06 172.57L603.08 173.36L603.18 174.96L604.36 175.15L604.06 176.61L604.53 177.65L603.42 178.32L602.86 180.1L603.09 181.37L603.22 182.61L604.66 185.28L604.23 185.85L604.78 187.32L603.91 189.21L602.12 190.84L602.38 192.65L602.2 193.65L600.75 193.82L600.2 196.14L598.24 197.91L598.65 199.57L599.83 200.91L599.21 202.45L599.69 203.9L597.76 205.45L594.48 210.13L593.02 210.4L589.21 208.82L585.99 208.65L577.97 206.42L574.01 203.73L572.53 203.82L567.18 199.72L561.41 197.18L559.81 197.5L554.62 194.39L552.14 194.74L547.72 192.07L544.92 188.28L542.95 187.79L541.61 186.05L540.33 185.44L540.56 184.93L541.29 184.38L540.68 183.31L539.1 183.91L539.69 182.46L541.44 181.58L541.83 179.85L541.35 177.99L542.48 175.91L542.3 166.18L541.58 163.12L542.13 162.24L541.7 159.99L543.14 153.58L548.8 142.58L549.47 140.33L548.73 139.3L548.68 137.96L551.66 135.09L552.46 135.98ZM645.33 534.14L644.56 531.48L645.3 531.11L644.79 530.14L644.91 529.68L645.37 529.39V527.09L646.13 526.26L645.79 525.39L646.2 524.56H646.95L648.63 524.37L649.37 523.24L650.48 524.6L650.85 526.17L651.04 530.96L651.54 531.33L651.37 535.4L652.28 536.04L651.6 537.15L652.93 538.51L651.22 539.48H648.74L648.33 537.57L647.27 536.81L647.36 535.82L645.83 536.25L645.27 535.14L645.86 535.39L645.95 534.5L645.33 534.14ZM627.97 519.7L630.63 518.87L631.05 519.55L628.96 521.19L630.32 523.63L630.71 523.4L629.53 521.32L631 520.21L631.5 521.34L630.61 522.47L632.28 521.62L632.85 522.53L631.47 524.33L630.79 523.53L630.34 523.76L630.56 525.36L631.89 528.51L632.81 529.34V530.65L634 531.78L633.64 532.7L636.58 533.01L637.3 533.96L637.37 537.7L635.77 539.94L636.47 542.54L637.46 542.9L636.75 543.34L637.19 543.78L634.98 545.37L630.54 546.69L628.6 549.28L624.99 552.06L621.11 550.75L620.16 547.26L617.94 547.75L616.18 546.75L613.97 542.45L613.52 538.93L617.11 533.44L619.53 531.09L621.72 526.05L623.32 523.9L625.6 521.92L626.35 520.46H626.76L626.89 519.21L627.05 518.74L627.25 517.21L629.56 517.17L630.04 517.99L627.97 519.7ZM541.01 464.09L542.2 464.32L543.59 463.65L546.36 465.6L546.68 467.33L544.56 469.84L544.18 471.27L543.2 471.87L542.72 476.46L543.26 477.65L547.2 479.42L548.12 482.77L548.39 488.22L550.35 489.6L548.78 490.45L548.7 492.25L549.11 492.97L550.14 492.74L551.17 492.67L550.37 495.82L552.37 500.21L551.88 501.75L550.74 502.66L550.91 503.35L551.86 503.63L551.43 504.39L551.59 506.71L552.09 507.17L551.71 509.22L550.77 508.34L549.6 508.42L548.61 509.35L547.71 509.7L546.62 509.79L545.03 511.19L544.07 510.98L543.98 508.09L542.56 508.78L541.8 506.61L540.48 509.19L533.67 505.47L529.95 508.89L525.9 507.3L523.28 507.63L523.19 503.77L522.41 504.08L521.77 502.81L522.73 502.96L523.47 501.3L524.33 492.94L526.31 491.67L526.19 488.6L531.08 487.01L532.23 487.96L534.95 486.74L536.04 485.19L537.59 479.38L535.51 474.57L533.92 473.73L533.32 472.15L533.58 469.47L529.55 462.95L530.06 458.13L538.18 460.15L541.01 464.09ZM585.95 411.72L588.46 412.71L591.38 413.13L596.37 417.7L599.7 418.14L603.24 419.71L606.22 419.32L612 420.17L617.75 423.02L626.94 431.91L629.43 433.06L629.15 433.63L628.11 433.48L628.26 434.82L627.17 435.92L625.65 439.57L621.11 443.89L618.53 449.53L616.09 457.52L615.4 458.76L615.44 460.32L614.66 461.98L618.18 470.54L618.56 471.83L622.29 480.19L622.96 489.11L624.32 491.02L625.53 494.9L625.04 498.26L626.26 501.93L623.38 508.66L624.42 509.87L624.06 510.4L623.94 512.68L624.8 513.43L625.5 511.73L626.13 511.52L626.43 510.26L629.31 512.2L628.57 512.77L629.11 513.03L627.71 514.18L625.58 513.47L625.48 514.07L626.42 514.78L624.99 515.05L625.32 515.8L625.41 517.56L625.95 517.59L626.21 518.78L625.28 521.67L620.93 525.54L621.1 526.3L621 526.55L620.38 528.03L619.64 529.38L618.81 528.44L618.27 528.82L618.43 529.82L618.9 529.36L619.63 529.72L618.86 530.94L618.64 531.42L616.6 533.23L616.65 531.74L613.55 532.6L613.18 532.24L611.43 536.21L611.99 537.24L612.79 537.43L611.01 540.89L605.1 540L604.74 538.75L604.63 538.24L600.1 537.83L598.48 538.28L598.56 537.67L599.8 537.46L604.58 538.04L604.27 537.3L598.73 537.06L598.12 538.32L597.76 537.52L596.14 537.9L595.36 538.8L595.51 539.16L596.18 538.55L596.53 538.79L597.13 538.41L597.3 539.2L598.09 538.88L598.42 539.49L593.38 542.49L592.46 541.68L592.27 541.45L589.77 539.11L582.68 536.85L581.33 535.62L576.75 537.64L575.64 535.89L572.9 536.72L572.11 539.93L565.22 537.91L566.21 532.68L564.87 532.75L565.01 528.99L563.94 523.67L568.79 519.46L572.47 519.71L577.83 514.52L572.8 510.01L573.94 506.93L574.57 506.73L572.01 504.16L566.24 505.07L563.84 502.73L560.91 501.41L558.17 498.24L555.49 496.73L553.3 495.33L553.97 492.22L552.58 489.93L551.86 485.08L551.09 485.24L550.17 483.55L550.52 483.08L550.12 481.69L548.94 481.23L549.58 477.8L552.03 477.29L552.38 472.98L550.83 470.98L549.57 467.44L549.8 463.87L548.6 460.14L546.28 455.94L545.63 452.72L544.68 452.85L543.73 452.52L542.75 451.59L541.62 451.4L539.92 450.96L536.14 453.06L535.4 454.33L533.89 455.15L528 457.16L525.3 456.36L524.62 456.47L524.57 457.19L522.86 456.11L521.49 450.95L523.15 448.56L528.32 445.76L544.35 435.12L551.76 428.14L567.96 416.06L570.29 414.81L582.86 410.83L584.33 411.19L585.99 410.78L585.95 411.72Z" fill="#2C6242"/>
<path d="M311.77 499.442L310.96 504.912L310.56 505.662L308.91 506.362L305.25 504.742L300.56 505.052L298.88 503.842L298.85 502.922L300.8 501.412L304.32 502.032L307.93 501.032L307.49 499.412L308.74 497.452L308.44 496.332L309.46 493.512L310.86 496.052L311.77 499.442ZM278.66 484.712L279.56 484.762L280.44 485.842L279.21 487.282L277.79 487.722L276.69 487.582L275.18 486.552L274.3 484.492L276.61 483.442L278.66 484.712ZM26.3098 469.732L27.3398 470.872L27.1098 471.412L25.8898 470.702L24.5198 470.802L24.7098 469.192L26.3098 469.732ZM329.2 455.502L327.02 456.712L325.74 456.392L323.64 454.842L322.08 452.702L323.24 452.412L330.39 454.592L329.2 454.992V455.502ZM8.04982 442.242L8.46982 442.502L8.07982 443.232L8.49982 445.932L10.0498 448.132L9.74982 449.122L11.0898 451.782L11.2998 453.572L13.3098 455.132L13.1598 456.572L13.1198 457.422L12.8198 460.482L13.8098 461.342L13.5498 463.542L13.9098 464.562L13.7698 466.242L13.1698 466.992L14.9998 471.702L14.3898 473.832L15.1698 475.222L16.7998 476.292L13.7098 481.062L13.9298 485.782L15.8598 487.742L13.2598 488.222L10.9298 473.322L8.91982 453.612L7.76982 447.992L5.66982 442.992L8.04982 442.242ZM346.92 456.132L350.12 460.272L351.99 461.282L356.57 463.352L356.63 463.832L355.43 464.792L353.54 463.922L351.82 464.202L350.73 465.542L351.84 469.422L353.57 469.982L352.92 471.062L353.88 472.812L354.89 473.282L355.5 473.752L360.12 471.442L360.37 474.552L357.56 477.252L355.1 482.762L354.63 487.642L355.45 489.622L355.31 492.722L354.26 495.962L352.98 497.712L352.29 500.702L346.65 499.372L342.69 499.602L340.73 497.412L339.44 493.312L339.07 486.252L339.68 479.322L342.28 476.342L346.17 476.012L347.11 475.112L348.47 471.972L349.45 465.782L348.62 462.812L346.44 459.962L343.42 458.042L340.52 458.442L339.57 456.882L338.47 451.412L338.64 447.912L344.12 442.112L345.44 452.522L346.92 456.132ZM80.3298 297.992L79.5998 299.102L78.9198 298.612L78.0898 298.982L78.3298 300.222L79.6598 300.882L77.1798 305.162L76.7798 308.012L77.5998 309.602V312.272L75.3098 314.842L74.8598 314.572L76.6998 312.272L75.4998 309.912L75.5398 308.002L74.2498 305.002L78.0198 298.212L80.3298 297.992ZM70.2698 271.202L71.3698 273.352L69.9998 274.672L69.3498 278.292L68.4298 279.712L70.4398 282.922L71.9898 283.572L72.7498 282.442L72.3798 280.822L70.5298 280.062L71.0298 279.812L71.4298 277.692L72.9198 278.082L74.2398 277.462L76.8498 278.692L78.3198 277.982L77.8398 279.972L76.6198 281.742L77.6298 283.352L76.8998 286.202L78.0098 288.282L74.1198 284.472L72.0298 284.242L72.1898 287.372L71.5198 292.202L70.8798 293.212L65.6598 293.382L62.9698 295.152L63.0798 296.822L65.6998 297.852L66.6698 298.652L66.1598 298.982L62.7198 298.252L61.8398 296.652L60.8298 296.122L60.3098 293.442L59.0598 292.152L57.6898 286.562L56.4198 284.892L54.4898 283.832L53.0898 281.572L50.8498 279.972L48.5698 277.292L45.4898 275.762L45.6498 274.392L46.8998 274.632L47.3098 275.612L48.4798 275.722L51.0298 273.262L54.5598 272.092L56.6698 272.632H55.5598L55.4898 274.052L56.4698 275.372L58.5298 276.722L59.7098 276.612L62.6098 274.722L64.1798 272.512L65.8698 272.612L66.6398 271.282L69.0098 272.052L69.7398 270.552L70.2298 270.522L70.2698 271.202ZM494.68 258.792L496.5 259.252L490.11 263.812L485.89 269.752L484.33 270.972L481.27 271.522L479.33 271.022L477.12 266.472L475.83 264.412L475.08 264.132L478.45 261.692L482.88 262.522L494.68 258.792ZM137.21 242.402L143.57 246.722L142.82 248.572L143.32 250.852L146.15 258.152L151.73 264.802L152.21 266.262L148.32 268.612L146.59 270.742L144.66 273.892L144.28 276.612L141.43 276.372L141.82 281.582L142.54 282.522L140.56 282.162L139.54 282.702L135.54 286.612L134.29 290.652L133.88 295.172L134.18 297.092L135.08 299.402L135.6 300.902L135.21 301.722L135.82 302.722L134.9 303.082L135.97 304.352L138.53 304.332L140.71 301.232L141.41 298.752L140.38 296.092L141.15 292.742L143.9 291.492L145.13 293.222L146.72 293.542L148.95 291.012L148.97 288.762L145.49 289.462L143.25 288.392L147.03 285.002L148.95 279.632L149.61 280.482L149.57 282.092L148.9 282.772L148.78 284.602L149.96 286.902L151.61 288.062L153.68 288.222L157.12 285.972L159.02 286.662L164.51 286.382L163.68 286.742L164.29 287.722L165.61 287.112L167.34 287.952L168.83 291.162L168.15 291.112L167.73 292.372L168.1 292.872L164.17 295.562L163.5 295.212L163.22 297.792L161.92 300.002L163.28 300.612L164.01 304.592L165.95 307.452L168.88 310.102L170.66 310.152L169.58 311.612L169.5 313.402L170.51 313.092L170.45 312.242L174.55 308.342L176.96 309.012L178.27 310.032L179.14 309.722L178.58 305.632L178.91 303.062L179.81 301.852L178.89 301.512L177.46 301.962L174.8 304.092L170.72 305.542L169 305.242L167.66 302.482L169.11 294.562L169.19 292.992L168.35 292.072L169.79 291.432L170.98 289.402L171.44 287.232L171.11 284.882L172.27 283.452L172.91 280.382L172.17 275.372L176.94 275.572L178.5 277.772L182.74 277.082L182.58 280.072L187.54 283.602L190.97 284.232L193.97 274.762L196.09 274.602L196.51 272.812L200.64 273.252L201.16 273.572L200.29 275.512L200.88 276.052L201.71 275.662L201.89 276.772L202.44 276.652L202.89 277.592L201.09 279.292L201.48 280.742L206.58 281.352L206.02 284.712L210.6 286.272L214.57 285.502L220.75 286.382L221.51 289.922L217.14 291.412L217.01 298.552L221.68 296.002L226.62 297.252L231.84 304.702L238.08 303.142L243.2 305.942L249.59 304.532L250.07 301.092L250.9 299.972L253.03 300.132L259.26 298.262L260.72 294.342L263.39 295.772L272.14 293.092L278.43 288.722L282.37 287.562L283.57 284.312L283.39 281.882L288.26 280.432L288.03 277.312L293.56 273.792L293.21 272.302L294.7 272.932L301.15 268.842L303.25 268.792L305.66 270.052L308.07 269.172L309.16 268.122L313.16 268.022L315.16 270.192L316.56 278.012L315.03 278.172L314.73 278.922L316.17 282.052L316.02 283.712L313.85 287.692L307.58 291.182L305.41 295.662L302.94 296.452L300.43 299.002L300.01 301.322L298.92 303.852L298.08 304.862L296.91 304.772L296.07 307.782L297.83 317.662L295.82 324.432L295 325.022L291.65 325.442L284.12 328.832L282.81 328.352L282.46 326.882L278.46 326.432L276.64 326.932L276.82 327.432L273.82 327.792L272.15 328.972L271.19 329.382L265.6 329.032L262.49 331.992L263.47 331.682L264.73 330.202L265.75 329.192L271.25 329.682L275.41 327.902L278.73 327.332L281.79 328.192L284.59 329.392L292.12 325.722L293.82 325.682L296.71 324.752L300.9 326.502L307.06 326.082L306.77 325.622L303.16 325.182L300.94 325.452L299.46 324.842L298.58 323.442L298.47 322.072L298.69 318.112L298.6 317.282L298.73 314.252L298.23 313.322L299.04 308.062L299.84 306.402L301.33 305.622L301.38 303.632L304.15 299.302L306.12 298.262L308.24 295.562L308.21 291.582L309.35 291.752L310.43 293.162H311.6L313.85 294.502L314.32 299.052L315.3 301.362L318.66 306.322L322.53 310.152L325.51 312.172L336.6 315.212L343.86 314.842L359.25 311.022L365.3 310.752L368.99 310.242L372.55 308.952L376.53 309.092L378.6 310.162L382.16 310.792L385.58 314.052L387.77 321.692L390.78 323.262L393.06 325.572L394.38 325.972L397.83 329.372L398.21 331.462L398.96 332.202L398.53 334.252L397.14 334.212L395.77 335.342L394.39 338.382L394.96 338.972L394.58 340.892L394.72 341.592L393.74 342.322L393.86 345.302L392.94 348.742L392.91 357.502L387.08 365.562L385.85 368.392L382.54 370.482L381.47 372.022L378.62 379.042L375.9 382.282L372.58 383.312L370.32 385.422L368.68 388.392L367.97 391.612L368.76 398.172L365.21 407.632L361.74 407.792L360.49 406.632L360.17 404.372L359.03 403.622L355.65 400.792L354.61 398.412L354.58 396.402L355.36 396.182L357.04 397.412L358.27 396.902L359 395.772L358.87 394.522L360.09 392.212L359.68 389.872L358.26 387.732L357.07 386.832L351.44 386.252L349.59 386.682L347.47 388.362L346.13 391.242L346.23 392.552L344.24 393.962L341.52 397.822L340.18 402.162L341.58 405.132L342.8 406.242L343.73 412.032L343.48 414.742L341.84 417.552L337.33 419.382L332.98 408.212L334.33 406.622L337.9 406.902L339.54 401.212L338.43 400.062L336.22 400.682L336.35 401.232L334.51 400.572L331.32 398.192L329.11 397.802L326.95 398.842L326.44 400.712L324.44 402.612L320.95 402.632L318.71 401.042L317.85 396.732L315.95 395.122L314.65 395.322L314.33 394.762L314.68 392.952L316.19 393.522L322.65 391.412L323.39 390.232L323.05 388.932L324.02 388.392L325.37 388.812L325.5 388.132L327.29 388.442L325.23 390.942L326.52 392.882L328.98 393.182L329.79 393.922L330.89 393.442L332.94 391.482L331.21 388.112L331.61 386.972L331.04 386.112L329.81 385.832L328.52 387.312L328.28 386.302L330.61 383.192L332.17 382.242L333.33 380.282L333.54 378.332L334.52 377.822L336.62 378.032L336.8 376.952L335.87 376.012L336.34 374.722L332.96 372.762L331.9 375.212L330.93 374.892L332.08 373.382L329.93 373.312L329.24 372.692L329.63 370.152L329.13 369.642L328.13 370.642L325.67 369.552L324.04 371.022L324.19 370.652L323.05 370.232L322.05 370.682L320.44 370.272L319.38 371.092L319.2 372.062L320.3 373.852L318.44 375.962L316.46 375.442L314.27 377.692L314.41 380.382L315.29 381.402L313.99 382.532L313.35 381.872L313.11 384.682L308.77 386.932L306.08 391.052L305.3 393.312L302.24 394.622L300 396.592L297.88 401.162L298.62 401.882L296.7 403.832L296.25 403.462L296.18 405.192L298.02 403.802L296.82 407.772L299.95 405.982L300.42 405.162L299.78 404.612L300.59 403.652L301.19 404.702L300.79 405.092L301.23 405.812L297.95 408.342L296.04 408.402L295.44 409.272L296.13 411.052L297.95 413.082L299.41 417.512L300.83 419.752L302.41 427.602L303.99 430.932V432.762L303.49 436.772L301.93 437.572L301.74 436.302L300.36 436.732L297.99 439.742L296.12 440.512L296.9 441.072L299.46 440.432L301.22 437.582L302.08 437.832L302.81 437.192L304.57 437.052L305.46 437.792L303.92 439.272L301.58 444.582L301.48 447.872L303.34 453.222L302.17 460.192V464.812L299.44 465.622L295.24 470.772L293.12 471.002L293.4 474.772L294.6 476.242L294.86 477.582L294.51 477.842L293.15 479.272L293.99 481.942L293.2 482.962L288.57 480.752L286.21 478.012L285.78 476.932L286.51 474.122L284.93 472.222L284.4 473.662L282.99 474.702L282.54 476.372L283.2 476.752L283.04 477.402L280.96 476.972L277.8 480.092L274.01 480.462L271.87 481.622L271.67 479.432L274.65 475.012L282.29 476.362L282.8 474.632L281.96 473.442L281.8 471.842L276.45 471.462L275.22 472.542L271.61 473.512L268.82 473.602L266.33 472.372L263.02 472.462L262.18 472.662L261.29 475.642L262 476.482L261.93 477.642L257.24 477.012L254.95 477.902L251.65 474.942L251.83 473.692L253.02 473.572L252.58 473.022L250.06 472.432L248.75 473.212L248.16 472.492L246.36 472.472L246.56 473.472L248.99 474.142L251.44 473.572L251.25 474.532L252.11 476.222L250.05 476.792L249.22 478.172L249.25 479.162L249.66 480.442L250.03 480.662L251.63 481.702L259.17 484.022L262.2 484.272L263.07 485.122L266.53 485.932L267.68 485.732L269.27 483.572L269.68 484.472L268.79 485.562L269.49 486.012L268.5 487.862L270.79 486.342H273.52L273.93 486.832V488.082L275.69 490.122L269.3 496.892L268.8 498.132L268.97 500.572L270.05 502.282L277.22 503.712L277.94 505.512L274.02 505.442L271.58 508.182L268.85 508.502L266.73 509.802L266.53 512.022L268.76 513.262L269.22 512.812L270.68 517.452L268.31 516.282L263.18 517.802L255.67 518.362L250.23 519.892L247.56 521.122L245.21 523.142L241.52 524.242L240.03 522.022L236.59 521.142L231.46 521.412L227.71 517.312L227.18 515.982L224.98 515.882L224.17 514.872L221.17 513.652L222.9 507.832L222.49 504.502L218.4 502.022L217.83 503.422L214.61 502.342L211.51 503.882L209.12 500.922L210.76 498.742L209.24 496.682L208.38 498.302L202.82 498.662L203.05 496.122L200.19 495.612L198.38 489.582L197.91 485.462L195.03 485.392L195.09 484.072L190.1 483.582L191.25 479.812L189.11 478.882L191.88 476.892L181.68 462.802L182.09 462.572L181.64 461.222L181.69 460.702L176.47 457.872L175.97 458.552L175.99 458.622L175.32 459.022L174.81 459.562L172.6 458.992L171.12 457.892L170.24 458.422L167.08 458.082L163.82 454.332L158.59 454.032L155.24 459.942L155.32 463.392L148.99 471.572L144.51 475.082L141.71 473.132L139.99 475.662L138.05 481.192L136.38 479.662L134.65 483.172L132.41 482.152L129.55 484.592L122.43 480.932L123.5 471.252L111.87 468.582L111.54 469.062L109.6 468.662L108.28 472.392L106.07 472.012L103.79 480.452L99.8198 482.832L104.29 487.352L94.9098 490.622L89.8598 488.712L87.8698 482.832L83.4698 480.242L71.9598 483.542L68.7598 480.402L63.5598 482.002L65.4998 486.632L64.1898 488.912L60.8598 489.602L61.0298 495.182L58.3698 497.832L52.0998 497.912L50.8998 495.052L47.3598 493.242L48.5998 492.362L42.4998 491.752L38.4598 486.652L34.4498 491.892L29.2398 491.772L28.5198 492.772L27.4498 492.832L23.7798 489.292L20.8998 487.722L21.0198 485.612L16.1398 484.302L14.8298 484.612L15.8298 480.732L15.4098 480.712L15.5898 479.652L17.2198 479.282L18.8598 476.772L18.4198 476.072L18.2298 475.442L18.6898 474.522L16.8898 472.882L17.3398 472.282L17.8598 472.672L19.3498 472.312L18.3398 470.612L18.8598 470.162L18.3998 468.902L19.1798 468.182L22.0498 468.712L22.1098 469.832L20.7998 469.702L22.5098 471.892L22.2798 472.322L23.6098 473.192L24.3198 473.012L24.2798 471.832L25.7498 471.442L26.8598 472.002L27.2898 471.542L28.6198 472.802L25.9998 475.832L26.3698 478.722L25.6498 480.622L27.2898 481.822L28.0698 480.012L28.7398 479.722L30.9998 478.482L31.8098 477.342L35.2198 475.122L36.1598 473.172L39.3398 469.542L42.6898 467.072L43.0198 466.202L42.4198 464.262L41.1198 463.062L42.0298 461.922L41.8798 460.262L41.9398 458.072L41.9998 456.292L41.0398 455.562L40.8598 454.572L40.2498 453.582L39.0698 452.362L37.5598 450.462L35.9898 448.752L33.2498 443.792L32.3898 439.392L32.6898 436.122L31.7898 433.382L32.4698 429.932L32.0398 428.512L28.1998 425.812L24.1098 421.872L21.8798 419.912L13.1798 416.772L12.1698 416.922L11.8198 416.112L7.48982 413.562L9.24982 415.592L9.27982 416.972L10.1898 418.342L8.36982 420.742L8.11982 421.942L7.50982 428.382L7.83982 430.172L7.10982 433.542L8.57982 440.572L9.90982 441.012L7.78982 441.942L6.67982 441.462L6.90982 442.252L5.77982 443.002L3.56982 431.972L4.35982 416.762L7.74982 390.782L7.97982 380.852L5.73982 350.612H6.21982L7.95982 350.682L8.40982 351.242L6.97982 351.072L6.61982 351.782L8.24982 351.542L8.95982 352.442L7.91982 354.172L8.03982 355.982L7.29982 356.322L7.68982 361.412L10.0098 360.772L10.4598 360.442L12.4898 359.222L12.9698 362.642L16.1298 361.722L18.3698 363.392L22.5798 363.062L22.2098 364.852L23.4398 367.972L21.9798 368.752L23.4098 370.962L24.4198 371.392L27.1598 369.162L28.0598 369.032L29.9898 364.982L31.4398 363.572L31.4598 362.782L29.9598 364.152L29.0098 363.202L25.7698 362.252L25.2998 361.992L24.9498 361.192L24.0698 361.002L24.4498 360.062L25.4698 359.832L24.5798 356.772L23.1698 355.912V354.832L22.3498 353.932L19.8498 351.882L17.3798 350.782L15.3998 348.532L14.6898 346.072L12.8598 343.452L12.8798 340.582L12.1198 340.222L13.0698 339.232L12.3698 334.582L9.97982 335.442L7.82982 333.652L7.61982 335.082L6.81982 334.882L7.64982 336.122L7.87982 338.012L7.43982 339.012L6.65982 339.132L7.40982 341.282L6.58982 341.652L7.72982 342.372L6.54982 343.502L7.76982 343.592L8.36982 346.052L6.82982 345.792L7.82982 347.132L6.46982 348.452L7.71982 348.822L7.61982 349.872L5.51982 350.292L6.90982 325.092L5.61982 316.522L5.55982 312.312L6.70982 303.822L12.9898 278.362L17.7098 267.752L19.0898 266.102L20.3698 266.592L20.3898 267.542L19.7698 267.922L20.4998 268.632L20.8998 269.042L20.6598 270.952L20.3398 271.102L20.6798 272.322L21.4698 272.622L17.8998 277.022L19.7498 279.652L18.1298 280.382L16.7098 279.522L15.5198 285.392L17.1898 284.912L21.5598 287.012L21.6798 287.992L21.0898 288.342L21.6498 288.902L21.5098 291.822L22.3998 291.782L23.4198 292.962L27.1598 294.002L29.9698 293.722L31.3198 294.642L31.8998 296.522L29.3098 296.652L28.7698 297.322L29.0298 298.972L31.0498 302.202L30.3398 302.982L30.6498 305.132L31.5498 305.922L32.2198 305.732V300.532L35.0798 298.992L38.2898 299.652L43.2698 298.732L57.1198 305.372L59.7398 307.902L60.8298 308.162L63.4298 306.682L66.3598 302.922L67.9398 298.242L68.1298 302.902L69.3598 304.872L68.9998 307.672L70.6098 308.872L73.1798 313.902L72.1098 314.762L70.2998 318.512L70.5998 319.672L69.9998 319.632L69.7198 317.582L68.1198 317.112L65.7998 317.862L64.7498 319.392L65.2598 320.362L64.5798 321.952L62.7698 321.722L62.0598 322.512L62.9698 323.152L65.4598 322.672L65.5498 320.742L66.6698 318.972L68.4898 320.052L71.3598 319.842L72.4198 320.382L72.9698 319.952L72.4398 319.562L74.2298 318.502V322.192L75.6998 324.912L79.3898 326.722H80.6898L90.7798 323.912L91.6298 323.042L92.4898 318.502L92.0498 313.162L91.1698 310.612L92.9898 307.462L94.3798 306.692L95.0198 305.322L93.6198 302.182L90.1498 300.102L86.3898 296.352L85.1498 291.742L82.9498 290.842L83.7898 287.012L85.4198 286.542L87.5398 287.592L90.1898 287.562L94.4098 283.412L96.7198 279.712L98.1198 274.742L102.08 269.742L103.26 269.622L105.35 271.592L106.56 271.392L107.44 269.972L109.8 270.482L109.77 268.812L111.45 267.802L113.01 270.222L115.04 270.012L116.71 268.612L116.25 266.392L114.39 265.652L112.66 266.362L111.97 264.052L110.82 267.022L108.97 265.342L107.31 266.482L103.98 267.062L103.74 266.572L107.74 257.422L110.14 254.762L108.97 252.192L110.78 252.482L111.86 252.022L116 249.202L117.81 246.242L123 242.692L129.04 245.732L131.02 246.412L132.4 247.102L133.41 246.732L133.55 245.722L132.4 245.212L132.65 244.212L131.46 243.102L134.07 242.702L135.57 243.182L137.21 242.402ZM133.24 231.352L138.35 232.112L137.25 232.532L136.16 233.942L136.51 235.602L138.71 235.902L136.89 238.162L135.57 238.722L134.47 237.962L132.79 238.762L132.08 238.322L131.14 240.302L131.07 242.212L129.3 242.682L129.33 244.152L125.02 240.282L122.96 235.922L121.12 234.792L121.87 233.682L133.24 231.352Z" fill="#99D1AF"/>
<path d="M64.9401 269.26L62.7001 268.66L63.0501 267.61L64.4901 267.19L64.9401 269.26ZM140.69 222.32L138.68 221.38L137.38 219.54L139.31 216.65L140.01 216.59L142.03 220.49L141.46 222.65L140.69 222.32ZM115.59 203.74L115.17 206.2L117.26 213.23L115.36 215.82L112.98 226.52L111.98 227.77L112.49 225.89L112.25 222.62L111.17 222.37L110.09 223.03L110.34 224.19L108.83 222.82L109.23 221.79L108.53 221.19L106.36 221.56L105.98 222.82L104.25 225.46L104.12 226.83L105.62 229.77L106.13 234.69L107.55 238.16L110.6 241.47L111.27 244.49L111.04 246.84L110.15 244.41L109.17 244.25L108.73 245.16L107.91 245.08L107.77 246.31L109.27 247.68L106.34 249.53L105.83 250.7L105.27 252.69L105.87 252.95L105.53 254.05L105.95 255.79L105.01 255.81L104.38 256.53L104.54 258.49L102.54 259.67L101.69 261.01L100.15 261.59L95.8501 267.36L96.9001 269.82L90.7901 272.83L90.6101 273.39L87.0001 272.79L78.4801 276.25L78.3501 274.88L77.4101 273.57L76.8201 272.61L77.4401 270.19L74.2401 266.79L74.4301 264.59L76.2701 264V263.34L75.7501 263L73.6901 263.65L72.8801 264.44L71.6601 263.89L72.2001 262.43L71.3801 260.5L69.5601 260.57L69.3201 261.56L69.3801 262.62L71.2501 262.86L69.9301 264.04L71.1801 266.19L67.4001 267.67L67.2401 266.49L66.2401 263.74L66.3201 263.12L69.1301 262.57L68.4901 261.22L64.3101 258.21L60.8401 261.88L59.1801 262.69L59.6801 260.57L59.3001 258.66L60.1801 256.59L62.2301 256.15L64.6501 253.97L66.0901 254.46L66.8401 253.65L65.3401 247.5L64.3101 246.42L65.9101 245.4L66.5301 246.65L67.4401 246.74L69.1001 244.42L70.7501 244.14L75.4201 245.29L81.5901 241.79L81.7901 239.6L81.2001 238.9L73.8901 237.63V236.63L75.6001 234.63L78.1201 235.46L79.1501 234.8L79.2301 233.29L76.9001 233.31L79.2801 229.36L79.1201 225.62L78.4701 224.24L78.8501 223.19L77.7801 221.81L82.2501 220.36L84.7701 221.11L90.0201 220.11L91.4401 220.76L94.2801 218.46L97.2801 218.3L99.3201 217.19L102.63 217.02L103.79 214.89L104.48 210.14L107.34 206.79L108.5 203.74L109.68 205.22L112.43 204.67L113.75 205.13L116.69 201.71L117.02 199.02L117.84 199.08L117.61 201.45L115.59 203.74ZM246.64 178.53L244.63 178.93L242.01 177.73L241.04 176.71L240.59 174.35L244.61 173.53L246.74 174.03L247.6 175.38L249.1 176.26L249.07 176.93L246.64 178.53ZM269.72 173.17L271.48 177.13L275.4 180.24L275.08 181.37L279.22 183.61L283.26 187.29L285.31 190.29L292.8 195.76L298.34 197.86L307.99 196.9L307.69 201.25H306.42L305.44 202.95L306.47 203.37L306.66 204.04L303.98 208.29L302.57 219.5L303.17 221.68L303.88 236.07L304.55 242.27L307.52 254.59L312.44 262.4L312.37 266.23L311.24 267.27L307.84 265.57L301.35 265.1L297.74 263.29L296.67 263.38L294.5 265.36L293.95 266.87L291.79 267.56L289.24 266.25L288.6 264.68L288.82 263.4L287.42 263.44L286.16 263.14L280.85 265.79L280.22 268.19L277.77 269.25L277.69 269.84L276.72 269.88L276.26 268.57L274.79 267.79L272.21 268.62L271.7 269.6L269.73 269.7L268.16 271.69L268.4 273.01L264.34 273.65L261.26 276.92L259.25 276.65L260.31 278.89L259.13 278.33L257.49 279.21L257.25 279.96L256.56 279.62L254.7 280.59L251.94 280.33L250.71 280.99H246.1L244.98 281.94L241.65 281.81L238.59 283.73L239.68 284.01L240.96 283.36L245.17 284.09L246.94 282.27L250.18 282.33L253.11 281.55L253.46 282.06L255.98 281.98L257.99 280.9L259.17 281.48L260.75 280.92L261.9 279.53L263.92 280.13L264.43 279.11L263.88 278.77L265.33 277.05L266.55 277.02L267.77 275.5L268.98 275.98L270.67 275.17L270.78 273.87L273.31 270.65L274.47 270.43L276.93 272.73L278.37 272.6L281.83 269.16L282.07 266.36L282.78 265.07L283.59 265.9L285.3 265.78L287.54 267.17L289.05 266.78L293.21 272.24L293.56 273.73L288.03 277.26L288.26 280.38L283.39 281.83L283.57 284.26L282.37 287.51L278.43 288.67L272.15 293.04L263.4 295.72L260.73 294.29L259.27 298.21L253.04 300.08L250.91 299.92L250.08 301.04L249.6 304.48L243.21 305.89L238.09 303.09L231.86 304.65L226.64 297.2L221.7 295.95L217.03 298.5L217.16 291.36L221.54 289.87L220.78 286.33L214.6 285.45L210.63 286.22L206.05 284.66L206.61 281.3L201.51 280.69L201.12 279.24L202.92 277.54L202.47 276.6L201.92 276.72L201.74 275.61L200.91 276L200.32 275.47L201.19 273.53L200.67 273.21L196.55 272.77L196.13 274.57L194.01 274.73L191.01 284.2L187.58 283.57L182.62 280.04L182.78 277.05L178.54 277.74L176.98 275.54L172.21 275.34L170.23 270.23L168.61 268.82L166.99 268.64L164.51 269.52L162.83 271.08L160.57 271.19L158.96 273L155.44 274.59L153.14 276.92L152.3 277.13L150.47 275.19L150.05 273.9L150.13 272.7L152.18 271.67L154.54 268.04L155.2 268.02L158.37 264.75L160.8 260.65L161.7 256.89L161.33 254.34L160.1 252.94L155.57 251.31L153.78 252.01L153.52 251.53L154.01 246.45L152.11 241.88L151.29 241.59L154.14 237.67L156.84 232.52L157.19 227.62L155.63 224.53L151.21 221.5L150.9 219.79L152.66 213.49L155.25 210.49L155.49 208.82L157.66 207.68L159.64 205.3L161.57 200.97L166.4 199.47L167.24 198.32L167.88 194.42L168.98 193.03L169.77 193.3L176.97 190.53L187.21 188.22L195.73 188.57L198.64 189.27L206.2 193.3L208.76 195.63L206.74 197.97L206.23 200.09L207.23 202.72L206.24 203.93L205.09 201.46L204.13 201.3L202.47 203.8L204.44 208.66L205.48 209.38L206.59 211.49L207.08 211.33L207.99 205.56L207.59 203.27L210.15 201.57L211.92 201.59L213.8 200.31L215.37 195.83L216.69 195.43L220.9 189.81L220.78 186.57L221.28 185.11L222.03 183.87L224.68 182.23L231.06 180.99L235.76 179.37L244.76 181.65L248.25 178.84L249.7 178.31L251.73 177.94L253.74 178.07L256.75 180.17L258.78 180.02L260.76 179.21L262.95 175.21L266.13 172.75L269.72 173.17ZM403.71 140.85L403.09 140.73V139.77L404.83 138.97L403.71 140.85ZM409.5 138.4L410.07 139.13L409.44 140.6L405.25 141.23L404.32 141.85L403.79 141.15L404.06 139.84L405.3 138.83L408.47 138.08L409.5 138.4ZM393.24 131.3L390.71 131.43L389.78 129.99L390.26 129.68L393.24 131.3ZM385.61 126.08L385.97 126.8L386.41 126.69L386.66 126.99L391.02 132.34L390.09 132.21L385.35 126.5L385.06 125.33L386.18 125.6L385.61 126.08ZM432.38 111L431.58 119.94L431.05 119.72L431.61 117.8L431.32 116.57L429.93 115.83L430.54 113.77L428.45 115.67L428.35 116.55L425.24 115.95L422.05 116.86L420.83 116.58L415.56 119.17L414.81 120.51L415.24 121.21L417.7 121.59L417.43 125.69L416.61 127.96L413.88 130.99L407.75 130.46L406.52 130.92L414.07 131.41L412.96 132.93L405.42 137.16L403.36 136.66L401.57 137.61L400.58 134.26L400.07 134.01L400.28 133.15L397.43 132.48L397.7 131.54L396.73 130.31L394.15 129.74L392.48 130.49L387.96 128.23L387.05 127.06L387.11 125.15L391.71 121.45L393.88 117.72L397.52 115.55H399.94L401.32 114.57L404.5 115L406.21 114.53L407.75 112.09L408.9 111.41L413.17 111.69L421.28 111.1L422.77 110.74L425.12 108.98L428.35 110.07L432.14 110.2L432.38 111ZM349.84 8.08L348.74 9.1L347.74 8.39L346.9 9.09L347.57 9.55L346.19 9.4L342.55 12.5L333.95 23.26L327.64 34.13L326.21 37.97L325.11 44.79L326.26 50.84L328.22 56.08L336.06 66.13L336 67.72L338.81 71.72L340.36 72.84L341.9 77.64L342.59 78.1L343.35 77.72L343.95 78.4L343.19 80.4L342.19 79.31L341.78 79.81L342.66 81.33L341.44 80.42L340.87 81.45L341.85 82L340.45 81.98L340.33 82.72L339.48 82.7L339.14 83.41L339.44 86.37L338.91 87.05L338.96 89.33L337.6 95.09L338.63 104.91L340.36 108.03L339.54 108.78L339.31 110.07L341.84 123.11L342.48 129.19L342.06 134.86L341.28 135.1L339.33 137.65L337.24 139.42L334.62 140.5L331.15 144.26L327.55 149.36L324.27 156.17L321.98 162.1L318.41 178.24L318.34 180.2L315.13 189.75L312.1 195.46L309.55 194.71L307.87 194.13L304.04 194.8L302.06 196.08L297.1 195.25L291.35 190.83L290.06 188.86L281.48 180.73L279.33 179.07L277.18 178.59L272.53 174.55L268.78 170.48L266.87 169.86L263.71 171.16L260.19 174.76L260.22 177.97L257.44 179.02L255.79 178.52L253.31 176.58L252.09 176.6L248.87 174.88L247.82 173.17L243.89 169.46L242.48 169.12L236.94 165.3L235.64 165.07L235.54 166.5L236.05 166.98L235.45 168.43L232.73 173.71L232.99 174.36L231.06 175.77L225.14 176.73L220.16 173.69L218.08 174.5L218.13 171.64L220.73 170.95L222.26 169L222.32 168.28L220.2 168.47L216.32 170.17L214.53 171.89L212.59 173.56L214.25 175.14L216.21 174.86L216.86 175.28L214.37 177L212.63 180.01L209.4 179.82L207.62 182.23L203.46 181.24H198.26L196.66 181.98L195.55 180.96L191.19 182.76L187.4 183.21L179.97 186.59L176.89 186.62L170.64 189.52L169.27 190.67L167.91 192.18L164.53 193.6L164.57 194.21L163.52 194.6L160.47 194.16L158.75 193.85L156.98 192.65L150.73 186.33L146.4 182.57L136.51 186.82L136.19 188.22L134.03 190.54L132.62 190.38L132.58 187.86L131.65 186.91L128.16 187.24L125.81 188.19L123.3 191.7L120.37 190.96L117.8 192.4L115.82 197.26H113.77L112.67 194.81L109.29 193.85L107.82 195.63L107.53 193.7L106.53 193.89L105.48 194.22L104.37 194.34L103.78 194.79L104.25 196.03L106.71 197.8L106.81 199.48L104.8 200.14L104.19 201.05L102.48 201.13L99.1901 202.76L98.3101 204.75L95.0001 206.13L93.2701 206.27L90.5701 205.14L89.1601 205.41L87.3201 204.49L85.4901 204.65L82.7101 204.54L81.9301 205.15L80.4801 209.21L81.1901 211.86L78.1201 214.89L78.0901 217.98L76.0501 220.84L76.8501 223.87L75.8001 225.27L75.9001 225.99L77.1401 226.86L73.9601 231.63V232.6L69.0701 238.45L63.4601 238.76L63.1001 239.33L63.5501 241.69L61.4001 241.5L56.9701 244.17L54.4301 247.87L55.6001 250.49L58.7501 254.54L57.2101 256.44L55.7701 262.61L53.0601 265.13L56.4601 264.18L58.4401 264.67L60.9101 264.73L61.5101 265.87L60.1801 268.62L61.9001 267.65L62.6401 268.21L60.5301 270.87L60.8001 273.57L57.4101 272.4L56.0501 270.43L52.3101 269.03L48.4901 270.97L48.6601 271.7L47.3901 272.88L46.1101 272.33L45.4701 272.64L44.8901 274.37L45.6601 274.43L45.5001 275.81L38.7701 274.08L37.6901 270.19L36.6801 269.26L35.4501 266.39L33.3901 264.48L32.3001 261.52L30.9501 253.77L28.5801 250.93L25.0501 248.81L23.7901 267.13V268.22L23.5201 268.77L22.5601 268.06V265.31L21.0801 262.64L20.0601 262.58L20.6001 260.34L21.1001 247.99L22.3701 242.17L27.2101 228.48L39.5901 203.15L42.2301 201.64L46.3301 196.42L51.5601 188.31L54.1701 182.76L55.4301 181.44L57.4801 181.63L59.1001 180.77L63.0701 176.1L71.3601 162.23L71.1901 161.61L71.6101 161.3L72.0501 161.54L72.4301 162.17L75.5201 160.48L76.3501 161.32L83.6601 163.69L92.0201 167.42H94.1101L103.51 165.11L109.2 162.84L113.72 160.33L121.87 154.04L125.34 152.56L128.58 153.15L132.13 152.35L142.25 156.3L148.5 157.42L153.78 157.64L163.13 156.6L166.74 155.8L172.37 153.43L178.78 152.93L183.23 151.12L200.71 137.4L202.63 135.3L216.41 114.64L225.4 97.95L227.12 95.9L237.94 71.07L247.49 60.99L250.78 56.4L257.35 43.68L260.6 40.22L260 41.49L263.19 40.84L263.22 40.17L264.45 41.14L266.68 41.58L270.37 41.92L273.54 41.42L278.3 42.22L281.29 42.24L288.48 41L300.28 36.42L311.11 29.93L338.62 5.76L343.47 2.39L346.1 1.13L350.68 0L352.9 0.19L355.9 1.96L351.29 6.02L349.84 8.08Z" fill="#163121"/>
<path d="M474.65 707.56L473.99 708.27L473.12 707.79L471.8 708.63L473.69 711.32L476.31 712.89L476.43 713.95L474.84 713.16L471.17 714.1L470.58 711.21L472.58 710.58L471.72 709.11L471.27 709.25L470.26 708.26L470.13 707.42L474.65 707.56ZM441.23 696.93L445.29 699.63L448.83 704.85L449.85 704.62L452.57 705.4L454.48 706.65L454.71 711.19L457.75 714.57L459.92 716.01L461.38 716.17L462.87 717.58L464.29 717.65L463.7 719.3L464.57 719.94L466.46 718.82L468.81 719.4L469.56 720.4L468.9 723.71L469.43 725.07L470.58 724.65L472.89 725.39L472.93 727.02L475.52 726.58L478.33 727.55L481.51 727.59L482.93 728.91L486.37 728.17L486.79 727.25L484.46 726.41L482.39 723.56L482.82 722.03L484.13 722.05L485.52 720.78L488.99 722.87L491.72 721.94L493 720.63L494.92 720.51L494.81 719.07L493.68 717.81L494.45 713.33L492.76 710.76L492.88 709.65L496.02 710.3L496.56 711.23L497.76 711.54L499.4 713.85L503.3 716.69L504.39 717.18L507.4 716.57L508.15 717.37L507.01 718.78L506.71 720.3L508.44 725.14L509.78 725.22L512.61 727.04L513.96 726.95L512.74 729.72L512.92 732.99L515.12 734.76L515.39 735.99L516.65 736.01L517.03 736.71L518.43 737.05L520.07 739.32L522.45 740.87L523.39 742.04L523.32 744L523.35 745.09L524.31 746.45L524.45 749.75L521.93 751.52L521.9 752.17L520.07 752.25L517.58 750.2L517.98 751.18L517.48 753.02L518.61 754.06L516.43 755.08L517.09 756.58L517.63 757.56L519.59 758.9L521.74 759.88L522.59 759.37L523.73 760.55L523.51 762.08L520.75 762.57L522.66 764.43L520.85 765.56L522.07 766.64L521.1 766.58L517.81 768.3L520.16 770.1L518.88 770.56L517.99 770.12L517.73 771.25L516.63 770.87L515.94 771.73L513.4 770.69L509.36 770.02L507.11 770.24L505.54 769.62L506.27 768.57L505.17 766.69L504.41 767.31L504.86 769.15L503.17 770.04L502.18 768.07L499.91 767.01L497.43 767.65L496.73 766.51L496.09 767.56L496.56 768.09L495.81 768.74L495.53 768.11L494.72 768.62L493.43 767.53L491.71 767.42L491.58 768.18L490.26 768.39L488.81 768.23L486.48 766.94L485.38 767.45L486.47 768.34L486.2 768.63L482.35 768.33L482.23 769.1L483.49 770.02L480.98 770.16L480.85 771.56L479.93 772.9L476.97 773.18L476.25 774.01H473.52L468.57 779.71L472.87 782.63L474.12 782.65L475.26 783.51L476.96 783.35L477.59 782.59L477.65 783.52L475.55 783.94L473.75 783.55L466.58 779.14L461 774.47L455.67 771.5L453.29 769.45L452.33 769.29L445.92 761.98L441.18 758.11L437.54 756.53L436.03 756.46L432.69 754.42L420.44 749.48L412.13 747.01L405.15 743.26L399.6 733.69L398.5 727.21L399.03 726.19L399.87 725.79L402.56 727.71L399.75 726.27L399.49 726.9L400.35 727.79V728.61L399.45 728.24L398.88 729.21L399.68 733.27L400.9 735.46L401.64 735.57L402.1 735.25H404.51L405.91 734.24L406.63 732.86L405.79 731.59L402.68 729.63L404.89 729.85L406.83 731.12L407.59 730.77L408.83 732.17L409.93 732.19L410.99 734.99L414.48 734.82L415.83 733.12L414.15 731.41L414.37 729.44L416.6 732.02L417.69 731.73L418.51 729.53L420.27 728.82L419.93 727.33L421.81 727.66L422.44 727.23L422.09 726.45L420.92 727L419.41 726.36L417.58 726.78L417.47 727.36L416.42 726.07L415.63 726.48V723.25H414.33L414.1 721.36L412.5 720.09L413.19 718.13L411.05 718.56L411.11 716.71L410.51 716.36L409.41 717.94L408.98 717.82L408.9 715.11L408.11 716.2L407.24 715.46L406.95 713.4L408.63 707.54L413.11 703.98L414.69 701.4L416.26 700.58L417.2 701.17L419.53 700.94L420.76 701.87L421.34 703.19L421.36 701.48L420.22 699.55L421.02 698.94L422.66 700.04L422.78 698.38L424.58 698.93L426.46 697.31L427.87 697.59L429.93 696.17L441.23 696.93ZM461.57 694.08L463.68 695.51L467.01 695.09L469.7 698.15L469.87 699.04L469.61 700.24L464.67 699.85L460.79 705.19L460.13 705.36L459.7 704.44L456.16 702.05L454.92 696.73H453.74L453.13 694.17L454.25 694.14L455.35 695.21L455.69 696.22L455.26 697.04L455.95 698.74L456.79 698.63L456.93 697.24H457.35L459.53 697.93L460.61 699.13L461.24 698.98L461.57 697.87L461.13 695.57L461.57 694.08ZM520.84 696.26L522.15 696.8L522.67 696.9L526.21 700.13L525.64 701.22L527.69 702.91L527.87 705.29L529.84 706.44L531.55 706.73L531.96 706.32L532.34 705.26L532.62 704.69L532.79 700.93L533.9 701.98L536.46 701.05L538.54 701.24L540.47 702.72L540.07 703.61L540.47 706.77L541.39 708.61L541 709.55L543.6 711.61L547.27 712.59L549.11 712.43L551.17 713.33L553.18 712.19L556.22 713.32L559.79 713.74L560.72 718.42L564.68 723.19L566.02 726.4L565.18 727.77L561.73 729.19L560.66 732.66L559.18 734.56L554.3 737.37L548.68 744.92L546.59 751.02L545.26 753.12L541.37 756.52L539.1 760.7L537.8 766.6L537.74 770.42L539.51 788.18L539.04 792L531.71 788.4L532.43 787.12L532.4 786.6L531.93 786.72L532.06 783.6L528.15 775.44L525.44 771.5L524.56 768.74L526.14 763.46L526.27 761.03L529.19 757.61L530.73 754.55L530.21 753.8L529.52 754.03L525.08 752.08L525.78 748.6L527.08 747.2L524.77 744.2L523.99 740.87L522.09 738.51L520.47 737.71L519.68 735.4L517.07 734.84L514.89 732.65L514.65 731.79L516.31 730.47L517.44 727.8L517.32 726.81L516.01 725.83L516.32 724.16L513.14 721.69L509.21 721.3L509.64 719.99L509 717.93L508.41 717.59L509.44 715.1L508.06 714.1L507.17 711.45L507.62 709.81L509.15 707.75L509.21 705.89L507.81 703.5L502.87 703.43L502.19 702.85L504.44 699.93L505.6 700.63L506.61 700.48L507.09 699.36L505.78 698.65L507.59 696.01H510.79L513.06 697.41L515.51 701.84L517.38 701.4L518.49 700L519.42 696.37L518.5 695.15L518.57 694.36L519.59 694.59L520.84 696.26ZM557.44 695.81L557.09 697.13L556.35 697.34L556.83 698.84L555.73 697.71L553.59 698.99L551.38 697.79L557.44 695.81ZM476.35 688.55L480.68 689.36L483.22 693.15L479.79 697.29L479.14 699.37L477.3 696.79L475.96 693.37L473.56 691.24L474.2 689.78L476.35 688.55ZM561.27 689.27L559.27 691.89L559.1 693.58L557.87 693.19L557.4 694.33L557.15 693.13L558.98 691.25L558.45 690.23L559.08 689.48L560.22 690.02L561.27 689.27ZM528.44 689.02L529 692.02L527.31 691.09L525.69 687.85L526.9 687L527.98 687.74L528.44 689.02ZM454.03 679.43L452.29 680.89L452.15 679.55L455.14 677.09L456.41 677.03L456.24 678.42L454.03 679.43ZM575.8 672.44L573.21 678.47L570.58 676.86L568.93 676.76L567.99 675.28L570.42 674.8L572.04 672.72L573.09 672.27L574.47 671.87L575.9 671.98L575.8 672.44ZM581.73 676.15L583.11 678.09L586.83 679.89L596.77 680L601.31 681.16L603.3 680.69L607.02 681.03L615.28 684.67L618.77 691.18L619.52 694.93L619.54 696.58L617.92 699.46L613.51 700.14L607.72 698.06L606.9 697.19L600.96 695.64L596.39 694.89L592.77 695.11L586.78 697.75L582.14 701.52L576.83 707.92L575.4 710.94L571.69 715.02L568.01 715.75L562.67 715.03L560.33 710.75L561.16 710.62L561.68 711.12L561.34 711.41L562.72 711.62L562.69 710.71L563.69 710.81L563.51 710.42L558.04 710.01L543.44 705.27L542.19 702.53L542.5 700.56L540.73 698.73L540.92 697.48L542.08 696.86L542.68 697.35V699.82L543.37 701.46L544.37 701.61L544.24 702.4L545.89 702.74L547.46 701.37L552.62 701.39L555.26 704.31L553.49 708.27L554.29 707.85L554.62 708.58L557.46 709.39L559.96 708.42L559.07 706.72L558.17 706.49L559.55 702.73L563.32 700.25L561.05 699.31L560.22 698.36L559.87 696.58L563.19 694.87L563.17 694.13L565.65 693.36L568.17 694.32L568.49 693.59L566.6 691.35L566.21 689.76L570.35 691.2L571.12 691.91L571.08 693.61L571.66 694.58L575.28 692.54L578.25 691.81L579.09 690.82L581.41 690.49L582.41 691.34L581.14 693.19L580.77 695.03L580 695.42L580.95 695.91L581.87 695.14L583.35 694.97L586.25 691.67L591.71 690.25L592.11 689.93L590.85 689.55L586.16 690.29L585.12 689.73L584.59 689.5L582.57 691L581.79 690.13L580.53 686.79L582.15 684.27L582.19 682.77L580.11 679.21L579.09 678.62L579.32 678.06L578.16 677.02L577.25 677.19L577.13 677.85L575.78 677.55L575.21 676.34L575.59 674.74L578.11 673.47L579.3 671.87L580.57 672.9L581.73 676.15ZM580.91 670.77L580.41 670.9L580.23 669.73L578.9 668.44L578.87 666.92L577.82 665.99L578.81 666.16L579.72 667.31L579.33 667.63L580.77 668.46L580.91 670.77ZM559.84 654.92L558.06 655.87L556.18 655.38L557.92 654.78L559.84 654.92ZM505.41 653.42L503.88 656.73L503.26 653.7L504.28 651L504.7 651.25L504.28 652.19L505.41 653.42ZM429.19 645.36L429.53 646.32L427.23 648.34L425.53 652.76L423.15 647.98L426.68 645.05L427.26 645.46L429.46 643.93L429.19 645.36ZM498.73 643.17L498.7 647.39L500.78 648.63L501.52 649.95L502.02 649.83L503 650.61L503.21 651.65L502.58 651.75L499.06 648.12L496.17 647.19L494.25 644.08L495 643.64L496.57 644.54L497.84 643.18H498.73V643.17ZM470.67 640.09L469.89 640.07L470.62 638.89L472.23 638.5L472.46 638.92L470.67 640.09ZM504.45 642.19L503.68 645.04L502.27 644.39L500.15 645L499.75 644.16L500.61 641.01L501.76 639.62L501.87 637.74L502.54 637.57L503.74 638.74L506.04 639.34L504.45 642.19ZM431 628.46L429.94 629.31L429.34 628.76L429 629.53L429.52 629.4L429.2 630.64L431.48 632.84L432.04 636.06L433.31 638.73L432.93 639.64L431.99 639.21L431.92 639.77L433.74 640.94L435.1 638.75L434.6 641.7L433.99 642.23L428.86 638.64L428.32 630.84L428.97 628.17L428.13 626.57L428.67 625.98L430.19 626.88L431 628.46ZM403.16 604.33L401.4 605.6L403.65 605.33L397.06 607.92L400.89 604.43L403.17 603.9V604.33H403.16ZM592.4 541.67L593.32 542.48L592.07 543.24L591.74 542.52L592.01 542.05L592.4 541.67ZM446.5 499.51L447.06 500.51L445.18 499.27L443.44 495.47L444.09 492.95L445.53 494.4L444.84 495.7L446.8 497.92L446.5 499.51ZM521.73 496.29L521.55 498.29L520.04 501.41L520.41 502.63L517.43 504.25L515.72 502.38L514.36 502.27L511.93 496.32L512.57 495.58L514.05 495.56L515.17 493.89L516.37 495.73L517.64 496.29L519.14 492.39L518.32 490.63L519.12 489.77L521.17 492.83L521.73 496.29ZM427.68 470.59L431.13 474.56L434.21 476.27L434.68 478.56L433.13 476.91L426.29 474.66L424.61 473.3L420.74 468.24L416.41 466.27L415.61 462.63L420.72 464.48L421.7 466.58L424.95 468.19L427.68 470.59ZM453.05 448.08L457.63 450.85L462.69 452.18L471.46 452.52L476.96 454.77L486.55 452.2L488.9 456.13L492.14 457.79L494.65 457.75L501.53 455.59L504.23 454.12L507.7 450.97L512.18 448.47L514.12 453.34L514.33 455.36L513.79 455.59L513.77 454.46L512.57 454.23L509.12 457.46L508.28 461.48L508.95 464.4L508.72 466.2L506.23 467.71L503.06 466.52L502.54 464.28L501.11 463.84L499.92 464.57L498.67 463.74L497.91 464.41L496.8 468.63L497.16 472.06L500.37 473.77L502.76 477.01L503.45 479.45L505.84 483.11L506.16 486.95L503.58 490.56L503.01 489.48L496.47 487.59L494.45 489.97L495.43 491.15L494.22 491.66L494.17 493.45L489.26 495.85L489.09 497.01L492.02 499.03L494.78 498.73L497.22 498.07L499.08 496.05L500.71 495.68L501.95 494.42L504.55 494.2L506 492.95L507.65 494.74L508.37 498.46L509.96 500.57L508.88 501.22L508.4 499.29L507.27 501.03L508.18 502.65L511.22 504.1L511.25 505.73L510.34 505.55L508.34 507.08L506.11 506.96L504.54 507.81L496.35 508.26L494.92 509.04L495.64 510.49L494.97 510.64V511.45L496.51 511.81L496.61 512.72L502.4 511.87L503.39 511.22L504.55 511.72L505.36 511.6L506.71 511.7L508.43 510.95L511.2 511.56L511.94 510.19L510.47 509.44L510.42 508.81L510.83 508.47L511.54 509.07L513.15 510.85L514.46 513.6L514.34 516.8L515.1 517.38L515.9 517.13L516.41 519.77L515.78 520.81L513.97 521.12V523.69L512.15 524.35L511.15 526.22L511.4 526.82H512.99L514.03 526.46L515.28 525.71L515.89 526.36L516.91 525.21L517.24 523.09L519.78 521.16L520.51 520.68L521.02 515.03L523.34 508.98L524.42 508.86L525.89 507.4L529.94 508.99L533.67 505.57L540.48 509.29L540.39 512.65L539.6 513.47L538.1 517.75L537.43 517.89L535.24 521.74L534.51 524.97L533.78 525.15L533.41 526.04L533.02 528.11L533.76 529.56L535.01 526.24L536.55 525.54L536.12 524.98L536.42 522.61L542.71 521.97L541.83 520.73L541.79 519.07L540.38 518.26L541.92 517.13L541.87 514.98L542.38 515.98L544.2 515.35L542.66 517.81L543.06 518.4L543.91 518.77L545.01 517.51L545.79 518.27L547.42 517.83L549.17 519L548.78 520.3L549.75 520.35L550.39 521.17L550.07 521.99L548.22 520.88L546.4 521.34L545.07 519.83L542.87 519.2L542.59 520.2L543.83 520.23L544.75 523.1L544.07 524.51L545.38 523.71L546.18 523.75L546.58 524.56L547.37 524.4L548.01 523.65L548.95 524.47L549.39 523.39L551.19 523.16L551.01 524.35L551.65 524.85L550.87 525.68L550.85 527.15L552.81 527.61L554.18 528.96L554.98 527.95L555.66 524.02L554.43 524.14L553.25 522.97L552.83 521.6L554.01 519.5L554.89 519.21L555.81 520.53L556.26 518.46L554.45 518.84L554.62 518.09L555.03 517.54L556.76 517.73L558.24 515.99L558.83 514.46L557.17 514.12V512.02L558.49 511.5L557.99 510.89L559.44 510.29L559.6 509.68L559.24 509.21L557.71 509.33L558.14 508.68L556.27 506.07L557.1 504.43L557.02 503.02L554.9 500.6L555.46 496.91L558.14 498.42L560.88 501.59L563.81 502.91L566.21 505.25L571.98 504.34L574.54 506.92L573.91 507.12L572.77 510.2L577.8 514.71L572.44 519.9L568.77 519.65L563.92 523.87L564.99 529.19L564.85 532.95L566.19 532.88L565.2 538.11L572.09 540.13L572.88 536.92L575.63 536.09L576.74 537.84L581.32 535.83L582.67 537.06L589.76 539.32L592.26 541.66L591.44 542.85L591.79 543.5L584.06 547.51L582.72 548.85L579.64 551.32L576.34 555.35L573.02 564.14L569.89 573.38L570.69 576.08L570.42 576.86L570.14 577.58L570.84 580L573.02 583.31L574.58 584.38L585.04 589.84L593.64 590.72L600.75 597.51L604.66 602.69L604.99 605.84L606 606.81L604.7 610.76L605.05 614.29L606.08 615.86L605.72 618.01L604.68 619.93L603.06 620.69L600.4 623.93L598.33 624.8L597.87 625.54L596.44 625.1L595.49 625.76L594.31 625.42L592.13 629.8L590.34 629.23L584.34 629.25L580.94 628.35L575.48 629.96L571.45 632.55L569.8 632.66L566.16 635.58L565.94 635L565.31 635.1L561.99 640.43L558.94 642.69L558.09 644.51L557.85 648.13L558.66 652.85L556.74 654.39L555 654.58L553.87 653.43L554.83 649.72L554.73 647.52L556.4 644.65L555.74 644.04L551.6 644.51L547.25 646.63L544.63 650.94L544.66 651.58L545.66 652.22L547.49 652.2L548.05 652.82L548.69 654.49L547.84 656.04L548.03 657.22L549.7 656.45L550.27 656.76L549.81 657.31L550.84 657.79L552.5 655.43L555.02 655.49L555.62 656.03L555.04 657.26L557.17 657.11L557.53 656.24L558.88 656.89L560.59 656.29L560.18 655.21L561.17 655.1L566 656.85L568.22 659.23L568.11 661.44L567.35 661.61L566.73 662.96V665.73L564.51 668.47L561.86 666.89L560.19 667.82L559.82 666.5L558.78 666.03L558.35 665.47L556.95 664.88L557.44 666.46L559.22 666.64L559.7 668.07L559.15 668.62L560.59 668.97L559.04 670.33L559.98 670.38L560.22 672.35L561.21 673.37L560.78 675.32L563.05 675.77L562.38 677.59L566.8 685.89L566.52 688.31L565.95 687.79L563.52 687.83L562.62 688.5L559.93 688.05L558.19 689.14L557.48 690.63L556.2 691.21L553.81 693.9L550.33 695.85L546.64 695.81L540.09 692.46L537.8 690.2L536.75 687.65L531.01 685.65L530.39 686.1L531.73 686.69L531.87 688L528.92 688.18L527.08 686.32L524.27 685.04L522.77 683.12L519.48 681.06L516.76 677.77L511.91 675.37L505.75 673.62L501.51 671.59L498.83 669.55L491.34 667.54L490.54 666.8L492.42 666.9L504.76 671.01L508.12 671.34L518.96 676.87L520.02 675.61L519.51 673.89L517.11 671.11L516.73 669.53L512.8 667.3L511.94 665.99L510.94 666.69L511.43 667.86L512.54 668.57L510.04 668.37L508.31 665.72L509.45 665.75L510.31 664.18L509.41 664.83L507.61 664.39L504.39 659.59L504.34 656.86L505.01 655.83L505.97 656.64L505.52 657.94L508.45 657.66L509.91 658.28L510.63 657.64L511.09 655.77L512.48 654.93L516.5 655.84L517.73 655.3L517.92 654.34L516.85 650.74L515.66 650.7L514.8 649.81L513.97 649.86L513.38 651.29L512.55 651.5L511.43 650.74L511.71 649.19L508.84 649.8L507.31 649.23L506.25 650.18L503.94 649.22L503.48 648.56L503.7 646.08L507.59 643.39L506.96 642.35L505.43 643.12L504.93 643.05L504.99 642.46L507.88 639.15L506.6 639.33L506.01 638.27L503.43 636.46L499.69 637L495.36 641.5L495.52 643.1L493.23 644.31L491.96 643L490.43 642.88L487.36 641.01L485.08 641.49L483.81 640.88L481.03 640.98L477.8 639.42L474.41 638.66L472.97 639.19L472.35 637.41L470.82 636.93L469.41 637.5L469.54 636.23L467.97 634.61L466.75 635.29L465.44 634.14L464.29 633.99L463.4 636.1L462.16 637.08L462.54 637.89L463.56 637.7L463.91 637.02L466.25 637.45L467.04 638.06L466.67 638.87L467.75 639.51L467.9 641.45L464.86 642.05L460.71 640.9L458.33 641.18L459.45 639.54L460.23 640.5L460.77 640.01L462.47 641.22L463.18 641.02L462.4 640.53L461.92 637.09L459.74 636.47L457.16 638.9L455.78 639.14L454.79 638.52L453.52 636.29L452.05 637.21V638.24L451.39 638.61L450.5 636.35L448.57 636.4L447.92 638.58L448.57 639.71L447.66 639.91L445.66 640.41L443.73 638.55L440.44 638.33L439.22 637.38L438.58 636.72L439.41 636.44L437.64 634.15L437.77 633.64L439.58 633.15L437.14 628.02L437.93 627.44L439.05 627.97L438.99 628.82L442.26 629.41L442.92 630.32L443.71 629.93L444.74 626.19L445.25 625.27L446.05 625.14L447.21 622.31L446.54 619.47L445.13 619.82L444.55 620.79L444.08 624.85L445.12 625.64L442.66 627.29L441.76 629.26L440.52 627.27L439.69 626.92L438.94 627.45L437.88 626.6L438.7 623.4L437.61 620.88L437.31 617.73L432.51 614.47L428.97 612.98L425.65 609.41L422.83 608.06L422.66 606.49L423.55 605.94L424.17 606.9L425.98 607.12L426.16 607.66L428.39 607.49L429.66 608.3L430.82 607.98L431.17 606.74L433.23 605.59L433.51 604.11L433.09 603.5L432 603.26L429.79 601.29L427.66 601.22L426.48 602.25L427.14 603.3L426.66 604.44L427.41 605.17L424.32 606.78L423.82 605.48L421.95 605.33L419.94 602.69L417.63 603.04L417.85 601.79L420.56 597.38L421.43 598.69L425.69 598.01L429.35 595.09L432.78 594.35L434.42 591.98L434.6 590.71L434.37 589.39L431.82 585.7L433.11 579.45L432.62 577.04L429.41 571.65L429.47 568.41L428.87 566.54L424.38 562.04L423.73 560.14L422.41 559.42L421.87 557.83L420.79 558.87L421.14 560.35L422 560.07L420.45 562.79L417.91 563.16L415.97 562.13L417.24 557.38L418.06 556.98L419.27 557.58L420.76 556.77L424.26 556.89L424.1 557.47L424.85 557.96L425.98 557.35L426.4 556.41L424.59 557.23L424.48 556.69L425.97 554.32L426.65 551.88L425.65 544.95L422.8 538.33L420.15 535.56L410.27 529.28L406.08 527.97L397.05 526.96L395.63 525.85L395.49 524.19L396.65 523.34L399.17 523.88L399.95 524.68L403.08 525L404.68 524.46L412.77 526.31L414.51 526.36L416.54 525.36L416.93 526.38L417.47 525.59L418.96 525.3L419.21 524.5L418.58 524.77L417.27 524.12L417.45 523.58L418.44 523.81L418.37 523.32H419.13L418.98 522.72L418.21 523.08L414.77 521.73L415.91 524.18L415.44 524.26L413.34 521.17L408.23 517.39L404.13 511.04L402.7 510.28L400.51 509.69L394.99 510.35L392.32 509.86L389.01 508.33L386.73 506.39L390.61 506.24L397.31 504.32L403.03 505.54L405.91 506.68L407.1 507.85L411.29 509.15L416.12 508.32L419.87 506.38L422.57 504.15L425.13 503.86L427.04 504.42L429.52 503.59L429.87 505.11L429.33 505.37L432.12 509.14L434.31 508.99L435.21 507.23L434.64 506L435.69 505.26L436.44 506.52L440.42 509.68L442.25 509.23L444.45 507.24L445.22 503.86L445.93 503.68L446.92 506.48L447.74 503.73L450.39 503.89L453.24 502.86L456.18 500.22L457.1 497.84L457.85 495.13L456.94 492.93L457.08 486.84L456.52 484.23L455.33 482.19L453.97 482.45L454.35 481.71L455.12 481.23L456.72 482.53L457.05 483.62L459.37 484.91L461.19 484.33L466.83 480.77L470.07 480.47L471.77 481.19L472.98 480.91L476.27 476.43L477.54 471.83L477.29 468.89L477.72 463.77L476.4 459.98L468.75 455.73L457.02 454.73L451.38 450.77L447.76 449.29L446.14 449.31L444.9 447.2L443.29 440.59L446.86 445.88L453.05 448.08Z" fill="#449765"/>
<path d="M352.86 709.899L352.42 711.739L350.87 713.099L350.17 712.849L349.05 710.609L349.34 710.209L348.42 709.289L348.12 707.049L351.75 706.139L352.53 706.779L352.08 708.189L352.86 709.899ZM334.04 706.199L334.35 707.159L332.01 706.519L332.9 704.669L334.04 706.199ZM335.88 702.129L337.1 703.979L335.3 704.159L334.87 702.359L335.59 701.309L335.88 702.129ZM358.45 695.999L360.42 696.529L361.2 696.079L363.01 696.829L363.53 698.819H361.95L361.35 697.609L360.46 697.679L360.17 696.799L358.37 696.599L358.45 695.999ZM335.12 694.589L334.09 696.399L333.43 696.519L332.21 694.469L334.07 694.759L334.94 694.129L335.12 694.589ZM294.78 693.339L297.07 693.959L297.42 696.129L301.42 700.209L305.43 701.019L311.22 706.989L312.89 710.529L316.72 711.799L317.66 714.249L319.42 713.779L322.64 709.779L321.96 708.629L320.37 707.939L320.24 707.139L321 707.179L323.55 709.999L323.37 711.049L322.68 710.849L322.39 711.349L323.62 712.859L324.43 716.089L326.69 718.629L328.34 719.649L329.71 718.489L330.19 716.509L333.03 719.219L333.62 718.809L332.44 717.839V717.029L330.14 713.979L328.51 713.129L328.58 712.459L331.49 712.159L329.7 712.709L329.67 713.399L331.6 713.699L338.46 720.719L338.75 722.999L338.31 723.869L340.06 723.399L339.21 722.669L339.12 721.539L340.66 723.349L338.87 724.059L329.65 725.179L327.69 726.359L326.82 727.319L326.49 729.219L324.59 730.669L321.48 727.779L317.94 725.679L313.87 721.069L310.68 716.239L306.19 713.329L300.45 706.029L299.44 700.589L295.63 696.649L294.88 695.359L294.78 693.339ZM324.77 690.309L327.24 693.709L325.27 695.579L324.5 695.559L319.98 691.969L318.98 692.189L317.82 693.549L316.83 693.329L316.23 692.089L317.39 691.479L318.06 691.829L319.11 690.819L319.69 690.919L319.75 691.719L322.71 691.679L323.51 692.619L324.71 692.649L325.27 692.039L324.77 690.309ZM330.75 683.659L332.89 684.539L334.31 685.999L332.18 685.539L331.08 686.819L329.4 686.619L329.08 685.009L330.54 682.949L330.75 683.659ZM304.22 680.959L305.62 681.929L307.74 681.799L310.2 683.609L312.98 682.489L313.36 685.059L311.98 685.399L309.21 684.059L307.21 682.139L301.89 682.169L298.93 678.989L299.39 677.489L301.21 676.949L303.36 679.119L304.22 680.959ZM353.63 673.179L354.43 673.679L354.05 674.749L355.28 675.569L354.66 677.659L355.54 678.339L357.19 678.369L357.54 680.579L357.12 681.429L356.08 681.679L354.66 686.939L354.02 687.849L353.39 687.909L353.29 687.309L352.54 688.959L354.04 691.059L357.01 691.739L358.67 690.079L359.16 687.809L360.9 687.009L362.06 687.289L361.36 690.079L361.61 692.779L361.29 693.379L360.98 692.829L359 692.759L356.59 693.319L355.35 695.189L353.9 695.739L352.12 698.989L347.1 697.209L346.05 697.379L347.78 699.179L345.36 698.859L343.02 700.199L343.13 699.289L344.4 698.209L344.12 697.719L342.37 698.029L342.49 695.619L339.63 693.229L339.01 691.979L338.85 688.239L339.52 687.299L337.82 686.459L337.6 684.519L340.01 684.539L341.66 682.209L345.63 680.179L347.51 677.739L348.96 677.489L350.09 675.579L352.86 673.799L352.21 673.249L353.63 673.179ZM363.29 673.039L364.28 673.669L365.57 679.359L364.51 679.319L363.47 678.419L360.69 679.409L358.75 679.229L359.13 677.479L362.09 677.369L363.25 676.539L358.96 676.349L356.62 677.419L356.28 677.119L355.86 674.739L356.69 674.019L359.07 674.459L363.29 673.039ZM288.43 674.569L290.47 675.069L291.22 676.369L289.86 677.839L286.64 678.829L285.29 678.209L283.74 675.649L283.59 673.409L285.74 671.869L285.63 673.789L288.43 674.569ZM303.16 673.069L303.28 673.549L301.61 672.989L299.55 671.289L298.73 670.029L298.99 669.289L302.15 671.479L303.16 673.069ZM244.26 674.599L245.95 675.319L247.12 677.599L249.38 680.009L252.15 681.659L256.11 681.969L259.29 683.369L261.53 685.059L263.65 687.999L264.22 688.479L265.84 690.259L269.92 698.569L272.43 702.979L272.51 705.989L273.15 708.359L274.42 711.239L275.48 712.109L276.2 716.099L275.26 716.969L271.31 716.569L269.29 717.199L264.76 721.989L258.35 721.689L253.72 719.139L251.22 718.979L248.02 716.079L248.2 715.389L252.46 711.369L254.86 714.409L256.34 714.649L259.69 716.769L260.01 718.169L262.34 718.339L264.91 721.119L265.99 720.109L264.7 716.959L263.48 715.579L259.97 713.279L259.27 712.239L255.01 710.549L253.78 709.139L251.36 708.629L250.58 708.959L249.7 710.779L248.54 710.519L243.07 713.149L238.11 711.139L236.33 709.059L236.62 707.979L236.12 706.839L234.43 706.089L234.46 704.149L233.57 702.359L233.84 700.099L233.02 693.449L231.89 691.889L233.09 690.709L234.98 693.599L237.72 694.429L241.46 700.549L242.77 701.489L241.93 702.419L243.48 702.479L244.17 702.149L248.85 700.349L248.78 699.879L246.08 700.489L243.57 698.939L246.47 697.849L246.25 697.369L244.23 697.719L243.17 696.899L244.58 694.709L245.89 695.009L246.37 694.539L245.91 693.889L244.97 694.089L241.8 691.479L236.55 690.679L236.02 689.429L236.5 688.569L239.09 687.399L235.91 688.169L235.31 687.559L235.42 686.629L237.56 685.749L237.83 684.149L233.95 683.859L224.88 684.929L221.73 682.949L220.48 681.489L219.55 681.419L219.43 679.649L222.91 678.739L224.44 677.339L225.59 677.709L225.49 678.919L227.41 679.019L225.88 677.539L226.2 677.239L224.58 677.079L225.8 676.479L225.72 675.779L224.38 675.889L224.42 676.399L222.98 677.329L223.44 678.049L222.08 678.089L219.56 677.159H217.1L216.36 675.829L216.42 674.219L218.23 673.359L220.32 670.689L224.77 667.879L230.95 666.359L234.27 667.109L240.99 671.009L244.26 674.599ZM207.04 659.219L206.4 659.809L204.45 659.839L204.34 657.949L203.49 657.659L203.38 656.539L203.99 655.079L205.7 655.339L207.06 657.319L207.04 659.219ZM398.55 651.259L395.79 666.649L390.34 684.709L390.13 687.809L385.01 694.359L381.22 702.849L380.72 706.519L379.45 708.469L379.05 714.009L373.73 727.549L373.49 730.029L370.74 737.609L368.13 748.049L365.48 751.919L362.38 753.239L361.27 752.809L358.7 748.919L359.08 748.439L358.57 746.789L359.69 746.029L359.83 744.579L357.64 739.419L357.42 735.179L354.25 730.259L349.7 727.269L348.74 725.249L349.26 725.179L349.45 725.909L352.41 726.099L354.06 727.369L354.49 726.649L355.14 726.759L355.1 727.519L355.9 727.279L357.64 723.469L359.01 723.089L358.11 722.209L359.23 714.939L360.75 714.739L361.24 716.629L363.46 717.679L363.98 716.159L367.02 715.919L365.52 714.309L365.34 713.299L364.76 712.159L364.15 711.279L364.1 708.839L362.85 711.279L361.27 710.369L360.41 711.059L359.73 708.119L360.75 707.299L361.19 704.929L363.07 703.129L363.71 701.359L365.31 700.359L365.9 699.669L366.49 697.559L370.95 692.379L372.45 691.629L372.81 690.699L375.33 690.979L378.23 687.839L378.81 685.809L380.3 683.939L380.76 681.609L383.44 678.269L383.75 675.709L385.52 672.099L387.57 661.949L390.66 656.289L391.04 653.159L393.72 650.659L395.1 647.909L396.33 646.849L398.07 648.249L398.55 651.259ZM232.68 620.779L233.35 624.789L233.69 624.719L234.5 623.679L233.42 623.189L233.54 622.409L234.26 622.579L235.73 621.449L235.33 623.149L232.96 626.269L230.18 626.359L228.26 624.029L229.29 623.299L228.45 621.389L231.21 620.349L232.68 620.779ZM241.43 607.509L242.82 611.519L242.48 613.839L238.47 615.179L237.96 614.459L238.02 611.559L237.28 610.169L238.08 607.779L240.13 609.469L240.31 608.549L239.46 608.409L241.43 607.509ZM226.73 600.689L224.85 601.669L223.04 600.239L224.48 598.629L226.12 598.379L227.77 600.159L226.73 600.689ZM37.3 575.499L38.08 576.749L38.69 574.719L40.98 572.889L44.2 573.109L46.23 574.029L45.69 581.239L46.42 582.639L47.78 583.699L49.47 580.989L50.46 580.569L52.48 581.949L52.34 583.179L54.11 588.329L51.51 591.109L51.7 592.339L54.25 595.329L55.05 600.609L56.4 600.419L54.84 603.679L55.27 604.559L52.03 604.069L48.53 601.349L41.53 585.939L38.29 581.829L35.46 579.839L35.02 575.669L39.22 572.709L37.3 575.499ZM331.99 573.629L329.49 574.459L329.28 573.509L329.39 571.859L330.49 570.609L331.92 570.209L330.8 571.999L331.99 573.629ZM225.03 571.579L223.25 571.209L222.96 569.759L221.44 567.549L221.97 565.309L223.74 565.949L225.39 568.719L226.91 568.989L227.08 570.609L225.03 571.579ZM351 546.809L350.52 546.859L350.25 545.369L350.65 544.349L351 546.809ZM351.23 541.499L351.53 543.759L352.55 543.879L351.8 544.239L352 545.449L350.73 543.259L351.23 541.499ZM348.63 538.319L349.43 538.739L351.46 538.459L351.78 536.479L350.43 536.729L350.09 537.779L349.94 537.129L349.23 537.369L349.67 536.749L351.81 536.259L352.7 537.449L359.31 548.659L360.76 552.309L363.93 555.989L363.6 558.719L365.08 562.859L366.15 564.569L368.64 566.649L370.02 569.899L369.79 571.079L368.36 571.759L366.66 571.929L364.99 571.349L359.54 574.199L358.44 576.129L358.47 577.429L356.7 578.369L355.76 577.329L354.07 577.009L353.89 578.029L354.36 578.299L353.12 578.559L351.43 577.789L350.41 576.039L346.83 574.639L346.74 575.519L343.05 576.609L343.62 577.789L343.17 578.799L341.58 578.659L341.71 579.709L345.51 584.269L346.15 584.359L347.08 582.939L345.96 577.479L347.74 575.829L350.23 577.049L350.25 578.109L352.85 578.999L354.83 580.489L356.1 579.359L357.18 579.479L357.52 578.359L358.69 577.589L358.81 578.379L361.59 580.789L363.48 583.859L365.1 585.589L366.76 586.069L369.09 590.169L371.98 592.699L373.63 596.579L375.88 599.709L379.73 611.529L382.64 614.049L384.37 614.029L384.31 614.499L383.07 614.739L384.23 616.069L384.01 616.759L380.58 617.709L380.17 617.439L380.59 616.869L381.15 617.159L381.39 616.749L380.48 615.939L380.75 615.069L379.67 614.359L379.16 615.209L378.97 614.409L378.12 614.269L377.8 613.399L376.7 612.749L376.22 613.119L375.17 612.589L375.55 614.509L374.93 613.959L374.05 614.849L371.32 614.449L369.83 615.229L374.4 615.179L375.49 616.189L375.98 617.259L375.39 620.639L379.21 630.779L378.37 633.519L378.81 636.779L378.04 642.989L375.91 647.099L375.81 649.139L374.88 651.229L375.08 653.129L374.19 654.739L374.16 657.489L373.09 660.069L373.71 662.169L372.28 662.349L371.1 663.399L370.33 667.779L369.29 670.039L366.51 671.079L363.99 672.919L364.17 671.899L361.81 671.279L361.08 672.619L358.82 672.489L358.27 673.049L357.39 672.609L355.27 673.339L354.45 672.199L352.69 672.269L351.49 671.579L351.32 673.639L350.25 673.939L349.15 675.189L339.73 678.849L337.88 680.209L334.08 679.089L332.9 677.149L331.57 676.409L329.85 676.939L324.86 676.569L323.89 677.089L319.86 674.799L320.21 673.579L318.19 670.889L317.34 671.179L317.64 672.339L315.49 674.399L314.31 674.209L314.23 673.659L312.37 674.009L310.73 673.579L310.55 671.509L307.63 670.569L307.34 669.409L305.81 668.299L305.7 667.289L304.35 666.239L302.38 665.919L300.42 664.249L299.47 664.209L298.6 663.419L298.98 662.979L298.05 662.249L295.31 663.939L297.32 665.299L298.17 667.939L297.48 669.069L296.13 669.559L295.92 670.739L294.42 670.599L294.44 671.359L296.43 671.159L294.99 672.299L293.91 671.509L293.66 669.789L292.08 667.599L288.65 667.399L284.52 664.879L276.79 668.339L276.1 665.809L277.68 662.819L277.94 660.969L278.71 660.429L279.45 661.099L280.82 660.959L282.58 658.619L284.24 657.979L285.18 658.219L285.69 657.309L286.62 657.599V656.819L288.24 657.239L290.63 655.679L288.99 654.719L286.34 649.589L285.65 649.969L285.08 649.449L284.87 646.489L283.02 644.099L282.04 640.889L281.24 640.769L280.31 642.469L279.48 642.089L278.27 644.109L273.08 643.839L269.09 642.799L268.92 639.429L265.63 637.879L264.99 638.589L266.11 640.239L266.83 640.709L265.86 642.289L264.96 641.699L264.52 644.259L265.82 643.279L265.34 644.809L266.13 646.629L268.15 647.999L272.57 654.429L271.23 656.729L269.89 657.589L267.11 656.919L263.51 654.629L263.32 654.029L264.77 652.599L265.24 651.079L263.96 646.279L264.82 637.919L264.43 636.659L263.39 635.019L261.75 633.849L256.52 633.719L255.6 631.379L253.76 629.499L250.14 627.279L249.71 627.869L248.02 625.789L248.93 625.339L249.58 626.149L251.12 626.379L250.29 627.059L251.5 627.609L251.68 627.399L252.5 625.809L252.07 624.749L250.58 623.959L250.03 622.319L250.59 622.409L251.23 621.609L251.71 612.739L250.92 609.199L249.55 606.319L249.69 604.539L250.9 605.219L251.93 605.599L252.49 604.489L250.05 603.589L249.08 601.719L249.26 600.309L247.44 601.769L244.39 601.919L237.01 598.699L237.42 595.919L241.48 595.539L243.21 594.869L244.4 593.609L244.48 591.919L242.14 589.189L240.93 588.119L237.26 587.159L238.64 586.029L241.11 586.939L242.25 586.579L242.71 585.429L242.43 584.129L237.69 581.979L235.13 582.189L231.09 581.319L230.62 580.669L231.49 578.679L228.48 575.339L227.36 573.089L228.13 571.889L228.94 573.669L232.68 576.799L233.93 577.189L234.35 578.589L236.7 580.159L240.67 581.899L242.36 581.289L241.59 579.889L239.79 579.089L239.41 577.529L238.32 577.749L236.41 576.489L236.43 575.839L235.68 575.819L236.16 574.709L237.08 575.579L238.4 575.679L237.49 574.089L236.6 574.279L235.72 572.979L233.11 573.579L230.81 572.079L229.1 567.329L225.26 566.919L224.68 565.429L222.46 563.899L222 561.749L222.91 561.009L224.66 561.169L228.2 563.579L231.35 563.999L232.74 562.779L234.65 558.109L232.85 555.129H236.6L239.77 552.859L243.64 552.209L245.57 553.229L246.08 554.499L245.7 559.459L247.96 562.269L255 563.339L258.2 562.709L266.13 556.249L269.79 554.339L271.53 551.699L276.72 550.549L277.73 549.319L278.36 548.869L281.16 547.469L283.66 546.839L285.62 546.789L287.83 545.139L291.24 543.839L293.35 543.979L293.65 543.539L292.67 542.029L293.8 542.249L294.49 543.289L295.64 541.139L298.81 540.069L306.21 538.909L307.19 539.529L305.66 539.239L305.25 540.009L306.11 542.509L305.26 543.229L305.62 543.669L305.73 544.249L305.33 545.229L307.03 545.699L307.73 544.979H310.05L310.35 544.059L308.64 542.489L308.71 538.969L307.01 536.169L309.73 535.689L324.09 543.869L328.96 548.809L341.15 557.939L344.3 561.619L343.23 562.229L341.04 560.209L339.14 556.699L335.15 553.879L334.52 554.459L335.36 556.089L334.18 556.359L335.4 557.799L333.42 557.169L332.66 558.209L331.86 557.949L331.75 559.139L333.57 560.589L333.62 562.739L334.56 564.219L335.79 564.579L336.36 565.779L334.82 566.799L333.66 566.229L332.89 567.549L334.05 568.149L334.33 569.339L329.96 568.279L329.45 568.789L329.51 570.809L328.01 570.499L327.3 572.959L327.96 573.709L327.08 574.139L326.65 576.479L326.9 577.249L325.39 580.509L325.66 581.019L326.49 580.369L327.99 580.959L329.84 579.259L332.06 580.619L333.29 579.119L334.53 578.609L335.53 577.039L334.68 575.259L333.96 575.619L334.2 576.309L333.03 575.979L333.24 574.849L333.86 575.539L334.54 575.079L333.39 572.139L338.94 574.009L340.01 573.439L341.25 571.399L343.04 572.609L343.88 572.499L343.9 571.629L346.03 571.189L346.86 569.849L349.31 569.419L351.2 570.849L352.94 568.749L353.28 567.879L352.32 566.549L352.36 564.549L348.39 562.339L345.55 561.599L345.02 560.799L345.13 559.719L346.56 558.289L348.01 557.799L349.07 558.179L350.01 560.369L351.64 561.449L352.64 561.749L353.57 560.849L353.7 559.919L352.14 558.219L352.47 554.499L350.41 551.269L350.28 548.499L349.1 545.079L350.14 542.589L350.45 543.239L350.03 543.429L349.29 544.969L351.07 548.729L353.32 551.529L354.09 550.049L353.86 549.429L354.52 549.139L352.74 547.679L352.8 547.199L354.07 547.319L353.54 543.719L352.48 542.359L351.85 539.189L350.96 539.099L350.57 539.999L347.97 537.999L348.33 536.179L349.4 537.959L348.63 538.319ZM289.77 529.609L292.59 530.479L292.85 531.939L291.48 533.619L291.5 537.249L292.3 538.779L291.6 539.799L290.98 538.729L291.27 534.069L289.25 531.679L288.74 529.569L289.77 529.609ZM169.96 458.319L171.24 458.469L171.77 459.639L173.17 459.269L174.03 460.149L174.53 459.469L175.04 458.929L176.41 458.909L175.71 458.529V458.459L176.38 458.129L178.42 459.919L181.39 461.129L181.84 462.479L181.43 462.719L191.63 476.819L188.86 478.809L191 479.739L189.86 483.509L194.85 483.999L194.79 485.319L197.67 485.389L198.14 489.509L199.95 495.539L202.81 496.049L202.59 498.589L208.15 498.229L209.01 496.609L210.53 498.669L208.89 500.849L211.28 503.809L214.38 502.269L217.61 503.359L218.18 501.959L222.27 504.439L222.69 507.769L220.96 513.589L211.44 515.389L210.81 514.769L208.18 515.509L206.39 515.089L206.1 514.309L205.19 513.979L204.82 515.099L205.37 515.599L204.96 516.809L209.33 519.029L217.27 518.009L218.67 519.059L220.33 517.859L222.9 520.789L223.24 522.509L225.46 525.129L226.55 524.789L230.08 526.749L231.29 532.989L231.94 534.599L233.07 535.449L238.51 534.739L239.62 534.119L246.97 534.929L245.27 537.039L238 542.359L237.31 545.329L234.51 548.699L234.24 551.809L232.54 551.029L230.93 551.379L229.96 551.029L229.47 551.419L228.79 552.859L228.97 555.009L230.68 559.609L230.45 560.929L228.14 561.049L224.09 559.289L221.15 558.729L216.58 563.269L214.68 562.149L213.5 562.929H212.15L211.73 560.659L211.18 560.899L206.7 558.779L206.04 559.619L207.02 561.229L207.7 561.449L208.57 560.749L209.51 560.909V561.369L207.88 562.769L205.75 561.359L205.13 561.869L208.36 563.109L208.79 566.209L207.36 565.699L202.95 566.369L200.25 566.059L199.23 565.259L194.75 567.949L196.66 568.069L199.16 569.509L201.04 568.549L206.8 567.299L207.81 568.659L209.18 568.979L211.5 566.269L212.47 566.699L214.59 565.809L223.96 574.999L223.11 576.709L218.44 580.959L215.62 582.429L212.78 582.549L210.83 583.449L210.04 585.289L212.86 590.859L214.03 591.889L214.08 593.109L213.15 596.619L211.27 599.359L210.93 598.079L209.76 596.929L207.33 596.099L206.04 596.649L206.76 596.859L207.6 599.029L208.66 599.449L209.75 599.119L210.06 599.609L210.73 599.219L211.14 600.309L214.38 600.439L217.53 603.979L217.97 607.519L215.48 611.119L216.93 611.039L220.99 617.689L220.24 617.119L218.12 617.469L216.62 616.419L214.96 616.669L212.57 620.419L208.81 621.399L208.66 624.179L207.14 624.329L206.16 625.949L206.03 626.659L206.65 626.869L207.04 625.699L209.58 624.439L209.1 622.789L209.58 621.779L212.62 621.119L214.93 617.879L215.96 617.679L217.41 618.829L219.04 618.179L222.65 621.259L226.59 623.289L227.49 626.039L226.55 627.919L227.06 629.249L224.56 631.839L223.66 633.619L224.35 638.319L223.99 639.609L215.12 644.589L213.96 642.959L214.66 640.969L215.38 642.049L214.95 642.199L215.08 644.239L216.1 644.259L216.35 643.729L215.1 640.919L209.62 639.969L205.73 643.769L203.8 644.519L200.76 647.149L197.02 648.809L196.74 649.799L197.51 650.589L197.92 653.959L199.98 655.449L199.87 655.989L197.04 656.059L193.65 654.949L192.23 656.589L192.43 657.279L192.96 657.099L192.85 658.539L192.03 658.499L192.11 657.669L191.32 659.099L192.55 659.189L194.19 658.059L194.74 658.979L195.99 657.839L196.84 657.969L198.19 659.899L199.98 660.249L201.86 662.529L202.66 664.509L204.28 665.059L204.22 668.489L197.29 675.749L196.64 675.169L192.58 675.019L191.75 676.049L189.21 676.849L187.36 676.349L187.05 675.369L187.21 676.389L186.59 676.579L187.22 676.659L186.61 676.929L187.16 676.899L187.32 677.619L186.52 677.469L186.87 678.189L186.38 678.559L186.87 680.649L188.14 681.429L188.28 680.709L189.09 680.549L190.83 682.729L194.54 682.359L196.16 683.089L198.11 682.649L199.81 680.759L203.84 679.049L207.37 678.369L207.46 676.459L208.63 676.059L211.97 678.109L213.53 682.029L215.24 684.179L218.44 685.209L222.55 687.899L224 689.559L226.78 688.999L230.14 689.669L230.36 692.879L232.09 694.809L231.77 696.509L232.49 703.749L233.74 704.549L234.23 706.879L236.3 708.059L235.68 709.879L232.73 711.399L226.3 709.869L225.13 711.699L225.35 712.969L226.51 713.589L228.38 713.339L230.45 715.199L230.82 718.019L233.01 719.899L233.4 722.609L232.2 725.039L228.67 726.299L227.9 724.879L225.55 723.509L225.8 722.149L222.2 720.999L219.1 721.499L216.44 720.119L216.1 718.699L218.07 717.309L218.93 715.289L217.71 715.109L216.9 714.289L216.16 712.269L214.14 711.799L212.36 709.819L210.89 709.319L211.93 708.209L216.27 706.989L217.82 707.109L218.83 708.699L220.67 708.459L221.41 707.569L220.84 706.139L218.56 704.339L216.52 702.979L214.08 702.419L213.17 703.659L212.68 707.009L212.15 707.299L211.49 706.119L210.37 706.409L209.59 707.379L210.75 707.349L211.35 708.469L207.53 710.589L208.21 711.269L208.01 713.179L206.42 715.719L205.13 716.489L202.62 715.189L202.25 716.379L200.57 716.319L200 717.499L198.56 717.639L197.01 720.179L196.02 720.709L195.11 723.009L193.1 723.739L191.93 725.179L189.92 725.409L187.74 726.869H185.79V725.459L184.5 724.389L183.65 724.879L180.93 725.179L180.37 726.659L179.72 729.499L177.27 730.919L175.88 732.979L175.5 734.519L173.53 733.239L168.57 732.449L168.76 734.179L167.58 733.559L167.28 732.279L165.38 731.679L162.56 732.279L160.59 727.109L160.53 726.109L161.84 724.079L161.2 722.609L156.33 720.439L154.88 720.389L149.14 717.519L143.23 716.849L140.51 717.759L134.57 717.329L129.95 713.849L125.75 712.499L120.8 710.019L115.96 710.139L113.04 709.449L108.52 711.409L107.01 711.269L104.89 708.999H103.63L102.85 709.679L101.86 709.199L100.15 709.499V709.989L97.04 711.739L97.1 712.379L94.05 711.369L90.3 712.359L83.82 708.129L82.09 707.909L80.88 708.529L77.52 707.849L80.61 695.439L80.77 689.859L76.99 676.959L79 665.019L79.51 665.089L80.8 662.689L82.8 656.139L84 655.109L83.39 653.889L84.53 651.839L82.68 650.979L79.8 650.799L73.79 651.679L66.56 650.509L65.76 652.359L66.41 656.399L66.99 657.099L65.83 662.189L68.4 666.099L67.63 666.189L66.73 667.769L65.32 668.569L62.25 668.229L63.33 669.029L62.69 669.619L63.88 670.969L62.43 671.659L61.47 671.969L59.57 672.549L58.55 671.689L54.23 664.649L53.8 664.849L53.52 662.809L53.74 662.369L55.19 662.499L55.36 662.019L53.8 661.999L55.5 652.009L55.93 643.679L56.98 641.879L58.39 642.799L58.77 642.399L58.73 641.799L57.08 641.179L57.94 637.959L59.42 636.509L59.72 636.869L62.34 636.029L61.71 637.969L66 637.889L69 638.599L69.46 639.169L71.45 640.709L71.68 641.499L70.71 643.299L68.81 645.089L68.37 646.969L69.03 647.529L68.18 649.569L76.86 650.929L81.56 650.229L81.48 649.599L82.51 648.629L83.55 648.529L84.04 649.409L84.79 649.429L84.49 648.819L85.2 648.139L84.37 647.389L81.74 632.979L81.25 634.319L80.37 634.049L80.39 632.469L81.26 632.429L80.89 630.659L81.69 629.669L80.62 629.129L80.47 627.869L81.19 626.929L80.67 626.259L81.65 625.269L80.38 624.939L80.15 623.929L81.4 623.489L81.14 622.639L80.07 622.859L79.8 621.969L78.97 621.989L78.63 621.399L79.48 620.749L79.71 619.199L80.21 619.919L80.92 619.729L80.1 615.599L80.83 612.859L78.65 612.129L74.54 614.509L73.54 615.789L70.84 616.829L68.52 621.979L66.81 622.659L64.99 622.499L63.27 620.659L63.32 618.559L65.44 615.759L67.38 615.099L71.47 615.699L78.59 611.409L80.99 612.159L82.34 608.489L82.48 606.279L81.67 605.219L81.82 604.089L80.59 602.329L75.89 583.589L73.36 582.229L70.79 579.859L67.77 578.559L66.12 576.639L64.87 576.249L61.64 577.379L55.07 575.779L54.25 577.469L50.79 575.949L51.93 575.859L51.75 575.219L50.16 574.779L49.96 575.699L49.32 575.159L50.08 573.769L49.12 572.449L47.9 570.599L47.35 569.659L33.54 554.239L30.26 549.269L30.73 547.429L33.3 546.159L33.35 545.239L32.38 543.839L29.8 542.409L26.84 542.159L24.06 545.789L23.63 547.609L22.45 549.249L22.48 552.119L23.22 554.299L24.6 556.269L27.05 557.289L25.71 559.689L26.93 561.649L29.09 562.989L32.04 566.429L32.11 570.119L30.35 571.169L16.22 558.919L0 551.259L0.07 549.759L2.74 543.189L11.75 513.629L13.99 498.729L13.24 488.209L15.84 487.729L15.46 486.499L14.42 485.809L14.48 484.489L15.79 484.189L20.67 485.499L20.55 487.609L23.43 489.179L27.1 492.719L28.17 492.659L28.89 491.659L34.11 491.779L38.12 486.539L42.16 491.639L48.26 492.249L47.02 493.129L50.56 494.949L51.76 497.809L58.03 497.729L60.69 495.079L60.53 489.499L63.86 488.819L65.17 486.539L63.23 481.909L68.44 480.309L71.64 483.459L83.15 480.159L87.55 482.749L89.54 488.629L94.59 490.539L103.98 487.269L99.51 482.749L103.48 480.369L105.76 471.929L107.97 472.309L109.29 468.579L111.23 468.979L111.56 468.499L123.19 471.169L122.12 480.859L129.24 484.519L132.1 482.079L134.34 483.099L136.07 479.589L137.74 481.119L139.68 475.589L141.4 473.059L144.2 475.009L148.68 471.499L155.01 463.319L154.93 459.879L158.28 453.969L163.51 454.269L166.77 458.019L169.96 458.319ZM219.01 634.659L218.46 634.749L218.92 635.769L222.47 635.149L221.96 634.109L221.89 633.619L220.82 631.739L219.06 632.799L219.01 634.659Z" fill="#68BB89"/>
<circle cx="310.5" cy="607.5" r="3.5" fill="#FFD768"/>
<circle cx="333.5" cy="77.5" r="3.5" fill="#FFD768"/>
<circle cx="620.5" cy="434.5" r="3.5" fill="#FFD768"/>
<circle cx="604.5" cy="520.5" r="3.5" fill="#FFD768"/>
<circle cx="607.5" cy="513.5" r="3.5" fill="#FFD768"/>
<circle cx="618.5" cy="510.5" r="3.5" fill="#FFD768"/>
<circle cx="614.5" cy="517.5" r="3.5" fill="#FFD768"/>
<circle cx="612.5" cy="527.5" r="3.5" fill="#FFD768"/>
<circle cx="608.5" cy="500.5" r="3.5" fill="#FFD768"/>
</g>
<defs>
<clipPath id="clip0_2620_19395">
<rect width="652.93" height="792" fill="white"/>
</clipPath>
</defs>
</svg>
