<svg width="123" height="74" viewBox="0 0 123 74" fill="none" xmlns="http://www.w3.org/2000/svg">
<g clip-path="url(#clip0_2934_14083)">
<path fill-rule="evenodd" clip-rule="evenodd" d="M33.3412 13.2906C33.4649 13.0081 33.5648 12.7427 33.7037 12.4882C34.0165 11.9155 34.691 10.687 35.3152 9.90867C35.9393 9.13109 36.6749 8.4218 37.4509 7.82038C38.2261 7.21896 39.0845 6.70834 39.9681 6.3017C40.8525 5.89506 42.5846 5.41703 42.7547 5.38133C44.0152 5.11438 45.5504 4.97081 46.811 4.97081C48.2462 4.97081 49.8852 5.16792 51.9904 5.65449C52.9106 5.86712 53.7461 6.12787 54.5381 6.44371C54.5381 6.44371 54.8121 5.95171 55.0135 5.71735C55.4248 5.23854 56.3549 4.27472 57.1279 3.68494C57.9 3.09593 58.7661 2.58298 59.6489 2.18178C60.531 1.78057 62.4225 1.27615 62.4225 1.27615C63.7067 1.00454 65.0168 0.867188 66.3544 0.867188C67.692 0.867188 69.4805 1.06663 71.5765 1.55087C74.0495 2.1228 75.7816 3.02842 77.7494 4.39966C81.0747 6.71842 82.1208 11.2248 80.1736 14.8085L80.4856 14.987C80.4856 14.987 81.4967 13.9316 82.0781 13.4978C82.7083 13.0283 83.5316 12.5417 84.2657 12.1685C84.9791 11.8053 85.7124 11.4599 86.4846 11.2551C87.9137 10.8764 89.645 10.701 91.1322 10.701C92.5247 10.701 94.3079 10.8764 96.4329 11.4196C97.8323 11.7773 99.0089 12.1979 100.16 12.7699L100.212 12.7295C100.212 12.7295 102.005 11.7432 102.982 11.4778C104.204 11.1464 105.601 10.8259 107.544 10.7406C109.153 10.6692 112.299 10.9873 113.988 11.5011C116.168 12.1638 117.396 12.6411 119.489 14.048C122.565 16.1145 123.805 20.0847 122.465 23.5768C121.685 25.61 120.411 29.5476 118.998 33.7862C117.506 38.2608 116.083 42.4304 114.186 47.7485C112.063 53.6967 109.777 58.81 106.975 63.1658C103.12 69.1559 98.6426 72.1072 93.4998 73.2797C91.3183 73.7772 89.7747 74.0045 87.2537 73.7803C85.8688 73.6569 83.8117 73.1338 82.3772 72.5278C81.0213 71.9543 79.5982 70.8997 78.649 70.143C77.8906 69.5385 77.2687 68.7664 76.682 67.9888C76.0929 67.2089 75.5504 66.3537 75.1132 65.4621C74.663 64.5432 74.2334 63.5127 73.9808 62.4782C73.7122 61.3739 73.4963 59.2895 73.4994 58.8348C70.5869 60.5188 66.6764 61.9886 63.6304 62.4394C59.6741 63.0253 58.2106 62.9803 55.5713 62.6047C53.6179 62.3269 51.0641 61.2125 51.0641 61.2125C50.5803 61.6913 50.0843 62.1484 49.5762 62.5861C45.7877 65.8454 41.3759 66.9606 38.9235 67.1072C38.5787 67.1282 37.6195 67.139 37.1243 67.0731C36.2819 66.9606 34.8734 66.6463 33.8242 66.2016C32.6828 65.7174 31.3291 65.0174 30.2731 64.1676C29.2171 63.3179 28.1351 61.9909 27.4896 61.1023C26.9982 60.4256 26.4 58.8348 26.4 58.8348C23.9667 59.7497 21.1366 60.2169 19.2931 60.2169C17.091 60.2169 15.0034 60.1812 11.9078 59.0358C8.38948 57.7336 4.82004 54.9446 2.91629 51.5037C1.25442 48.5028 0 44.1229 0 39.3449C0 36.9214 0.315893 34.234 0.994225 31.2874C1.69392 28.2477 2.89493 25.2329 4.63386 22.2576C6.52159 19.027 8.93352 16.2635 11.788 14.2265C14.9134 11.997 18.4111 10.3138 22.5894 10.0538C26.854 9.78838 30.415 11.1146 33.2535 13.2246C33.2832 13.2464 33.3122 13.2681 33.3412 13.2906Z" fill="#473400"/>
<path d="M91.7868 65.5206C90.4408 65.8272 89.4908 65.9971 87.935 65.859C86.7683 65.755 85.05 65.2886 83.8452 64.1998C82.4984 62.9838 81.344 60.9452 81.3241 58.8903C81.7514 59.577 82.822 60.9242 85.472 61.1578C86.8797 61.282 89.2222 60.6371 90.4919 59.1308C91.6555 57.751 92.2843 56.5459 93.9133 52.7239C95.0235 50.1181 95.4989 48.8182 96.5244 45.7669C95.7576 46.9744 95.3341 47.5626 94.4368 48.5714C92.0027 51.3093 89.6717 52.3709 87.5131 52.4019C85.3537 52.4329 82.4725 50.8584 81.4821 48.7577C80.6206 46.9309 80.2956 44.9559 80.2445 42.4416C80.2284 41.6757 80.2963 40.5698 80.4787 38.6748C80.6603 36.7844 81.1479 34.1397 82.1032 30.7547C83.0593 27.3696 83.9848 24.1755 85.2568 21.6441C85.9893 20.1867 87.3307 19.3502 88.5416 19.0142C89.3291 18.7961 90.3027 18.6797 91.1313 18.6797C92.0233 18.6797 93.1633 18.793 94.5237 19.1414C95.8934 19.4914 96.9044 19.94 98.0779 20.723C97.2767 22.0872 96.3069 24.1871 95.0968 26.9405C93.8866 29.6938 92.7795 32.6094 91.7761 35.6863C90.7727 38.7632 90.0799 41.4204 89.6976 43.6553C89.5702 44.4329 89.5068 45.0809 89.5068 45.5993C89.5068 46.7656 89.9402 47.3484 90.5133 47.3484C91.6281 47.3484 93.1213 46.0688 94.6977 43.5094C96.2749 40.9501 97.4637 38.0873 98.7021 34.7388C99.9443 31.3755 100.655 28.8619 101.249 26.7946C101.699 25.2301 102.276 23.0456 102.701 21.6751C103.149 20.2364 103.788 19.5892 105.426 19.0421C106.216 18.7782 106.841 18.741 107.884 18.6952C108.847 18.6525 110.734 18.8217 111.747 19.1298C113.1 19.5419 113.873 19.8173 115.174 20.6911C114.369 22.7911 113.045 26.8582 111.587 31.2373C110.112 35.6607 108.705 39.7822 106.828 45.0405C104.934 50.3493 102.925 54.9286 100.426 58.8158C97.9238 62.7029 95.1235 64.7601 91.7868 65.5214V65.5206Z" fill="#FFD768"/>
<path d="M19.2937 52.2652C17.892 52.2652 16.5552 52.2939 14.5851 51.5644C12.708 50.8699 10.7531 49.4443 9.73756 47.6075C8.61133 45.5712 7.82617 42.5866 7.82617 39.3474C7.82617 37.4687 8.08865 35.3874 8.61438 33.1035C9.14011 30.8197 10.0557 28.5599 11.362 26.3249C12.6683 24.09 14.3089 22.1523 16.2836 20.743C18.2583 19.3337 20.4283 18.1627 23.0692 17.9982C25.2949 17.8593 27.1544 18.5492 28.6362 19.6503C30.1173 20.7515 31.145 22.1445 31.7181 23.8292C32.0683 24.8334 32.2438 25.8539 32.2438 26.8907C32.2438 27.6031 32.0973 28.7857 31.876 29.6727C31.2992 31.9876 29.7457 33.9323 28.1601 35.0234C26.7119 36.0191 25.6215 36.5118 24.0298 36.8448C23.2653 37.0046 21.8788 37.0939 21.0082 37.097C20.0201 37.1001 19.3013 36.9992 18.5314 36.8758C18.0858 38.625 17.9966 39.4592 17.9966 40.981C17.9966 41.7586 17.9515 42.8815 18.2598 44.3342C18.5665 45.7784 19.4173 47.3444 21.0838 47.668C21.7766 47.8022 22.4862 47.8372 23.1829 47.7634C23.9619 47.6804 25.082 47.3692 26.4776 46.6359C27.9274 45.8738 29.5793 44.3877 30.7544 42.8947C32.1454 41.1261 33.8362 37.9692 34.8236 36.026C35.1425 35.4751 35.3814 35.0622 35.5401 34.7867C35.6996 34.5112 35.827 34.3739 35.9224 34.3739C36.0818 34.3739 36.1612 34.5524 36.1612 34.9086C35.9384 37.5323 35.0777 40.1561 33.5806 42.7806C32.4971 44.7563 31.4266 46.4442 29.7655 47.8263C27.7137 49.5328 25.7131 50.6107 23.7086 51.3696C22.1978 51.9416 20.4398 52.2659 19.2929 52.2659L19.2937 52.2652ZM20.7847 34.4763C22.2604 34.4267 24.5235 33.6072 25.7245 32.5564C26.9263 31.5057 27.9701 30.0809 27.9937 28.1727C27.9999 27.6543 27.9174 26.9427 27.5626 26.2823C27.2292 25.6614 26.3716 25.1927 25.6894 25.3363C24.8989 25.5024 23.8101 26.1139 22.8227 27.2802C21.8354 28.4466 20.9594 29.9366 20.1941 31.7501C19.9072 32.3337 19.4784 33.6623 19.2716 34.2947C19.2716 34.2947 20.1773 34.4973 20.7847 34.4771V34.4763Z" fill="#FFD768"/>
<path d="M38.5966 59.1886H38.4058C35.7619 58.8968 34.0253 57.5038 33.1974 55.0097C32.6556 53.3257 32.3848 51.3818 32.3848 49.1786C32.3848 45.1293 33.5758 39.0119 34.8219 34.0671C36.219 28.5232 38.8697 19.9636 40.7681 15.9135C41.4114 14.5415 42.6948 13.5296 44.3513 13.1726C45.1159 13.0104 46.0468 12.9297 46.8113 12.9297C47.7674 12.9297 48.8547 13.0919 50.2564 13.4155C51.6581 13.7391 52.7141 14.28 53.8609 15.0576C53.291 16.1634 52.1518 18.6389 50.4952 22.5749C48.8387 26.5109 47.1661 30.8675 45.4776 35.6455C43.789 40.4235 42.5147 44.6102 41.6548 48.2063C41.2405 49.9554 41.0337 51.3321 41.0337 52.3363C41.0337 53.5345 41.3366 54.1343 41.9417 54.1343C42.8978 54.1343 43.9965 53.4382 45.2387 52.0453C46.9586 50.0369 50.4845 44.2602 51.4505 42.2262C51.6604 41.7854 52.0877 41.1002 52.2632 41.0117C52.4386 40.9233 52.502 41.3392 52.502 41.6954C52.2792 44.3518 51.4109 47.0407 49.8978 49.7614C48.3847 52.483 46.5923 54.7342 44.5222 56.5152C42.4514 58.2969 40.4767 59.1878 38.5973 59.1878L38.5966 59.1886Z" fill="#FFD768"/>
<path d="M62.5023 54.5702C59.6311 54.9955 58.5697 55.0017 56.6553 54.7293C54.1724 54.3762 51.7704 52.9537 51.0699 50.4596C50.6876 49.0992 50.4961 47.5767 50.4961 45.8919C50.4961 41.7774 51.2858 36.7674 53.4521 29.9647C55.5229 23.3887 58.6208 15.2746 60.3804 11.7918C61.0678 10.4322 62.3238 9.42722 64.0124 9.07102C64.7769 8.90883 65.5575 8.82812 66.3541 8.82812C67.2781 8.82812 68.4402 8.99031 69.8427 9.31392C71.2443 9.63752 72.2088 10.1885 73.3243 10.9661C72.8619 11.8042 72.0333 13.5332 70.6789 16.2384C69.3253 18.9436 67.8519 22.0935 66.2587 25.6888C68.8072 22.7407 71.0589 21.1157 73.4747 21.1212C77.6568 21.1312 80.2336 24.0794 80.3488 29.1313C80.361 29.6474 80.3396 30.6189 80.2839 31.762C80.2153 33.1542 79.7216 36.1349 79.0654 38.2248C78.3405 40.5319 77.3531 43.2744 75.9354 45.6071C74.5177 47.9398 72.6949 49.8186 70.6248 51.2923C68.5539 52.7659 65.089 54.1869 62.5039 54.5694L62.5023 54.5702ZM60.0408 50.188C61.3669 50.1989 63.2074 48.7554 64.5877 46.8798C65.8848 45.1174 67.0568 42.7653 67.8374 40.5086C68.6897 38.0424 69.5428 34.3144 69.703 32.0849C69.761 31.2793 69.7419 30.1153 69.4505 29.4037C69.2399 28.8892 68.8759 28.3118 68.0289 28.3118C67.182 28.3118 66.2366 29.1554 65.0661 30.7167C63.9017 32.2703 62.6465 34.5223 61.8133 36.5718C60.4834 39.842 59.454 43.8385 59.0794 46.5655C58.8261 48.4117 58.897 50.1779 60.04 50.1872L60.0408 50.188Z" fill="#FFD768"/>
</g>
<defs>
<clipPath id="clip0_2934_14083">
<rect width="123" height="73" fill="white" transform="translate(0 0.871094)"/>
</clipPath>
</defs>
</svg>
