<svg width="195" height="195" viewBox="0 0 195 195" fill="none" xmlns="http://www.w3.org/2000/svg">
<path d="M97.75 192.215C150.217 192.215 192.75 149.682 192.75 97.2148C192.75 44.7478 150.217 2.21484 97.75 2.21484C45.2829 2.21484 2.75 44.7478 2.75 97.2148C2.75 149.682 45.2829 192.215 97.75 192.215Z" fill="#FDFDFC" stroke="#2D2B24" stroke-width="4" stroke-miterlimit="10"/>
<path d="M143.547 90.6521C143.527 90.3202 143.386 90.0071 143.15 89.7723C142.915 89.5374 142.601 89.3971 142.269 89.3777C125.192 88.3582 111.534 93.4898 105.729 103.07C101.773 109.602 101.933 117.316 106.151 124.891C103.174 128.161 101.209 132.223 100.492 136.585L92.5093 128.602C95.4421 123.165 95.5033 117.615 92.652 112.905C88.4312 105.935 78.5417 102.21 66.1884 102.934C65.8581 102.955 65.5468 103.096 65.3128 103.33C65.0788 103.564 64.9382 103.875 64.9174 104.205C64.1935 116.552 67.9182 126.441 74.8884 130.662C77.1253 132.036 79.6991 132.763 82.3242 132.762C85.2216 132.713 88.0611 131.942 90.5858 130.519L100.173 140.116V150.424C100.173 150.784 100.316 151.13 100.571 151.385C100.826 151.64 101.172 151.783 101.532 151.783C101.893 151.783 102.238 151.64 102.493 151.385C102.748 151.13 102.892 150.784 102.892 150.424V140.402C102.879 135.383 104.731 130.539 108.088 126.808C111.993 128.97 115.928 130.057 119.724 130.057C123.3 130.058 126.806 129.068 129.855 127.199C139.431 121.391 144.553 107.733 143.547 90.6521ZM76.2953 128.334C70.4262 124.786 67.2079 116.334 67.5749 105.592C78.3174 105.221 86.7693 108.443 90.3445 114.312C92.5467 117.952 92.584 122.254 90.5008 126.577L80.7405 116.837C80.4819 116.603 80.1431 116.477 79.7943 116.485C79.4454 116.494 79.1133 116.636 78.8665 116.883C78.6198 117.13 78.4774 117.462 78.4688 117.811C78.4602 118.16 78.5861 118.499 78.8204 118.757L88.5637 128.501C84.2375 130.584 79.9351 130.546 76.2953 128.334ZM128.444 124.868C122.99 128.171 116.519 128.127 110.066 124.783L129.681 105.163C129.926 104.907 130.06 104.565 130.056 104.21C130.052 103.856 129.909 103.517 129.659 103.266C129.408 103.015 129.07 102.872 128.715 102.867C128.361 102.862 128.018 102.996 127.761 103.24L108.142 122.859C104.798 116.402 104.744 109.945 108.057 104.48C113.192 95.9843 125.416 91.3862 140.896 92.0285C141.542 107.508 136.927 119.733 128.444 124.868Z" fill="#2D2B24"/>
<path d="M95.0067 89.2489C103.011 89.2489 110.687 86.1183 116.346 80.5458C122.006 74.9733 125.185 67.4153 125.185 59.5346C125.185 51.6539 122.006 44.0959 116.346 38.5234C110.687 32.9509 103.011 29.8203 95.0067 29.8203C87.0028 29.8203 79.3268 32.9509 73.6672 38.5234C68.0076 44.0959 64.8281 51.6539 64.8281 59.5346C64.8281 67.4153 68.0076 74.9733 73.6672 80.5458C79.3268 86.1183 87.0028 89.2489 95.0067 89.2489Z" stroke="#2D2B24" stroke-width="3" stroke-linecap="round" stroke-linejoin="round"/>
<path d="M102.909 51.4077C102.484 50.2173 101.693 49.1866 100.647 48.4584C99.6004 47.7302 98.3497 47.3406 97.0682 47.3437H92.2768C90.9125 47.3415 89.5957 47.8363 88.5799 48.7329C87.5641 49.6295 86.921 50.8644 86.7746 52.1999C86.6282 53.5353 86.9888 54.8769 87.7869 55.9663C88.585 57.0557 89.7642 57.8158 91.0975 58.1003L98.3914 59.6729C99.8826 59.995 101.2 60.8481 102.092 62.0684C102.983 63.2887 103.386 64.7902 103.222 66.2847C103.058 67.7792 102.339 69.1614 101.203 70.1659C100.067 71.1705 98.5949 71.7267 97.0682 71.7277H92.9453C91.6633 71.7305 90.4122 71.3402 89.3655 70.6112C88.3189 69.8821 87.5287 68.8504 87.1046 67.6591M95.0068 47.3437V41.25M95.0068 77.8214V71.7231" stroke="#2D2B24" stroke-width="3" stroke-linecap="round" stroke-linejoin="round"/>
<line x1="40.75" y1="152.215" x2="153.955" y2="152.215" stroke="#2D2B24" stroke-width="2"/>
</svg>
