<svg width="30" height="30" viewBox="0 0 30 30" fill="none" xmlns="http://www.w3.org/2000/svg">
<path d="M11.4624 21.25H16.2504V7.4998C16.2504 7.33562 16.2181 7.17306 16.1552 7.02138C16.0924 6.86971 16.0002 6.73191 15.8841 6.61585C15.768 6.49978 15.6302 6.40774 15.4785 6.34496C15.3268 6.28219 15.1642 6.24992 15 6.25H6.2502M3.75 16.2496V19.9996C3.74992 20.1638 3.78219 20.3264 3.84496 20.4781C3.90774 20.6298 3.99978 20.7676 4.11585 20.8837C4.23191 20.9998 4.36971 21.092 4.52138 21.1548C4.67306 21.2177 4.83562 21.25 4.9998 21.25H6.0876" stroke="#030302" stroke-linecap="round" stroke-linejoin="round"/>
<path d="M18.5882 21.2507H16.25V8.75091H21.563C21.8435 8.7402 22.1195 8.82438 22.3463 8.98987C22.5731 9.15536 22.7374 9.39248 22.8128 9.66291L23.75 13.1255L25.3004 13.5131C25.5779 13.5812 25.8235 13.7425 25.9964 13.97C26.1693 14.1974 26.2589 14.4773 26.2502 14.7629V20.0009C26.2502 20.3324 26.1185 20.6503 25.8841 20.8847C25.6498 21.119 25.3319 21.2507 25.0004 21.2507H23.8874" stroke="#030302" stroke-linecap="round" stroke-linejoin="round"/>
<path d="M3.75 11.25H11.25M8.7498 18.75C8.41825 18.7449 8.08899 18.8057 7.78119 18.9291C7.47338 19.0524 7.19319 19.2357 6.95691 19.4683C6.72063 19.701 6.53299 19.9783 6.40491 20.2842C6.27683 20.59 6.21087 20.9183 6.21087 21.2499C6.21087 21.5815 6.27683 21.9098 6.40491 22.2156C6.53299 22.5215 6.72063 22.7988 6.95691 23.0314C7.19319 23.2641 7.47338 23.4474 7.78119 23.5707C8.08899 23.6941 8.41825 23.7549 8.7498 23.7498C9.40611 23.7396 10.0321 23.4718 10.4926 23.0041C10.9531 22.5363 11.2113 21.9063 11.2113 21.2499C11.2113 20.5935 10.9531 19.9635 10.4926 19.4957C10.0321 19.028 9.40611 18.7602 8.7498 18.75ZM21.2502 18.75C20.5871 18.75 19.9512 19.0134 19.4823 19.4823C19.0134 19.9512 18.75 20.5871 18.75 21.2502C18.75 21.9133 19.0134 22.5492 19.4823 23.0181C19.9512 23.487 20.5871 23.7504 21.2502 23.7504C21.9133 23.7504 22.5492 23.487 23.0181 23.0181C23.487 22.5492 23.7504 21.9133 23.7504 21.2502C23.7504 20.5871 23.487 19.9512 23.0181 19.4823C22.5492 19.0134 21.9133 18.75 21.2502 18.75Z" stroke="#030302" stroke-linecap="round" stroke-linejoin="round"/>
</svg>
