<svg width="205" height="60" viewBox="0 0 205 60" fill="none" xmlns="http://www.w3.org/2000/svg">
<path d="M197.253 59.5H8.41015C4.2575 59.5 0.856445 56.1794 0.856445 52.125V7.875C0.856445 3.82059 4.2575 0.500001 8.41015 0.500001H197.253C201.405 0.500001 204.806 3.82059 204.806 7.875V52.125C204.806 56.1794 201.405 59.5 197.253 59.5Z" fill="#030302"/>
<path d="M197.253 1.68184C200.75 1.68184 203.596 4.46037 203.596 7.875V52.125C203.596 55.5396 200.75 58.3182 197.253 58.3182H8.41015C4.91279 58.3182 2.06693 55.5396 2.06693 52.125V7.875C2.06693 4.46037 4.91279 1.68184 8.41015 1.68184H197.253ZM197.253 0.500001H8.41015C4.2575 0.500001 0.856445 3.82059 0.856445 7.875V52.125C0.856445 56.1794 4.2575 59.5 8.41015 59.5H197.253C201.405 59.5 204.806 56.1794 204.806 52.125V7.875C204.806 3.82059 201.405 0.500001 197.253 0.500001Z" fill="#A6A6A6"/>
<path d="M72.4917 15.6087C72.4917 16.8403 72.1141 17.8267 71.37 18.5623C70.5146 19.4344 69.4004 19.8732 68.0351 19.8732C66.7302 19.8732 65.616 19.4271 64.702 18.5476C63.7861 17.6552 63.3291 16.56 63.3291 15.2491C63.3291 13.9382 63.7861 12.843 64.702 11.958C65.616 11.0712 66.7302 10.625 68.0351 10.625C68.6847 10.625 69.3041 10.7559 69.8952 10.9993C70.4843 11.2445 70.964 11.5764 71.3115 11.9857L70.5221 12.7638C69.9159 12.065 69.0907 11.7202 68.0351 11.7202C67.0833 11.7202 66.2581 12.0447 65.5574 12.6992C64.8644 13.3556 64.5169 14.2056 64.5169 15.2491C64.5169 16.2927 64.8644 17.15 65.5574 17.8064C66.2581 18.4536 67.0833 18.7854 68.0351 18.7854C69.0454 18.7854 69.8952 18.4536 70.5656 17.799C71.0074 17.3657 71.2586 16.7684 71.3247 16.0051H68.0351V14.9394H72.4238C72.4766 15.1698 72.4917 15.3929 72.4917 15.6087Z" fill="#F6F6EE" stroke="#F6F6EE" stroke-width="0.16" stroke-miterlimit="10"/>
<path d="M79.4545 11.9141H75.3321V14.7166H79.0485V15.7823H75.3321V18.5848H79.4545V19.6707H74.165V10.8281H79.4545V11.9141Z" fill="#F6F6EE" stroke="#F6F6EE" stroke-width="0.16" stroke-miterlimit="10"/>
<path d="M84.3685 19.6707H83.2015V11.9141H80.6729V10.8281H86.899V11.9141H84.3685V19.6707Z" fill="#F6F6EE" stroke="#F6F6EE" stroke-width="0.16" stroke-miterlimit="10"/>
<path d="M91.4043 19.6707V10.8281H92.5695V19.6707H91.4043Z" fill="#F6F6EE" stroke="#F6F6EE" stroke-width="0.16" stroke-miterlimit="10"/>
<path d="M97.7347 19.6707H96.5771V11.9141H94.0391V10.8281H100.273V11.9141H97.7347V19.6707Z" fill="#F6F6EE" stroke="#F6F6EE" stroke-width="0.16" stroke-miterlimit="10"/>
<path d="M112.061 18.5328C111.167 19.4271 110.061 19.8732 108.741 19.8732C107.413 19.8732 106.306 19.4271 105.413 18.5328C104.522 17.6405 104.078 16.5453 104.078 15.2491C104.078 13.953 104.522 12.8578 105.413 11.9654C106.306 11.0712 107.413 10.625 108.741 10.625C110.053 10.625 111.16 11.0712 112.053 11.9728C112.952 12.8725 113.396 13.9603 113.396 15.2491C113.396 16.5453 112.952 17.6405 112.061 18.5328ZM106.276 17.7917C106.949 18.4536 107.766 18.7854 108.741 18.7854C109.708 18.7854 110.533 18.4536 111.197 17.7917C111.868 17.1297 112.208 16.2798 112.208 15.2491C112.208 14.2185 111.868 13.3685 111.197 12.7066C110.533 12.0447 109.708 11.7128 108.741 11.7128C107.766 11.7128 106.949 12.0447 106.276 12.7066C105.606 13.3685 105.266 14.2185 105.266 15.2491C105.266 16.2798 105.606 17.1297 106.276 17.7917Z" fill="#F6F6EE" stroke="#F6F6EE" stroke-width="0.16" stroke-miterlimit="10"/>
<path d="M115.032 19.6707V10.8281H116.449L120.852 17.7053H120.903L120.852 16.0054V10.8281H122.018V19.6707H120.801L116.19 12.4543H116.139L116.19 14.1616V19.6707H115.032Z" fill="#F6F6EE" stroke="#F6F6EE" stroke-width="0.16" stroke-miterlimit="10"/>
<path d="M103.791 32.5863C100.243 32.5863 97.3439 35.2228 97.3439 38.8605C97.3439 42.4688 100.243 45.133 103.791 45.133C107.347 45.133 110.246 42.4688 110.246 38.8605C110.246 35.2228 107.347 32.5863 103.791 32.5863ZM103.791 42.6623C101.844 42.6623 100.169 41.0933 100.169 38.8605C100.169 36.5983 101.844 35.0569 103.791 35.0569C105.738 35.0569 107.42 36.5983 107.42 38.8605C107.42 41.0933 105.738 42.6623 103.791 42.6623ZM89.7241 32.5863C86.1681 32.5863 83.277 35.2228 83.277 38.8605C83.277 42.4688 86.1681 45.133 89.7241 45.133C93.2781 45.133 96.1711 42.4688 96.1711 38.8605C96.1711 35.2228 93.2781 32.5863 89.7241 32.5863ZM89.7241 42.6623C87.7752 42.6623 86.0945 41.0933 86.0945 38.8605C86.0945 36.5983 87.7752 35.0569 89.7241 35.0569C91.671 35.0569 93.3461 36.5983 93.3461 38.8605C93.3461 41.0933 91.671 42.6623 89.7241 42.6623ZM72.985 34.5093V37.1753H79.5058C79.315 38.6651 78.8052 39.7603 78.0234 40.5236C77.0716 41.4455 75.5892 42.4688 72.985 42.4688C68.9721 42.4688 65.8298 39.3067 65.8298 35.3888C65.8298 31.4708 68.9721 28.3088 72.985 28.3088C75.1548 28.3088 76.7336 29.1366 77.8987 30.2097L79.823 28.3309C78.1933 26.8116 76.0254 25.6445 72.985 25.6445C67.4822 25.6445 62.8574 30.0161 62.8574 35.3888C62.8574 40.7614 67.4822 45.133 72.985 45.133C75.9593 45.133 78.1933 44.1816 79.9496 42.3968C81.7492 40.6398 82.3101 38.1691 82.3101 36.1742C82.3101 35.5547 82.2572 34.985 82.1628 34.5093H72.985ZM141.433 36.5761C140.902 35.173 139.265 32.5863 135.93 32.5863C132.625 32.5863 129.874 35.1288 129.874 38.8605C129.874 42.3747 132.597 45.133 136.247 45.133C139.199 45.133 140.902 43.3759 141.603 42.3526L139.412 40.9274C138.681 41.9709 137.686 42.6623 136.247 42.6623C134.818 42.6623 133.792 42.0226 133.135 40.7614L141.729 37.2897L141.433 36.5761ZM132.671 38.6651C132.597 36.2461 134.595 35.0071 136.026 35.0071C137.148 35.0071 138.1 35.5547 138.417 36.3383L132.671 38.6651ZM125.685 44.7513H128.51V26.3138H125.685V44.7513ZM121.059 33.9838H120.964C120.33 33.25 119.119 32.5863 117.586 32.5863C114.368 32.5863 111.426 35.3445 111.426 38.8808C111.426 42.3968 114.368 45.133 117.586 45.133C119.119 45.133 120.33 44.4637 120.964 43.7078H121.059V44.6075C121.059 47.0062 119.746 48.295 117.629 48.295C115.903 48.295 114.833 47.0781 114.391 46.0548L111.934 47.056C112.642 48.7191 114.517 50.7656 117.629 50.7656C120.942 50.7656 123.736 48.8629 123.736 44.2332V32.9679H121.059V33.9838ZM117.828 42.6623C115.881 42.6623 114.251 41.0712 114.251 38.8808C114.251 36.6702 115.881 35.0569 117.828 35.0569C119.746 35.0569 121.259 36.6702 121.259 38.8808C121.259 41.0712 119.746 42.6623 117.828 42.6623ZM154.659 26.3138H147.903V44.7513H150.72V37.7653H154.659C157.789 37.7653 160.857 35.5547 160.857 32.0387C160.857 28.5245 157.781 26.3138 154.659 26.3138ZM154.733 35.2007H150.72V28.8785H154.733C156.837 28.8785 158.038 30.5839 158.038 32.0387C158.038 33.4657 156.837 35.2007 154.733 35.2007ZM172.15 32.5512C170.114 32.5512 167.997 33.4288 167.127 35.374L169.627 36.3973C170.165 35.374 171.155 35.0421 172.201 35.0421C173.663 35.0421 175.145 35.8995 175.168 37.4132V37.6068C174.658 37.3192 173.566 36.8933 172.224 36.8933C169.531 36.8933 166.787 38.3406 166.787 41.0417C166.787 43.5123 168.993 45.1035 171.472 45.1035C173.368 45.1035 174.414 44.2683 175.071 43.2966H175.168V44.7218H177.889V37.6492C177.889 34.3802 175.389 32.5512 172.15 32.5512ZM171.81 42.655C170.889 42.655 169.604 42.2088 169.604 41.0933C169.604 39.6663 171.206 39.1187 172.592 39.1187C173.833 39.1187 174.414 39.386 175.168 39.7382C174.947 41.4455 173.442 42.655 171.81 42.655ZM187.803 32.955L184.565 40.9477H184.468L181.12 32.955H178.082L183.112 44.1244L180.242 50.3397H183.186L190.938 32.955H187.803ZM162.406 44.7513H165.231V26.3138H162.406V44.7513Z" fill="#F6F6EE"/>
<path d="M16.6215 11.6167C16.1777 12.0703 15.9209 12.7765 15.9209 13.691V46.3106C15.9209 47.2251 16.1777 47.9312 16.6215 48.3848L16.731 48.4844L35.4529 30.2128V29.7814L16.731 11.5098L16.6215 11.6167Z" fill="url(#paint0_linear_2999_46818)"/>
<path d="M41.6858 36.3125L35.4521 30.2189V29.7875L41.6934 23.6939L41.8331 23.7732L49.2244 27.8792C51.3338 29.0444 51.3338 30.9619 49.2244 32.1346L41.8331 36.2332L41.6858 36.3125Z" fill="url(#paint1_linear_2999_46818)"/>
<path d="M41.8335 36.2265L35.4525 29.9965L16.6211 48.3842C17.3217 49.1032 18.4642 49.1899 19.7634 48.4708L41.8335 36.2265Z" fill="url(#paint2_linear_2999_46818)"/>
<path d="M41.8335 23.77L19.7634 11.5256C18.4642 10.8139 17.3217 10.9006 16.6211 11.6197L35.4525 30L41.8335 23.77Z" fill="url(#paint3_linear_2999_46818)"/>
<defs>
<linearGradient id="paint0_linear_2999_46818" x1="33.7906" y1="46.6503" x2="9.04366" y2="21.3037" gradientUnits="userSpaceOnUse">
<stop stop-color="#00A0FF"/>
<stop offset="0.0066" stop-color="#00A1FF"/>
<stop offset="0.2601" stop-color="#00BEFF"/>
<stop offset="0.5122" stop-color="#00D2FF"/>
<stop offset="0.7604" stop-color="#00DFFF"/>
<stop offset="1" stop-color="#00E3FF"/>
</linearGradient>
<linearGradient id="paint1_linear_2999_46818" x1="51.9712" y1="30.0011" x2="15.4159" y2="30.0011" gradientUnits="userSpaceOnUse">
<stop stop-color="#FFE000"/>
<stop offset="0.4087" stop-color="#FFBD00"/>
<stop offset="0.7754" stop-color="#FFA500"/>
<stop offset="1" stop-color="#FF9C00"/>
</linearGradient>
<linearGradient id="paint2_linear_2999_46818" x1="38.3637" y1="26.6097" x2="4.80481" y2="-7.76234" gradientUnits="userSpaceOnUse">
<stop stop-color="#FF3A44"/>
<stop offset="1" stop-color="#C31162"/>
</linearGradient>
<linearGradient id="paint3_linear_2999_46818" x1="11.8808" y1="59.2401" x2="26.8664" y2="43.8916" gradientUnits="userSpaceOnUse">
<stop stop-color="#32A071"/>
<stop offset="0.0685" stop-color="#2DA771"/>
<stop offset="0.4762" stop-color="#15CF74"/>
<stop offset="0.8009" stop-color="#06E775"/>
<stop offset="1" stop-color="#00F076"/>
</linearGradient>
</defs>
</svg>
