<svg width="211" height="203" viewBox="0 0 211 203" fill="none" xmlns="http://www.w3.org/2000/svg">
<path d="M155.946 55.6875L141.754 68.8785L148.85 72.8636L143.993 85.0604L159.186 71.6205L151.959 67.1382L155.946 55.6875Z" fill="#2D2B24" stroke="#2D2B24" stroke-width="2" stroke-miterlimit="10" stroke-linejoin="round"/>
<path d="M89.129 123.283C89.129 123.283 84.3962 132.993 95.8515 135.727C102.845 137.401 109.092 140.919 115.924 142.732C121.103 144.107 125.602 142.344 126.728 136.721C128.967 125.519 134.943 102.618 148.893 102.865C157.839 102.865 166.888 103.167 175.798 103.099C181.174 103.057 182.608 98.5011 182.513 93.6604C182.308 83.8692 182.396 74.0709 182.425 64.28C182.44 58.7813 183.318 53.3411 182.842 47.8277C182.14 39.6893 178.168 38.5193 170.311 38.651C162.543 38.7826 154.768 38.7754 146.998 38.7387C134.329 38.6729 120.804 36.4209 115.031 50.599C109.055 65.289 89.1364 123.283 89.1364 123.283H89.129Z" stroke="#2D2B24" stroke-width="6" stroke-miterlimit="10" stroke-linejoin="round"/>
<path d="M108.235 148.957L92.4804 143.621C90.2955 142.88 87.9243 144.051 87.1838 146.236L84.6597 153.679C83.9192 155.864 85.09 158.233 87.2747 158.974L103.028 164.31C105.214 165.051 107.585 163.88 108.326 161.696L110.85 154.251C111.589 152.068 110.419 149.697 108.235 148.957Z" stroke="#2D2B24" stroke-width="6" stroke-miterlimit="10" stroke-linejoin="round"/>
<path d="M201.821 47.5312H195.969C193.355 47.5312 191.238 49.6494 191.238 52.2622V84.618C191.238 87.2308 193.355 89.349 195.969 89.349H201.821C204.435 89.349 206.555 87.2308 206.555 84.618V52.2622C206.555 49.6494 204.435 47.5312 201.821 47.5312Z" stroke="#2D2B24" stroke-width="6" stroke-miterlimit="10" stroke-linejoin="round"/>
<path d="M4.44531 159.219C26.7633 179.699 75.8107 209.317 93.4564 163.944" stroke="black" stroke-width="4"/>
<path d="M31.2874 57.6157C30.9719 57.2528 30.6266 56.9561 30.2516 56.7257C29.8795 56.4877 29.4825 56.3201 29.0607 56.2227C28.644 56.123 28.2071 56.104 27.7499 56.1657C27.2904 56.2222 26.8221 56.3574 26.3451 56.5711C25.4896 56.9545 24.8226 57.5118 24.3442 58.243C23.8659 58.9741 23.6195 59.8441 23.6053 60.8529C23.594 61.8541 23.8522 62.9525 24.3801 64.148C24.9125 65.3539 25.5526 66.2904 26.3006 66.9577C27.0486 67.6249 27.856 68.0258 28.7228 68.1603C29.5873 68.2896 30.4655 68.1545 31.3573 67.7548C32.1662 67.3923 32.7973 66.9227 33.2507 66.346C33.7093 65.7669 33.9731 65.1194 34.0421 64.4036C34.1088 63.6826 33.9712 62.9349 33.6293 62.1604L34.3274 61.969L30.0031 63.9069L29.0049 61.6458L35.4679 58.7495L36.3147 60.6674C36.9183 62.0345 37.15 63.3471 37.0099 64.6053C36.8698 65.8635 36.4109 66.9906 35.6333 67.9866C34.8534 68.9774 33.805 69.7679 32.488 70.3581C31.0207 71.0157 29.5865 71.263 28.1855 71.1002C26.7873 70.9298 25.5075 70.3733 24.346 69.4306C23.1874 68.4804 22.2364 67.1633 21.4928 65.4793C20.9237 64.1902 20.5969 62.9576 20.5123 61.7814C20.433 60.6028 20.5665 59.5126 20.9129 58.5106C21.257 57.5034 21.7909 56.6166 22.5146 55.8502C23.236 55.0786 24.1178 54.4593 25.1599 53.9923C26.0414 53.5973 26.9206 53.3589 27.7975 53.2772C28.6721 53.1904 29.5094 53.251 30.3093 53.4591C31.1144 53.6649 31.8523 54.0066 32.5228 54.4844C33.1934 54.9622 33.7615 55.5668 34.2273 56.2982L31.2874 57.6157ZM41.8237 65.9129L36.5364 53.9372L39.2663 52.7138L40.1475 54.7098L40.272 54.654C40.1845 53.8651 40.3226 53.165 40.6863 52.5538C41.0528 51.935 41.5783 51.4723 42.2627 51.1656C42.4182 51.0959 42.5954 51.0258 42.7941 50.9554C42.9957 50.8775 43.1671 50.8225 43.3082 50.7904L44.4544 53.3867C44.3168 53.3986 44.1115 53.447 43.8385 53.532C43.5684 53.6095 43.3141 53.7016 43.0755 53.8085C42.5622 54.0386 42.1501 54.3571 41.8392 54.7642C41.5311 55.1637 41.3465 55.6107 41.2853 56.1051C41.2241 56.5995 41.3059 57.1014 41.5308 57.6108L44.6392 64.6511L41.8237 65.9129ZM53.8377 60.8184C53.0807 61.1576 52.3392 61.328 51.6133 61.3296C50.8902 61.3237 50.2342 61.132 49.6452 60.7547C49.0615 60.375 48.5963 59.7927 48.2498 59.0078C47.9515 58.3321 47.8292 57.7176 47.883 57.1643C47.9369 56.6109 48.1204 56.1053 48.4337 55.6473C48.7471 55.1894 49.1435 54.772 49.6231 54.3952C50.1055 54.0109 50.6233 53.6574 51.1765 53.3348C51.8444 52.9484 52.3834 52.629 52.7937 52.3766C53.2017 52.119 53.4767 51.8837 53.6187 51.6707C53.7635 51.4501 53.7763 51.2047 53.6569 50.9344L53.6363 50.8876C53.377 50.3003 53.0025 49.9233 52.5128 49.7568C52.0231 49.5902 51.4516 49.6533 50.7983 49.946C50.1087 50.2551 49.6283 50.651 49.3569 51.1337C49.0908 51.6141 48.9784 52.0909 49.0197 52.5643L46.2256 53.3681C46.1118 52.5475 46.1855 51.786 46.4468 51.0836C46.7058 50.3761 47.1262 49.7456 47.7079 49.1923C48.2874 48.6338 48.9945 48.1674 49.8293 47.7933C50.4048 47.5354 51.0076 47.3462 51.6376 47.2258C52.2676 47.1053 52.8874 47.0953 53.4969 47.1957C54.1041 47.2909 54.6673 47.5397 55.1866 47.9421C55.711 48.3422 56.1488 48.9398 56.4999 49.7351L60.0386 57.75L57.332 58.963L56.6057 57.3179L56.5123 57.3597C56.4881 57.769 56.3847 58.1889 56.2021 58.6194C56.0224 59.0424 55.7383 59.4468 55.3496 59.8327C54.9639 60.211 54.4599 60.5396 53.8377 60.8184ZM53.6532 58.4169C54.2183 58.1636 54.659 57.8322 54.9751 57.4229C55.2889 57.0083 55.4747 56.5639 55.5324 56.0897C55.5953 55.6133 55.5293 55.1541 55.3342 54.7123L54.7112 53.3011C54.6551 53.4134 54.5346 53.5483 54.3496 53.706C54.1697 53.8613 53.9605 54.0204 53.7219 54.1834C53.4833 54.3464 53.245 54.503 53.007 54.6532C52.769 54.8034 52.5624 54.9334 52.3872 55.043C51.9925 55.2884 51.6579 55.5504 51.3834 55.8291C51.1089 56.1077 50.9274 56.407 50.8388 56.7269C50.748 57.0415 50.7828 57.3808 50.9435 57.7447C51.173 58.2644 51.5355 58.572 52.031 58.6675C52.5266 58.763 53.0673 58.6794 53.6532 58.4169ZM63.5475 41.8324L64.5114 44.0154L57.6439 47.0931L56.68 44.91L63.5475 41.8324ZM57.1088 41.281L59.9242 40.0193L64.888 51.2621C65.0555 51.6415 65.241 51.907 65.4446 52.0586C65.6511 52.2027 65.8663 52.2681 66.0902 52.2549C66.3142 52.2417 66.5429 52.1828 66.7762 52.0783C66.9525 51.9993 67.1075 51.9142 67.2412 51.8232C67.3801 51.7298 67.4838 51.6553 67.5524 51.5997L69.001 53.5935C68.8736 53.7129 68.6836 53.8665 68.4312 54.0543C68.1839 54.2398 67.863 54.4273 67.4683 54.6166C66.7723 54.9534 66.0901 55.1315 65.4217 55.1508C64.751 55.165 64.1395 54.997 63.5874 54.6467C63.0404 54.2941 62.6043 53.7424 62.2791 52.9916L57.1088 41.281ZM71.1895 52.7528L65.9022 40.7772L68.7176 39.5155L74.0049 51.4911L71.1895 52.7528ZM66.5672 38.4432C66.1213 38.643 65.6722 38.6668 65.22 38.5146C64.7654 38.3572 64.4452 38.068 64.2593 37.647C64.0711 37.2207 64.0724 36.7875 64.263 36.3471C64.4514 35.9016 64.7685 35.5789 65.2144 35.3791C65.6655 35.1769 66.1158 35.1557 66.5651 35.3155C67.0174 35.4677 67.3376 35.7569 67.5258 36.1831C67.7117 36.6041 67.7105 37.0374 67.5221 37.4829C67.3366 37.9209 67.0183 38.241 66.5672 38.4432ZM82.4522 37.1522L80.0095 38.583C79.8222 38.3557 79.5873 38.1683 79.3048 38.0209C79.0276 37.8712 78.7076 37.7936 78.3449 37.788C77.9822 37.7825 77.5831 37.8773 77.1476 38.0725C76.5617 38.335 76.1253 38.6831 75.8385 39.1167C75.5569 39.548 75.5082 39.9652 75.6924 40.3683C75.841 40.7189 76.0931 40.9452 76.4487 41.0473C76.8095 41.1471 77.3242 41.1313 77.9928 40.9998L80.2233 40.5232C81.4615 40.261 82.4724 40.2718 83.2561 40.5556C84.0449 40.8372 84.6313 41.4056 85.0151 42.2609C85.3427 43.0169 85.4161 43.781 85.2353 44.5531C85.0573 45.3177 84.6558 46.0331 84.0307 46.6993C83.4056 47.3654 82.5953 47.9216 81.5998 48.3677C80.1377 49.023 78.8253 49.2437 77.6627 49.0301C76.4978 48.8112 75.5865 48.1891 74.9289 47.1639L77.5573 45.6684C77.9204 46.1533 78.365 46.4428 78.891 46.537C79.4171 46.6313 80.0042 46.5331 80.6523 46.2427C81.3212 45.943 81.797 45.5647 82.0798 45.108C82.3678 44.6489 82.4223 44.2167 82.2433 43.8113C82.0918 43.4682 81.8345 43.2442 81.4714 43.1392C81.1135 43.0319 80.6333 43.0416 80.031 43.1684L77.8039 43.6527C76.5525 43.9271 75.5269 43.9042 74.7272 43.584C73.9251 43.2585 73.3339 42.658 72.9536 41.7825C72.6225 41.0467 72.5399 40.3179 72.7056 39.5961C72.8743 38.8668 73.2562 38.1913 73.8513 37.5697C74.4492 36.9407 75.2252 36.4123 76.1793 35.9848C77.5792 35.3574 78.813 35.1625 79.8806 35.4001C80.9533 35.6354 81.8105 36.2194 82.4522 37.1522Z" fill="black"/>
<path d="M93.9648 29.7656C95.5314 29.7656 96.8134 31.046 96.8135 32.6396C96.8135 34.2334 95.5314 35.5137 93.9648 35.5137C92.3985 35.5134 91.1172 34.2333 91.1172 32.6396C91.1173 31.0461 92.3985 29.7659 93.9648 29.7656Z" stroke="black" stroke-width="2"/>
<path d="M88.4976 17.5868L107.177 26.3403L102.312 48.0106L22.0226 84.6654L8.14606 54.27L88.4976 17.5868Z" stroke="#030302" stroke-width="4"/>
</svg>
