<svg width="25" height="25" viewBox="0 0 25 25" fill="none" xmlns="http://www.w3.org/2000/svg">
<path d="M13.5015 11.0027L19.7515 4.7527M21.0015 6.0027L18.5015 3.5027L21.6265 1.6277L22.8765 2.8777L21.0015 6.0027ZM2.28278 8.47145C1.68265 7.87185 1.26978 7.11069 1.09445 6.28067C0.919127 5.45064 0.988901 4.58754 1.29528 3.79645L3.07278 5.57395H5.57278V3.07395L3.79528 1.29645C4.58642 0.989376 5.4498 0.919026 6.28022 1.09397C7.11063 1.26891 7.87225 1.6816 8.47226 2.28175C9.07228 2.8819 9.4848 3.6436 9.65956 4.47406C9.83432 5.30452 9.76378 6.16788 9.45653 6.95895L17.544 15.0477C18.3351 14.7405 19.1985 14.6699 20.0289 14.8447C20.8594 15.0194 21.6211 15.432 22.2212 16.032C22.8214 16.632 23.2341 17.3936 23.409 18.224C23.584 19.0544 23.5136 19.9178 23.2065 20.7089L21.4303 18.9315H18.9303V21.4314L20.7078 23.2089C19.9168 23.516 19.0537 23.5865 18.2234 23.4117C17.3931 23.237 16.6316 22.8246 16.0315 22.2248C15.4314 21.625 15.0187 20.8636 14.8436 20.0334C14.6685 19.2032 14.7386 18.34 15.0453 17.5489L6.95528 9.45895C6.16452 9.7648 5.30193 9.8343 4.47241 9.65898C3.64288 9.48367 2.88217 9.0711 2.28278 8.47145Z" stroke="#2D2B24" stroke-width="1.5" stroke-linecap="round" stroke-linejoin="round"/>
<path d="M12.5061 15.3788L5.50109 22.3838C5.34435 22.5408 5.15818 22.6654 4.95324 22.7504C4.74829 22.8354 4.52859 22.8791 4.30672 22.8791C4.08484 22.8791 3.86515 22.8354 3.6602 22.7504C3.45526 22.6654 3.26908 22.5408 3.11234 22.3838L2.12234 21.3938C1.96531 21.237 1.84072 21.0508 1.75571 20.8459C1.67071 20.6409 1.62695 20.4213 1.62695 20.1994C1.62695 19.9775 1.67071 19.7578 1.75571 19.5529C1.84072 19.3479 1.96531 19.1617 2.12234 19.005L9.12734 12" stroke="#2D2B24" stroke-width="1.5" stroke-linecap="round" stroke-linejoin="round"/>
</svg>
