<svg width="30" height="30" viewBox="0 0 30 30" fill="none" xmlns="http://www.w3.org/2000/svg">
<path d="M17.9943 13.7657C17.9943 14.55 17.6788 15.3022 17.1173 15.8567C16.5558 16.4113 15.7943 16.7229 15.0002 16.7229C14.2061 16.7229 13.4446 16.4113 12.883 15.8567C12.3215 15.3022 12.0061 14.55 12.0061 13.7657C12.0061 12.9814 12.3215 12.2293 12.883 11.6747C13.4446 11.1202 14.2061 10.8086 15.0002 10.8086C15.7943 10.8086 16.5558 11.1202 17.1173 11.6747C17.6788 12.2293 17.9943 12.9814 17.9943 13.7657Z" stroke="#2D2B24" stroke-linecap="round" stroke-linejoin="round"/>
<path d="M23.0522 9.56844L22.623 8.82916C22.2987 8.27124 22.136 7.99129 21.8595 7.87992C21.5831 7.76853 21.2707 7.85626 20.6459 8.03269L19.584 8.3284C19.1848 8.42007 18.7656 8.36785 18.4024 8.18252L18.109 8.01494C17.7962 7.8159 17.556 7.52338 17.4233 7.18006L17.1329 6.32051C16.9413 5.75078 16.8464 5.46591 16.6189 5.30327C16.3913 5.14062 16.0899 5.14062 15.4851 5.14062H14.515C13.9112 5.14062 13.6088 5.14062 13.3813 5.30327C13.1537 5.46591 13.0589 5.75078 12.8673 6.32051L12.5778 7.18006C12.4449 7.52353 12.2043 7.81605 11.8912 8.01494L11.5978 8.18252C11.2335 8.36785 10.8153 8.41909 10.4161 8.3284L9.35422 8.03269C8.72944 7.85626 8.41605 7.76853 8.14059 7.87992C7.86415 7.99129 7.70148 8.27124 7.3771 8.82916L6.94796 9.56844C6.64355 10.0919 6.49085 10.354 6.52079 10.633C6.55073 10.912 6.75334 11.1357 7.16152 11.5852L8.05876 12.5798C8.27832 12.8548 8.43303 13.3338 8.43303 13.7656C8.43303 14.1973 8.27733 14.6764 8.05876 14.9514L7.16054 15.946C6.75334 16.3954 6.54974 16.6192 6.52079 16.8982C6.49187 17.1771 6.64355 17.4393 6.94796 17.9627L7.3771 18.702C7.70148 19.2599 7.86415 19.5399 8.14059 19.6512C8.41707 19.7626 8.72944 19.6749 9.35422 19.4985L10.4161 19.2028C10.8153 19.1111 11.2345 19.1633 11.5978 19.3486L11.8912 19.5162C12.2036 19.7144 12.4441 20.0071 12.5769 20.3511L12.8673 21.2107C13.0589 21.7804 13.1537 22.0653 13.3813 22.2279C13.6088 22.3906 13.9102 22.3906 14.515 22.3906H15.4851C16.0889 22.3906 16.3913 22.3906 16.6189 22.2279C16.8464 22.0653 16.9413 21.7804 17.1329 21.2107L17.4233 20.3511C17.5553 20.0074 17.7957 19.7148 18.109 19.5162L18.4024 19.3486C18.7663 19.1631 19.1851 19.1115 19.584 19.2028L20.6459 19.4985C21.2707 19.6749 21.5841 19.7626 21.8595 19.6512C22.136 19.5399 22.2987 19.2599 22.623 18.702L23.0522 17.9627C23.3566 17.4393 23.5093 17.1771 23.4793 16.8982C23.4494 16.6192 23.2468 16.3954 22.8386 15.946L21.9414 14.9514C21.7218 14.6754 21.5671 14.1973 21.5671 13.7656C21.5671 13.3348 21.7228 12.8548 21.9414 12.5798L22.8396 11.5852C23.2468 11.1357 23.4504 10.912 23.4793 10.633C23.5083 10.354 23.3576 10.0919 23.0522 9.56844Z" stroke="#2D2B24" stroke-linecap="round" stroke-linejoin="round"/>
<path d="M24.9804 20.9141C24.9804 21.8308 24.9804 22.2891 24.8786 22.6647C24.7426 23.1663 24.4753 23.6237 24.1035 23.9908C23.7318 24.358 23.2687 24.622 22.7608 24.7563C22.3815 24.8569 21.9164 24.8569 20.9883 24.8569H9.01189C8.08372 24.8569 7.61964 24.8569 7.23939 24.7563C6.73153 24.622 6.2684 24.358 5.89665 23.9908C5.52488 23.6237 5.25756 23.1663 5.12157 22.6647C5.01978 22.2901 5.01978 21.8308 5.01978 20.9141" stroke="#2D2B24" stroke-linecap="round" stroke-linejoin="round"/>
</svg>
