<svg width="195" height="195" viewBox="0 0 195 195" fill="none" xmlns="http://www.w3.org/2000/svg">
<g clip-path="url(#clip0_3445_20682)">
<path d="M97.25 192.211C149.717 192.211 192.25 149.678 192.25 97.2109C192.25 44.7439 149.717 2.21094 97.25 2.21094C44.783 2.21094 2.25 44.7439 2.25 97.2109C2.25 149.678 44.783 192.211 97.25 192.211Z" fill="#FDFDFC" stroke="#2D2B24" stroke-width="4" stroke-miterlimit="10" stroke-linejoin="round"/>
<path d="M126.829 34H122.629C120.753 34 119.232 35.5208 119.232 37.3968V60.6284C119.232 62.5044 120.753 64.0251 122.629 64.0251H126.829C128.705 64.0251 130.226 62.5044 130.226 60.6284V37.3968C130.226 35.5208 128.705 34 126.829 34Z" stroke="#2D2B24" stroke-width="4" stroke-miterlimit="10" stroke-linejoin="round"/>
<path d="M97.3961 38.4609L87.2109 47.9321L92.3035 50.7934L88.8175 59.5505L99.7219 49.9008L94.5348 46.6826L97.3961 38.4609Z" fill="#2D2B24" stroke="#2D2B24" stroke-width="2" stroke-miterlimit="10" stroke-linejoin="round"/>
<path d="M49.4375 87.0097C49.4375 87.0097 46.0407 93.9818 54.2624 95.9453C59.2814 97.1476 63.765 99.6729 68.6685 100.975C72.3856 101.962 75.6144 100.697 76.4229 96.6593C78.0294 88.6162 82.3187 72.173 92.3306 72.3515C98.7514 72.3515 105.246 72.5668 111.64 72.5195C115.499 72.488 116.528 69.2172 116.46 65.7417C116.313 58.7118 116.376 51.6768 116.397 44.6469C116.407 40.6989 117.037 36.7928 116.696 32.8343C116.192 26.9909 113.341 26.1509 107.703 26.2454C102.127 26.3399 96.5464 26.3347 90.9708 26.3084C81.8777 26.2612 72.1704 24.6441 68.0281 34.824C63.7387 45.3714 49.4428 87.0097 49.4428 87.0097H49.4375Z" stroke="#2D2B24" stroke-width="4" stroke-miterlimit="10" stroke-linejoin="round"/>
<path d="M64.0791 104.558L52.9097 100.342C51.3608 99.7576 49.6311 100.539 49.0464 102.088L47.0533 107.368C46.4686 108.917 47.2504 110.647 48.7994 111.231L59.9688 115.447C61.5177 116.032 63.2474 115.25 63.8321 113.701L65.8251 108.421C66.4098 106.872 65.6281 105.143 64.0791 104.558Z" stroke="#2D2B24" stroke-width="4" stroke-miterlimit="10" stroke-linejoin="round"/>
<path d="M52.2622 116.445C52.2622 116.445 37.9767 171.938 2.25 105.734" stroke="#2D2B24" stroke-width="4" stroke-miterlimit="10" stroke-linejoin="round"/>
<path d="M160.121 25.8047V134.23M160.121 130.026V169.474" stroke="#2D2B24"/>
<path d="M71.1133 6.27344V28.5215M71.1133 101.621V190.613" stroke="#2D2B24" stroke-width="2"/>
<path d="M114.02 4.15625V26.9336M114.02 71.9592V86.3936M114.02 143.648V191.129" stroke="#2D2B24"/>
<path d="M92.7656 2.38281V26.8962M92.7656 73.3581V135.444M92.7656 134.903V192.391" stroke="#2D2B24"/>
<path d="M136.105 11.25V85.3855M136.105 146.123V184.264" stroke="#2D2B24"/>
<path d="M117.262 27.2578H135.563" stroke="#2D2B24"/>
<path d="M71.4844 166.547H92.4258" stroke="#2D2B24"/>
<path d="M92.4258 178.234H114.342" stroke="#2D2B24"/>
<path d="M114.02 167.523H136.105" stroke="#2D2B24"/>
<path d="M137.02 41.1641H160.776" stroke="#2D2B24"/>
<path d="M161.146 58.9844H183.79" stroke="#2D2B24"/>
<path d="M136.275 71.6016H160.775" stroke="#2D2B24"/>
<path d="M160.033 93.1328H192.699" stroke="#2D2B24"/>
<path d="M160.404 133.969H185.646" stroke="#2D2B24"/>
<path d="M71.3145 130.258H92.7646" stroke="#2D2B24"/>
<path d="M80.2227 90.5364L92.7643 90.4922" stroke="#2D2B24"/>
<path d="M131.82 54.5234H136.274" stroke="#2D2B24"/>
<path d="M182.449 53.4141V143.246" stroke="#2D2B24"/>
<path d="M125.697 139.924C139.845 139.924 151.315 128.452 151.315 114.302C151.315 100.151 139.845 88.6797 125.697 88.6797C111.549 88.6797 100.08 100.151 100.08 114.302C100.08 128.452 111.549 139.924 125.697 139.924Z" stroke="#2D2B24" stroke-width="2.4" stroke-miterlimit="10"/>
<path d="M127.654 139.922C127.654 140.946 126.606 141.777 125.315 141.777C124.025 141.777 122.977 140.946 122.977 139.922" stroke="#2D2B24" stroke-width="2.4" stroke-miterlimit="10"/>
<mask id="mask0_3445_20682" style="mask-type:luminance" maskUnits="userSpaceOnUse" x="106" y="104" width="40" height="24">
<path d="M145.431 104.359H106.133V127.18H145.431V104.359Z" fill="white"/>
</mask>
<g mask="url(#mask0_3445_20682)">
<path fill-rule="evenodd" clip-rule="evenodd" d="M116.787 108.245C116.828 108.156 116.859 108.072 116.903 107.995C117.004 107.817 117.218 107.433 117.417 107.189C117.617 106.945 117.851 106.724 118.099 106.534C118.348 106.345 118.622 106.187 118.903 106.061C119.186 105.935 119.738 105.785 119.793 105.774C120.195 105.691 120.686 105.645 121.088 105.645C121.547 105.645 122.07 105.705 122.744 105.857C123.039 105.923 123.304 106.006 123.559 106.104C123.559 106.104 123.645 105.949 123.712 105.877C123.842 105.728 124.14 105.427 124.388 105.243C124.634 105.06 124.911 104.899 125.195 104.773C125.475 104.646 126.082 104.488 126.082 104.488C126.492 104.402 126.911 104.359 127.339 104.359C127.767 104.359 128.339 104.423 129.007 104.572C129.796 104.75 130.351 105.034 130.978 105.461C132.041 106.187 132.374 107.596 131.752 108.715L131.851 108.77C131.851 108.77 132.174 108.44 132.359 108.305C132.562 108.159 132.825 108.006 133.059 107.889C133.287 107.774 133.521 107.668 133.767 107.602C134.224 107.484 134.776 107.43 135.252 107.43C135.698 107.43 136.267 107.484 136.946 107.654C137.394 107.765 137.77 107.897 138.137 108.075L138.154 108.064C138.154 108.064 138.726 107.757 139.039 107.674C139.429 107.57 139.877 107.47 140.495 107.444C141.01 107.421 142.015 107.522 142.553 107.682C143.25 107.889 143.643 108.038 144.31 108.477C145.293 109.123 145.689 110.365 145.261 111.456C145.013 112.093 144.605 113.324 144.154 114.646C143.677 116.044 143.224 117.349 142.617 119.011C141.937 120.87 141.209 122.468 140.313 123.831C139.082 125.705 137.651 126.626 136.007 126.994C135.31 127.149 134.816 127.22 134.013 127.149C133.57 127.111 132.911 126.948 132.455 126.758C132.021 126.58 131.567 126.25 131.264 126.012C131.021 125.823 130.822 125.582 130.637 125.338C130.449 125.094 130.276 124.827 130.137 124.549C129.992 124.262 129.856 123.941 129.776 123.616C129.689 123.272 129.619 122.621 129.622 122.477C128.692 123.002 127.443 123.464 126.469 123.605C125.206 123.788 124.738 123.774 123.894 123.656C123.27 123.57 122.455 123.22 122.455 123.22C122.302 123.369 122.143 123.513 121.978 123.651C120.767 124.669 119.356 125.019 118.573 125.065C118.463 125.071 118.157 125.074 117.998 125.054C117.729 125.019 117.278 124.922 116.943 124.781C116.579 124.629 116.145 124.411 115.807 124.144C115.469 123.877 115.125 123.464 114.917 123.186C114.761 122.974 114.57 122.477 114.57 122.477C113.793 122.764 112.888 122.91 112.299 122.91C111.596 122.91 110.929 122.899 109.94 122.54C108.816 122.133 107.674 121.26 107.067 120.184C106.536 119.246 106.137 117.877 106.137 116.382C106.137 115.625 106.238 114.784 106.455 113.863C106.677 112.913 107.062 111.969 107.616 111.039C108.221 110.029 108.989 109.166 109.903 108.529C110.903 107.831 112.018 107.306 113.354 107.223C114.715 107.14 115.854 107.556 116.761 108.213C116.77 108.219 116.778 108.227 116.79 108.233L116.787 108.245Z" fill="#473400"/>
<path d="M135.461 124.583C135.031 124.677 134.727 124.732 134.23 124.689C133.857 124.657 133.308 124.511 132.924 124.169C132.493 123.791 132.126 123.151 132.117 122.511C132.253 122.726 132.597 123.148 133.444 123.22C133.895 123.257 134.643 123.056 135.048 122.585C135.421 122.155 135.62 121.776 136.14 120.583C136.496 119.768 136.646 119.36 136.976 118.408C136.73 118.786 136.594 118.97 136.308 119.286C135.531 120.141 134.785 120.474 134.097 120.482C133.406 120.491 132.487 120 132.169 119.343C131.895 118.772 131.791 118.155 131.773 117.369C131.768 117.131 131.791 116.783 131.848 116.192C131.906 115.601 132.062 114.775 132.369 113.716C132.675 112.657 132.97 111.659 133.377 110.867C133.611 110.41 134.039 110.149 134.427 110.043C134.678 109.974 134.99 109.94 135.253 109.94C135.539 109.94 135.903 109.974 136.337 110.083C136.773 110.192 137.097 110.333 137.473 110.577C137.216 111.004 136.906 111.659 136.519 112.519C136.132 113.38 135.779 114.293 135.458 115.254C135.137 116.215 134.918 117.047 134.794 117.745C134.753 117.989 134.733 118.189 134.733 118.353C134.733 118.717 134.872 118.901 135.054 118.901C135.409 118.901 135.886 118.502 136.392 117.702C136.895 116.901 137.276 116.006 137.672 114.958C138.068 113.908 138.296 113.122 138.487 112.473C138.632 111.986 138.814 111.303 138.953 110.872C139.097 110.422 139.299 110.221 139.823 110.049C140.074 109.966 140.273 109.954 140.609 109.94C140.918 109.925 141.519 109.98 141.843 110.075C142.276 110.204 142.522 110.29 142.938 110.562C142.681 111.22 142.259 112.491 141.791 113.859C141.32 115.243 140.872 116.531 140.27 118.175C139.666 119.834 139.025 121.266 138.224 122.482C137.424 123.696 136.531 124.342 135.464 124.58L135.461 124.583Z" fill="#FFD768"/>
<path d="M112.3 120.428C111.852 120.428 111.424 120.437 110.794 120.21C110.193 119.992 109.568 119.547 109.245 118.973C108.883 118.336 108.635 117.404 108.635 116.391C108.635 115.803 108.719 115.154 108.886 114.44C109.054 113.725 109.346 113.019 109.765 112.319C110.181 111.622 110.707 111.013 111.337 110.574C111.967 110.132 112.661 109.768 113.505 109.716C114.216 109.673 114.811 109.889 115.282 110.233C115.756 110.577 116.083 111.013 116.268 111.538C116.38 111.851 116.435 112.173 116.435 112.497C116.435 112.721 116.389 113.088 116.317 113.366C116.132 114.089 115.635 114.698 115.129 115.039C114.667 115.349 114.317 115.504 113.808 115.607C113.563 115.656 113.12 115.685 112.843 115.685C112.528 115.685 112.297 115.653 112.051 115.616C111.909 116.164 111.88 116.422 111.88 116.899C111.88 117.143 111.866 117.493 111.964 117.946C112.063 118.396 112.334 118.887 112.866 118.988C113.089 119.031 113.314 119.039 113.537 119.016C113.785 118.99 114.143 118.893 114.589 118.663C115.051 118.425 115.58 117.96 115.956 117.493C116.401 116.939 116.941 115.952 117.256 115.346C117.357 115.174 117.435 115.045 117.485 114.959C117.537 114.873 117.577 114.83 117.606 114.83C117.658 114.83 117.681 114.884 117.681 114.996C117.609 115.817 117.334 116.638 116.857 117.458C116.511 118.075 116.169 118.603 115.638 119.036C114.982 119.57 114.343 119.906 113.701 120.144C113.219 120.322 112.658 120.425 112.291 120.425L112.3 120.428ZM112.776 114.867C113.248 114.853 113.97 114.594 114.354 114.267C114.739 113.94 115.071 113.493 115.08 112.896C115.08 112.735 115.057 112.511 114.941 112.305C114.834 112.11 114.56 111.963 114.343 112.009C114.091 112.061 113.742 112.253 113.427 112.617C113.112 112.982 112.831 113.447 112.586 114.015C112.493 114.198 112.357 114.612 112.291 114.81C112.291 114.81 112.58 114.873 112.774 114.867H112.776Z" fill="#FFD768"/>
<path d="M118.467 122.608H118.406C117.562 122.516 117.007 122.08 116.742 121.302C116.568 120.777 116.481 120.169 116.481 119.48C116.481 118.214 116.863 116.301 117.259 114.757C117.704 113.024 118.551 110.346 119.158 109.081C119.363 108.653 119.773 108.335 120.302 108.223C120.548 108.171 120.843 108.148 121.088 108.148C121.395 108.148 121.742 108.2 122.19 108.301C122.638 108.401 122.976 108.57 123.34 108.814C123.158 109.158 122.794 109.933 122.265 111.164C121.736 112.395 121.201 113.755 120.661 115.25C120.12 116.745 119.713 118.054 119.438 119.176C119.305 119.724 119.239 120.154 119.239 120.467C119.239 120.843 119.334 121.029 119.528 121.029C119.834 121.029 120.184 120.811 120.58 120.375C121.129 119.747 122.256 117.942 122.565 117.305C122.632 117.167 122.768 116.952 122.825 116.926C122.88 116.897 122.901 117.029 122.901 117.138C122.828 117.968 122.551 118.808 122.068 119.661C121.586 120.513 121.013 121.216 120.351 121.773C119.69 122.329 119.059 122.608 118.458 122.608H118.467Z" fill="#FFD768"/>
<path d="M126.105 121.15C125.189 121.282 124.848 121.285 124.238 121.199C123.443 121.09 122.677 120.645 122.455 119.865C122.333 119.44 122.272 118.964 122.272 118.436C122.272 117.15 122.524 115.583 123.218 113.457C123.879 111.403 124.868 108.866 125.431 107.776C125.651 107.351 126.053 107.035 126.593 106.926C126.839 106.875 127.088 106.852 127.342 106.852C127.637 106.852 128.009 106.903 128.457 107.004C128.905 107.104 129.215 107.276 129.57 107.52C129.423 107.781 129.157 108.324 128.726 109.167C128.293 110.014 127.825 110.998 127.313 112.123C128.128 111.202 128.848 110.694 129.619 110.694C130.955 110.697 131.778 111.618 131.816 113.199C131.819 113.359 131.813 113.664 131.796 114.022C131.773 114.458 131.616 115.388 131.405 116.042C131.174 116.763 130.859 117.621 130.405 118.349C129.952 119.078 129.371 119.667 128.709 120.126C128.047 120.588 126.94 121.03 126.114 121.15H126.105ZM125.319 119.781C125.744 119.784 126.33 119.334 126.772 118.748C127.186 118.197 127.562 117.463 127.81 116.757C128.082 115.985 128.356 114.82 128.405 114.123C128.423 113.87 128.417 113.506 128.325 113.285C128.258 113.124 128.14 112.943 127.871 112.943C127.602 112.943 127.299 113.207 126.923 113.695C126.55 114.18 126.151 114.886 125.882 115.526C125.457 116.547 125.128 117.799 125.009 118.651C124.929 119.228 124.952 119.781 125.316 119.784L125.319 119.781Z" fill="#FFD768"/>
</g>
<path d="M125.52 145.79C142.576 145.79 156.403 131.963 156.403 114.907C156.403 97.8504 142.576 84.0234 125.52 84.0234C108.464 84.0234 94.6367 97.8504 94.6367 114.907C94.6367 131.963 108.464 145.79 125.52 145.79Z" stroke="#2D2B24" stroke-width="2"/>
<path d="M136.227 145.641H160.7" stroke="#2D2B24"/>
</g>
<defs>
<clipPath id="clip0_3445_20682">
<rect width="195" height="195" fill="white"/>
</clipPath>
</defs>
</svg>
