<svg width="60" height="60" viewBox="0 0 60 60" fill="none" xmlns="http://www.w3.org/2000/svg">
<path d="M28.9998 4.51302V24.5562C28.9998 25.4193 28.3289 26.1161 27.498 26.1161H5.41006C4.57915 26.1161 3.9082 26.813 3.9082 27.676V55.4726C3.9082 56.3356 4.57915 57.0325 5.41006 57.0325H54.5891C55.4201 57.0325 56.091 56.3356 56.091 55.4726V4.51302C56.091 3.65 55.4201 2.95312 54.5891 2.95312H30.5017C29.6708 2.95312 28.9998 3.65 28.9998 4.51302Z" stroke="#030302" stroke-width="1.5" stroke-miterlimit="10"/>
<path d="M38.8504 13.0859H34.6914V17.4056H38.8504V13.0859Z" stroke="#030302" stroke-width="1.5" stroke-miterlimit="10"/>
<path d="M50.1941 13.0859H46.0352V17.4056H50.1941V13.0859Z" stroke="#030302" stroke-width="1.5" stroke-miterlimit="10"/>
<path d="M50.1941 25.2188H46.0352V29.5385H50.1941V25.2188Z" stroke="#030302" stroke-width="1.5" stroke-miterlimit="10"/>
<path d="M38.8504 25.2188H34.6914V29.5385H38.8504V25.2188Z" stroke="#030302" stroke-width="1.5" stroke-miterlimit="10"/>
<path d="M38.8504 37.3047H34.6914V41.6244H38.8504V37.3047Z" stroke="#030302" stroke-width="1.5" stroke-miterlimit="10"/>
<path d="M50.1941 37.3047H46.0352V41.6244H50.1941V37.3047Z" stroke="#030302" stroke-width="1.5" stroke-miterlimit="10"/>
<path d="M27.4326 35.9922H14.7246V57.0461H27.4326V35.9922Z" stroke="#030302" stroke-width="1.5" stroke-miterlimit="10"/>
</svg>
