<svg width="31" height="31" viewBox="0 0 31 31" fill="none" xmlns="http://www.w3.org/2000/svg">
<path d="M11.842 13.1166V8.09375M18.5384 13.1166V8.09375M9.02197 13.1166H21.3563V16.438C21.3563 18.0737 20.7065 19.6423 19.5499 20.7989C18.3934 21.9554 16.8247 22.6052 15.1891 22.6052C13.5535 22.6052 11.9849 21.9554 10.8283 20.7989C9.67172 19.6423 9.02197 18.0737 9.02197 16.438V13.1166Z" stroke="#1E1E1E" stroke-width="1.5" stroke-linecap="round" stroke-linejoin="round"/>
<path d="M15.1891 22.6049V27.1585C15.1891 28.3413 16.1534 29.3185 17.3234 29.1321C20.6395 28.5864 23.6294 26.8143 25.7 24.1673C27.7707 21.5203 28.7709 18.1918 28.5023 14.8419C28.2337 11.4919 26.7158 8.36532 24.2498 6.08212C21.7838 3.79892 18.5498 2.52593 15.1891 2.51563C12.24 2.51453 9.37291 3.48689 7.03289 5.28182C4.69287 7.07674 3.01073 9.59385 2.24752 12.4425C1.4843 15.2912 1.6827 18.3121 2.81191 21.0365C3.94112 23.7609 5.93801 26.0364 8.49268 27.5099" stroke="#1E1E1E" stroke-width="1.5" stroke-linecap="round" stroke-linejoin="round"/>
</svg>
