<svg width="58" height="58" viewBox="0 0 58 58" fill="none" xmlns="http://www.w3.org/2000/svg">
<mask id="mask0_3355_20664" style="mask-type:luminance" maskUnits="userSpaceOnUse" x="0" y="0" width="58" height="58">
<path d="M58 0.4375H0V57.4544H58V0.4375Z" fill="white"/>
</mask>
<g mask="url(#mask0_3355_20664)">
<path d="M17.25 19.7422L29.5 30.0176L41.75 19.7422" stroke="#1E1E1E" stroke-width="2.5" stroke-linecap="round" stroke-linejoin="round"/>
<path d="M5 43.2299V13.8717C5 12.3144 5.51625 10.8209 6.43517 9.71977C7.3541 8.61862 8.60044 8 9.9 8H49.1C50.3995 8 51.6459 8.61862 52.5649 9.71977C53.4838 10.8209 54 12.3144 54 13.8717V43.2299C54 44.7872 53.4838 46.2806 52.5649 47.3818C51.6459 48.4829 50.3995 49.1016 49.1 49.1016H9.9C8.60044 49.1016 7.3541 48.4829 6.43517 47.3818C5.51625 46.2806 5 44.7872 5 43.2299Z" stroke="#1E1E1E" stroke-width="2.5"/>
</g>
</svg>
