<svg width="31" height="30" viewBox="0 0 31 30" fill="none" xmlns="http://www.w3.org/2000/svg">
<path d="M21.0222 25.245H16.8008L16.5372 25.2441H13.6421C12.5264 25.2441 11.4115 25.2441 10.2958 25.2459C10.0631 25.2459 9.90468 25.199 9.77904 25.094C9.6242 24.9647 9.55164 24.7954 9.54987 24.5603L9.54722 24.3355C9.54368 24.0422 9.54014 23.7384 9.55076 23.4425C9.55253 23.3826 9.55872 23.1995 9.42777 23.0667C9.30036 22.9374 9.12428 22.9374 9.06588 22.9374C9.05173 22.9374 9.03757 22.9374 9.02253 22.9383C8.89866 22.9435 8.76682 22.9461 8.63145 22.9461C8.50846 22.9461 8.38105 22.9443 8.24213 22.94C7.813 22.927 7.57499 22.6927 7.5741 22.2804C7.57145 21.3145 7.57145 20.3486 7.57233 19.3827C7.57233 18.4168 7.57233 17.45 7.57056 16.4841C7.56968 16.0059 7.56349 15.5208 7.55729 15.0513C7.55021 14.4941 7.54314 13.9179 7.54402 13.3521C7.54756 11.5122 7.55552 9.64203 7.56349 7.83345C7.56703 7.05412 7.57056 6.27393 7.57322 5.49461C7.57499 4.98866 7.81742 4.7526 8.33504 4.75174C9.65605 4.75087 10.9797 4.75087 12.3025 4.75087C13.5802 4.75087 14.8578 4.75087 16.1346 4.75C16.646 4.75 17.0645 4.91923 17.4149 5.2681C17.6759 5.52759 17.944 5.78707 18.2033 6.03875C18.4669 6.29389 18.7394 6.55772 19.0031 6.82067C19.1659 6.98296 19.3562 7.05846 19.6004 7.05846C20.0941 7.05586 20.5807 7.05499 21.0674 7.05499L22.8042 7.05586C23.0343 7.05586 23.1909 7.10359 23.3139 7.2112C23.4732 7.35093 23.5448 7.53491 23.5439 7.80741C23.5413 10.1601 23.5395 12.5137 23.5395 14.8665C23.5395 16.3027 23.5404 17.7399 23.5404 19.1762C23.5413 20.9578 23.5413 22.7404 23.5413 24.5221C23.5413 24.6063 23.5333 24.68 23.5174 24.7425C23.4351 25.0679 23.2113 25.2407 22.8706 25.2433C22.6052 25.2459 22.3406 25.2459 22.0752 25.2459L21.0222 25.245ZM10.2745 22.9409C9.86663 22.9409 9.74895 23.0563 9.74718 23.4538C9.7463 23.7792 9.74541 24.1046 9.7463 24.431C9.74718 24.9117 9.89937 25.0584 10.3949 25.0584H22.7007C23.1785 25.0584 23.3404 24.9022 23.3404 24.4388L23.344 14.935C23.344 14.5558 23.3449 14.1756 23.344 13.7964C23.3431 11.8134 23.3422 9.83036 23.3404 7.84733C23.3404 7.40994 23.1829 7.2546 22.7396 7.25286C22.407 7.25199 22.0743 7.25112 21.7407 7.25112C21.3487 7.25112 20.9568 7.25199 20.5639 7.25199H20.3976C20.3392 7.25199 20.2861 7.2572 20.2242 7.26414C20.195 7.26675 20.1631 7.27022 20.1251 7.27369L19.6366 7.31535L19.9392 7.69372C19.9596 7.71889 19.9746 7.73885 19.987 7.75534C20.0127 7.78832 20.0348 7.81696 20.064 7.84647C20.1481 7.92891 20.2321 8.01222 20.3162 8.09467C20.5453 8.32031 20.7816 8.55376 21.0205 8.78026C21.3815 9.12133 21.5558 9.52921 21.5558 10.0274C21.5531 11.5556 21.554 13.0839 21.5549 14.6122L21.5558 17.5559C21.5558 19.1137 21.5558 20.6706 21.5549 22.2284C21.5549 22.6935 21.301 22.94 20.8223 22.9417C20.6444 22.9426 20.4657 22.9426 20.2879 22.9426L10.2745 22.9409ZM8.41113 4.94613C7.9121 4.94613 7.75991 5.09714 7.75991 5.59181L7.75903 8.25435C7.75814 10.3172 7.75814 12.3801 7.75814 14.4421C7.75814 16.8859 7.75903 19.3306 7.75991 21.7745V22.132C7.75991 22.6015 7.91564 22.7517 8.39874 22.7517H14.8268L20.7435 22.7508C20.9152 22.7508 21.093 22.7404 21.2222 22.6128C21.3514 22.4861 21.3611 22.3125 21.3611 22.1468C21.3585 21.443 21.3549 20.7391 21.3514 20.0353C21.3452 18.7162 21.3381 17.3528 21.3372 16.012C21.3363 15.4609 21.3443 14.8994 21.3523 14.3562C21.3585 13.9101 21.3647 13.4493 21.3664 12.9945C21.3691 12.4209 21.3664 11.8377 21.3647 11.2736C21.3629 10.8266 21.3611 10.3797 21.362 9.93363C21.362 9.87201 21.362 9.68543 21.2169 9.55612C21.0992 9.45024 20.9479 9.43809 20.8444 9.43809C20.2905 9.44156 19.7446 9.4433 19.1987 9.4433C18.7253 9.4433 18.2519 9.44243 17.7786 9.44156L17.5034 9.44069C16.9858 9.43983 16.7442 9.20204 16.7433 8.69174C16.7424 8.2127 16.7424 7.73365 16.7424 7.2546C16.7424 6.68789 16.7424 6.12119 16.7416 5.55449C16.7416 5.51023 16.7424 5.47205 16.7442 5.43907C16.7486 5.31063 16.7531 5.17785 16.6433 5.06676C16.523 4.9444 16.3602 4.9444 16.1142 4.9444H11.4142L8.41113 4.94613ZM20.3887 9.24543C20.4126 9.2515 20.4383 9.25498 20.4666 9.25498C20.5692 9.25498 20.663 9.20811 20.717 9.12914C20.7692 9.05277 20.778 8.95644 20.7418 8.87052L20.7223 8.82452L20.6869 8.78894C20.1613 8.26129 19.6092 7.70501 19.0544 7.14698C18.5156 6.60458 17.9741 6.05958 17.4529 5.5354C17.3963 5.47812 17.3202 5.44688 17.2388 5.44688C17.1574 5.44688 17.0796 5.47986 17.0229 5.53627C16.9663 5.59354 16.9362 5.66991 16.9389 5.75062L16.9398 5.76538C16.9406 5.78621 16.9415 5.82265 16.9433 5.91378C16.9424 6.59504 16.9424 7.27976 16.9424 7.96449V8.72212C16.9424 9.04756 17.1495 9.24977 17.483 9.24977C17.8246 9.24977 18.7279 9.2489 18.7279 9.2489H18.9491C19.4163 9.2489 19.8835 9.2489 20.3507 9.24803C20.3639 9.24716 20.3772 9.2463 20.3887 9.24543Z" fill="#030302"/>
<mask id="mask0_4056_20887" style="mask-type:luminance" maskUnits="userSpaceOnUse" x="6" y="3" width="19" height="23">
<path d="M24.5439 3.75H6.54395V25.75H24.5439V3.75Z" fill="white"/>
<path d="M21.0222 25.245H16.8008L16.5372 25.2441H13.6421C12.5264 25.2441 11.4115 25.2441 10.2958 25.2459C10.0631 25.2459 9.90468 25.199 9.77904 25.094C9.6242 24.9647 9.55164 24.7954 9.54987 24.5603L9.54722 24.3355C9.54368 24.0422 9.54014 23.7384 9.55076 23.4425C9.55253 23.3826 9.55872 23.1995 9.42777 23.0667C9.30036 22.9374 9.12428 22.9374 9.06588 22.9374C9.05173 22.9374 9.03757 22.9374 9.02253 22.9383C8.89866 22.9435 8.76682 22.9461 8.63145 22.9461C8.50846 22.9461 8.38105 22.9443 8.24213 22.94C7.813 22.927 7.57499 22.6927 7.5741 22.2804C7.57145 21.3145 7.57145 20.3486 7.57233 19.3827C7.57233 18.4168 7.57233 17.45 7.57056 16.4841C7.56968 16.0059 7.56349 15.5208 7.55729 15.0513C7.55021 14.4941 7.54314 13.9179 7.54402 13.3521C7.54756 11.5122 7.55552 9.64203 7.56349 7.83345C7.56703 7.05412 7.57056 6.27393 7.57322 5.49461C7.57499 4.98866 7.81742 4.7526 8.33504 4.75174C9.65605 4.75087 10.9797 4.75087 12.3025 4.75087C13.5802 4.75087 14.8578 4.75087 16.1346 4.75C16.646 4.75 17.0645 4.91923 17.4149 5.2681C17.6759 5.52759 17.944 5.78707 18.2033 6.03875C18.4669 6.29389 18.7394 6.55772 19.0031 6.82067C19.1659 6.98296 19.3562 7.05846 19.6004 7.05846C20.0941 7.05586 20.5807 7.05499 21.0674 7.05499L22.8042 7.05586C23.0343 7.05586 23.1909 7.10359 23.3139 7.2112C23.4732 7.35093 23.5448 7.53491 23.5439 7.80741C23.5413 10.1601 23.5395 12.5137 23.5395 14.8665C23.5395 16.3027 23.5404 17.7399 23.5404 19.1762C23.5413 20.9578 23.5413 22.7404 23.5413 24.5221C23.5413 24.6063 23.5333 24.68 23.5174 24.7425C23.4351 25.0679 23.2113 25.2407 22.8706 25.2433C22.6052 25.2459 22.3406 25.2459 22.0752 25.2459L21.0222 25.245ZM10.2745 22.9409C9.86663 22.9409 9.74895 23.0563 9.74718 23.4538C9.7463 23.7792 9.74541 24.1046 9.7463 24.431C9.74718 24.9117 9.89937 25.0584 10.3949 25.0584H22.7007C23.1785 25.0584 23.3404 24.9022 23.3404 24.4388L23.344 14.935C23.344 14.5558 23.3449 14.1756 23.344 13.7964C23.3431 11.8134 23.3422 9.83036 23.3404 7.84733C23.3404 7.40994 23.1829 7.2546 22.7396 7.25286C22.407 7.25199 22.0743 7.25112 21.7407 7.25112C21.3487 7.25112 20.9568 7.25199 20.5639 7.25199H20.3976C20.3392 7.25199 20.2861 7.2572 20.2242 7.26414C20.195 7.26675 20.1631 7.27022 20.1251 7.27369L19.6366 7.31535L19.9392 7.69372C19.9596 7.71889 19.9746 7.73885 19.987 7.75534C20.0127 7.78832 20.0348 7.81696 20.064 7.84647C20.1481 7.92891 20.2321 8.01222 20.3162 8.09467C20.5453 8.32031 20.7816 8.55376 21.0205 8.78026C21.3815 9.12133 21.5558 9.52921 21.5558 10.0274C21.5531 11.5556 21.554 13.0839 21.5549 14.6122L21.5558 17.5559C21.5558 19.1137 21.5558 20.6706 21.5549 22.2284C21.5549 22.6935 21.301 22.94 20.8223 22.9417C20.6444 22.9426 20.4657 22.9426 20.2879 22.9426L10.2745 22.9409ZM8.41113 4.94613C7.9121 4.94613 7.75991 5.09714 7.75991 5.59181L7.75903 8.25435C7.75814 10.3172 7.75814 12.3801 7.75814 14.4421C7.75814 16.8859 7.75903 19.3306 7.75991 21.7745V22.132C7.75991 22.6015 7.91564 22.7517 8.39874 22.7517H14.8268L20.7435 22.7508C20.9152 22.7508 21.093 22.7404 21.2222 22.6128C21.3514 22.4861 21.3611 22.3125 21.3611 22.1468C21.3585 21.443 21.3549 20.7391 21.3514 20.0353C21.3452 18.7162 21.3381 17.3528 21.3372 16.012C21.3363 15.4609 21.3443 14.8994 21.3523 14.3562C21.3585 13.9101 21.3647 13.4493 21.3664 12.9945C21.3691 12.4209 21.3664 11.8377 21.3647 11.2736C21.3629 10.8266 21.3611 10.3797 21.362 9.93363C21.362 9.87201 21.362 9.68543 21.2169 9.55612C21.0992 9.45024 20.9479 9.43809 20.8444 9.43809C20.2905 9.44156 19.7446 9.4433 19.1987 9.4433C18.7253 9.4433 18.2519 9.44243 17.7786 9.44156L17.5034 9.44069C16.9858 9.43983 16.7442 9.20204 16.7433 8.69174C16.7424 8.2127 16.7424 7.73365 16.7424 7.2546C16.7424 6.68789 16.7424 6.12119 16.7416 5.55449C16.7416 5.51023 16.7424 5.47205 16.7442 5.43907C16.7486 5.31063 16.7531 5.17785 16.6433 5.06676C16.523 4.9444 16.3602 4.9444 16.1142 4.9444H11.4142L8.41113 4.94613ZM20.3887 9.24543C20.4126 9.2515 20.4383 9.25498 20.4666 9.25498C20.5692 9.25498 20.663 9.20811 20.717 9.12914C20.7692 9.05277 20.778 8.95644 20.7418 8.87052L20.7223 8.82452L20.6869 8.78894C20.1613 8.26129 19.6092 7.70501 19.0544 7.14698C18.5156 6.60458 17.9741 6.05958 17.4529 5.5354C17.3963 5.47812 17.3202 5.44688 17.2388 5.44688C17.1574 5.44688 17.0796 5.47986 17.0229 5.53627C16.9663 5.59354 16.9362 5.66991 16.9389 5.75062L16.9398 5.76538C16.9406 5.78621 16.9415 5.82265 16.9433 5.91378C16.9424 6.59504 16.9424 7.27976 16.9424 7.96449V8.72212C16.9424 9.04756 17.1495 9.24977 17.483 9.24977C17.8246 9.24977 18.7279 9.2489 18.7279 9.2489H18.9491C19.4163 9.2489 19.8835 9.2489 20.3507 9.24803C20.3639 9.24716 20.3772 9.2463 20.3887 9.24543Z" fill="black"/>
</mask>
<g mask="url(#mask0_4056_20887)">
<path d="M21.0222 25.245H16.8008L16.5372 25.2441H13.6421C12.5264 25.2441 11.4115 25.2441 10.2958 25.2459C10.0631 25.2459 9.90468 25.199 9.77904 25.094C9.6242 24.9647 9.55164 24.7954 9.54987 24.5603L9.54722 24.3355C9.54368 24.0422 9.54014 23.7384 9.55076 23.4425C9.55253 23.3826 9.55872 23.1995 9.42777 23.0667C9.30036 22.9374 9.12428 22.9374 9.06588 22.9374C9.05173 22.9374 9.03757 22.9374 9.02253 22.9383C8.89866 22.9435 8.76682 22.9461 8.63145 22.9461C8.50846 22.9461 8.38105 22.9443 8.24213 22.94C7.813 22.927 7.57499 22.6927 7.5741 22.2804C7.57145 21.3145 7.57145 20.3486 7.57233 19.3827C7.57233 18.4168 7.57233 17.45 7.57056 16.4841C7.56968 16.0059 7.56349 15.5208 7.55729 15.0513C7.55021 14.4941 7.54314 13.9179 7.54402 13.3521C7.54756 11.5122 7.55552 9.64203 7.56349 7.83345C7.56703 7.05412 7.57056 6.27393 7.57322 5.49461C7.57499 4.98866 7.81742 4.7526 8.33504 4.75174C9.65605 4.75087 10.9797 4.75087 12.3025 4.75087C13.5802 4.75087 14.8578 4.75087 16.1346 4.75C16.646 4.75 17.0645 4.91923 17.4149 5.2681C17.6759 5.52759 17.944 5.78707 18.2033 6.03875C18.4669 6.29389 18.7394 6.55772 19.0031 6.82067C19.1659 6.98296 19.3562 7.05846 19.6004 7.05846C20.0941 7.05586 20.5807 7.05499 21.0674 7.05499L22.8042 7.05586C23.0343 7.05586 23.1909 7.10359 23.3139 7.2112C23.4732 7.35093 23.5448 7.53491 23.5439 7.80741C23.5413 10.1601 23.5395 12.5137 23.5395 14.8665C23.5395 16.3027 23.5404 17.7399 23.5404 19.1762C23.5413 20.9578 23.5413 22.7404 23.5413 24.5221C23.5413 24.6063 23.5333 24.68 23.5174 24.7425C23.4351 25.0679 23.2113 25.2407 22.8706 25.2433C22.6052 25.2459 22.3406 25.2459 22.0752 25.2459L21.0222 25.245ZM10.2745 22.9409C9.86663 22.9409 9.74895 23.0563 9.74718 23.4538C9.7463 23.7792 9.74541 24.1046 9.7463 24.431C9.74718 24.9117 9.89937 25.0584 10.3949 25.0584H22.7007C23.1785 25.0584 23.3404 24.9022 23.3404 24.4388L23.344 14.935C23.344 14.5558 23.3449 14.1756 23.344 13.7964C23.3431 11.8134 23.3422 9.83036 23.3404 7.84733C23.3404 7.40994 23.1829 7.2546 22.7396 7.25286C22.407 7.25199 22.0743 7.25112 21.7407 7.25112C21.3487 7.25112 20.9568 7.25199 20.5639 7.25199H20.3976C20.3392 7.25199 20.2861 7.2572 20.2242 7.26414C20.195 7.26675 20.1631 7.27022 20.1251 7.27369L19.6366 7.31535L19.9392 7.69372C19.9596 7.71889 19.9746 7.73885 19.987 7.75534C20.0127 7.78832 20.0348 7.81696 20.064 7.84647C20.1481 7.92891 20.2321 8.01222 20.3162 8.09467C20.5453 8.32031 20.7816 8.55376 21.0205 8.78026C21.3815 9.12133 21.5558 9.52921 21.5558 10.0274C21.5531 11.5556 21.554 13.0839 21.5549 14.6122L21.5558 17.5559C21.5558 19.1137 21.5558 20.6706 21.5549 22.2284C21.5549 22.6935 21.301 22.94 20.8223 22.9417C20.6444 22.9426 20.4657 22.9426 20.2879 22.9426L10.2745 22.9409ZM8.41113 4.94613C7.9121 4.94613 7.75991 5.09714 7.75991 5.59181L7.75903 8.25435C7.75814 10.3172 7.75814 12.3801 7.75814 14.4421C7.75814 16.8859 7.75903 19.3306 7.75991 21.7745V22.132C7.75991 22.6015 7.91564 22.7517 8.39874 22.7517H14.8268L20.7435 22.7508C20.9152 22.7508 21.093 22.7404 21.2222 22.6128C21.3514 22.4861 21.3611 22.3125 21.3611 22.1468C21.3585 21.443 21.3549 20.7391 21.3514 20.0353C21.3452 18.7162 21.3381 17.3528 21.3372 16.012C21.3363 15.4609 21.3443 14.8994 21.3523 14.3562C21.3585 13.9101 21.3647 13.4493 21.3664 12.9945C21.3691 12.4209 21.3664 11.8377 21.3647 11.2736C21.3629 10.8266 21.3611 10.3797 21.362 9.93363C21.362 9.87201 21.362 9.68543 21.2169 9.55612C21.0992 9.45024 20.9479 9.43809 20.8444 9.43809C20.2905 9.44156 19.7446 9.4433 19.1987 9.4433C18.7253 9.4433 18.2519 9.44243 17.7786 9.44156L17.5034 9.44069C16.9858 9.43983 16.7442 9.20204 16.7433 8.69174C16.7424 8.2127 16.7424 7.73365 16.7424 7.2546C16.7424 6.68789 16.7424 6.12119 16.7416 5.55449C16.7416 5.51023 16.7424 5.47205 16.7442 5.43907C16.7486 5.31063 16.7531 5.17785 16.6433 5.06676C16.523 4.9444 16.3602 4.9444 16.1142 4.9444H11.4142L8.41113 4.94613ZM20.3887 9.24543C20.4126 9.2515 20.4383 9.25498 20.4666 9.25498C20.5692 9.25498 20.663 9.20811 20.717 9.12914C20.7692 9.05277 20.778 8.95644 20.7418 8.87052L20.7223 8.82452L20.6869 8.78894C20.1613 8.26129 19.6092 7.70501 19.0544 7.14698C18.5156 6.60458 17.9741 6.05958 17.4529 5.5354C17.3963 5.47812 17.3202 5.44688 17.2388 5.44688C17.1574 5.44688 17.0796 5.47986 17.0229 5.53627C16.9663 5.59354 16.9362 5.66991 16.9389 5.75062L16.9398 5.76538C16.9406 5.78621 16.9415 5.82265 16.9433 5.91378C16.9424 6.59504 16.9424 7.27976 16.9424 7.96449V8.72212C16.9424 9.04756 17.1495 9.24977 17.483 9.24977C17.8246 9.24977 18.7279 9.2489 18.7279 9.2489H18.9491C19.4163 9.2489 19.8835 9.2489 20.3507 9.24803C20.3639 9.24716 20.3772 9.2463 20.3887 9.24543Z" stroke="#030302" stroke-width="0.8"/>
</g>
<path d="M10.7744 17.6094H18.2021" stroke="#030302" stroke-width="0.4" stroke-linecap="round"/>
<path d="M10.7744 18.8438H16.6401" stroke="#030302" stroke-width="0.4" stroke-linecap="round"/>
<path d="M10.7744 20.0078H15.167" stroke="#030302" stroke-width="0.4" stroke-linecap="round"/>
<path d="M16.2925 15.1566V13.4054C16.292 13.3724 16.2837 13.34 16.2682 13.3109C16.2543 13.2878 16.2334 13.2698 16.2086 13.2593C16.1825 13.2488 16.1551 13.2416 16.1272 13.2378C16.0977 13.234 16.068 13.2322 16.0382 13.2322H15.946V11.5407C15.9569 11.5174 15.9723 11.4894 15.9921 11.4569C16.012 11.4243 16.0309 11.3883 16.0489 11.3488C16.0669 11.3089 16.0831 11.2719 16.0974 11.238C16.1097 11.2114 16.1171 11.1829 16.1192 11.1538C16.1142 11.1162 16.1061 11.0792 16.095 11.0429C16.079 10.9853 16.0608 10.9284 16.0406 10.8721L15.9783 10.6989C15.9637 10.6597 15.9503 10.6201 15.9381 10.5801C15.9249 10.5457 15.9023 10.5157 15.8729 10.4935C15.8441 10.4719 15.8089 10.4604 15.7728 10.461H15.08C15.043 10.4625 15.0073 10.4748 14.9771 10.4963C14.9475 10.5164 14.9255 10.546 14.9148 10.5801C14.9058 10.6071 14.8913 10.6477 14.8715 10.7017C14.8506 10.7591 14.8309 10.8168 14.8122 10.8749C14.7921 10.9361 14.774 10.993 14.7579 11.0457C14.7417 11.0979 14.7336 11.1339 14.7336 11.1538C14.7336 11.1792 14.7409 11.208 14.7554 11.2404C14.7695 11.2727 14.7866 11.3089 14.8067 11.3488C14.8389 11.4134 14.8723 11.4774 14.9068 11.5407V13.2322H14.8147C14.7823 13.2322 14.7517 13.2341 14.7229 13.2378C14.6945 13.241 14.667 13.2492 14.6415 13.262C14.6176 13.2737 14.5972 13.2913 14.5822 13.3133C14.5665 13.3414 14.559 13.3733 14.5604 13.4054V15.1566C14.5604 15.2736 14.5838 15.3837 14.6307 15.4867C14.6776 15.5897 14.7408 15.6799 14.8202 15.7572C14.9823 15.9155 15.1999 16.0039 15.4264 16.0035C15.5419 16.0035 15.6519 15.981 15.7566 15.936C15.8586 15.8923 15.9521 15.8309 16.0326 15.7545C16.1123 15.6789 16.1755 15.5897 16.2221 15.4867C16.2689 15.3829 16.2929 15.2704 16.2925 15.1566ZM15.5996 13.2322H15.2532V11.5002C15.2532 11.4728 15.2466 11.4459 15.2342 11.4216L15.0935 11.1403L15.2044 10.8074H15.6485L15.7593 11.1399L15.6187 11.4216C15.6062 11.4459 15.5997 11.4728 15.5996 11.5002V13.2322ZM14.9068 13.9251V13.5787H15.946V13.9251H14.9068ZM15.946 14.2715V15.1375C15.9479 15.2061 15.9344 15.2728 15.9055 15.3377C15.8783 15.4002 15.8398 15.4572 15.7919 15.5057C15.6948 15.6024 15.5634 15.6568 15.4264 15.6571C15.3575 15.6591 15.289 15.6453 15.2262 15.6166C15.1317 15.5771 15.0509 15.5106 14.9941 15.4253C14.9373 15.3401 14.9069 15.24 14.9068 15.1375V14.2715H15.946ZM12.4819 10.6487C12.482 10.6203 12.475 10.5923 12.4617 10.5673C12.4484 10.5422 12.4291 10.5207 12.4056 10.5049C12.382 10.489 12.3549 10.4791 12.3267 10.4762C12.2985 10.4733 12.2699 10.4773 12.2436 10.488C11.965 10.6007 11.7249 10.7914 11.5522 11.0374C11.3795 11.2833 11.2816 11.5739 11.2702 11.8742C11.2588 12.1745 11.3344 12.4716 11.4879 12.73C11.6414 12.9883 11.8663 13.1968 12.1355 13.3303V15.3107C12.1355 15.4945 12.2085 15.6707 12.3384 15.8006C12.4684 15.9305 12.6446 16.0035 12.8283 16.0035C13.0121 16.0035 13.1883 15.9305 13.3182 15.8006C13.4482 15.6707 13.5212 15.4945 13.5212 15.3107V13.3306C13.7905 13.1972 14.0155 12.9888 14.1692 12.7304C14.3228 12.4721 14.3984 12.1748 14.387 11.8745C14.3756 11.5741 14.2776 11.2835 14.1048 11.0376C13.932 10.7916 13.6918 10.6009 13.4131 10.4883C13.3868 10.4776 13.3582 10.4736 13.33 10.4765C13.3017 10.4795 13.2747 10.4893 13.2511 10.5052C13.2276 10.5211 13.2083 10.5425 13.195 10.5676C13.1817 10.5927 13.1747 10.6207 13.1748 10.6491V11.8466C13.1748 11.9385 13.1383 12.0266 13.0733 12.0915C13.0083 12.1565 12.9202 12.193 12.8283 12.193C12.7365 12.193 12.6484 12.1565 12.5834 12.0915C12.5184 12.0266 12.4819 11.9385 12.4819 11.8466V10.6487ZM11.6159 11.9339C11.6159 11.5217 11.8213 11.1579 12.1355 10.9383V11.8459C12.1355 12.0297 12.2085 12.2059 12.3384 12.3358C12.4684 12.4657 12.6446 12.5387 12.8283 12.5387C13.0121 12.5387 13.1883 12.4657 13.3182 12.3358C13.4482 12.2059 13.5212 12.0297 13.5212 11.8459V10.9383C13.7005 11.0632 13.8428 11.2342 13.933 11.4332C14.0231 11.6323 14.0578 11.852 14.0334 12.0691C14.009 12.2863 13.9264 12.4928 13.7942 12.6669C13.6621 12.841 13.4854 12.9761 13.2828 13.058C13.2509 13.071 13.2236 13.0931 13.2043 13.1217C13.1851 13.1503 13.1748 13.1839 13.1748 13.2184V15.3107C13.1748 15.4026 13.1383 15.4907 13.0733 15.5557C13.0083 15.6206 12.9202 15.6571 12.8283 15.6571C12.7365 15.6571 12.6484 15.6206 12.5834 15.5557C12.5184 15.4907 12.4819 15.4026 12.4819 15.3107V13.2184C12.4819 13.1839 12.4716 13.1503 12.4524 13.1217C12.4331 13.0931 12.4058 13.071 12.3739 13.058C12.1498 12.9674 11.9579 12.8119 11.8229 12.6115C11.6878 12.4111 11.6158 12.1749 11.6159 11.9332" fill="#030302"/>
<circle cx="9.5769" cy="17.6096" r="0.250244" fill="#030302"/>
<circle cx="9.5769" cy="18.844" r="0.250244" fill="#030302"/>
<circle cx="9.5769" cy="20.0081" r="0.250244" fill="#030302"/>
</svg>
