<svg width="30" height="30" viewBox="0 0 30 30" fill="none" xmlns="http://www.w3.org/2000/svg">
<path d="M22.7453 15.9975C23.4476 14.9881 23.8715 13.8115 23.9744 12.5861C24.0774 11.3607 23.8558 10.1299 23.3318 9.01737C22.8078 7.9049 22.0001 6.95008 20.9898 6.24902C19.9795 5.54796 18.8024 5.12541 17.5769 5.0239C16.3514 4.92238 15.1208 5.14549 14.0089 5.67075C12.8971 6.19602 11.9432 7.00491 11.2433 8.01601C10.5435 9.02711 10.1223 10.2047 10.0222 11.4303C9.92217 12.656 10.1467 13.8863 10.6733 14.9975" stroke="#030302" stroke-linecap="round" stroke-linejoin="round"/>
<path d="M17.001 9C15.896 9 15.001 9.672 15.001 10.5C15.001 11.328 15.896 12 17.001 12C18.106 12 19.001 12.672 19.001 13.5C19.001 14.328 18.106 15 17.001 15M17.001 9C17.871 9 18.613 9.417 18.887 10M17.001 9V8M17.001 15C16.131 15 15.389 14.583 15.115 14M17.001 15V16M6.00098 17H8.39598C8.68998 17 8.97998 17.066 9.24298 17.194L11.285 18.182C11.548 18.309 11.838 18.375 12.133 18.375H13.175C14.183 18.375 15.001 19.166 15.001 20.142C15.001 20.182 14.974 20.216 14.935 20.227L12.394 20.93C11.938 21.056 11.4518 21.0119 11.026 20.806L8.84298 19.75M15.001 19.5L19.594 18.089C19.9938 17.9663 20.4222 17.9731 20.818 18.1083C21.2138 18.2435 21.5568 18.5003 21.798 18.842C22.167 19.352 22.017 20.084 21.479 20.394L13.964 24.731C13.729 24.867 13.4688 24.9537 13.1992 24.9858C12.9296 25.018 12.6563 24.9949 12.396 24.918L6.00098 23.02" stroke="#030302" stroke-linecap="round" stroke-linejoin="round"/>
</svg>
