<svg width="58" height="58" viewBox="0 0 58 58" fill="none" xmlns="http://www.w3.org/2000/svg">
<path d="M35.4371 8.0472C35.4869 7.86061 35.5729 7.68564 35.6903 7.53232C35.8077 7.379 35.9542 7.25033 36.1214 7.15366C36.2886 7.05699 36.4732 6.99422 36.6646 6.96895C36.8561 6.94367 37.0506 6.95638 37.2372 7.00635C40.7862 7.93215 44.0243 9.78742 46.6179 12.381C49.2114 14.9747 51.0667 18.2128 51.9924 21.762C52.0424 21.9486 52.0551 22.1431 52.0298 22.3346C52.0046 22.526 51.9418 22.7106 51.8451 22.8778C51.7485 23.045 51.6198 23.1915 51.4665 23.3089C51.3132 23.4263 51.1382 23.5123 50.9516 23.5621C50.8278 23.5949 50.7001 23.6114 50.572 23.6111C50.2483 23.6113 49.9335 23.5045 49.6767 23.3075C49.4198 23.1104 49.2352 22.834 49.1516 22.5212C48.3568 19.4726 46.7634 16.6911 44.5357 14.4633C42.308 12.2355 39.5265 10.6421 36.478 9.84727C36.2914 9.79753 36.1164 9.71148 35.9631 9.59407C35.8098 9.47665 35.6811 9.33017 35.5844 9.16299C35.4878 8.99581 35.425 8.81121 35.3997 8.61976C35.3745 8.4283 35.3872 8.23374 35.4371 8.0472ZM34.5188 17.6843C38.0821 18.6346 40.3645 20.9171 41.3148 24.4805C41.3984 24.7933 41.583 25.0697 41.8398 25.2667C42.0967 25.4638 42.4114 25.5705 42.7352 25.5703C42.8633 25.5706 42.9909 25.5542 43.1148 25.5214C43.3014 25.4716 43.4763 25.3856 43.6297 25.2681C43.783 25.1507 43.9116 25.0042 44.0083 24.8371C44.105 24.6699 44.1677 24.4853 44.193 24.2938C44.2183 24.1024 44.2056 23.9078 44.1556 23.7213C42.9311 19.1391 39.86 16.0679 35.2779 14.8434C35.0914 14.7935 34.8969 14.7809 34.7055 14.8062C34.5141 14.8316 34.3295 14.8944 34.1624 14.991C33.9952 15.0877 33.8488 15.2163 33.7313 15.3696C33.6139 15.5228 33.5278 15.6977 33.4779 15.8842C33.4281 16.0708 33.4155 16.2653 33.4408 16.4567C33.4661 16.6481 33.5289 16.8327 33.6255 16.9998C33.7222 17.167 33.8508 17.3135 34.0041 17.4309C34.1573 17.5484 34.3322 17.6345 34.5188 17.6843ZM53.9737 41.4403C53.5541 44.6419 51.983 47.581 49.5541 49.7084C47.1253 51.8358 44.0048 53.0059 40.776 53C21.6002 53 6.00002 37.3994 6.00002 18.2231C5.99384 14.9953 7.16286 11.8757 9.28873 9.4469C11.4146 7.01811 14.3519 5.44629 17.552 5.02505C18.2887 4.93552 19.0345 5.08742 19.6775 5.45793C20.3204 5.82844 20.8258 6.39756 21.1178 7.07982L26.2852 18.615C26.5133 19.1372 26.6077 19.708 26.5599 20.2759C26.512 20.8437 26.3233 21.3907 26.0109 21.8673C25.9794 21.9159 25.945 21.9625 25.908 22.0069L20.748 28.1443C20.7166 28.2079 20.7003 28.2779 20.7003 28.3488C20.7003 28.4197 20.7166 28.4897 20.748 28.5533C22.6239 32.3935 26.6501 36.3904 30.544 38.2639C30.609 38.2935 30.68 38.3076 30.7515 38.3051C30.8229 38.3025 30.8927 38.2834 30.9554 38.2492L37.002 33.1061C37.0453 33.0687 37.0911 33.0343 37.1392 33.0033C37.6137 32.6869 38.1596 32.4939 38.7275 32.4417C39.2954 32.3896 39.8673 32.4799 40.3915 32.7045L51.9606 37.8892C52.6338 38.1875 53.193 38.6947 53.5556 39.3356C53.9181 39.9764 54.0647 40.717 53.9737 41.4477V41.4403ZM51.0618 41.0779C51.07 40.9755 51.0458 40.8731 50.9927 40.7852C50.9395 40.6973 50.86 40.6283 50.7655 40.5881L39.1939 35.4034C39.1307 35.379 39.0629 35.3685 38.9953 35.3728C38.9277 35.377 38.8618 35.3958 38.8021 35.4279L32.7579 40.5709C32.7138 40.6077 32.6673 40.6419 32.6208 40.6738C32.1278 41.0026 31.5579 41.1979 30.9669 41.2409C30.3759 41.2838 29.7838 41.1728 29.2485 40.9187C24.7521 38.7464 20.2704 34.3062 18.0981 29.8513C17.8426 29.3191 17.7289 28.7299 17.768 28.1408C17.807 27.5517 17.9975 26.9826 18.321 26.4887C18.3527 26.4398 18.3879 26.3931 18.4263 26.3491L23.5815 20.2044C23.6109 20.1403 23.6262 20.0705 23.6262 19.9999C23.6262 19.9293 23.6109 19.8596 23.5815 19.7954L18.4263 8.25782C18.3923 8.16517 18.331 8.08496 18.2506 8.02771C18.1702 7.97046 18.0744 7.93884 17.9757 7.937H17.9194C15.4286 8.26833 13.1435 9.49496 11.4909 11.3878C9.83834 13.2807 8.93117 15.7103 8.93884 18.2231C8.93884 35.7781 23.2215 50.0611 40.776 50.0611C43.2891 50.0687 45.719 49.1611 47.6118 47.508C49.5047 45.8549 50.731 43.5692 51.0618 41.0779Z" fill="#1E1E1E"/>
</svg>
