<svg width="53" height="53" viewBox="0 0 53 53" fill="none" xmlns="http://www.w3.org/2000/svg">
<circle cx="26.5" cy="26.5" r="26.5" fill="white"/>
<path d="M8.57812 22.3359C8.6875 21.7891 8.76042 21.3516 8.79688 21.0234C8.83333 20.6589 8.70573 20.276 8.41406 19.875C8.5599 19.2917 8.66927 18.8359 8.74219 18.5078C8.85156 18.1797 8.86979 17.724 8.79688 17.1406C9.125 16.1927 9.61719 15.3906 10.2734 14.7344C10.9661 14.0781 11.7135 13.5312 12.5156 13.0938C13.3177 12.6198 14.1562 12.237 15.0312 11.9453C15.9062 11.6172 16.7266 11.3438 17.4922 11.125C17.4922 10.9792 17.4193 10.9062 17.2734 10.9062C17.1276 10.9062 17.0911 10.8151 17.1641 10.6328C19.1328 10.2682 21.1016 9.73958 23.0703 9.04688C25.0755 8.35417 27.1172 7.73438 29.1953 7.1875C31.2734 6.64062 33.4062 6.3125 35.5938 6.20312C37.7812 6.05729 40.0781 6.33073 42.4844 7.02344C42.6302 7.46094 42.8307 7.88021 43.0859 8.28125C43.3411 8.68229 43.5964 9.08333 43.8516 9.48438C44.1432 9.84896 44.3984 10.2135 44.6172 10.5781C44.8359 10.9427 44.9635 11.3255 45 11.7266C45.4375 12.1276 45.7839 12.5651 46.0391 13.0391C46.3307 13.4766 46.3854 14.0781 46.2031 14.8438C45.8021 15.1354 45.3828 15.4271 44.9453 15.7188C44.5078 16.0104 44.0521 16.2839 43.5781 16.5391C41.9375 16.138 40.2969 15.9922 38.6562 16.1016C37.0156 16.2109 35.5391 16.3385 34.2266 16.4844C33.8255 16.0469 33.3516 15.8464 32.8047 15.8828C32.2578 15.8828 31.6745 15.974 31.0547 16.1562C30.4714 16.3021 29.888 16.4661 29.3047 16.6484C28.7214 16.7943 28.1745 16.8307 27.6641 16.7578C27.263 17.1224 26.7344 17.3776 26.0781 17.5234C25.4219 17.6328 24.7292 17.724 24 17.7969C23.9635 17.9792 24 18.1068 24.1094 18.1797C24.2188 18.2526 24.237 18.3984 24.1641 18.6172C24.4193 18.9453 24.7656 19.1823 25.2031 19.3281C25.6406 19.4375 26.0781 19.5469 26.5156 19.6562C26.9896 19.7656 27.4089 19.9297 27.7734 20.1484C28.138 20.3307 28.375 20.6406 28.4844 21.0781C29.1406 21.1146 29.7057 21.2969 30.1797 21.625C30.6536 21.9167 31.0547 22.2812 31.3828 22.7188C31.7109 23.1562 31.9479 23.6302 32.0938 24.1406C32.2396 24.6146 32.2943 25.0521 32.2578 25.4531C32.4036 25.8177 32.5495 25.9635 32.6953 25.8906C32.8776 25.8177 33.0781 25.9089 33.2969 26.1641C33.4427 26.7109 33.7708 27.2943 34.2812 27.9141C34.8281 28.4974 35.2474 29.1354 35.5391 29.8281C35.612 30.9219 35.6667 31.9062 35.7031 32.7812C35.776 33.6562 35.6302 34.513 35.2656 35.3516C34.6458 36.9557 33.7526 38.3958 32.5859 39.6719C31.4193 40.9479 30.0885 42.0781 28.5938 43.0625C27.1354 44.0104 25.5859 44.849 23.9453 45.5781C22.3047 46.2708 20.6823 46.8542 19.0781 47.3281C18.9323 47.2917 18.75 47.2917 18.5312 47.3281C18.349 47.3646 18.3125 47.2552 18.4219 47C18.0938 47.2917 17.7109 47.474 17.2734 47.5469C16.8724 47.6198 16.4167 47.638 15.9062 47.6016C15.4323 47.6016 14.9401 47.5833 14.4297 47.5469C13.9557 47.5104 13.4818 47.5286 13.0078 47.6016C12.7161 47.3099 12.4427 47.0182 12.1875 46.7266C11.9688 46.4349 11.7865 46.0885 11.6406 45.6875C11.4583 45.651 11.3672 45.5417 11.3672 45.3594C11.4036 45.1406 11.3307 45.0312 11.1484 45.0312C11.1484 44.8854 11.1667 44.776 11.2031 44.7031C11.2396 44.6302 11.276 44.5573 11.3125 44.4844C11.4583 44.375 11.513 44.3021 11.4766 44.2656C11.4766 44.1927 11.4219 44.138 11.3125 44.1016C11.2396 44.0286 11.1484 43.9557 11.0391 43.8828C10.9661 43.8099 10.9479 43.7188 10.9844 43.6094C11.1667 43.2812 11.2214 42.8984 11.1484 42.4609C11.112 41.987 11.0755 41.513 11.0391 41.0391C11.0026 40.5651 11.0391 40.1276 11.1484 39.7266C11.2578 39.2891 11.5677 38.9245 12.0781 38.6328C13.5729 38.7786 14.9766 38.7057 16.2891 38.4141C17.638 38.1224 18.8958 37.7214 20.0625 37.2109C21.2656 36.7005 22.3958 36.1536 23.4531 35.5703C24.5469 34.9505 25.6042 34.3854 26.625 33.875C26.7344 33.5104 26.8984 33.2005 27.1172 32.9453C27.3724 32.6901 27.6276 32.4531 27.8828 32.2344C28.138 31.9792 28.375 31.724 28.5938 31.4688C28.8125 31.1771 28.9766 30.8307 29.0859 30.4297C29.1224 30.2839 29.1224 30.1745 29.0859 30.1016C29.0495 30.0286 28.9948 29.974 28.9219 29.9375C28.849 29.8646 28.776 29.7917 28.7031 29.7188C28.6302 29.6458 28.5938 29.5365 28.5938 29.3906C28.4844 29.3542 28.375 29.3177 28.2656 29.2812C28.1927 29.2448 28.1198 29.2266 28.0469 29.2266C27.099 28.7526 26.0964 28.3516 25.0391 28.0234C23.9818 27.6953 23.0885 27.3307 22.3594 26.9297C21.9219 27.2214 21.4844 27.2943 21.0469 27.1484C20.6094 27.0026 20.0807 26.8568 19.4609 26.7109C17.9297 26.638 16.4714 26.4922 15.0859 26.2734C13.737 26.0547 12.4245 25.6719 11.1484 25.125C11.0755 24.9062 10.9844 24.724 10.875 24.5781C10.7656 24.3958 10.5104 24.3411 10.1094 24.4141C9.85417 24.0495 9.58073 23.7214 9.28906 23.4297C9.03385 23.1016 8.79688 22.737 8.57812 22.3359Z" fill="#030302"/>
</svg>
