<svg width="31" height="31" viewBox="0 0 31 31" fill="none" xmlns="http://www.w3.org/2000/svg">
<path d="M5.56224 21.9874L5.35643 21.8476C4.82565 21.4871 4.7669 20.7271 5.23598 20.2893L12.5548 13.4587L20.2595 6.26793C20.5756 5.97293 21.0455 5.91448 21.4242 6.12305L21.7074 6.27896C22.3045 6.60779 22.4048 7.42458 21.905 7.88813L6.8041 21.8934C6.46257 22.2101 5.94757 22.2491 5.56224 21.9874Z" stroke="#030302"/>
<path d="M8.77453 23.3414L24.0748 9.05028C24.4299 8.7186 24.972 8.69018 25.3598 8.98293L25.6382 9.19306C26.135 9.56801 26.1722 10.3008 25.7161 10.7241L18.1252 17.7699L10.3412 24.995C9.957 25.3516 9.36264 25.351 8.97915 24.9937L8.77539 24.8038C8.35138 24.4087 8.35098 23.737 8.77453 23.3414Z" stroke="#030302"/>
<path d="M22.459 8.76562L7.53029 22.7316" stroke="#030302" stroke-width="0.5"/>
<line y1="-0.25" x2="1.32527" y2="-0.25" transform="matrix(-0.439671 -0.898159 0.897756 -0.440493 7.82153 22.5781)" stroke="#030302" stroke-width="0.5"/>
<line y1="-0.25" x2="1.31924" y2="-0.25" transform="matrix(-0.37102 -0.928625 0.928328 -0.371762 22.553 8.82812)" stroke="#030302" stroke-width="0.5"/>
<line y1="-0.25" x2="1.47921" y2="-0.25" transform="matrix(0.787665 0.616104 -0.615219 0.788356 7.34741 22.7734)" stroke="#030302" stroke-width="0.5"/>
<line y1="-0.25" x2="1.3185" y2="-0.25" transform="matrix(0.787665 0.616104 -0.615219 0.788356 22.0635 9.09375)" stroke="#030302" stroke-width="0.5"/>
</svg>
