<svg width="451" height="451" viewBox="0 0 451 451" fill="none" xmlns="http://www.w3.org/2000/svg">
<path d="M225.5 447C347.831 447 447 347.831 447 225.5C447 103.169 347.831 4 225.5 4C103.169 4 4 103.169 4 225.5C4 347.831 103.169 447 225.5 447Z" fill="#FDFDFC" stroke="#2D2B24" stroke-width="7" stroke-miterlimit="10" stroke-linejoin="round"/>
<path d="M137.769 300.87C137.769 300.87 101.206 430.257 9.76562 275.898" stroke="#2D2B24" stroke-width="7" stroke-miterlimit="10" stroke-linejoin="round"/>
<path d="M311.627 108.648H301.834C297.46 108.648 293.914 112.194 293.914 116.568V170.735C293.914 175.109 297.46 178.654 301.834 178.654H311.627C316.001 178.654 319.547 175.109 319.547 170.735V116.568C319.547 112.194 316.001 108.648 311.627 108.648Z" stroke="#2D2B24" stroke-width="7" stroke-miterlimit="10" stroke-linejoin="round"/>
<path d="M243.004 119.07L219.244 141.153L231.118 147.824L223.002 168.242L248.414 145.743L236.333 138.24L243.004 119.07Z" fill="#2D2B24" stroke="#2D2B24" stroke-width="2" stroke-miterlimit="10" stroke-linejoin="round"/>
<path d="M131.182 232.242C131.182 232.242 123.262 248.497 142.431 253.076C154.134 255.879 164.587 261.767 176.02 264.802C184.687 267.104 192.215 264.154 194.1 254.74C197.846 235.987 207.847 197.649 231.19 198.065C246.161 198.065 261.303 198.567 276.213 198.456C285.21 198.383 287.609 190.757 287.45 182.653C287.107 166.263 287.254 149.86 287.303 133.469C287.327 124.264 288.796 115.157 288.001 105.927C286.826 92.3029 280.179 90.3444 267.032 90.5647C254.032 90.7851 241.02 90.7728 228.02 90.7116C206.819 90.6015 184.185 86.8312 174.527 110.566C164.526 135.159 131.194 232.242 131.194 232.242H131.182Z" stroke="#2D2B24" stroke-width="7" stroke-miterlimit="10" stroke-linejoin="round"/>
<path d="M165.316 273.189L139.274 263.359C135.662 261.996 131.629 263.818 130.266 267.43L125.619 279.741C124.256 283.353 126.078 287.385 129.69 288.749L155.732 298.579C159.344 299.942 163.377 298.119 164.74 294.508L169.387 282.197C170.75 278.585 168.927 274.552 165.316 273.189Z" stroke="#2D2B24" stroke-width="7" stroke-miterlimit="10" stroke-linejoin="round"/>
</svg>
